<?xml version="1.0" encoding="UTF-8" standalone="no"?>
<!DOCTYPE svg PUBLIC "-//W3C//DTD SVG 1.1//EN"
 "http://www.w3.org/Graphics/SVG/1.1/DTD/svg11.dtd">
<!-- Generated by graphviz version 2.42.3 (0)
 -->
<!-- Title: inheritance552e017e23 Pages: 1 -->
<svg width="576pt" height="25pt"
 viewBox="0.00 0.00 576.00 24.79" xmlns="http://www.w3.org/2000/svg" xmlns:xlink="http://www.w3.org/1999/xlink">
<g id="graph0" class="graph" transform="scale(1.37 1.37) rotate(0) translate(4 30)">
<title>inheritance552e017e23</title>
<polygon fill="white" stroke="transparent" points="-4,4 -4,-30 786,-30 786,4 -4,4"/>
<!-- matplotlib.artist.Artist -->
<g id="node1" class="node">
<title>matplotlib.artist.Artist</title>
<g id="a_node1"><a xlink:href="../artist_api.html#matplotlib.artist.Artist" xlink:title="Abstract base class for objects that render into a FigureCanvas." target="_top">
<polygon fill="none" stroke="black" stroke-width="0.5" points="193,-26 0,-26 0,0 193,0 193,-26"/>
<text text-anchor="middle" x="96.5" y="-9.2" font-family="Vera Sans, DejaVu Sans, Liberation Sans, Arial, Helvetica, sans" font-size="16.00">matplotlib.artist.Artist</text>
</a>
</g>
</g>
<!-- matplotlib.axes._base._AxesBase -->
<g id="node3" class="node">
<title>matplotlib.axes._base._AxesBase</title>
<polygon fill="none" stroke="black" stroke-width="0.5" points="512,-26 229,-26 229,0 512,0 512,-26"/>
<text text-anchor="middle" x="370.5" y="-9.2" font-family="Vera Sans, DejaVu Sans, Liberation Sans, Arial, Helvetica, sans" font-size="16.00">matplotlib.axes._base._AxesBase</text>
</g>
<!-- matplotlib.artist.Artist&#45;&gt;matplotlib.axes._base._AxesBase -->
<g id="edge2" class="edge">
<title>matplotlib.artist.Artist&#45;&gt;matplotlib.axes._base._AxesBase</title>
<path fill="none" stroke="black" stroke-width="0.5" d="M193.01,-13C203.01,-13 213.33,-13 223.73,-13"/>
<polygon fill="black" stroke="black" stroke-width="0.5" points="223.83,-14.75 228.83,-13 223.83,-11.25 223.83,-14.75"/>
</g>
<!-- matplotlib.axes._axes.Axes -->
<g id="node2" class="node">
<title>matplotlib.axes._axes.Axes</title>
<g id="a_node2"><a xlink:title="The `Axes` contains most of the figure elements: `~.axis.Axis`,">
<polygon fill="none" stroke="black" stroke-width="0.5" points="782,-26 548,-26 548,0 782,0 782,-26"/>
<text text-anchor="middle" x="665" y="-9.2" font-family="Vera Sans, DejaVu Sans, Liberation Sans, Arial, Helvetica, sans" font-size="16.00">matplotlib.axes._axes.Axes</text>
</a>
</g>
</g>
<!-- matplotlib.axes._base._AxesBase&#45;&gt;matplotlib.axes._axes.Axes -->
<g id="edge1" class="edge">
<title>matplotlib.axes._base._AxesBase&#45;&gt;matplotlib.axes._axes.Axes</title>
<path fill="none" stroke="black" stroke-width="0.5" d="M512.18,-13C522.28,-13 532.41,-13 542.38,-13"/>
<polygon fill="black" stroke="black" stroke-width="0.5" points="542.58,-14.75 547.58,-13 542.58,-11.25 542.58,-14.75"/>
</g>
</g>
</svg>
