<?xml version="1.0" encoding="UTF-8" standalone="no"?>
<!DOCTYPE svg PUBLIC "-//W3C//DTD SVG 1.1//EN"
 "http://www.w3.org/Graphics/SVG/1.1/DTD/svg11.dtd">
<!-- Generated by graphviz version 2.42.3 (0)
 -->
<!-- Title: inheritance276f87eef3 Pages: 1 -->
<svg width="505pt" height="430pt"
 viewBox="0.00 0.00 505.00 430.00" xmlns="http://www.w3.org/2000/svg" xmlns:xlink="http://www.w3.org/1999/xlink">
<g id="graph0" class="graph" transform="scale(1 1) rotate(0) translate(4 426)">
<title>inheritance276f87eef3</title>
<!-- AxesWidget -->
<g id="node1" class="node">
<title>AxesWidget</title>
<g id="a_node1"><a xlink:href="../api/widgets_api.html#matplotlib.widgets.AxesWidget" xlink:title="Widget that is connected to a single `~matplotlib.axes.Axes`." target="_top">
<polygon fill="white" stroke="black" stroke-width="0.5" points="322,-158 210,-158 210,-132 322,-132 322,-158"/>
<text text-anchor="middle" x="266" y="-141.2" font-family="Vera Sans, DejaVu Sans, Liberation Sans, Arial, Helvetica, sans" font-size="16.00">AxesWidget</text>
</a>
</g>
</g>
<!-- Button -->
<g id="node3" class="node">
<title>Button</title>
<g id="a_node3"><a xlink:href="../api/widgets_api.html#matplotlib.widgets.Button" xlink:title="A GUI neutral button." target="_top">
<polygon fill="white" stroke="black" stroke-width="0.5" points="468.5,-290 397.5,-290 397.5,-264 468.5,-264 468.5,-290"/>
<text text-anchor="middle" x="433" y="-273.2" font-family="Vera Sans, DejaVu Sans, Liberation Sans, Arial, Helvetica, sans" font-size="16.00">Button</text>
</a>
</g>
</g>
<!-- AxesWidget&#45;&gt;Button -->
<g id="edge2" class="edge">
<title>AxesWidget&#45;&gt;Button</title>
<path fill="none" stroke="black" stroke-width="0.5" d="M320.49,-158.15C325.03,-160.61 329.3,-163.53 333,-167 363.86,-195.87 338.35,-225.91 369,-255 375.59,-261.26 384.06,-265.75 392.64,-268.96"/>
<polygon fill="black" stroke="black" stroke-width="0.5" points="392.11,-270.63 397.41,-270.62 393.26,-267.32 392.11,-270.63"/>
</g>
<!-- CheckButtons -->
<g id="node4" class="node">
<title>CheckButtons</title>
<g id="a_node4"><a xlink:href="../api/widgets_api.html#matplotlib.widgets.CheckButtons" xlink:title="A GUI neutral set of check buttons." target="_top">
<polygon fill="white" stroke="black" stroke-width="0.5" points="497,-246 369,-246 369,-220 497,-220 497,-246"/>
<text text-anchor="middle" x="433" y="-229.2" font-family="Vera Sans, DejaVu Sans, Liberation Sans, Arial, Helvetica, sans" font-size="16.00">CheckButtons</text>
</a>
</g>
</g>
<!-- AxesWidget&#45;&gt;CheckButtons -->
<g id="edge3" class="edge">
<title>AxesWidget&#45;&gt;CheckButtons</title>
<path fill="none" stroke="black" stroke-width="0.5" d="M316.43,-158C322.26,-160.53 327.93,-163.5 333,-167 353.8,-181.34 348.3,-196.51 369,-211 372.55,-213.48 376.4,-215.71 380.4,-217.7"/>
<polygon fill="black" stroke="black" stroke-width="0.5" points="379.88,-219.39 385.15,-219.93 381.37,-216.22 379.88,-219.39"/>
</g>
<!-- Cursor -->
<g id="node5" class="node">
<title>Cursor</title>
<g id="a_node5"><a xlink:href="../api/widgets_api.html#matplotlib.widgets.Cursor" xlink:title="A crosshair cursor that spans the axes and moves with mouse cursor." target="_top">
<polygon fill="white" stroke="black" stroke-width="0.5" points="468,-202 398,-202 398,-176 468,-176 468,-202"/>
<text text-anchor="middle" x="433" y="-185.2" font-family="Vera Sans, DejaVu Sans, Liberation Sans, Arial, Helvetica, sans" font-size="16.00">Cursor</text>
</a>
</g>
</g>
<!-- AxesWidget&#45;&gt;Cursor -->
<g id="edge4" class="edge">
<title>AxesWidget&#45;&gt;Cursor</title>
<path fill="none" stroke="black" stroke-width="0.5" d="M316.06,-158.08C340.52,-164.61 369.71,-172.39 392.68,-178.51"/>
<polygon fill="black" stroke="black" stroke-width="0.5" points="392.49,-180.28 397.78,-179.87 393.4,-176.89 392.49,-180.28"/>
</g>
<!-- Lasso -->
<g id="node8" class="node">
<title>Lasso</title>
<g id="a_node8"><a xlink:href="../api/widgets_api.html#matplotlib.widgets.Lasso" xlink:title="Selection curve of an arbitrary shape." target="_top">
<polygon fill="white" stroke="black" stroke-width="0.5" points="464,-158 402,-158 402,-132 464,-132 464,-158"/>
<text text-anchor="middle" x="433" y="-141.2" font-family="Vera Sans, DejaVu Sans, Liberation Sans, Arial, Helvetica, sans" font-size="16.00">Lasso</text>
</a>
</g>
</g>
<!-- AxesWidget&#45;&gt;Lasso -->
<g id="edge6" class="edge">
<title>AxesWidget&#45;&gt;Lasso</title>
<path fill="none" stroke="black" stroke-width="0.5" d="M322.4,-145C347.02,-145 375.25,-145 396.9,-145"/>
<polygon fill="black" stroke="black" stroke-width="0.5" points="396.97,-146.75 401.97,-145 396.97,-143.25 396.97,-146.75"/>
</g>
<!-- RadioButtons -->
<g id="node13" class="node">
<title>RadioButtons</title>
<g id="a_node13"><a xlink:href="../api/widgets_api.html#matplotlib.widgets.RadioButtons" xlink:title="A GUI neutral radio button." target="_top">
<polygon fill="white" stroke="black" stroke-width="0.5" points="495,-114 371,-114 371,-88 495,-88 495,-114"/>
<text text-anchor="middle" x="433" y="-97.2" font-family="Vera Sans, DejaVu Sans, Liberation Sans, Arial, Helvetica, sans" font-size="16.00">RadioButtons</text>
</a>
</g>
</g>
<!-- AxesWidget&#45;&gt;RadioButtons -->
<g id="edge8" class="edge">
<title>AxesWidget&#45;&gt;RadioButtons</title>
<path fill="none" stroke="black" stroke-width="0.5" d="M316.06,-131.92C335.59,-126.71 358.13,-120.7 378.11,-115.37"/>
<polygon fill="black" stroke="black" stroke-width="0.5" points="378.75,-117.01 383.13,-114.03 377.85,-113.63 378.75,-117.01"/>
</g>
<!-- Slider -->
<g id="node14" class="node">
<title>Slider</title>
<g id="a_node14"><a xlink:href="../api/widgets_api.html#matplotlib.widgets.Slider" xlink:title="A slider representing a floating point range." target="_top">
<polygon fill="white" stroke="black" stroke-width="0.5" points="464.5,-70 401.5,-70 401.5,-44 464.5,-44 464.5,-70"/>
<text text-anchor="middle" x="433" y="-53.2" font-family="Vera Sans, DejaVu Sans, Liberation Sans, Arial, Helvetica, sans" font-size="16.00">Slider</text>
</a>
</g>
</g>
<!-- AxesWidget&#45;&gt;Slider -->
<g id="edge9" class="edge">
<title>AxesWidget&#45;&gt;Slider</title>
<path fill="none" stroke="black" stroke-width="0.5" d="M316.43,-132C322.26,-129.47 327.93,-126.5 333,-123 353.8,-108.66 348.3,-93.49 369,-79 377.16,-73.29 386.95,-68.93 396.35,-65.66"/>
<polygon fill="black" stroke="black" stroke-width="0.5" points="397.03,-67.28 401.22,-64.05 395.93,-63.96 397.03,-67.28"/>
</g>
<!-- TextBox -->
<g id="node17" class="node">
<title>TextBox</title>
<g id="a_node17"><a xlink:href="../api/widgets_api.html#matplotlib.widgets.TextBox" xlink:title="A GUI neutral text input box." target="_top">
<polygon fill="white" stroke="black" stroke-width="0.5" points="472.5,-26 393.5,-26 393.5,0 472.5,0 472.5,-26"/>
<text text-anchor="middle" x="433" y="-9.2" font-family="Vera Sans, DejaVu Sans, Liberation Sans, Arial, Helvetica, sans" font-size="16.00">TextBox</text>
</a>
</g>
</g>
<!-- AxesWidget&#45;&gt;TextBox -->
<g id="edge11" class="edge">
<title>AxesWidget&#45;&gt;TextBox</title>
<path fill="none" stroke="black" stroke-width="0.5" d="M320.49,-131.85C325.03,-129.39 329.3,-126.47 333,-123 363.86,-94.13 338.35,-64.09 369,-35 374.53,-29.75 381.38,-25.75 388.51,-22.7"/>
<polygon fill="black" stroke="black" stroke-width="0.5" points="389.47,-24.2 393.47,-20.73 388.18,-20.94 389.47,-24.2"/>
</g>
<!-- Widget -->
<g id="node2" class="node">
<title>Widget</title>
<g id="a_node2"><a xlink:href="../api/widgets_api.html#matplotlib.widgets.Widget" xlink:title="Abstract base class for GUI neutral widgets" target="_top">
<polygon fill="white" stroke="black" stroke-width="0.5" points="118.5,-114 44.5,-114 44.5,-88 118.5,-88 118.5,-114"/>
<text text-anchor="middle" x="81.5" y="-97.2" font-family="Vera Sans, DejaVu Sans, Liberation Sans, Arial, Helvetica, sans" font-size="16.00">Widget</text>
</a>
</g>
</g>
<!-- Widget&#45;&gt;AxesWidget -->
<g id="edge1" class="edge">
<title>Widget&#45;&gt;AxesWidget</title>
<path fill="none" stroke="black" stroke-width="0.5" d="M118.56,-109.69C143.5,-115.71 177.25,-123.84 206.07,-130.79"/>
<polygon fill="black" stroke="black" stroke-width="0.5" points="205.75,-132.51 211.02,-131.99 206.57,-129.11 205.75,-132.51"/>
</g>
<!-- MultiCursor -->
<g id="node11" class="node">
<title>MultiCursor</title>
<g id="a_node11"><a xlink:href="../api/widgets_api.html#matplotlib.widgets.MultiCursor" xlink:title="Provide a vertical (default) and/or horizontal line cursor shared between" target="_top">
<polygon fill="white" stroke="black" stroke-width="0.5" points="320.5,-114 211.5,-114 211.5,-88 320.5,-88 320.5,-114"/>
<text text-anchor="middle" x="266" y="-97.2" font-family="Vera Sans, DejaVu Sans, Liberation Sans, Arial, Helvetica, sans" font-size="16.00">MultiCursor</text>
</a>
</g>
</g>
<!-- Widget&#45;&gt;MultiCursor -->
<g id="edge7" class="edge">
<title>Widget&#45;&gt;MultiCursor</title>
<path fill="none" stroke="black" stroke-width="0.5" d="M118.56,-101C143.49,-101 177.24,-101 206.05,-101"/>
<polygon fill="black" stroke="black" stroke-width="0.5" points="206.37,-102.75 211.37,-101 206.37,-99.25 206.37,-102.75"/>
</g>
<!-- SubplotTool -->
<g id="node16" class="node">
<title>SubplotTool</title>
<g id="a_node16"><a xlink:href="../api/widgets_api.html#matplotlib.widgets.SubplotTool" xlink:title="A tool to adjust the subplot params of a `matplotlib.figure.Figure`." target="_top">
<polygon fill="white" stroke="black" stroke-width="0.5" points="321,-70 211,-70 211,-44 321,-44 321,-70"/>
<text text-anchor="middle" x="266" y="-53.2" font-family="Vera Sans, DejaVu Sans, Liberation Sans, Arial, Helvetica, sans" font-size="16.00">SubplotTool</text>
</a>
</g>
</g>
<!-- Widget&#45;&gt;SubplotTool -->
<g id="edge10" class="edge">
<title>Widget&#45;&gt;SubplotTool</title>
<path fill="none" stroke="black" stroke-width="0.5" d="M118.56,-92.31C143.5,-86.29 177.25,-78.16 206.07,-71.21"/>
<polygon fill="black" stroke="black" stroke-width="0.5" points="206.57,-72.89 211.02,-70.01 205.75,-69.49 206.57,-72.89"/>
</g>
<!-- EllipseSelector -->
<g id="node6" class="node">
<title>EllipseSelector</title>
<g id="a_node6"><a xlink:href="../api/widgets_api.html#matplotlib.widgets.EllipseSelector" xlink:title="Select an elliptical region of an axes." target="_top">
<polygon fill="white" stroke="black" stroke-width="0.5" points="333,-202 199,-202 199,-176 333,-176 333,-202"/>
<text text-anchor="middle" x="266" y="-185.2" font-family="Vera Sans, DejaVu Sans, Liberation Sans, Arial, Helvetica, sans" font-size="16.00">EllipseSelector</text>
</a>
</g>
</g>
<!-- RectangleSelector -->
<g id="node7" class="node">
<title>RectangleSelector</title>
<g id="a_node7"><a xlink:href="../api/widgets_api.html#matplotlib.widgets.RectangleSelector" xlink:title="Select a rectangular region of an axes." target="_top">
<polygon fill="white" stroke="black" stroke-width="0.5" points="163,-202 0,-202 0,-176 163,-176 163,-202"/>
<text text-anchor="middle" x="81.5" y="-185.2" font-family="Vera Sans, DejaVu Sans, Liberation Sans, Arial, Helvetica, sans" font-size="16.00">RectangleSelector</text>
</a>
</g>
</g>
<!-- RectangleSelector&#45;&gt;EllipseSelector -->
<g id="edge5" class="edge">
<title>RectangleSelector&#45;&gt;EllipseSelector</title>
<path fill="none" stroke="black" stroke-width="0.5" d="M163.08,-189C173.24,-189 183.59,-189 193.59,-189"/>
<polygon fill="black" stroke="black" stroke-width="0.5" points="193.79,-190.75 198.79,-189 193.79,-187.25 193.79,-190.75"/>
</g>
<!-- LassoSelector -->
<g id="node9" class="node">
<title>LassoSelector</title>
<g id="a_node9"><a xlink:href="../api/widgets_api.html#matplotlib.widgets.LassoSelector" xlink:title="Selection curve of an arbitrary shape." target="_top">
<polygon fill="white" stroke="black" stroke-width="0.5" points="145.5,-246 17.5,-246 17.5,-220 145.5,-220 145.5,-246"/>
<text text-anchor="middle" x="81.5" y="-229.2" font-family="Vera Sans, DejaVu Sans, Liberation Sans, Arial, Helvetica, sans" font-size="16.00">LassoSelector</text>
</a>
</g>
</g>
<!-- LockDraw -->
<g id="node10" class="node">
<title>LockDraw</title>
<g id="a_node10"><a xlink:href="../api/widgets_api.html#matplotlib.widgets.LockDraw" xlink:title="Some widgets, like the cursor, draw onto the canvas, and this is not" target="_top">
<polygon fill="white" stroke="black" stroke-width="0.5" points="129,-290 34,-290 34,-264 129,-264 129,-290"/>
<text text-anchor="middle" x="81.5" y="-273.2" font-family="Vera Sans, DejaVu Sans, Liberation Sans, Arial, Helvetica, sans" font-size="16.00">LockDraw</text>
</a>
</g>
</g>
<!-- PolygonSelector -->
<g id="node12" class="node">
<title>PolygonSelector</title>
<g id="a_node12"><a xlink:href="../api/widgets_api.html#matplotlib.widgets.PolygonSelector" xlink:title="Select a polygon region of an axes." target="_top">
<polygon fill="white" stroke="black" stroke-width="0.5" points="154.5,-334 8.5,-334 8.5,-308 154.5,-308 154.5,-334"/>
<text text-anchor="middle" x="81.5" y="-317.2" font-family="Vera Sans, DejaVu Sans, Liberation Sans, Arial, Helvetica, sans" font-size="16.00">PolygonSelector</text>
</a>
</g>
</g>
<!-- SpanSelector -->
<g id="node15" class="node">
<title>SpanSelector</title>
<g id="a_node15"><a xlink:href="../api/widgets_api.html#matplotlib.widgets.SpanSelector" xlink:title="Visually select a min/max range on a single axis and call a function with" target="_top">
<polygon fill="white" stroke="black" stroke-width="0.5" points="143.5,-378 19.5,-378 19.5,-352 143.5,-352 143.5,-378"/>
<text text-anchor="middle" x="81.5" y="-361.2" font-family="Vera Sans, DejaVu Sans, Liberation Sans, Arial, Helvetica, sans" font-size="16.00">SpanSelector</text>
</a>
</g>
</g>
<!-- ToolHandles -->
<g id="node18" class="node">
<title>ToolHandles</title>
<g id="a_node18"><a xlink:href="../api/widgets_api.html#matplotlib.widgets.ToolHandles" xlink:title="Control handles for canvas tools." target="_top">
<polygon fill="white" stroke="black" stroke-width="0.5" points="138,-422 25,-422 25,-396 138,-396 138,-422"/>
<text text-anchor="middle" x="81.5" y="-405.2" font-family="Vera Sans, DejaVu Sans, Liberation Sans, Arial, Helvetica, sans" font-size="16.00">ToolHandles</text>
</a>
</g>
</g>
</g>
</svg>
