<?xml version="1.0" encoding="UTF-8" standalone="no"?>
<!DOCTYPE svg PUBLIC "-//W3C//DTD SVG 1.1//EN"
 "http://www.w3.org/Graphics/SVG/1.1/DTD/svg11.dtd">
<!-- Generated by graphviz version 2.43.0 (0)
 -->
<!-- Title: inheritance0ca9968ee0 Pages: 1 -->
<svg width="576pt" height="601pt"
 viewBox="0.00 0.00 576.00 601.04" xmlns="http://www.w3.org/2000/svg" xmlns:xlink="http://www.w3.org/1999/xlink">
<g id="graph0" class="graph" transform="scale(1.88 1.88) rotate(0) translate(4 1124)">
<title>inheritance0ca9968ee0</title>
<polygon fill="white" stroke="transparent" points="-4,4 -4,-1124 1077,-1124 1077,4 -4,4"/>
<!-- Accent -->
<g id="node1" class="node">
<title>Accent</title>
<g id="a_node1"><a xlink:href="../api/mathtext_api.html#matplotlib.mathtext.Accent" xlink:title="The font metrics need to be dealt with differently for accents," target="_top">
<polygon fill="none" stroke="black" stroke-width="0.5" points="658,-510 587,-510 587,-484 658,-484 658,-510"/>
<text text-anchor="middle" x="622.5" y="-493.2" font-family="Vera Sans, DejaVu Sans, Liberation Sans, Arial, Helvetica, sans" font-size="16.00">Accent</text>
</a>
</g>
</g>
<!-- Char -->
<g id="node2" class="node">
<title>Char</title>
<g id="a_node2"><a xlink:href="../api/mathtext_api.html#matplotlib.mathtext.Char" xlink:title="Represents a single character. &#160;Unlike TeX, the font information" target="_top">
<polygon fill="none" stroke="black" stroke-width="0.5" points="370.5,-504 315.5,-504 315.5,-478 370.5,-478 370.5,-504"/>
<text text-anchor="middle" x="343" y="-487.2" font-family="Vera Sans, DejaVu Sans, Liberation Sans, Arial, Helvetica, sans" font-size="16.00">Char</text>
</a>
</g>
</g>
<!-- Char&#45;&gt;Accent -->
<g id="edge1" class="edge">
<title>Char&#45;&gt;Accent</title>
<path fill="none" stroke="black" stroke-width="0.5" d="M370.61,-491.58C419.59,-492.63 524.28,-494.9 581.73,-496.14"/>
<polygon fill="black" stroke="black" stroke-width="0.5" points="581.77,-497.89 586.8,-496.25 581.84,-494.39 581.77,-497.89"/>
</g>
<!-- AutoHeightChar -->
<g id="node3" class="node">
<title>AutoHeightChar</title>
<g id="a_node3"><a xlink:href="../api/mathtext_api.html#matplotlib.mathtext.AutoHeightChar" xlink:title=":class:`AutoHeightChar` will create a character as close to the" target="_top">
<polygon fill="none" stroke="black" stroke-width="0.5" points="1068.5,-554 922.5,-554 922.5,-528 1068.5,-528 1068.5,-554"/>
<text text-anchor="middle" x="995.5" y="-537.2" font-family="Vera Sans, DejaVu Sans, Liberation Sans, Arial, Helvetica, sans" font-size="16.00">AutoHeightChar</text>
</a>
</g>
</g>
<!-- Hlist -->
<g id="node4" class="node">
<title>Hlist</title>
<g id="a_node4"><a xlink:href="../api/mathtext_api.html#matplotlib.mathtext.Hlist" xlink:title="A horizontal list of boxes." target="_top">
<polygon fill="none" stroke="black" stroke-width="0.5" points="851,-466 797,-466 797,-440 851,-440 851,-466"/>
<text text-anchor="middle" x="824" y="-449.2" font-family="Vera Sans, DejaVu Sans, Liberation Sans, Arial, Helvetica, sans" font-size="16.00">Hlist</text>
</a>
</g>
</g>
<!-- Hlist&#45;&gt;AutoHeightChar -->
<g id="edge2" class="edge">
<title>Hlist&#45;&gt;AutoHeightChar</title>
<path fill="none" stroke="black" stroke-width="0.5" d="M840.1,-466.19C857.71,-480.94 888.21,-504.66 918,-519 923.55,-521.67 929.48,-524.08 935.49,-526.23"/>
<polygon fill="black" stroke="black" stroke-width="0.5" points="935.26,-528 940.56,-527.98 936.4,-524.69 935.26,-528"/>
</g>
<!-- AutoWidthChar -->
<g id="node5" class="node">
<title>AutoWidthChar</title>
<g id="a_node5"><a xlink:href="../api/mathtext_api.html#matplotlib.mathtext.AutoWidthChar" xlink:title=":class:`AutoWidthChar` will create a character as close to the" target="_top">
<polygon fill="none" stroke="black" stroke-width="0.5" points="1065.5,-510 925.5,-510 925.5,-484 1065.5,-484 1065.5,-510"/>
<text text-anchor="middle" x="995.5" y="-493.2" font-family="Vera Sans, DejaVu Sans, Liberation Sans, Arial, Helvetica, sans" font-size="16.00">AutoWidthChar</text>
</a>
</g>
</g>
<!-- Hlist&#45;&gt;AutoWidthChar -->
<g id="edge3" class="edge">
<title>Hlist&#45;&gt;AutoWidthChar</title>
<path fill="none" stroke="black" stroke-width="0.5" d="M851.11,-459.78C874.46,-465.84 909.46,-474.93 939.04,-482.6"/>
<polygon fill="black" stroke="black" stroke-width="0.5" points="938.83,-484.36 944.11,-483.92 939.71,-480.97 938.83,-484.36"/>
</g>
<!-- HCentered -->
<g id="node24" class="node">
<title>HCentered</title>
<g id="a_node24"><a xlink:href="../api/mathtext_api.html#matplotlib.mathtext.HCentered" xlink:title="A convenience class to create an :class:`Hlist` whose contents are" target="_top">
<polygon fill="none" stroke="black" stroke-width="0.5" points="1046.5,-466 944.5,-466 944.5,-440 1046.5,-440 1046.5,-466"/>
<text text-anchor="middle" x="995.5" y="-449.2" font-family="Vera Sans, DejaVu Sans, Liberation Sans, Arial, Helvetica, sans" font-size="16.00">HCentered</text>
</a>
</g>
</g>
<!-- Hlist&#45;&gt;HCentered -->
<g id="edge17" class="edge">
<title>Hlist&#45;&gt;HCentered</title>
<path fill="none" stroke="black" stroke-width="0.5" d="M851.11,-453C874.55,-453 909.73,-453 939.37,-453"/>
<polygon fill="black" stroke="black" stroke-width="0.5" points="939.46,-454.75 944.46,-453 939.46,-451.25 939.46,-454.75"/>
</g>
<!-- SubSuperCluster -->
<g id="node51" class="node">
<title>SubSuperCluster</title>
<g id="a_node51"><a xlink:href="../api/mathtext_api.html#matplotlib.mathtext.SubSuperCluster" xlink:title=":class:`SubSuperCluster` is a sort of hack to get around that fact" target="_top">
<polygon fill="none" stroke="black" stroke-width="0.5" points="1072,-422 919,-422 919,-396 1072,-396 1072,-422"/>
<text text-anchor="middle" x="995.5" y="-405.2" font-family="Vera Sans, DejaVu Sans, Liberation Sans, Arial, Helvetica, sans" font-size="16.00">SubSuperCluster</text>
</a>
</g>
</g>
<!-- Hlist&#45;&gt;SubSuperCluster -->
<g id="edge40" class="edge">
<title>Hlist&#45;&gt;SubSuperCluster</title>
<path fill="none" stroke="black" stroke-width="0.5" d="M851.11,-446.22C874.46,-440.16 909.46,-431.07 939.04,-423.4"/>
<polygon fill="black" stroke="black" stroke-width="0.5" points="939.71,-425.03 944.11,-422.08 938.83,-421.64 939.71,-425.03"/>
</g>
<!-- VCentered -->
<g id="node52" class="node">
<title>VCentered</title>
<g id="a_node52"><a xlink:href="../api/mathtext_api.html#matplotlib.mathtext.VCentered" xlink:title="A convenience class to create a :class:`Vlist` whose contents are" target="_top">
<polygon fill="none" stroke="black" stroke-width="0.5" points="1046,-378 945,-378 945,-352 1046,-352 1046,-378"/>
<text text-anchor="middle" x="995.5" y="-361.2" font-family="Vera Sans, DejaVu Sans, Liberation Sans, Arial, Helvetica, sans" font-size="16.00">VCentered</text>
</a>
</g>
</g>
<!-- Hlist&#45;&gt;VCentered -->
<g id="edge43" class="edge">
<title>Hlist&#45;&gt;VCentered</title>
<path fill="none" stroke="black" stroke-width="0.5" d="M851.11,-446.08C861.34,-442.59 872.81,-437.66 882,-431 902.47,-416.18 896.9,-400.9 918,-387 924.69,-382.59 932.27,-379.05 940,-376.21"/>
<polygon fill="black" stroke="black" stroke-width="0.5" points="940.68,-377.83 944.82,-374.54 939.53,-374.53 940.68,-377.83"/>
</g>
<!-- BakomaFonts -->
<g id="node6" class="node">
<title>BakomaFonts</title>
<g id="a_node6"><a xlink:href="../api/mathtext_api.html#matplotlib.mathtext.BakomaFonts" xlink:title="Use the Bakoma TrueType fonts for rendering." target="_top">
<polygon fill="none" stroke="black" stroke-width="0.5" points="685,-658 560,-658 560,-632 685,-632 685,-658"/>
<text text-anchor="middle" x="622.5" y="-641.2" font-family="Vera Sans, DejaVu Sans, Liberation Sans, Arial, Helvetica, sans" font-size="16.00">BakomaFonts</text>
</a>
</g>
</g>
<!-- TruetypeFonts -->
<g id="node7" class="node">
<title>TruetypeFonts</title>
<g id="a_node7"><a xlink:href="../api/mathtext_api.html#matplotlib.mathtext.TruetypeFonts" xlink:title="A generic base class for all font setups that use Truetype fonts" target="_top">
<polygon fill="none" stroke="black" stroke-width="0.5" points="408.5,-636 277.5,-636 277.5,-610 408.5,-610 408.5,-636"/>
<text text-anchor="middle" x="343" y="-619.2" font-family="Vera Sans, DejaVu Sans, Liberation Sans, Arial, Helvetica, sans" font-size="16.00">TruetypeFonts</text>
</a>
</g>
</g>
<!-- TruetypeFonts&#45;&gt;BakomaFonts -->
<g id="edge4" class="edge">
<title>TruetypeFonts&#45;&gt;BakomaFonts</title>
<path fill="none" stroke="black" stroke-width="0.5" d="M408.71,-628.13C452.51,-631.6 510.22,-636.18 554.49,-639.69"/>
<polygon fill="black" stroke="black" stroke-width="0.5" points="554.43,-641.44 559.55,-640.09 554.7,-637.95 554.43,-641.44"/>
</g>
<!-- UnicodeFonts -->
<g id="node13" class="node">
<title>UnicodeFonts</title>
<g id="a_node13"><a xlink:href="../api/mathtext_api.html#matplotlib.mathtext.UnicodeFonts" xlink:title="An abstract base class for handling Unicode fonts." target="_top">
<polygon fill="none" stroke="black" stroke-width="0.5" points="685.5,-614 559.5,-614 559.5,-588 685.5,-588 685.5,-614"/>
<text text-anchor="middle" x="622.5" y="-597.2" font-family="Vera Sans, DejaVu Sans, Liberation Sans, Arial, Helvetica, sans" font-size="16.00">UnicodeFonts</text>
</a>
</g>
</g>
<!-- TruetypeFonts&#45;&gt;UnicodeFonts -->
<g id="edge42" class="edge">
<title>TruetypeFonts&#45;&gt;UnicodeFonts</title>
<path fill="none" stroke="black" stroke-width="0.5" d="M408.71,-617.87C452.35,-614.41 509.82,-609.85 554.02,-606.35"/>
<polygon fill="black" stroke="black" stroke-width="0.5" points="554.23,-608.09 559.08,-605.95 553.95,-604.6 554.23,-608.09"/>
</g>
<!-- Box -->
<g id="node8" class="node">
<title>Box</title>
<g id="a_node8"><a xlink:href="../api/mathtext_api.html#matplotlib.mathtext.Box" xlink:title="Represents any node with a physical location." target="_top">
<polygon fill="none" stroke="black" stroke-width="0.5" points="370,-378 316,-378 316,-352 370,-352 370,-378"/>
<text text-anchor="middle" x="343" y="-361.2" font-family="Vera Sans, DejaVu Sans, Liberation Sans, Arial, Helvetica, sans" font-size="16.00">Box</text>
</a>
</g>
</g>
<!-- Hbox -->
<g id="node25" class="node">
<title>Hbox</title>
<g id="a_node25"><a xlink:href="../api/mathtext_api.html#matplotlib.mathtext.Hbox" xlink:title="A box with only width (zero height and depth)." target="_top">
<polygon fill="none" stroke="black" stroke-width="0.5" points="651.5,-466 593.5,-466 593.5,-440 651.5,-440 651.5,-466"/>
<text text-anchor="middle" x="622.5" y="-449.2" font-family="Vera Sans, DejaVu Sans, Liberation Sans, Arial, Helvetica, sans" font-size="16.00">Hbox</text>
</a>
</g>
</g>
<!-- Box&#45;&gt;Hbox -->
<g id="edge18" class="edge">
<title>Box&#45;&gt;Hbox</title>
<path fill="none" stroke="black" stroke-width="0.5" d="M370.19,-376.67C403.35,-391.07 462.49,-415.56 515,-431 539.15,-438.1 567.03,-443.77 588.2,-447.58"/>
<polygon fill="black" stroke="black" stroke-width="0.5" points="587.93,-449.31 593.16,-448.46 588.54,-445.86 587.93,-449.31"/>
</g>
<!-- List -->
<g id="node26" class="node">
<title>List</title>
<g id="a_node26"><a xlink:href="../api/mathtext_api.html#matplotlib.mathtext.List" xlink:title="A list of nodes (either horizontal or vertical)." target="_top">
<polygon fill="none" stroke="black" stroke-width="0.5" points="649.5,-422 595.5,-422 595.5,-396 649.5,-396 649.5,-422"/>
<text text-anchor="middle" x="622.5" y="-405.2" font-family="Vera Sans, DejaVu Sans, Liberation Sans, Arial, Helvetica, sans" font-size="16.00">List</text>
</a>
</g>
</g>
<!-- Box&#45;&gt;List -->
<g id="edge22" class="edge">
<title>Box&#45;&gt;List</title>
<path fill="none" stroke="black" stroke-width="0.5" d="M370.11,-369.14C421.34,-377.26 534.87,-395.26 590.1,-404.02"/>
<polygon fill="black" stroke="black" stroke-width="0.5" points="590.05,-405.78 595.26,-404.84 590.6,-402.33 590.05,-405.78"/>
</g>
<!-- Rule -->
<g id="node28" class="node">
<title>Rule</title>
<g id="a_node28"><a xlink:href="../api/mathtext_api.html#matplotlib.mathtext.Rule" xlink:title="A :class:`Rule` node stands for a solid black rectangle; it has" target="_top">
<polygon fill="none" stroke="black" stroke-width="0.5" points="649.5,-378 595.5,-378 595.5,-352 649.5,-352 649.5,-378"/>
<text text-anchor="middle" x="622.5" y="-361.2" font-family="Vera Sans, DejaVu Sans, Liberation Sans, Arial, Helvetica, sans" font-size="16.00">Rule</text>
</a>
</g>
</g>
<!-- Box&#45;&gt;Rule -->
<g id="edge33" class="edge">
<title>Box&#45;&gt;Rule</title>
<path fill="none" stroke="black" stroke-width="0.5" d="M370.11,-365C421.34,-365 534.87,-365 590.1,-365"/>
<polygon fill="black" stroke="black" stroke-width="0.5" points="590.26,-366.75 595.26,-365 590.26,-363.25 590.26,-366.75"/>
</g>
<!-- Vbox -->
<g id="node53" class="node">
<title>Vbox</title>
<g id="a_node53"><a xlink:href="../api/mathtext_api.html#matplotlib.mathtext.Vbox" xlink:title="A box with only height (zero width)." target="_top">
<polygon fill="none" stroke="black" stroke-width="0.5" points="651,-334 594,-334 594,-308 651,-308 651,-334"/>
<text text-anchor="middle" x="622.5" y="-317.2" font-family="Vera Sans, DejaVu Sans, Liberation Sans, Arial, Helvetica, sans" font-size="16.00">Vbox</text>
</a>
</g>
</g>
<!-- Box&#45;&gt;Vbox -->
<g id="edge44" class="edge">
<title>Box&#45;&gt;Vbox</title>
<path fill="none" stroke="black" stroke-width="0.5" d="M370.11,-360.86C420.82,-352.82 532.56,-335.1 588.39,-326.25"/>
<polygon fill="black" stroke="black" stroke-width="0.5" points="588.95,-327.93 593.62,-325.42 588.41,-324.48 588.95,-327.93"/>
</g>
<!-- Node -->
<g id="node9" class="node">
<title>Node</title>
<g id="a_node9"><a xlink:href="../api/mathtext_api.html#matplotlib.mathtext.Node" xlink:title="A node in the TeX box model" target="_top">
<polygon fill="none" stroke="black" stroke-width="0.5" points="115,-290 56,-290 56,-264 115,-264 115,-290"/>
<text text-anchor="middle" x="85.5" y="-273.2" font-family="Vera Sans, DejaVu Sans, Liberation Sans, Arial, Helvetica, sans" font-size="16.00">Node</text>
</a>
</g>
</g>
<!-- Node&#45;&gt;Char -->
<g id="edge6" class="edge">
<title>Node&#45;&gt;Char</title>
<path fill="none" stroke="black" stroke-width="0.5" d="M100.26,-290.26C122.29,-311.33 167.07,-353.5 207,-387 245.72,-419.49 292.89,-454.94 319.98,-474.92"/>
<polygon fill="black" stroke="black" stroke-width="0.5" points="319.09,-476.44 324.16,-478 321.17,-473.62 319.09,-476.44"/>
</g>
<!-- Node&#45;&gt;Box -->
<g id="edge5" class="edge">
<title>Node&#45;&gt;Box</title>
<path fill="none" stroke="black" stroke-width="0.5" d="M115.31,-286.92C163.76,-303.61 261.14,-337.15 311.01,-354.33"/>
<polygon fill="black" stroke="black" stroke-width="0.5" points="310.68,-356.06 315.98,-356.04 311.82,-352.75 310.68,-356.06"/>
</g>
<!-- Glue -->
<g id="node19" class="node">
<title>Glue</title>
<g id="a_node19"><a xlink:href="../api/mathtext_api.html#matplotlib.mathtext.Glue" xlink:title="Most of the information in this object is stored in the underlying" target="_top">
<polygon fill="none" stroke="black" stroke-width="0.5" points="370,-202 316,-202 316,-176 370,-176 370,-202"/>
<text text-anchor="middle" x="343" y="-185.2" font-family="Vera Sans, DejaVu Sans, Liberation Sans, Arial, Helvetica, sans" font-size="16.00">Glue</text>
</a>
</g>
</g>
<!-- Node&#45;&gt;Glue -->
<g id="edge16" class="edge">
<title>Node&#45;&gt;Glue</title>
<path fill="none" stroke="black" stroke-width="0.5" d="M115.31,-267.08C163.76,-250.39 261.14,-216.85 311.01,-199.67"/>
<polygon fill="black" stroke="black" stroke-width="0.5" points="311.82,-201.25 315.98,-197.96 310.68,-197.94 311.82,-201.25"/>
</g>
<!-- Kern -->
<g id="node29" class="node">
<title>Kern</title>
<g id="a_node29"><a xlink:href="../api/mathtext_api.html#matplotlib.mathtext.Kern" xlink:title="A :class:`Kern` node has a width field to specify a (normally" target="_top">
<polygon fill="none" stroke="black" stroke-width="0.5" points="370,-158 316,-158 316,-132 370,-132 370,-158"/>
<text text-anchor="middle" x="343" y="-141.2" font-family="Vera Sans, DejaVu Sans, Liberation Sans, Arial, Helvetica, sans" font-size="16.00">Kern</text>
</a>
</g>
</g>
<!-- Node&#45;&gt;Kern -->
<g id="edge21" class="edge">
<title>Node&#45;&gt;Kern</title>
<path fill="none" stroke="black" stroke-width="0.5" d="M96.44,-263.88C115.19,-240.2 158.3,-190.57 207,-167 240,-151.03 282.3,-146.32 310.68,-145.1"/>
<polygon fill="black" stroke="black" stroke-width="0.5" points="310.88,-146.84 315.81,-144.91 310.75,-143.34 310.88,-146.84"/>
</g>
<!-- ComputerModernFontConstants -->
<g id="node10" class="node">
<title>ComputerModernFontConstants</title>
<g id="a_node10"><a xlink:href="../api/mathtext_api.html#matplotlib.mathtext.ComputerModernFontConstants" xlink:title="ComputerModernFontConstants" target="_top">
<polygon fill="none" stroke="black" stroke-width="0.5" points="479,-856 207,-856 207,-830 479,-830 479,-856"/>
<text text-anchor="middle" x="343" y="-839.2" font-family="Vera Sans, DejaVu Sans, Liberation Sans, Arial, Helvetica, sans" font-size="16.00">ComputerModernFontConstants</text>
</a>
</g>
</g>
<!-- FontConstantsBase -->
<g id="node11" class="node">
<title>FontConstantsBase</title>
<g id="a_node11"><a xlink:href="../api/mathtext_api.html#matplotlib.mathtext.FontConstantsBase" xlink:title="A set of constants that controls how certain things, such as sub&#45;" target="_top">
<polygon fill="none" stroke="black" stroke-width="0.5" points="171,-768 0,-768 0,-742 171,-742 171,-768"/>
<text text-anchor="middle" x="85.5" y="-751.2" font-family="Vera Sans, DejaVu Sans, Liberation Sans, Arial, Helvetica, sans" font-size="16.00">FontConstantsBase</text>
</a>
</g>
</g>
<!-- FontConstantsBase&#45;&gt;ComputerModernFontConstants -->
<g id="edge7" class="edge">
<title>FontConstantsBase&#45;&gt;ComputerModernFontConstants</title>
<path fill="none" stroke="black" stroke-width="0.5" d="M108.14,-768.01C137.08,-785.21 187.04,-814.13 207,-821 215.62,-823.97 224.69,-826.54 233.88,-828.76"/>
<polygon fill="black" stroke="black" stroke-width="0.5" points="233.73,-830.53 239,-829.97 234.53,-827.12 233.73,-830.53"/>
</g>
<!-- DejaVuSansFontConstants -->
<g id="node14" class="node">
<title>DejaVuSansFontConstants</title>
<g id="a_node14"><a xlink:href="../api/mathtext_api.html#matplotlib.mathtext.DejaVuSansFontConstants" xlink:title="DejaVuSansFontConstants" target="_top">
<polygon fill="none" stroke="black" stroke-width="0.5" points="456.5,-812 229.5,-812 229.5,-786 456.5,-786 456.5,-812"/>
<text text-anchor="middle" x="343" y="-795.2" font-family="Vera Sans, DejaVu Sans, Liberation Sans, Arial, Helvetica, sans" font-size="16.00">DejaVuSansFontConstants</text>
</a>
</g>
</g>
<!-- FontConstantsBase&#45;&gt;DejaVuSansFontConstants -->
<g id="edge9" class="edge">
<title>FontConstantsBase&#45;&gt;DejaVuSansFontConstants</title>
<path fill="none" stroke="black" stroke-width="0.5" d="M156.55,-768.02C173.08,-771.03 190.65,-774.18 207,-777 222.69,-779.71 239.43,-782.51 255.58,-785.17"/>
<polygon fill="black" stroke="black" stroke-width="0.5" points="255.36,-786.9 260.58,-785.99 255.93,-783.45 255.36,-786.9"/>
</g>
<!-- DejaVuSerifFontConstants -->
<g id="node16" class="node">
<title>DejaVuSerifFontConstants</title>
<g id="a_node16"><a xlink:href="../api/mathtext_api.html#matplotlib.mathtext.DejaVuSerifFontConstants" xlink:title="DejaVuSerifFontConstants" target="_top">
<polygon fill="none" stroke="black" stroke-width="0.5" points="456,-768 230,-768 230,-742 456,-742 456,-768"/>
<text text-anchor="middle" x="343" y="-751.2" font-family="Vera Sans, DejaVu Sans, Liberation Sans, Arial, Helvetica, sans" font-size="16.00">DejaVuSerifFontConstants</text>
</a>
</g>
</g>
<!-- FontConstantsBase&#45;&gt;DejaVuSerifFontConstants -->
<g id="edge11" class="edge">
<title>FontConstantsBase&#45;&gt;DejaVuSerifFontConstants</title>
<path fill="none" stroke="black" stroke-width="0.5" d="M171.22,-755C188.35,-755 206.65,-755 224.67,-755"/>
<polygon fill="black" stroke="black" stroke-width="0.5" points="224.74,-756.75 229.74,-755 224.74,-753.25 224.74,-756.75"/>
</g>
<!-- STIXFontConstants -->
<g id="node44" class="node">
<title>STIXFontConstants</title>
<g id="a_node44"><a xlink:href="../api/mathtext_api.html#matplotlib.mathtext.STIXFontConstants" xlink:title="STIXFontConstants" target="_top">
<polygon fill="none" stroke="black" stroke-width="0.5" points="427,-724 259,-724 259,-698 427,-698 427,-724"/>
<text text-anchor="middle" x="343" y="-707.2" font-family="Vera Sans, DejaVu Sans, Liberation Sans, Arial, Helvetica, sans" font-size="16.00">STIXFontConstants</text>
</a>
</g>
</g>
<!-- FontConstantsBase&#45;&gt;STIXFontConstants -->
<g id="edge34" class="edge">
<title>FontConstantsBase&#45;&gt;STIXFontConstants</title>
<path fill="none" stroke="black" stroke-width="0.5" d="M156.55,-741.98C173.08,-738.97 190.65,-735.82 207,-733 222.69,-730.29 239.43,-727.49 255.58,-724.83"/>
<polygon fill="black" stroke="black" stroke-width="0.5" points="255.93,-726.55 260.58,-724.01 255.36,-723.1 255.93,-726.55"/>
</g>
<!-- STIXSansFontConstants -->
<g id="node45" class="node">
<title>STIXSansFontConstants</title>
<g id="a_node45"><a xlink:href="../api/mathtext_api.html#matplotlib.mathtext.STIXSansFontConstants" xlink:title="STIXSansFontConstants" target="_top">
<polygon fill="none" stroke="black" stroke-width="0.5" points="446.5,-680 239.5,-680 239.5,-654 446.5,-654 446.5,-680"/>
<text text-anchor="middle" x="343" y="-663.2" font-family="Vera Sans, DejaVu Sans, Liberation Sans, Arial, Helvetica, sans" font-size="16.00">STIXSansFontConstants</text>
</a>
</g>
</g>
<!-- FontConstantsBase&#45;&gt;STIXSansFontConstants -->
<g id="edge35" class="edge">
<title>FontConstantsBase&#45;&gt;STIXSansFontConstants</title>
<path fill="none" stroke="black" stroke-width="0.5" d="M105.58,-741.86C128.58,-726.68 168.88,-702.11 207,-689 215.8,-685.97 225.06,-683.36 234.45,-681.1"/>
<polygon fill="black" stroke="black" stroke-width="0.5" points="234.89,-682.79 239.36,-679.95 234.1,-679.39 234.89,-682.79"/>
</g>
<!-- DejaVuFonts -->
<g id="node12" class="node">
<title>DejaVuFonts</title>
<g id="a_node12"><a xlink:href="../api/mathtext_api.html#matplotlib.mathtext.DejaVuFonts" xlink:title="DejaVuFonts" target="_top">
<polygon fill="none" stroke="black" stroke-width="0.5" points="882,-647 766,-647 766,-621 882,-621 882,-647"/>
<text text-anchor="middle" x="824" y="-630.2" font-family="Vera Sans, DejaVu Sans, Liberation Sans, Arial, Helvetica, sans" font-size="16.00">DejaVuFonts</text>
</a>
</g>
</g>
<!-- DejaVuSansFonts -->
<g id="node15" class="node">
<title>DejaVuSansFonts</title>
<g id="a_node15"><a xlink:href="../api/mathtext_api.html#matplotlib.mathtext.DejaVuSansFonts" xlink:title="A font handling class for the DejaVu Sans fonts" target="_top">
<polygon fill="none" stroke="black" stroke-width="0.5" points="1073,-691 918,-691 918,-665 1073,-665 1073,-691"/>
<text text-anchor="middle" x="995.5" y="-674.2" font-family="Vera Sans, DejaVu Sans, Liberation Sans, Arial, Helvetica, sans" font-size="16.00">DejaVuSansFonts</text>
</a>
</g>
</g>
<!-- DejaVuFonts&#45;&gt;DejaVuSansFonts -->
<g id="edge10" class="edge">
<title>DejaVuFonts&#45;&gt;DejaVuSansFonts</title>
<path fill="none" stroke="black" stroke-width="0.5" d="M875.4,-647.08C895.54,-652.31 918.81,-658.35 939.4,-663.7"/>
<polygon fill="black" stroke="black" stroke-width="0.5" points="939.02,-665.41 944.3,-664.97 939.9,-662.02 939.02,-665.41"/>
</g>
<!-- DejaVuSerifFonts -->
<g id="node17" class="node">
<title>DejaVuSerifFonts</title>
<g id="a_node17"><a xlink:href="../api/mathtext_api.html#matplotlib.mathtext.DejaVuSerifFonts" xlink:title="A font handling class for the DejaVu Serif fonts" target="_top">
<polygon fill="none" stroke="black" stroke-width="0.5" points="1072.5,-647 918.5,-647 918.5,-621 1072.5,-621 1072.5,-647"/>
<text text-anchor="middle" x="995.5" y="-630.2" font-family="Vera Sans, DejaVu Sans, Liberation Sans, Arial, Helvetica, sans" font-size="16.00">DejaVuSerifFonts</text>
</a>
</g>
</g>
<!-- DejaVuFonts&#45;&gt;DejaVuSerifFonts -->
<g id="edge12" class="edge">
<title>DejaVuFonts&#45;&gt;DejaVuSerifFonts</title>
<path fill="none" stroke="black" stroke-width="0.5" d="M882.38,-634C892.29,-634 902.75,-634 913.15,-634"/>
<polygon fill="black" stroke="black" stroke-width="0.5" points="913.24,-635.75 918.24,-634 913.24,-632.25 913.24,-635.75"/>
</g>
<!-- UnicodeFonts&#45;&gt;DejaVuFonts -->
<g id="edge8" class="edge">
<title>UnicodeFonts&#45;&gt;DejaVuFonts</title>
<path fill="none" stroke="black" stroke-width="0.5" d="M685.53,-611.26C709.45,-615.22 736.76,-619.74 760.71,-623.7"/>
<polygon fill="black" stroke="black" stroke-width="0.5" points="760.55,-625.44 765.76,-624.53 761.12,-621.99 760.55,-625.44"/>
</g>
<!-- StixFonts -->
<g id="node49" class="node">
<title>StixFonts</title>
<g id="a_node49"><a xlink:href="../api/mathtext_api.html#matplotlib.mathtext.StixFonts" xlink:title="A font handling class for the STIX fonts." target="_top">
<polygon fill="none" stroke="black" stroke-width="0.5" points="869.5,-603 778.5,-603 778.5,-577 869.5,-577 869.5,-603"/>
<text text-anchor="middle" x="824" y="-586.2" font-family="Vera Sans, DejaVu Sans, Liberation Sans, Arial, Helvetica, sans" font-size="16.00">StixFonts</text>
</a>
</g>
</g>
<!-- UnicodeFonts&#45;&gt;StixFonts -->
<g id="edge38" class="edge">
<title>UnicodeFonts&#45;&gt;StixFonts</title>
<path fill="none" stroke="black" stroke-width="0.5" d="M685.53,-597.58C713.73,-596.02 746.65,-594.21 773.21,-592.75"/>
<polygon fill="black" stroke="black" stroke-width="0.5" points="773.53,-594.48 778.43,-592.46 773.34,-590.99 773.53,-594.48"/>
</g>
<!-- Fil -->
<g id="node18" class="node">
<title>Fil</title>
<g id="a_node18"><a xlink:href="../api/mathtext_api.html#matplotlib.mathtext.Fil" xlink:title="Fil" target="_top">
<polygon fill="none" stroke="black" stroke-width="0.5" points="649.5,-290 595.5,-290 595.5,-264 649.5,-264 649.5,-290"/>
<text text-anchor="middle" x="622.5" y="-273.2" font-family="Vera Sans, DejaVu Sans, Liberation Sans, Arial, Helvetica, sans" font-size="16.00">Fil</text>
</a>
</g>
</g>
<!-- Glue&#45;&gt;Fil -->
<g id="edge13" class="edge">
<title>Glue&#45;&gt;Fil</title>
<path fill="none" stroke="black" stroke-width="0.5" d="M370.19,-200.67C403.35,-215.07 462.49,-239.56 515,-255 539.99,-262.35 568.97,-268.16 590.38,-271.97"/>
<polygon fill="black" stroke="black" stroke-width="0.5" points="590.15,-273.7 595.38,-272.84 590.76,-270.26 590.15,-273.7"/>
</g>
<!-- Fill -->
<g id="node20" class="node">
<title>Fill</title>
<g id="a_node20"><a xlink:href="../api/mathtext_api.html#matplotlib.mathtext.Fill" xlink:title="Fill" target="_top">
<polygon fill="none" stroke="black" stroke-width="0.5" points="649.5,-246 595.5,-246 595.5,-220 649.5,-220 649.5,-246"/>
<text text-anchor="middle" x="622.5" y="-229.2" font-family="Vera Sans, DejaVu Sans, Liberation Sans, Arial, Helvetica, sans" font-size="16.00">Fill</text>
</a>
</g>
</g>
<!-- Glue&#45;&gt;Fill -->
<g id="edge14" class="edge">
<title>Glue&#45;&gt;Fill</title>
<path fill="none" stroke="black" stroke-width="0.5" d="M370.11,-193.14C421.34,-201.26 534.87,-219.26 590.1,-228.02"/>
<polygon fill="black" stroke="black" stroke-width="0.5" points="590.05,-229.78 595.26,-228.84 590.6,-226.33 590.05,-229.78"/>
</g>
<!-- Filll -->
<g id="node21" class="node">
<title>Filll</title>
<g id="a_node21"><a xlink:href="../api/mathtext_api.html#matplotlib.mathtext.Filll" xlink:title="Filll" target="_top">
<polygon fill="none" stroke="black" stroke-width="0.5" points="649.5,-202 595.5,-202 595.5,-176 649.5,-176 649.5,-202"/>
<text text-anchor="middle" x="622.5" y="-185.2" font-family="Vera Sans, DejaVu Sans, Liberation Sans, Arial, Helvetica, sans" font-size="16.00">Filll</text>
</a>
</g>
</g>
<!-- Glue&#45;&gt;Filll -->
<g id="edge15" class="edge">
<title>Glue&#45;&gt;Filll</title>
<path fill="none" stroke="black" stroke-width="0.5" d="M370.11,-189C421.34,-189 534.87,-189 590.1,-189"/>
<polygon fill="black" stroke="black" stroke-width="0.5" points="590.26,-190.75 595.26,-189 590.26,-187.25 590.26,-190.75"/>
</g>
<!-- NegFil -->
<g id="node40" class="node">
<title>NegFil</title>
<g id="a_node40"><a xlink:href="../api/mathtext_api.html#matplotlib.mathtext.NegFil" xlink:title="NegFil" target="_top">
<polygon fill="none" stroke="black" stroke-width="0.5" points="655.5,-158 589.5,-158 589.5,-132 655.5,-132 655.5,-158"/>
<text text-anchor="middle" x="622.5" y="-141.2" font-family="Vera Sans, DejaVu Sans, Liberation Sans, Arial, Helvetica, sans" font-size="16.00">NegFil</text>
</a>
</g>
</g>
<!-- Glue&#45;&gt;NegFil -->
<g id="edge30" class="edge">
<title>Glue&#45;&gt;NegFil</title>
<path fill="none" stroke="black" stroke-width="0.5" d="M370.11,-184.86C419.61,-177.01 527.27,-159.94 584.31,-150.9"/>
<polygon fill="black" stroke="black" stroke-width="0.5" points="584.67,-152.61 589.33,-150.1 584.12,-149.15 584.67,-152.61"/>
</g>
<!-- NegFill -->
<g id="node41" class="node">
<title>NegFill</title>
<g id="a_node41"><a xlink:href="../api/mathtext_api.html#matplotlib.mathtext.NegFill" xlink:title="NegFill" target="_top">
<polygon fill="none" stroke="black" stroke-width="0.5" points="658,-114 587,-114 587,-88 658,-88 658,-114"/>
<text text-anchor="middle" x="622.5" y="-97.2" font-family="Vera Sans, DejaVu Sans, Liberation Sans, Arial, Helvetica, sans" font-size="16.00">NegFill</text>
</a>
</g>
</g>
<!-- Glue&#45;&gt;NegFill -->
<g id="edge31" class="edge">
<title>Glue&#45;&gt;NegFill</title>
<path fill="none" stroke="black" stroke-width="0.5" d="M370.18,-190.06C398.79,-190.06 445.06,-186.58 479,-167 500.89,-154.37 493.39,-136.09 515,-123 535.04,-110.87 560.66,-105.33 581.76,-102.84"/>
<polygon fill="black" stroke="black" stroke-width="0.5" points="581.96,-104.58 586.74,-102.3 581.58,-101.1 581.96,-104.58"/>
</g>
<!-- NegFilll -->
<g id="node42" class="node">
<title>NegFilll</title>
<g id="a_node42"><a xlink:href="../api/mathtext_api.html#matplotlib.mathtext.NegFilll" xlink:title="NegFilll" target="_top">
<polygon fill="none" stroke="black" stroke-width="0.5" points="660,-70 585,-70 585,-44 660,-44 660,-70"/>
<text text-anchor="middle" x="622.5" y="-53.2" font-family="Vera Sans, DejaVu Sans, Liberation Sans, Arial, Helvetica, sans" font-size="16.00">NegFilll</text>
</a>
</g>
</g>
<!-- Glue&#45;&gt;NegFilll -->
<g id="edge32" class="edge">
<title>Glue&#45;&gt;NegFilll</title>
<path fill="none" stroke="black" stroke-width="0.5" d="M370.09,-191.81C399.68,-193.54 447.87,-191.76 479,-167 512.07,-140.69 482.49,-106 515,-79 532.95,-64.09 558.39,-58.45 579.91,-56.6"/>
<polygon fill="black" stroke="black" stroke-width="0.5" points="580.14,-58.34 585,-56.23 579.88,-54.85 580.14,-58.34"/>
</g>
<!-- SsGlue -->
<g id="node47" class="node">
<title>SsGlue</title>
<g id="a_node47"><a xlink:href="../api/mathtext_api.html#matplotlib.mathtext.SsGlue" xlink:title="SsGlue" target="_top">
<polygon fill="none" stroke="black" stroke-width="0.5" points="659,-26 586,-26 586,0 659,0 659,-26"/>
<text text-anchor="middle" x="622.5" y="-9.2" font-family="Vera Sans, DejaVu Sans, Liberation Sans, Arial, Helvetica, sans" font-size="16.00">SsGlue</text>
</a>
</g>
</g>
<!-- Glue&#45;&gt;SsGlue -->
<g id="edge36" class="edge">
<title>Glue&#45;&gt;SsGlue</title>
<path fill="none" stroke="black" stroke-width="0.5" d="M370.11,-192.43C400.19,-194.83 449.26,-193.77 479,-167 524.19,-126.31 470.68,-76.63 515,-35 532.39,-18.67 558.56,-13.1 580.61,-11.65"/>
<polygon fill="black" stroke="black" stroke-width="0.5" points="580.92,-13.38 585.83,-11.37 580.74,-9.89 580.92,-13.38"/>
</g>
<!-- Fonts -->
<g id="node22" class="node">
<title>Fonts</title>
<g id="a_node22"><a xlink:href="../api/mathtext_api.html#matplotlib.mathtext.Fonts" xlink:title="An abstract base class for a system of fonts to use for mathtext." target="_top">
<polygon fill="none" stroke="black" stroke-width="0.5" points="115.5,-614 55.5,-614 55.5,-588 115.5,-588 115.5,-614"/>
<text text-anchor="middle" x="85.5" y="-597.2" font-family="Vera Sans, DejaVu Sans, Liberation Sans, Arial, Helvetica, sans" font-size="16.00">Fonts</text>
</a>
</g>
</g>
<!-- Fonts&#45;&gt;TruetypeFonts -->
<g id="edge41" class="edge">
<title>Fonts&#45;&gt;TruetypeFonts</title>
<path fill="none" stroke="black" stroke-width="0.5" d="M115.81,-603.52C153.7,-606.79 220.91,-612.57 272.25,-616.99"/>
<polygon fill="black" stroke="black" stroke-width="0.5" points="272.35,-618.76 277.48,-617.44 272.65,-615.27 272.35,-618.76"/>
</g>
<!-- StandardPsFonts -->
<g id="node48" class="node">
<title>StandardPsFonts</title>
<g id="a_node48"><a xlink:href="../api/mathtext_api.html#matplotlib.mathtext.StandardPsFonts" xlink:title="Use the standard postscript fonts for rendering to backend_ps" target="_top">
<polygon fill="none" stroke="black" stroke-width="0.5" points="418.5,-592 267.5,-592 267.5,-566 418.5,-566 418.5,-592"/>
<text text-anchor="middle" x="343" y="-575.2" font-family="Vera Sans, DejaVu Sans, Liberation Sans, Arial, Helvetica, sans" font-size="16.00">StandardPsFonts</text>
</a>
</g>
</g>
<!-- Fonts&#45;&gt;StandardPsFonts -->
<g id="edge37" class="edge">
<title>Fonts&#45;&gt;StandardPsFonts</title>
<path fill="none" stroke="black" stroke-width="0.5" d="M115.81,-598.48C151.29,-595.42 212.48,-590.15 262.28,-585.86"/>
<polygon fill="black" stroke="black" stroke-width="0.5" points="262.54,-587.6 267.37,-585.43 262.24,-584.11 262.54,-587.6"/>
</g>
<!-- GlueSpec -->
<g id="node23" class="node">
<title>GlueSpec</title>
<g id="a_node23"><a xlink:href="../api/mathtext_api.html#matplotlib.mathtext.GlueSpec" xlink:title="See :class:`Glue`." target="_top">
<polygon fill="none" stroke="black" stroke-width="0.5" points="132.5,-840 38.5,-840 38.5,-814 132.5,-814 132.5,-840"/>
<text text-anchor="middle" x="85.5" y="-823.2" font-family="Vera Sans, DejaVu Sans, Liberation Sans, Arial, Helvetica, sans" font-size="16.00">GlueSpec</text>
</a>
</g>
</g>
<!-- List&#45;&gt;Hlist -->
<g id="edge19" class="edge">
<title>List&#45;&gt;Hlist</title>
<path fill="none" stroke="black" stroke-width="0.5" d="M649.8,-414.22C671.39,-418.55 702.72,-424.96 730,-431 750.73,-435.59 773.97,-441.09 792.04,-445.44"/>
<polygon fill="black" stroke="black" stroke-width="0.5" points="791.72,-447.16 796.99,-446.64 792.54,-443.76 791.72,-447.16"/>
</g>
<!-- Vlist -->
<g id="node54" class="node">
<title>Vlist</title>
<g id="a_node54"><a xlink:href="../api/mathtext_api.html#matplotlib.mathtext.Vlist" xlink:title="A vertical list of boxes." target="_top">
<polygon fill="none" stroke="black" stroke-width="0.5" points="851,-422 797,-422 797,-396 851,-396 851,-422"/>
<text text-anchor="middle" x="824" y="-405.2" font-family="Vera Sans, DejaVu Sans, Liberation Sans, Arial, Helvetica, sans" font-size="16.00">Vlist</text>
</a>
</g>
</g>
<!-- List&#45;&gt;Vlist -->
<g id="edge45" class="edge">
<title>List&#45;&gt;Vlist</title>
<path fill="none" stroke="black" stroke-width="0.5" d="M649.58,-409C686.17,-409 752.65,-409 791.81,-409"/>
<polygon fill="black" stroke="black" stroke-width="0.5" points="791.91,-410.75 796.91,-409 791.91,-407.25 791.91,-410.75"/>
</g>
<!-- Hrule -->
<g id="node27" class="node">
<title>Hrule</title>
<g id="a_node27"><a xlink:href="../api/mathtext_api.html#matplotlib.mathtext.Hrule" xlink:title="Convenience class to create a horizontal rule." target="_top">
<polygon fill="none" stroke="black" stroke-width="0.5" points="854,-378 794,-378 794,-352 854,-352 854,-378"/>
<text text-anchor="middle" x="824" y="-361.2" font-family="Vera Sans, DejaVu Sans, Liberation Sans, Arial, Helvetica, sans" font-size="16.00">Hrule</text>
</a>
</g>
</g>
<!-- Rule&#45;&gt;Hrule -->
<g id="edge20" class="edge">
<title>Rule&#45;&gt;Hrule</title>
<path fill="none" stroke="black" stroke-width="0.5" d="M649.58,-365C685.16,-365 749,-365 788.5,-365"/>
<polygon fill="black" stroke="black" stroke-width="0.5" points="788.67,-366.75 793.67,-365 788.67,-363.25 788.67,-366.75"/>
</g>
<!-- Vrule -->
<g id="node55" class="node">
<title>Vrule</title>
<g id="a_node55"><a xlink:href="../api/mathtext_api.html#matplotlib.mathtext.Vrule" xlink:title="Convenience class to create a vertical rule." target="_top">
<polygon fill="none" stroke="black" stroke-width="0.5" points="853.5,-334 794.5,-334 794.5,-308 853.5,-308 853.5,-334"/>
<text text-anchor="middle" x="824" y="-317.2" font-family="Vera Sans, DejaVu Sans, Liberation Sans, Arial, Helvetica, sans" font-size="16.00">Vrule</text>
</a>
</g>
</g>
<!-- Rule&#45;&gt;Vrule -->
<g id="edge46" class="edge">
<title>Rule&#45;&gt;Vrule</title>
<path fill="none" stroke="black" stroke-width="0.5" d="M649.8,-359.78C671.39,-355.45 702.72,-349.04 730,-343 749.52,-338.67 771.28,-333.55 788.84,-329.33"/>
<polygon fill="black" stroke="black" stroke-width="0.5" points="789.69,-330.92 794.14,-328.05 788.87,-327.52 789.69,-330.92"/>
</g>
<!-- MathTextParser -->
<g id="node30" class="node">
<title>MathTextParser</title>
<g id="a_node30"><a xlink:href="../api/mathtext_api.html#matplotlib.mathtext.MathTextParser" xlink:title="MathTextParser" target="_top">
<polygon fill="none" stroke="black" stroke-width="0.5" points="155,-906 16,-906 16,-880 155,-880 155,-906"/>
<text text-anchor="middle" x="85.5" y="-889.2" font-family="Vera Sans, DejaVu Sans, Liberation Sans, Arial, Helvetica, sans" font-size="16.00">MathTextParser</text>
</a>
</g>
</g>
<!-- MathTextWarning -->
<g id="node31" class="node">
<title>MathTextWarning</title>
<g id="a_node31"><a xlink:href="../api/mathtext_api.html#matplotlib.mathtext.MathTextWarning" xlink:title="MathTextWarning" target="_top">
<polygon fill="none" stroke="black" stroke-width="0.5" points="163,-961 8,-961 8,-935 163,-935 163,-961"/>
<text text-anchor="middle" x="85.5" y="-944.2" font-family="Vera Sans, DejaVu Sans, Liberation Sans, Arial, Helvetica, sans" font-size="16.00">MathTextWarning</text>
</a>
</g>
</g>
<!-- MathtextBackend -->
<g id="node32" class="node">
<title>MathtextBackend</title>
<g id="a_node32"><a xlink:href="../api/mathtext_api.html#matplotlib.mathtext.MathtextBackend" xlink:title="The base class for the mathtext backend&#45;specific code. &#160;The" target="_top">
<polygon fill="none" stroke="black" stroke-width="0.5" points="164.5,-1010 6.5,-1010 6.5,-984 164.5,-984 164.5,-1010"/>
<text text-anchor="middle" x="85.5" y="-993.2" font-family="Vera Sans, DejaVu Sans, Liberation Sans, Arial, Helvetica, sans" font-size="16.00">MathtextBackend</text>
</a>
</g>
</g>
<!-- MathtextBackendAgg -->
<g id="node33" class="node">
<title>MathtextBackendAgg</title>
<g id="a_node33"><a xlink:href="../api/mathtext_api.html#matplotlib.mathtext.MathtextBackendAgg" xlink:title="Render glyphs and rectangles to an FTImage buffer, which is later" target="_top">
<polygon fill="none" stroke="black" stroke-width="0.5" points="438,-1120 248,-1120 248,-1094 438,-1094 438,-1120"/>
<text text-anchor="middle" x="343" y="-1103.2" font-family="Vera Sans, DejaVu Sans, Liberation Sans, Arial, Helvetica, sans" font-size="16.00">MathtextBackendAgg</text>
</a>
</g>
</g>
<!-- MathtextBackend&#45;&gt;MathtextBackendAgg -->
<g id="edge23" class="edge">
<title>MathtextBackend&#45;&gt;MathtextBackendAgg</title>
<path fill="none" stroke="black" stroke-width="0.5" d="M156.51,-1010.17C161.67,-1012.63 166.58,-1015.55 171,-1019 197.33,-1039.57 179.74,-1065.68 207,-1085 217.69,-1092.58 230.04,-1097.91 242.85,-1101.61"/>
<polygon fill="black" stroke="black" stroke-width="0.5" points="242.68,-1103.38 247.97,-1103 243.6,-1100 242.68,-1103.38"/>
</g>
<!-- MathtextBackendCairo -->
<g id="node35" class="node">
<title>MathtextBackendCairo</title>
<g id="a_node35"><a xlink:href="../api/mathtext_api.html#matplotlib.mathtext.MathtextBackendCairo" xlink:title="Store information to write a mathtext rendering to the Cairo" target="_top">
<polygon fill="none" stroke="black" stroke-width="0.5" points="442.5,-1076 243.5,-1076 243.5,-1050 442.5,-1050 442.5,-1076"/>
<text text-anchor="middle" x="343" y="-1059.2" font-family="Vera Sans, DejaVu Sans, Liberation Sans, Arial, Helvetica, sans" font-size="16.00">MathtextBackendCairo</text>
</a>
</g>
</g>
<!-- MathtextBackend&#45;&gt;MathtextBackendCairo -->
<g id="edge25" class="edge">
<title>MathtextBackend&#45;&gt;MathtextBackendCairo</title>
<path fill="none" stroke="black" stroke-width="0.5" d="M145.88,-1010.09C154.45,-1012.66 163.05,-1015.62 171,-1019 188.26,-1026.33 189.42,-1034.48 207,-1041 216.94,-1044.69 227.53,-1047.76 238.22,-1050.31"/>
<polygon fill="black" stroke="black" stroke-width="0.5" points="237.88,-1052.03 243.14,-1051.45 238.67,-1048.62 237.88,-1052.03"/>
</g>
<!-- MathtextBackendPath -->
<g id="node36" class="node">
<title>MathtextBackendPath</title>
<g id="a_node36"><a xlink:href="../api/mathtext_api.html#matplotlib.mathtext.MathtextBackendPath" xlink:title="Store information to write a mathtext rendering to the text path" target="_top">
<polygon fill="none" stroke="black" stroke-width="0.5" points="439.5,-1032 246.5,-1032 246.5,-1006 439.5,-1006 439.5,-1032"/>
<text text-anchor="middle" x="343" y="-1015.2" font-family="Vera Sans, DejaVu Sans, Liberation Sans, Arial, Helvetica, sans" font-size="16.00">MathtextBackendPath</text>
</a>
</g>
</g>
<!-- MathtextBackend&#45;&gt;MathtextBackendPath -->
<g id="edge26" class="edge">
<title>MathtextBackend&#45;&gt;MathtextBackendPath</title>
<path fill="none" stroke="black" stroke-width="0.5" d="M164.55,-1003.72C188.76,-1005.81 215.8,-1008.13 241.32,-1010.33"/>
<polygon fill="black" stroke="black" stroke-width="0.5" points="241.28,-1012.08 246.41,-1010.77 241.58,-1008.6 241.28,-1012.08"/>
</g>
<!-- MathtextBackendPdf -->
<g id="node37" class="node">
<title>MathtextBackendPdf</title>
<g id="a_node37"><a xlink:href="../api/mathtext_api.html#matplotlib.mathtext.MathtextBackendPdf" xlink:title="Store information to write a mathtext rendering to the PDF backend." target="_top">
<polygon fill="none" stroke="black" stroke-width="0.5" points="435,-988 251,-988 251,-962 435,-962 435,-988"/>
<text text-anchor="middle" x="343" y="-971.2" font-family="Vera Sans, DejaVu Sans, Liberation Sans, Arial, Helvetica, sans" font-size="16.00">MathtextBackendPdf</text>
</a>
</g>
</g>
<!-- MathtextBackend&#45;&gt;MathtextBackendPdf -->
<g id="edge27" class="edge">
<title>MathtextBackend&#45;&gt;MathtextBackendPdf</title>
<path fill="none" stroke="black" stroke-width="0.5" d="M164.55,-990.28C190.24,-988.07 219.12,-985.58 245.99,-983.27"/>
<polygon fill="black" stroke="black" stroke-width="0.5" points="246.16,-985.01 250.99,-982.84 245.86,-981.52 246.16,-985.01"/>
</g>
<!-- MathtextBackendPs -->
<g id="node38" class="node">
<title>MathtextBackendPs</title>
<g id="a_node38"><a xlink:href="../api/mathtext_api.html#matplotlib.mathtext.MathtextBackendPs" xlink:title="Store information to write a mathtext rendering to the PostScript backend." target="_top">
<polygon fill="none" stroke="black" stroke-width="0.5" points="430.5,-944 255.5,-944 255.5,-918 430.5,-918 430.5,-944"/>
<text text-anchor="middle" x="343" y="-927.2" font-family="Vera Sans, DejaVu Sans, Liberation Sans, Arial, Helvetica, sans" font-size="16.00">MathtextBackendPs</text>
</a>
</g>
</g>
<!-- MathtextBackend&#45;&gt;MathtextBackendPs -->
<g id="edge28" class="edge">
<title>MathtextBackend&#45;&gt;MathtextBackendPs</title>
<path fill="none" stroke="black" stroke-width="0.5" d="M131.18,-983.93C144.15,-979.82 158.25,-975.02 171,-970 187.46,-963.52 190.1,-958.25 207,-953 220.85,-948.69 235.78,-945.19 250.49,-942.35"/>
<polygon fill="black" stroke="black" stroke-width="0.5" points="250.87,-944.06 255.46,-941.41 250.23,-940.62 250.87,-944.06"/>
</g>
<!-- MathtextBackendSvg -->
<g id="node39" class="node">
<title>MathtextBackendSvg</title>
<g id="a_node39"><a xlink:href="../api/mathtext_api.html#matplotlib.mathtext.MathtextBackendSvg" xlink:title="Store information to write a mathtext rendering to the SVG" target="_top">
<polygon fill="none" stroke="black" stroke-width="0.5" points="437,-900 249,-900 249,-874 437,-874 437,-900"/>
<text text-anchor="middle" x="343" y="-883.2" font-family="Vera Sans, DejaVu Sans, Liberation Sans, Arial, Helvetica, sans" font-size="16.00">MathtextBackendSvg</text>
</a>
</g>
</g>
<!-- MathtextBackend&#45;&gt;MathtextBackendSvg -->
<g id="edge29" class="edge">
<title>MathtextBackend&#45;&gt;MathtextBackendSvg</title>
<path fill="none" stroke="black" stroke-width="0.5" d="M146.55,-983.89C155.3,-980.31 163.78,-975.76 171,-970 195.61,-950.37 181.01,-926.76 207,-909 218.09,-901.42 230.86,-896.12 244.04,-892.45"/>
<polygon fill="black" stroke="black" stroke-width="0.5" points="244.52,-894.14 248.91,-891.18 243.63,-890.75 244.52,-894.14"/>
</g>
<!-- MathtextBackendBitmap -->
<g id="node34" class="node">
<title>MathtextBackendBitmap</title>
<g id="a_node34"><a xlink:href="../api/mathtext_api.html#matplotlib.mathtext.MathtextBackendBitmap" xlink:title="MathtextBackendBitmap" target="_top">
<polygon fill="none" stroke="black" stroke-width="0.5" points="730,-1120 515,-1120 515,-1094 730,-1094 730,-1120"/>
<text text-anchor="middle" x="622.5" y="-1103.2" font-family="Vera Sans, DejaVu Sans, Liberation Sans, Arial, Helvetica, sans" font-size="16.00">MathtextBackendBitmap</text>
</a>
</g>
</g>
<!-- MathtextBackendAgg&#45;&gt;MathtextBackendBitmap -->
<g id="edge24" class="edge">
<title>MathtextBackendAgg&#45;&gt;MathtextBackendBitmap</title>
<path fill="none" stroke="black" stroke-width="0.5" d="M438.34,-1107C461.22,-1107 485.91,-1107 509.52,-1107"/>
<polygon fill="black" stroke="black" stroke-width="0.5" points="509.54,-1108.75 514.54,-1107 509.54,-1105.25 509.54,-1108.75"/>
</g>
<!-- Parser -->
<g id="node43" class="node">
<title>Parser</title>
<g id="a_node43"><a xlink:href="../api/mathtext_api.html#matplotlib.mathtext.Parser" xlink:title="This is the pyparsing&#45;based parser for math expressions. &#160;It" target="_top">
<polygon fill="none" stroke="black" stroke-width="0.5" points="119,-1054 52,-1054 52,-1028 119,-1028 119,-1054"/>
<text text-anchor="middle" x="85.5" y="-1037.2" font-family="Vera Sans, DejaVu Sans, Liberation Sans, Arial, Helvetica, sans" font-size="16.00">Parser</text>
</a>
</g>
</g>
<!-- Ship -->
<g id="node46" class="node">
<title>Ship</title>
<g id="a_node46"><a xlink:href="../api/mathtext_api.html#matplotlib.mathtext.Ship" xlink:title="Once the boxes have been set up, this sends them to output. &#160;Since" target="_top">
<polygon fill="none" stroke="black" stroke-width="0.5" points="112.5,-1098 58.5,-1098 58.5,-1072 112.5,-1072 112.5,-1098"/>
<text text-anchor="middle" x="85.5" y="-1081.2" font-family="Vera Sans, DejaVu Sans, Liberation Sans, Arial, Helvetica, sans" font-size="16.00">Ship</text>
</a>
</g>
</g>
<!-- StixSansFonts -->
<g id="node50" class="node">
<title>StixSansFonts</title>
<g id="a_node50"><a xlink:href="../api/mathtext_api.html#matplotlib.mathtext.StixSansFonts" xlink:title="A font handling class for the STIX fonts (that uses sans&#45;serif" target="_top">
<polygon fill="none" stroke="black" stroke-width="0.5" points="1060.5,-603 930.5,-603 930.5,-577 1060.5,-577 1060.5,-603"/>
<text text-anchor="middle" x="995.5" y="-586.2" font-family="Vera Sans, DejaVu Sans, Liberation Sans, Arial, Helvetica, sans" font-size="16.00">StixSansFonts</text>
</a>
</g>
</g>
<!-- StixFonts&#45;&gt;StixSansFonts -->
<g id="edge39" class="edge">
<title>StixFonts&#45;&gt;StixSansFonts</title>
<path fill="none" stroke="black" stroke-width="0.5" d="M869.53,-590C886.48,-590 906.22,-590 924.93,-590"/>
<polygon fill="black" stroke="black" stroke-width="0.5" points="925.18,-591.75 930.18,-590 925.18,-588.25 925.18,-591.75"/>
</g>
</g>
</svg>
