<?xml version="1.0" encoding="UTF-8" standalone="no"?>
<!DOCTYPE svg PUBLIC "-//W3C//DTD SVG 1.1//EN"
 "http://www.w3.org/Graphics/SVG/1.1/DTD/svg11.dtd">
<!-- Generated by graphviz version 2.43.0 (0)
 -->
<!-- Title: inheritancece9d8276cb Pages: 1 -->
<svg width="470pt" height="78pt"
 viewBox="0.00 0.00 470.00 78.00" xmlns="http://www.w3.org/2000/svg" xmlns:xlink="http://www.w3.org/1999/xlink">
<g id="graph0" class="graph" transform="scale(1 1) rotate(0) translate(4 74)">
<title>inheritancece9d8276cb</title>
<polygon fill="white" stroke="transparent" points="-4,4 -4,-74 466,-74 466,4 -4,4"/>
<!-- Animation -->
<g id="node1" class="node">
<title>Animation</title>
<g id="a_node1"><a xlink:href="../_as_gen/matplotlib.animation.Animation.html#matplotlib.animation.Animation" xlink:title="This class wraps the creation of an animation using matplotlib." target="_top">
<polygon fill="none" stroke="black" stroke-width="0.5" points="99,-48 0,-48 0,-22 99,-22 99,-48"/>
<text text-anchor="middle" x="49.5" y="-31.2" font-family="Vera Sans, DejaVu Sans, Liberation Sans, Arial, Helvetica, sans" font-size="16.00">Animation</text>
</a>
</g>
</g>
<!-- TimedAnimation -->
<g id="node3" class="node">
<title>TimedAnimation</title>
<g id="a_node3"><a xlink:href="../_as_gen/matplotlib.animation.TimedAnimation.html#matplotlib.animation.TimedAnimation" xlink:title=":class:`Animation` subclass for time&#45;based animation." target="_top">
<polygon fill="none" stroke="black" stroke-width="0.5" points="284,-48 135,-48 135,-22 284,-22 284,-48"/>
<text text-anchor="middle" x="209.5" y="-31.2" font-family="Vera Sans, DejaVu Sans, Liberation Sans, Arial, Helvetica, sans" font-size="16.00">TimedAnimation</text>
</a>
</g>
</g>
<!-- Animation&#45;&gt;TimedAnimation -->
<g id="edge3" class="edge">
<title>Animation&#45;&gt;TimedAnimation</title>
<path fill="none" stroke="black" stroke-width="0.5" d="M99.19,-35C108.93,-35 119.4,-35 129.86,-35"/>
<polygon fill="black" stroke="black" stroke-width="0.5" points="129.98,-36.75 134.98,-35 129.98,-33.25 129.98,-36.75"/>
</g>
<!-- ArtistAnimation -->
<g id="node2" class="node">
<title>ArtistAnimation</title>
<g id="a_node2"><a xlink:href="../_as_gen/matplotlib.animation.ArtistAnimation.html#matplotlib.animation.ArtistAnimation" xlink:title="Animation using a fixed set of `Artist` objects." target="_top">
<polygon fill="none" stroke="black" stroke-width="0.5" points="462,-70 320,-70 320,-44 462,-44 462,-70"/>
<text text-anchor="middle" x="391" y="-53.2" font-family="Vera Sans, DejaVu Sans, Liberation Sans, Arial, Helvetica, sans" font-size="16.00">ArtistAnimation</text>
</a>
</g>
</g>
<!-- TimedAnimation&#45;&gt;ArtistAnimation -->
<g id="edge1" class="edge">
<title>TimedAnimation&#45;&gt;ArtistAnimation</title>
<path fill="none" stroke="black" stroke-width="0.5" d="M284.03,-44.01C294.18,-45.26 304.62,-46.54 314.8,-47.78"/>
<polygon fill="black" stroke="black" stroke-width="0.5" points="314.6,-49.52 319.77,-48.39 315.02,-46.05 314.6,-49.52"/>
</g>
<!-- FuncAnimation -->
<g id="node4" class="node">
<title>FuncAnimation</title>
<g id="a_node4"><a xlink:href="../_as_gen/matplotlib.animation.FuncAnimation.html#matplotlib.animation.FuncAnimation" xlink:title="Makes an animation by repeatedly calling a function *func*." target="_top">
<polygon fill="none" stroke="black" stroke-width="0.5" points="459.5,-26 322.5,-26 322.5,0 459.5,0 459.5,-26"/>
<text text-anchor="middle" x="391" y="-9.2" font-family="Vera Sans, DejaVu Sans, Liberation Sans, Arial, Helvetica, sans" font-size="16.00">FuncAnimation</text>
</a>
</g>
</g>
<!-- TimedAnimation&#45;&gt;FuncAnimation -->
<g id="edge2" class="edge">
<title>TimedAnimation&#45;&gt;FuncAnimation</title>
<path fill="none" stroke="black" stroke-width="0.5" d="M284.03,-25.99C295.03,-24.64 306.36,-23.25 317.34,-21.91"/>
<polygon fill="black" stroke="black" stroke-width="0.5" points="317.61,-23.64 322.36,-21.29 317.18,-20.16 317.61,-23.64"/>
</g>
</g>
</svg>
