<?xml version="1.0" encoding="UTF-8" standalone="no"?>
<!DOCTYPE svg PUBLIC "-//W3C//DTD SVG 1.1//EN"
 "http://www.w3.org/Graphics/SVG/1.1/DTD/svg11.dtd">
<!-- Generated by graphviz version 2.43.0 (0)
 -->
<!-- Title: inheritance1bda3e63b5 Pages: 1 -->
<svg width="576pt" height="245pt"
 viewBox="0.00 0.00 576.00 245.23" xmlns="http://www.w3.org/2000/svg" xmlns:xlink="http://www.w3.org/1999/xlink">
<g id="graph0" class="graph" transform="scale(1.75 1.75) rotate(0) translate(4 426)">
<title>inheritance1bda3e63b5</title>
<polygon fill="white" stroke="transparent" points="-4,4 -4,-426 1006,-426 1006,4 -4,4"/>
<!-- AutoDateFormatter -->
<g id="node1" class="node">
<title>AutoDateFormatter</title>
<g id="a_node1"><a xlink:href="../api/dates_api.html#matplotlib.dates.AutoDateFormatter" xlink:title="This class attempts to figure out the best format to use. &#160;This is" target="_top">
<polygon fill="none" stroke="black" stroke-width="0.5" points="589.5,-290 419.5,-290 419.5,-264 589.5,-264 589.5,-290"/>
<text text-anchor="middle" x="504.5" y="-273.2" font-family="Vera Sans, DejaVu Sans, Liberation Sans, Arial, Helvetica, sans" font-size="16.00">AutoDateFormatter</text>
</a>
</g>
</g>
<!-- Formatter -->
<g id="node2" class="node">
<title>Formatter</title>
<g id="a_node2"><a xlink:href="../ticker_api.html#matplotlib.ticker.Formatter" xlink:title="Create a string based on a tick value and location." target="_top">
<polygon fill="none" stroke="black" stroke-width="0.5" points="340,-202 245,-202 245,-176 340,-176 340,-202"/>
<text text-anchor="middle" x="292.5" y="-185.2" font-family="Vera Sans, DejaVu Sans, Liberation Sans, Arial, Helvetica, sans" font-size="16.00">Formatter</text>
</a>
</g>
</g>
<!-- Formatter&#45;&gt;AutoDateFormatter -->
<g id="edge1" class="edge">
<title>Formatter&#45;&gt;AutoDateFormatter</title>
<path fill="none" stroke="black" stroke-width="0.5" d="M311.7,-202.08C333.23,-216.97 370.62,-241.02 406,-255 413.22,-257.85 420.89,-260.38 428.63,-262.61"/>
<polygon fill="black" stroke="black" stroke-width="0.5" points="428.18,-264.29 433.46,-263.95 429.12,-260.92 428.18,-264.29"/>
</g>
<!-- ConciseDateFormatter -->
<g id="node7" class="node">
<title>ConciseDateFormatter</title>
<g id="a_node7"><a xlink:href="../api/dates_api.html#matplotlib.dates.ConciseDateFormatter" xlink:title="This class attempts to figure out the best format to use for the" target="_top">
<polygon fill="none" stroke="black" stroke-width="0.5" points="602.5,-246 406.5,-246 406.5,-220 602.5,-220 602.5,-246"/>
<text text-anchor="middle" x="504.5" y="-229.2" font-family="Vera Sans, DejaVu Sans, Liberation Sans, Arial, Helvetica, sans" font-size="16.00">ConciseDateFormatter</text>
</a>
</g>
</g>
<!-- Formatter&#45;&gt;ConciseDateFormatter -->
<g id="edge4" class="edge">
<title>Formatter&#45;&gt;ConciseDateFormatter</title>
<path fill="none" stroke="black" stroke-width="0.5" d="M340.11,-198.77C368.32,-204.68 404.79,-212.32 436.11,-218.88"/>
<polygon fill="black" stroke="black" stroke-width="0.5" points="435.84,-220.61 441.09,-219.92 436.55,-217.19 435.84,-220.61"/>
</g>
<!-- DateFormatter -->
<g id="node9" class="node">
<title>DateFormatter</title>
<g id="a_node9"><a xlink:href="../api/dates_api.html#matplotlib.dates.DateFormatter" xlink:title="Format a tick (in days since the epoch) with a" target="_top">
<polygon fill="none" stroke="black" stroke-width="0.5" points="571,-202 438,-202 438,-176 571,-176 571,-202"/>
<text text-anchor="middle" x="504.5" y="-185.2" font-family="Vera Sans, DejaVu Sans, Liberation Sans, Arial, Helvetica, sans" font-size="16.00">DateFormatter</text>
</a>
</g>
</g>
<!-- Formatter&#45;&gt;DateFormatter -->
<g id="edge6" class="edge">
<title>Formatter&#45;&gt;DateFormatter</title>
<path fill="none" stroke="black" stroke-width="0.5" d="M340.11,-189C367.29,-189 402.14,-189 432.66,-189"/>
<polygon fill="black" stroke="black" stroke-width="0.5" points="432.91,-190.75 437.91,-189 432.91,-187.25 432.91,-190.75"/>
</g>
<!-- IndexDateFormatter -->
<g id="node15" class="node">
<title>IndexDateFormatter</title>
<g id="a_node15"><a xlink:href="../api/dates_api.html#matplotlib.dates.IndexDateFormatter" xlink:title="Use with `.IndexLocator` to cycle format strings by index." target="_top">
<polygon fill="none" stroke="black" stroke-width="0.5" points="593.5,-158 415.5,-158 415.5,-132 593.5,-132 593.5,-158"/>
<text text-anchor="middle" x="504.5" y="-141.2" font-family="Vera Sans, DejaVu Sans, Liberation Sans, Arial, Helvetica, sans" font-size="16.00">IndexDateFormatter</text>
</a>
</g>
</g>
<!-- Formatter&#45;&gt;IndexDateFormatter -->
<g id="edge11" class="edge">
<title>Formatter&#45;&gt;IndexDateFormatter</title>
<path fill="none" stroke="black" stroke-width="0.5" d="M340.11,-179.23C368.32,-173.32 404.79,-165.68 436.11,-159.12"/>
<polygon fill="black" stroke="black" stroke-width="0.5" points="436.55,-160.81 441.09,-158.08 435.84,-157.39 436.55,-160.81"/>
</g>
<!-- AutoDateLocator -->
<g id="node3" class="node">
<title>AutoDateLocator</title>
<g id="a_node3"><a xlink:href="../api/dates_api.html#matplotlib.dates.AutoDateLocator" xlink:title="On autoscale, this class picks the best `DateLocator` to set the view" target="_top">
<polygon fill="none" stroke="black" stroke-width="0.5" points="803.5,-180 651.5,-180 651.5,-154 803.5,-154 803.5,-180"/>
<text text-anchor="middle" x="727.5" y="-163.2" font-family="Vera Sans, DejaVu Sans, Liberation Sans, Arial, Helvetica, sans" font-size="16.00">AutoDateLocator</text>
</a>
</g>
</g>
<!-- DateLocator -->
<g id="node4" class="node">
<title>DateLocator</title>
<g id="a_node4"><a xlink:href="../api/dates_api.html#matplotlib.dates.DateLocator" xlink:title="Determines the tick locations when plotting dates." target="_top">
<polygon fill="none" stroke="black" stroke-width="0.5" points="561.5,-114 447.5,-114 447.5,-88 561.5,-88 561.5,-114"/>
<text text-anchor="middle" x="504.5" y="-97.2" font-family="Vera Sans, DejaVu Sans, Liberation Sans, Arial, Helvetica, sans" font-size="16.00">DateLocator</text>
</a>
</g>
</g>
<!-- DateLocator&#45;&gt;AutoDateLocator -->
<g id="edge2" class="edge">
<title>DateLocator&#45;&gt;AutoDateLocator</title>
<path fill="none" stroke="black" stroke-width="0.5" d="M561.63,-110.38C575.43,-113.58 589.97,-117.72 603,-123 620.38,-130.05 621.71,-137.74 639,-145 645.57,-147.76 652.57,-150.23 659.64,-152.43"/>
<polygon fill="black" stroke="black" stroke-width="0.5" points="659.25,-154.14 664.54,-153.91 660.26,-150.79 659.25,-154.14"/>
</g>
<!-- RRuleLocator -->
<g id="node12" class="node">
<title>RRuleLocator</title>
<g id="a_node12"><a xlink:href="../api/dates_api.html#matplotlib.dates.RRuleLocator" xlink:title="RRuleLocator" target="_top">
<polygon fill="none" stroke="black" stroke-width="0.5" points="789,-136 666,-136 666,-110 789,-110 789,-136"/>
<text text-anchor="middle" x="727.5" y="-119.2" font-family="Vera Sans, DejaVu Sans, Liberation Sans, Arial, Helvetica, sans" font-size="16.00">RRuleLocator</text>
</a>
</g>
</g>
<!-- DateLocator&#45;&gt;RRuleLocator -->
<g id="edge16" class="edge">
<title>DateLocator&#45;&gt;RRuleLocator</title>
<path fill="none" stroke="black" stroke-width="0.5" d="M561.55,-106.58C591.78,-109.59 629.25,-113.32 660.83,-116.46"/>
<polygon fill="black" stroke="black" stroke-width="0.5" points="660.7,-118.21 665.85,-116.96 661.05,-114.73 660.7,-118.21"/>
</g>
<!-- MicrosecondLocator -->
<g id="node16" class="node">
<title>MicrosecondLocator</title>
<g id="a_node16"><a xlink:href="../api/dates_api.html#matplotlib.dates.MicrosecondLocator" xlink:title="Make ticks on regular intervals of one or more microsecond(s)." target="_top">
<polygon fill="none" stroke="black" stroke-width="0.5" points="816,-92 639,-92 639,-66 816,-66 816,-92"/>
<text text-anchor="middle" x="727.5" y="-75.2" font-family="Vera Sans, DejaVu Sans, Liberation Sans, Arial, Helvetica, sans" font-size="16.00">MicrosecondLocator</text>
</a>
</g>
</g>
<!-- DateLocator&#45;&gt;MicrosecondLocator -->
<g id="edge13" class="edge">
<title>DateLocator&#45;&gt;MicrosecondLocator</title>
<path fill="none" stroke="black" stroke-width="0.5" d="M561.55,-95.42C583.4,-93.25 609.03,-90.69 633.49,-88.26"/>
<polygon fill="black" stroke="black" stroke-width="0.5" points="633.89,-89.98 638.69,-87.74 633.55,-86.49 633.89,-89.98"/>
</g>
<!-- YearLocator -->
<g id="node21" class="node">
<title>YearLocator</title>
<g id="a_node21"><a xlink:href="../api/dates_api.html#matplotlib.dates.YearLocator" xlink:title="Make ticks on a given day of each year that is a multiple of base." target="_top">
<polygon fill="none" stroke="black" stroke-width="0.5" points="782.5,-48 672.5,-48 672.5,-22 782.5,-22 782.5,-48"/>
<text text-anchor="middle" x="727.5" y="-31.2" font-family="Vera Sans, DejaVu Sans, Liberation Sans, Arial, Helvetica, sans" font-size="16.00">YearLocator</text>
</a>
</g>
</g>
<!-- DateLocator&#45;&gt;YearLocator -->
<g id="edge19" class="edge">
<title>DateLocator&#45;&gt;YearLocator</title>
<path fill="none" stroke="black" stroke-width="0.5" d="M542.68,-87.95C569.34,-78.79 606.19,-66.52 639,-57 648.1,-54.36 657.78,-51.74 667.26,-49.28"/>
<polygon fill="black" stroke="black" stroke-width="0.5" points="667.79,-50.95 672.19,-48.01 666.91,-47.56 667.79,-50.95"/>
</g>
<!-- ConciseDateConverter -->
<g id="node5" class="node">
<title>ConciseDateConverter</title>
<polygon fill="none" stroke="black" stroke-width="0.5" points="603,-334 406,-334 406,-308 603,-308 603,-334"/>
<text text-anchor="middle" x="504.5" y="-317.2" font-family="Vera Sans, DejaVu Sans, Liberation Sans, Arial, Helvetica, sans" font-size="16.00">ConciseDateConverter</text>
</g>
<!-- DateConverter -->
<g id="node6" class="node">
<title>DateConverter</title>
<g id="a_node6"><a xlink:title="Converter for `datetime.date` and `datetime.datetime` data, or for">
<polygon fill="none" stroke="black" stroke-width="0.5" points="359.5,-334 225.5,-334 225.5,-308 359.5,-308 359.5,-334"/>
<text text-anchor="middle" x="292.5" y="-317.2" font-family="Vera Sans, DejaVu Sans, Liberation Sans, Arial, Helvetica, sans" font-size="16.00">DateConverter</text>
</a>
</g>
</g>
<!-- DateConverter&#45;&gt;ConciseDateConverter -->
<g id="edge3" class="edge">
<title>DateConverter&#45;&gt;ConciseDateConverter</title>
<path fill="none" stroke="black" stroke-width="0.5" d="M359.66,-321C372.72,-321 386.72,-321 400.66,-321"/>
<polygon fill="black" stroke="black" stroke-width="0.5" points="400.8,-322.75 405.8,-321 400.8,-319.25 400.8,-322.75"/>
</g>
<!-- ConversionInterface -->
<g id="node8" class="node">
<title>ConversionInterface</title>
<g id="a_node8"><a xlink:href="../units_api.html#matplotlib.units.ConversionInterface" xlink:title="The minimal interface for a converter to take custom data types (or" target="_top">
<polygon fill="none" stroke="black" stroke-width="0.5" points="179,-334 0,-334 0,-308 179,-308 179,-334"/>
<text text-anchor="middle" x="89.5" y="-317.2" font-family="Vera Sans, DejaVu Sans, Liberation Sans, Arial, Helvetica, sans" font-size="16.00">ConversionInterface</text>
</a>
</g>
</g>
<!-- ConversionInterface&#45;&gt;DateConverter -->
<g id="edge5" class="edge">
<title>ConversionInterface&#45;&gt;DateConverter</title>
<path fill="none" stroke="black" stroke-width="0.5" d="M179.25,-321C192.89,-321 206.84,-321 220.04,-321"/>
<polygon fill="black" stroke="black" stroke-width="0.5" points="220.26,-322.75 225.26,-321 220.26,-319.25 220.26,-322.75"/>
</g>
<!-- Locator -->
<g id="node10" class="node">
<title>Locator</title>
<g id="a_node10"><a xlink:href="../ticker_api.html#matplotlib.ticker.Locator" xlink:title="Determine the tick locations;" target="_top">
<polygon fill="none" stroke="black" stroke-width="0.5" points="331,-136 254,-136 254,-110 331,-110 331,-136"/>
<text text-anchor="middle" x="292.5" y="-119.2" font-family="Vera Sans, DejaVu Sans, Liberation Sans, Arial, Helvetica, sans" font-size="16.00">Locator</text>
</a>
</g>
</g>
<!-- Locator&#45;&gt;DateLocator -->
<g id="edge7" class="edge">
<title>Locator&#45;&gt;DateLocator</title>
<path fill="none" stroke="black" stroke-width="0.5" d="M331.04,-119.07C361.85,-115.84 406.1,-111.2 442.06,-107.44"/>
<polygon fill="black" stroke="black" stroke-width="0.5" points="442.52,-109.15 447.31,-106.89 442.15,-105.67 442.52,-109.15"/>
</g>
<!-- DayLocator -->
<g id="node11" class="node">
<title>DayLocator</title>
<g id="a_node11"><a xlink:href="../api/dates_api.html#matplotlib.dates.DayLocator" xlink:title="Make ticks on occurrences of each day of the month. &#160;For example," target="_top">
<polygon fill="none" stroke="black" stroke-width="0.5" points="981,-246 873,-246 873,-220 981,-220 981,-246"/>
<text text-anchor="middle" x="927" y="-229.2" font-family="Vera Sans, DejaVu Sans, Liberation Sans, Arial, Helvetica, sans" font-size="16.00">DayLocator</text>
</a>
</g>
</g>
<!-- RRuleLocator&#45;&gt;DayLocator -->
<g id="edge8" class="edge">
<title>RRuleLocator&#45;&gt;DayLocator</title>
<path fill="none" stroke="black" stroke-width="0.5" d="M789.41,-131.36C798.94,-134.56 808.2,-138.96 816,-145 842.42,-165.46 826.02,-189.98 852,-211 856.8,-214.89 862.28,-218.09 868.02,-220.72"/>
<polygon fill="black" stroke="black" stroke-width="0.5" points="867.62,-222.45 872.9,-222.8 868.99,-219.23 867.62,-222.45"/>
</g>
<!-- HourLocator -->
<g id="node14" class="node">
<title>HourLocator</title>
<g id="a_node14"><a xlink:href="../api/dates_api.html#matplotlib.dates.HourLocator" xlink:title="Make ticks on occurrences of each hour." target="_top">
<polygon fill="none" stroke="black" stroke-width="0.5" points="985,-202 869,-202 869,-176 985,-176 985,-202"/>
<text text-anchor="middle" x="927" y="-185.2" font-family="Vera Sans, DejaVu Sans, Liberation Sans, Arial, Helvetica, sans" font-size="16.00">HourLocator</text>
</a>
</g>
</g>
<!-- RRuleLocator&#45;&gt;HourLocator -->
<g id="edge10" class="edge">
<title>RRuleLocator&#45;&gt;HourLocator</title>
<path fill="none" stroke="black" stroke-width="0.5" d="M789.06,-135.68C798.24,-138.33 807.48,-141.42 816,-145 833.29,-152.26 834.87,-159.38 852,-167 857.95,-169.65 864.31,-172.09 870.71,-174.29"/>
<polygon fill="black" stroke="black" stroke-width="0.5" points="870.31,-176.01 875.6,-175.94 871.42,-172.69 870.31,-176.01"/>
</g>
<!-- MinuteLocator -->
<g id="node17" class="node">
<title>MinuteLocator</title>
<g id="a_node17"><a xlink:href="../api/dates_api.html#matplotlib.dates.MinuteLocator" xlink:title="Make ticks on occurrences of each minute." target="_top">
<polygon fill="none" stroke="black" stroke-width="0.5" points="992.5,-158 861.5,-158 861.5,-132 992.5,-132 992.5,-158"/>
<text text-anchor="middle" x="927" y="-141.2" font-family="Vera Sans, DejaVu Sans, Liberation Sans, Arial, Helvetica, sans" font-size="16.00">MinuteLocator</text>
</a>
</g>
</g>
<!-- RRuleLocator&#45;&gt;MinuteLocator -->
<g id="edge14" class="edge">
<title>RRuleLocator&#45;&gt;MinuteLocator</title>
<path fill="none" stroke="black" stroke-width="0.5" d="M789.1,-129.75C810.3,-132.11 834.28,-134.78 856.18,-137.22"/>
<polygon fill="black" stroke="black" stroke-width="0.5" points="856.24,-138.99 861.4,-137.8 856.63,-135.51 856.24,-138.99"/>
</g>
<!-- MonthLocator -->
<g id="node18" class="node">
<title>MonthLocator</title>
<g id="a_node18"><a xlink:href="../api/dates_api.html#matplotlib.dates.MonthLocator" xlink:title="Make ticks on occurrences of each month, e.g., 1, 3, 12." target="_top">
<polygon fill="none" stroke="black" stroke-width="0.5" points="990.5,-114 863.5,-114 863.5,-88 990.5,-88 990.5,-114"/>
<text text-anchor="middle" x="927" y="-97.2" font-family="Vera Sans, DejaVu Sans, Liberation Sans, Arial, Helvetica, sans" font-size="16.00">MonthLocator</text>
</a>
</g>
</g>
<!-- RRuleLocator&#45;&gt;MonthLocator -->
<g id="edge15" class="edge">
<title>RRuleLocator&#45;&gt;MonthLocator</title>
<path fill="none" stroke="black" stroke-width="0.5" d="M789.1,-116.25C811.03,-113.81 835.92,-111.03 858.41,-108.53"/>
<polygon fill="black" stroke="black" stroke-width="0.5" points="858.69,-110.26 863.47,-107.97 858.3,-106.78 858.69,-110.26"/>
</g>
<!-- SecondLocator -->
<g id="node19" class="node">
<title>SecondLocator</title>
<g id="a_node19"><a xlink:href="../api/dates_api.html#matplotlib.dates.SecondLocator" xlink:title="Make ticks on occurrences of each second." target="_top">
<polygon fill="none" stroke="black" stroke-width="0.5" points="995.5,-70 858.5,-70 858.5,-44 995.5,-44 995.5,-70"/>
<text text-anchor="middle" x="927" y="-53.2" font-family="Vera Sans, DejaVu Sans, Liberation Sans, Arial, Helvetica, sans" font-size="16.00">SecondLocator</text>
</a>
</g>
</g>
<!-- RRuleLocator&#45;&gt;SecondLocator -->
<g id="edge17" class="edge">
<title>RRuleLocator&#45;&gt;SecondLocator</title>
<path fill="none" stroke="black" stroke-width="0.5" d="M789.06,-110.32C798.24,-107.67 807.48,-104.58 816,-101 833.29,-93.74 834.87,-86.62 852,-79 857.95,-76.35 864.31,-73.91 870.71,-71.71"/>
<polygon fill="black" stroke="black" stroke-width="0.5" points="871.42,-73.31 875.6,-70.06 870.31,-69.99 871.42,-73.31"/>
</g>
<!-- WeekdayLocator -->
<g id="node20" class="node">
<title>WeekdayLocator</title>
<g id="a_node20"><a xlink:href="../api/dates_api.html#matplotlib.dates.WeekdayLocator" xlink:title="Make ticks on occurrences of each weekday." target="_top">
<polygon fill="none" stroke="black" stroke-width="0.5" points="1002,-26 852,-26 852,0 1002,0 1002,-26"/>
<text text-anchor="middle" x="927" y="-9.2" font-family="Vera Sans, DejaVu Sans, Liberation Sans, Arial, Helvetica, sans" font-size="16.00">WeekdayLocator</text>
</a>
</g>
</g>
<!-- RRuleLocator&#45;&gt;WeekdayLocator -->
<g id="edge18" class="edge">
<title>RRuleLocator&#45;&gt;WeekdayLocator</title>
<path fill="none" stroke="black" stroke-width="0.5" d="M789.41,-114.64C798.94,-111.44 808.2,-107.04 816,-101 842.42,-80.54 826.02,-56.02 852,-35 854.94,-32.62 858.12,-30.5 861.47,-28.61"/>
<polygon fill="black" stroke="black" stroke-width="0.5" points="862.51,-30.05 866.13,-26.17 860.89,-26.95 862.51,-30.05"/>
</g>
<!-- TickHelper -->
<g id="node13" class="node">
<title>TickHelper</title>
<g id="a_node13"><a xlink:href="../ticker_api.html#matplotlib.ticker.TickHelper" xlink:title="TickHelper" target="_top">
<polygon fill="none" stroke="black" stroke-width="0.5" points="140,-180 39,-180 39,-154 140,-154 140,-180"/>
<text text-anchor="middle" x="89.5" y="-163.2" font-family="Vera Sans, DejaVu Sans, Liberation Sans, Arial, Helvetica, sans" font-size="16.00">TickHelper</text>
</a>
</g>
</g>
<!-- TickHelper&#45;&gt;Formatter -->
<g id="edge9" class="edge">
<title>TickHelper&#45;&gt;Formatter</title>
<path fill="none" stroke="black" stroke-width="0.5" d="M140.19,-172.44C170.41,-175.75 208.95,-179.96 239.57,-183.32"/>
<polygon fill="black" stroke="black" stroke-width="0.5" points="239.64,-185.08 244.8,-183.89 240.02,-181.6 239.64,-185.08"/>
</g>
<!-- TickHelper&#45;&gt;Locator -->
<g id="edge12" class="edge">
<title>TickHelper&#45;&gt;Locator</title>
<path fill="none" stroke="black" stroke-width="0.5" d="M140.19,-156.12C173.51,-148.83 216.95,-139.32 248.74,-132.36"/>
<polygon fill="black" stroke="black" stroke-width="0.5" points="249.22,-134.05 253.73,-131.27 248.48,-130.63 249.22,-134.05"/>
</g>
<!-- bytespdate2num -->
<g id="node22" class="node">
<title>bytespdate2num</title>
<g id="a_node22"><a xlink:title="[*Deprecated*] Use this class to parse date strings to matplotlib datenums when">
<polygon fill="none" stroke="black" stroke-width="0.5" points="370,-378 215,-378 215,-352 370,-352 370,-378"/>
<text text-anchor="middle" x="292.5" y="-361.2" font-family="Vera Sans, DejaVu Sans, Liberation Sans, Arial, Helvetica, sans" font-size="16.00">bytespdate2num</text>
</a>
</g>
</g>
<!-- strpdate2num -->
<g id="node23" class="node">
<title>strpdate2num</title>
<g id="a_node23"><a xlink:title="[*Deprecated*] Use this class to parse date strings to matplotlib datenums when">
<polygon fill="none" stroke="black" stroke-width="0.5" points="155,-378 24,-378 24,-352 155,-352 155,-378"/>
<text text-anchor="middle" x="89.5" y="-361.2" font-family="Vera Sans, DejaVu Sans, Liberation Sans, Arial, Helvetica, sans" font-size="16.00">strpdate2num</text>
</a>
</g>
</g>
<!-- strpdate2num&#45;&gt;bytespdate2num -->
<g id="edge20" class="edge">
<title>strpdate2num&#45;&gt;bytespdate2num</title>
<path fill="none" stroke="black" stroke-width="0.5" d="M155.2,-365C172.62,-365 191.68,-365 209.89,-365"/>
<polygon fill="black" stroke="black" stroke-width="0.5" points="210,-366.75 215,-365 210,-363.25 210,-366.75"/>
</g>
<!-- rrulewrapper -->
<g id="node24" class="node">
<title>rrulewrapper</title>
<polygon fill="none" stroke="black" stroke-width="0.5" points="150,-422 29,-422 29,-396 150,-396 150,-422"/>
<text text-anchor="middle" x="89.5" y="-405.2" font-family="Vera Sans, DejaVu Sans, Liberation Sans, Arial, Helvetica, sans" font-size="16.00">rrulewrapper</text>
</g>
</g>
</svg>
