<?xml version="1.0" encoding="UTF-8" standalone="no"?>
<!DOCTYPE svg PUBLIC "-//W3C//DTD SVG 1.1//EN"
 "http://www.w3.org/Graphics/SVG/1.1/DTD/svg11.dtd">
<!-- Generated by graphviz version 2.42.3 (0)
 -->
<!-- Title: inheritance03ab0131b5 Pages: 1 -->
<svg width="576pt" height="343pt"
 viewBox="0.00 0.00 576.00 342.93" xmlns="http://www.w3.org/2000/svg" xmlns:xlink="http://www.w3.org/1999/xlink">
<g id="graph0" class="graph" transform="scale(1.57 1.57) rotate(0) translate(4 536)">
<title>inheritance03ab0131b5</title>
<!-- artist.Artist -->
<g id="node1" class="node">
<title>artist.Artist</title>
<g id="a_node1"><a xlink:href="../../api/artist_api.html#matplotlib.artist.Artist" xlink:title="Abstract base class for objects that render into a FigureCanvas." target="_top">
<polygon fill="white" stroke="black" stroke-width="0.5" points="162,-290 56,-290 56,-264 162,-264 162,-290"/>
<text text-anchor="middle" x="109" y="-273.2" font-family="Vera Sans, DejaVu Sans, Liberation Sans, Arial, Helvetica, sans" font-size="16.00">artist.Artist</text>
</a>
</g>
</g>
<!-- lines.Line2D -->
<g id="node2" class="node">
<title>lines.Line2D</title>
<g id="a_node2"><a xlink:href="../../api/_as_gen/matplotlib.lines.Line2D.html#matplotlib.lines.Line2D" xlink:title="A line &#45; the line can have both a solid linestyle connecting all" target="_top">
<polygon fill="white" stroke="black" stroke-width="0.5" points="377,-334 261,-334 261,-308 377,-308 377,-334"/>
<text text-anchor="middle" x="319" y="-317.2" font-family="Vera Sans, DejaVu Sans, Liberation Sans, Arial, Helvetica, sans" font-size="16.00">lines.Line2D</text>
</a>
</g>
</g>
<!-- artist.Artist&#45;&gt;lines.Line2D -->
<g id="edge1" class="edge">
<title>artist.Artist&#45;&gt;lines.Line2D</title>
<path fill="none" stroke="black" stroke-width="0.5" d="M162.22,-287.47C179.94,-291.06 199.84,-295.15 218,-299 230.28,-301.6 243.4,-304.44 255.95,-307.19"/>
<polygon fill="black" stroke="black" stroke-width="0.5" points="255.66,-308.92 260.92,-308.28 256.41,-305.5 255.66,-308.92"/>
</g>
<!-- patches.Patch -->
<g id="node7" class="node">
<title>patches.Patch</title>
<g id="a_node7"><a xlink:href="../../api/_as_gen/matplotlib.patches.Patch.html#matplotlib.patches.Patch" xlink:title="A patch is a 2D artist with a face color and an edge color." target="_top">
<polygon fill="white" stroke="black" stroke-width="0.5" points="384,-290 254,-290 254,-264 384,-264 384,-290"/>
<text text-anchor="middle" x="319" y="-273.2" font-family="Vera Sans, DejaVu Sans, Liberation Sans, Arial, Helvetica, sans" font-size="16.00">patches.Patch</text>
</a>
</g>
</g>
<!-- artist.Artist&#45;&gt;patches.Patch -->
<g id="edge11" class="edge">
<title>artist.Artist&#45;&gt;patches.Patch</title>
<path fill="none" stroke="black" stroke-width="0.5" d="M162.22,-277C188.39,-277 220.43,-277 248.64,-277"/>
<polygon fill="black" stroke="black" stroke-width="0.5" points="248.86,-278.75 253.86,-277 248.86,-275.25 248.86,-278.75"/>
</g>
<!-- text.Text -->
<g id="node24" class="node">
<title>text.Text</title>
<g id="a_node24"><a xlink:href="../../api/text_api.html#matplotlib.text.Text" xlink:title="Handle storing and drawing of text in window or data coordinates." target="_top">
<polygon fill="white" stroke="black" stroke-width="0.5" points="362,-70 276,-70 276,-44 362,-44 362,-70"/>
<text text-anchor="middle" x="319" y="-53.2" font-family="Vera Sans, DejaVu Sans, Liberation Sans, Arial, Helvetica, sans" font-size="16.00">text.Text</text>
</a>
</g>
</g>
<!-- artist.Artist&#45;&gt;text.Text -->
<g id="edge19" class="edge">
<title>artist.Artist&#45;&gt;text.Text</title>
<path fill="none" stroke="black" stroke-width="0.5" d="M122.39,-263.9C158.23,-225.99 262,-116.23 302.01,-73.91"/>
<polygon fill="black" stroke="black" stroke-width="0.5" points="303.51,-74.87 305.68,-70.03 300.97,-72.47 303.51,-74.87"/>
</g>
<!-- lines.VertexSelector -->
<g id="node3" class="node">
<title>lines.VertexSelector</title>
<g id="a_node3"><a xlink:href="../../api/_as_gen/matplotlib.lines.VertexSelector.html#matplotlib.lines.VertexSelector" xlink:title="Manage the callbacks to maintain a list of selected vertices for" target="_top">
<polygon fill="white" stroke="black" stroke-width="0.5" points="197.5,-334 20.5,-334 20.5,-308 197.5,-308 197.5,-334"/>
<text text-anchor="middle" x="109" y="-317.2" font-family="Vera Sans, DejaVu Sans, Liberation Sans, Arial, Helvetica, sans" font-size="16.00">lines.VertexSelector</text>
</a>
</g>
</g>
<!-- patches.Arc -->
<g id="node4" class="node">
<title>patches.Arc</title>
<g id="a_node4"><a xlink:href="../../api/_as_gen/matplotlib.patches.Arc.html#matplotlib.patches.Arc" xlink:title="An elliptical arc, i.e. a segment of an ellipse." target="_top">
<polygon fill="white" stroke="black" stroke-width="0.5" points="844.5,-532 732.5,-532 732.5,-506 844.5,-506 844.5,-532"/>
<text text-anchor="middle" x="788.5" y="-515.2" font-family="Vera Sans, DejaVu Sans, Liberation Sans, Arial, Helvetica, sans" font-size="16.00">patches.Arc</text>
</a>
</g>
</g>
<!-- patches.Ellipse -->
<g id="node5" class="node">
<title>patches.Ellipse</title>
<g id="a_node5"><a xlink:href="../../api/_as_gen/matplotlib.patches.Ellipse.html#matplotlib.patches.Ellipse" xlink:title="A scale&#45;free ellipse." target="_top">
<polygon fill="white" stroke="black" stroke-width="0.5" points="599.5,-510 462.5,-510 462.5,-484 599.5,-484 599.5,-510"/>
<text text-anchor="middle" x="531" y="-493.2" font-family="Vera Sans, DejaVu Sans, Liberation Sans, Arial, Helvetica, sans" font-size="16.00">patches.Ellipse</text>
</a>
</g>
</g>
<!-- patches.Ellipse&#45;&gt;patches.Arc -->
<g id="edge2" class="edge">
<title>patches.Ellipse&#45;&gt;patches.Arc</title>
<path fill="none" stroke="black" stroke-width="0.5" d="M599.8,-502.84C639.41,-506.25 688.98,-510.52 727.22,-513.81"/>
<polygon fill="black" stroke="black" stroke-width="0.5" points="727.17,-515.56 732.31,-514.25 727.47,-512.07 727.17,-515.56"/>
</g>
<!-- patches.Circle -->
<g id="node10" class="node">
<title>patches.Circle</title>
<g id="a_node10"><a xlink:href="../../api/_as_gen/matplotlib.patches.Circle.html#matplotlib.patches.Circle" xlink:title="A circle patch." target="_top">
<polygon fill="white" stroke="black" stroke-width="0.5" points="854,-488 723,-488 723,-462 854,-462 854,-488"/>
<text text-anchor="middle" x="788.5" y="-471.2" font-family="Vera Sans, DejaVu Sans, Liberation Sans, Arial, Helvetica, sans" font-size="16.00">patches.Circle</text>
</a>
</g>
</g>
<!-- patches.Ellipse&#45;&gt;patches.Circle -->
<g id="edge4" class="edge">
<title>patches.Ellipse&#45;&gt;patches.Circle</title>
<path fill="none" stroke="black" stroke-width="0.5" d="M599.8,-491.16C636.15,-488.03 680.88,-484.18 717.56,-481.02"/>
<polygon fill="black" stroke="black" stroke-width="0.5" points="718.08,-482.73 722.91,-480.56 717.78,-479.25 718.08,-482.73"/>
</g>
<!-- patches.Arrow -->
<g id="node6" class="node">
<title>patches.Arrow</title>
<g id="a_node6"><a xlink:href="../../api/_as_gen/matplotlib.patches.Arrow.html#matplotlib.patches.Arrow" xlink:title="An arrow patch." target="_top">
<polygon fill="white" stroke="black" stroke-width="0.5" points="596.5,-466 465.5,-466 465.5,-440 596.5,-440 596.5,-466"/>
<text text-anchor="middle" x="531" y="-449.2" font-family="Vera Sans, DejaVu Sans, Liberation Sans, Arial, Helvetica, sans" font-size="16.00">patches.Arrow</text>
</a>
</g>
</g>
<!-- patches.Patch&#45;&gt;patches.Ellipse -->
<g id="edge7" class="edge">
<title>patches.Patch&#45;&gt;patches.Ellipse</title>
<path fill="none" stroke="black" stroke-width="0.5" d="M373.18,-290.02C377.2,-292.5 380.9,-295.47 384,-299 436.69,-358.99 363.42,-418.67 420,-475 430.08,-485.04 443.36,-491.14 457.2,-494.73"/>
<polygon fill="black" stroke="black" stroke-width="0.5" points="457.04,-496.49 462.31,-495.94 457.85,-493.09 457.04,-496.49"/>
</g>
<!-- patches.Patch&#45;&gt;patches.Arrow -->
<g id="edge3" class="edge">
<title>patches.Patch&#45;&gt;patches.Arrow</title>
<path fill="none" stroke="black" stroke-width="0.5" d="M372.63,-290.05C376.83,-292.53 380.71,-295.49 384,-299 425.58,-343.37 375.55,-389.51 420,-431 431.06,-441.33 445.55,-447.41 460.36,-450.88"/>
<polygon fill="black" stroke="black" stroke-width="0.5" points="460.13,-452.62 465.39,-451.96 460.86,-449.2 460.13,-452.62"/>
</g>
<!-- patches.RegularPolygon -->
<g id="node12" class="node">
<title>patches.RegularPolygon</title>
<g id="a_node12"><a xlink:href="../../api/_as_gen/matplotlib.patches.RegularPolygon.html#matplotlib.patches.RegularPolygon" xlink:title="A regular polygon patch." target="_top">
<polygon fill="white" stroke="black" stroke-width="0.5" points="637,-422 425,-422 425,-396 637,-396 637,-422"/>
<text text-anchor="middle" x="531" y="-405.2" font-family="Vera Sans, DejaVu Sans, Liberation Sans, Arial, Helvetica, sans" font-size="16.00">patches.RegularPolygon</text>
</a>
</g>
</g>
<!-- patches.Patch&#45;&gt;patches.RegularPolygon -->
<g id="edge15" class="edge">
<title>patches.Patch&#45;&gt;patches.RegularPolygon</title>
<path fill="none" stroke="black" stroke-width="0.5" d="M371.56,-290.14C376.08,-292.61 380.33,-295.53 384,-299 414.72,-328.01 387.41,-360.1 420,-387 422.89,-389.39 425.97,-391.54 429.19,-393.48"/>
<polygon fill="black" stroke="black" stroke-width="0.5" points="428.45,-395.07 433.67,-395.99 430.17,-392.02 428.45,-395.07"/>
</g>
<!-- patches.FancyArrowPatch -->
<g id="node14" class="node">
<title>patches.FancyArrowPatch</title>
<g id="a_node14"><a xlink:href="../../api/_as_gen/matplotlib.patches.FancyArrowPatch.html#matplotlib.patches.FancyArrowPatch" xlink:title="A fancy arrow patch. It draws an arrow using the :class:`ArrowStyle`." target="_top">
<polygon fill="white" stroke="black" stroke-width="0.5" points="642,-378 420,-378 420,-352 642,-352 642,-378"/>
<text text-anchor="middle" x="531" y="-361.2" font-family="Vera Sans, DejaVu Sans, Liberation Sans, Arial, Helvetica, sans" font-size="16.00">patches.FancyArrowPatch</text>
</a>
</g>
</g>
<!-- patches.Patch&#45;&gt;patches.FancyArrowPatch -->
<g id="edge9" class="edge">
<title>patches.Patch&#45;&gt;patches.FancyArrowPatch</title>
<path fill="none" stroke="black" stroke-width="0.5" d="M367.93,-290.14C373.58,-292.64 379.08,-295.58 384,-299 404.74,-313.43 398.34,-329.98 420,-343 424.38,-345.63 429.02,-347.96 433.82,-350.01"/>
<polygon fill="black" stroke="black" stroke-width="0.5" points="433.38,-351.72 438.67,-351.97 434.69,-348.47 433.38,-351.72"/>
</g>
<!-- patches.Polygon -->
<g id="node17" class="node">
<title>patches.Polygon</title>
<g id="a_node17"><a xlink:href="../../api/_as_gen/matplotlib.patches.Polygon.html#matplotlib.patches.Polygon" xlink:title="A general polygon patch." target="_top">
<polygon fill="white" stroke="black" stroke-width="0.5" points="605.5,-334 456.5,-334 456.5,-308 605.5,-308 605.5,-334"/>
<text text-anchor="middle" x="531" y="-317.2" font-family="Vera Sans, DejaVu Sans, Liberation Sans, Arial, Helvetica, sans" font-size="16.00">patches.Polygon</text>
</a>
</g>
</g>
<!-- patches.Patch&#45;&gt;patches.Polygon -->
<g id="edge13" class="edge">
<title>patches.Patch&#45;&gt;patches.Polygon</title>
<path fill="none" stroke="black" stroke-width="0.5" d="M378.39,-290.04C392.03,-293.04 406.52,-296.17 420,-299 432.45,-301.61 445.71,-304.33 458.56,-306.92"/>
<polygon fill="black" stroke="black" stroke-width="0.5" points="458.4,-308.67 463.65,-307.94 459.09,-305.24 458.4,-308.67"/>
</g>
<!-- patches.FancyBboxPatch -->
<g id="node18" class="node">
<title>patches.FancyBboxPatch</title>
<g id="a_node18"><a xlink:href="../../api/_as_gen/matplotlib.patches.FancyBboxPatch.html#matplotlib.patches.FancyBboxPatch" xlink:title="A fancy box around a rectangle with lower left at *xy* = (*x*, *y*)" target="_top">
<polygon fill="white" stroke="black" stroke-width="0.5" points="639.5,-290 422.5,-290 422.5,-264 639.5,-264 639.5,-290"/>
<text text-anchor="middle" x="531" y="-273.2" font-family="Vera Sans, DejaVu Sans, Liberation Sans, Arial, Helvetica, sans" font-size="16.00">patches.FancyBboxPatch</text>
</a>
</g>
</g>
<!-- patches.Patch&#45;&gt;patches.FancyBboxPatch -->
<g id="edge10" class="edge">
<title>patches.Patch&#45;&gt;patches.FancyBboxPatch</title>
<path fill="none" stroke="black" stroke-width="0.5" d="M384.15,-277C394.71,-277 405.93,-277 417.27,-277"/>
<polygon fill="black" stroke="black" stroke-width="0.5" points="417.49,-278.75 422.49,-277 417.49,-275.25 417.49,-278.75"/>
</g>
<!-- patches.PathPatch -->
<g id="node19" class="node">
<title>patches.PathPatch</title>
<g id="a_node19"><a xlink:href="../../api/_as_gen/matplotlib.patches.PathPatch.html#matplotlib.patches.PathPatch" xlink:title="A general polycurve path patch." target="_top">
<polygon fill="white" stroke="black" stroke-width="0.5" points="613.5,-246 448.5,-246 448.5,-220 613.5,-220 613.5,-246"/>
<text text-anchor="middle" x="531" y="-229.2" font-family="Vera Sans, DejaVu Sans, Liberation Sans, Arial, Helvetica, sans" font-size="16.00">patches.PathPatch</text>
</a>
</g>
</g>
<!-- patches.Patch&#45;&gt;patches.PathPatch -->
<g id="edge12" class="edge">
<title>patches.Patch&#45;&gt;patches.PathPatch</title>
<path fill="none" stroke="black" stroke-width="0.5" d="M378.39,-263.96C392.03,-260.96 406.52,-257.83 420,-255 432.45,-252.39 445.71,-249.67 458.56,-247.08"/>
<polygon fill="black" stroke="black" stroke-width="0.5" points="459.09,-248.76 463.65,-246.06 458.4,-245.33 459.09,-248.76"/>
</g>
<!-- patches.Rectangle -->
<g id="node20" class="node">
<title>patches.Rectangle</title>
<g id="a_node20"><a xlink:href="../../api/_as_gen/matplotlib.patches.Rectangle.html#matplotlib.patches.Rectangle" xlink:title="A rectangle with lower left at *xy* = (*x*, *y*) with" target="_top">
<polygon fill="white" stroke="black" stroke-width="0.5" points="614,-202 448,-202 448,-176 614,-176 614,-202"/>
<text text-anchor="middle" x="531" y="-185.2" font-family="Vera Sans, DejaVu Sans, Liberation Sans, Arial, Helvetica, sans" font-size="16.00">patches.Rectangle</text>
</a>
</g>
</g>
<!-- patches.Patch&#45;&gt;patches.Rectangle -->
<g id="edge14" class="edge">
<title>patches.Patch&#45;&gt;patches.Rectangle</title>
<path fill="none" stroke="black" stroke-width="0.5" d="M335.53,-263.95C354.32,-248.86 387.49,-224.38 420,-211 427.31,-207.99 435.06,-205.39 442.94,-203.13"/>
<polygon fill="black" stroke="black" stroke-width="0.5" points="443.51,-204.79 447.86,-201.77 442.57,-201.41 443.51,-204.79"/>
</g>
<!-- patches.Shadow -->
<g id="node21" class="node">
<title>patches.Shadow</title>
<g id="a_node21"><a xlink:href="../../api/_as_gen/matplotlib.patches.Shadow.html#matplotlib.patches.Shadow" xlink:title="patches.Shadow" target="_top">
<polygon fill="white" stroke="black" stroke-width="0.5" points="605.5,-158 456.5,-158 456.5,-132 605.5,-132 605.5,-158"/>
<text text-anchor="middle" x="531" y="-141.2" font-family="Vera Sans, DejaVu Sans, Liberation Sans, Arial, Helvetica, sans" font-size="16.00">patches.Shadow</text>
</a>
</g>
</g>
<!-- patches.Patch&#45;&gt;patches.Shadow -->
<g id="edge16" class="edge">
<title>patches.Patch&#45;&gt;patches.Shadow</title>
<path fill="none" stroke="black" stroke-width="0.5" d="M328,-263.65C342.91,-240.05 377.33,-191.16 420,-167 429.63,-161.55 440.4,-157.43 451.33,-154.33"/>
<polygon fill="black" stroke="black" stroke-width="0.5" points="451.99,-155.97 456.36,-152.98 451.08,-152.59 451.99,-155.97"/>
</g>
<!-- patches.Wedge -->
<g id="node22" class="node">
<title>patches.Wedge</title>
<g id="a_node22"><a xlink:href="../../api/_as_gen/matplotlib.patches.Wedge.html#matplotlib.patches.Wedge" xlink:title="Wedge shaped patch." target="_top">
<polygon fill="white" stroke="black" stroke-width="0.5" points="601.5,-114 460.5,-114 460.5,-88 601.5,-88 601.5,-114"/>
<text text-anchor="middle" x="531" y="-97.2" font-family="Vera Sans, DejaVu Sans, Liberation Sans, Arial, Helvetica, sans" font-size="16.00">patches.Wedge</text>
</a>
</g>
</g>
<!-- patches.Patch&#45;&gt;patches.Wedge -->
<g id="edge17" class="edge">
<title>patches.Patch&#45;&gt;patches.Wedge</title>
<path fill="none" stroke="black" stroke-width="0.5" d="M324.52,-263.71C335.57,-233.39 366.98,-158.98 420,-123 430.53,-115.86 442.85,-110.93 455.36,-107.55"/>
<polygon fill="black" stroke="black" stroke-width="0.5" points="455.93,-109.21 460.34,-106.28 455.07,-105.81 455.93,-109.21"/>
</g>
<!-- patches.ArrowStyle -->
<g id="node8" class="node">
<title>patches.ArrowStyle</title>
<g id="a_node8"><a xlink:href="../../api/_as_gen/matplotlib.patches.ArrowStyle.html#matplotlib.patches.ArrowStyle" xlink:title=":class:`ArrowStyle` is a container class which defines several" target="_top">
<polygon fill="white" stroke="black" stroke-width="0.5" points="195,-378 23,-378 23,-352 195,-352 195,-378"/>
<text text-anchor="middle" x="109" y="-361.2" font-family="Vera Sans, DejaVu Sans, Liberation Sans, Arial, Helvetica, sans" font-size="16.00">patches.ArrowStyle</text>
</a>
</g>
</g>
<!-- patches.BoxStyle -->
<g id="node9" class="node">
<title>patches.BoxStyle</title>
<g id="a_node9"><a xlink:href="../../api/_as_gen/matplotlib.patches.BoxStyle.html#matplotlib.patches.BoxStyle" xlink:title=":class:`BoxStyle` is a container class which defines several" target="_top">
<polygon fill="white" stroke="black" stroke-width="0.5" points="187,-422 31,-422 31,-396 187,-396 187,-422"/>
<text text-anchor="middle" x="109" y="-405.2" font-family="Vera Sans, DejaVu Sans, Liberation Sans, Arial, Helvetica, sans" font-size="16.00">patches.BoxStyle</text>
</a>
</g>
</g>
<!-- patches.CirclePolygon -->
<g id="node11" class="node">
<title>patches.CirclePolygon</title>
<g id="a_node11"><a xlink:href="../../api/_as_gen/matplotlib.patches.CirclePolygon.html#matplotlib.patches.CirclePolygon" xlink:title="A polygon&#45;approximation of a circle patch." target="_top">
<polygon fill="white" stroke="black" stroke-width="0.5" points="885.5,-422 691.5,-422 691.5,-396 885.5,-396 885.5,-422"/>
<text text-anchor="middle" x="788.5" y="-405.2" font-family="Vera Sans, DejaVu Sans, Liberation Sans, Arial, Helvetica, sans" font-size="16.00">patches.CirclePolygon</text>
</a>
</g>
</g>
<!-- patches.RegularPolygon&#45;&gt;patches.CirclePolygon -->
<g id="edge5" class="edge">
<title>patches.RegularPolygon&#45;&gt;patches.CirclePolygon</title>
<path fill="none" stroke="black" stroke-width="0.5" d="M637.03,-409C653.37,-409 670.22,-409 686.47,-409"/>
<polygon fill="black" stroke="black" stroke-width="0.5" points="686.49,-410.75 691.49,-409 686.49,-407.25 686.49,-410.75"/>
</g>
<!-- patches.ConnectionPatch -->
<g id="node13" class="node">
<title>patches.ConnectionPatch</title>
<g id="a_node13"><a xlink:href="../../api/_as_gen/matplotlib.patches.ConnectionPatch.html#matplotlib.patches.ConnectionPatch" xlink:title="A :class:`~matplotlib.patches.ConnectionPatch` class is to make" target="_top">
<polygon fill="white" stroke="black" stroke-width="0.5" points="899,-378 678,-378 678,-352 899,-352 899,-378"/>
<text text-anchor="middle" x="788.5" y="-361.2" font-family="Vera Sans, DejaVu Sans, Liberation Sans, Arial, Helvetica, sans" font-size="16.00">patches.ConnectionPatch</text>
</a>
</g>
</g>
<!-- patches.FancyArrowPatch&#45;&gt;patches.ConnectionPatch -->
<g id="edge6" class="edge">
<title>patches.FancyArrowPatch&#45;&gt;patches.ConnectionPatch</title>
<path fill="none" stroke="black" stroke-width="0.5" d="M642.21,-365C652.21,-365 662.37,-365 672.41,-365"/>
<polygon fill="black" stroke="black" stroke-width="0.5" points="672.66,-366.75 677.66,-365 672.66,-363.25 672.66,-366.75"/>
</g>
<!-- patches.ConnectionStyle -->
<g id="node15" class="node">
<title>patches.ConnectionStyle</title>
<g id="a_node15"><a xlink:href="../../api/_as_gen/matplotlib.patches.ConnectionStyle.html#matplotlib.patches.ConnectionStyle" xlink:title=":class:`ConnectionStyle` is a container class which defines" target="_top">
<polygon fill="white" stroke="black" stroke-width="0.5" points="218,-466 0,-466 0,-440 218,-440 218,-466"/>
<text text-anchor="middle" x="109" y="-449.2" font-family="Vera Sans, DejaVu Sans, Liberation Sans, Arial, Helvetica, sans" font-size="16.00">patches.ConnectionStyle</text>
</a>
</g>
</g>
<!-- patches.FancyArrow -->
<g id="node16" class="node">
<title>patches.FancyArrow</title>
<g id="a_node16"><a xlink:href="../../api/_as_gen/matplotlib.patches.FancyArrow.html#matplotlib.patches.FancyArrow" xlink:title="Like Arrow, but lets you set head width and head height independently." target="_top">
<polygon fill="white" stroke="black" stroke-width="0.5" points="877.5,-334 699.5,-334 699.5,-308 877.5,-308 877.5,-334"/>
<text text-anchor="middle" x="788.5" y="-317.2" font-family="Vera Sans, DejaVu Sans, Liberation Sans, Arial, Helvetica, sans" font-size="16.00">patches.FancyArrow</text>
</a>
</g>
</g>
<!-- patches.Polygon&#45;&gt;patches.FancyArrow -->
<g id="edge8" class="edge">
<title>patches.Polygon&#45;&gt;patches.FancyArrow</title>
<path fill="none" stroke="black" stroke-width="0.5" d="M605.56,-321C633.15,-321 664.89,-321 694.04,-321"/>
<polygon fill="black" stroke="black" stroke-width="0.5" points="694.08,-322.75 699.08,-321 694.08,-319.25 694.08,-322.75"/>
</g>
<!-- text.Annotation -->
<g id="node23" class="node">
<title>text.Annotation</title>
<g id="a_node23"><a xlink:href="../../api/text_api.html#matplotlib.text.Annotation" xlink:title="An `.Annotation` is a `.Text` that can refer to a specific position *xy*." target="_top">
<polygon fill="white" stroke="black" stroke-width="0.5" points="602,-70 460,-70 460,-44 602,-44 602,-70"/>
<text text-anchor="middle" x="531" y="-53.2" font-family="Vera Sans, DejaVu Sans, Liberation Sans, Arial, Helvetica, sans" font-size="16.00">text.Annotation</text>
</a>
</g>
</g>
<!-- text.Text&#45;&gt;text.Annotation -->
<g id="edge18" class="edge">
<title>text.Text&#45;&gt;text.Annotation</title>
<path fill="none" stroke="black" stroke-width="0.5" d="M362.24,-57C388.62,-57 423.35,-57 454.37,-57"/>
<polygon fill="black" stroke="black" stroke-width="0.5" points="454.71,-58.75 459.71,-57 454.71,-55.25 454.71,-58.75"/>
</g>
<!-- text.TextWithDash -->
<g id="node26" class="node">
<title>text.TextWithDash</title>
<g id="a_node26"><a xlink:href="../../api/text_api.html#matplotlib.text.TextWithDash" xlink:title="[*Deprecated*] This is basically a :class:`~matplotlib.text.Text` with a dash" target="_top">
<polygon fill="white" stroke="black" stroke-width="0.5" points="612.5,-26 449.5,-26 449.5,0 612.5,0 612.5,-26"/>
<text text-anchor="middle" x="531" y="-9.2" font-family="Vera Sans, DejaVu Sans, Liberation Sans, Arial, Helvetica, sans" font-size="16.00">text.TextWithDash</text>
</a>
</g>
</g>
<!-- text.Text&#45;&gt;text.TextWithDash -->
<g id="edge20" class="edge">
<title>text.Text&#45;&gt;text.TextWithDash</title>
<path fill="none" stroke="black" stroke-width="0.5" d="M362.29,-47.51C380.09,-43.56 401.04,-38.98 420,-35 432.45,-32.39 445.71,-29.67 458.56,-27.08"/>
<polygon fill="black" stroke="black" stroke-width="0.5" points="459.09,-28.76 463.65,-26.06 458.4,-25.33 459.09,-28.76"/>
</g>
<!-- text.OffsetFrom -->
<g id="node25" class="node">
<title>text.OffsetFrom</title>
<g id="a_node25"><a xlink:href="../../api/text_api.html#matplotlib.text.OffsetFrom" xlink:title="Callable helper class for working with `Annotation`" target="_top">
<polygon fill="white" stroke="black" stroke-width="0.5" points="179.5,-510 38.5,-510 38.5,-484 179.5,-484 179.5,-510"/>
<text text-anchor="middle" x="109" y="-493.2" font-family="Vera Sans, DejaVu Sans, Liberation Sans, Arial, Helvetica, sans" font-size="16.00">text.OffsetFrom</text>
</a>
</g>
</g>
</g>
</svg>
