<?xml version="1.0" encoding="UTF-8" standalone="no"?>
<!DOCTYPE svg PUBLIC "-//W3C//DTD SVG 1.1//EN"
 "http://www.w3.org/Graphics/SVG/1.1/DTD/svg11.dtd">
<!-- Generated by graphviz version 2.42.3 (0)
 -->
<!-- Title: inheritancedbde0cb62f Pages: 1 -->
<svg width="576pt" height="229pt"
 viewBox="0.00 0.00 576.00 228.56" xmlns="http://www.w3.org/2000/svg" xmlns:xlink="http://www.w3.org/1999/xlink">
<g id="graph0" class="graph" transform="scale(2.17 2.17) rotate(0) translate(4 492)">
<title>inheritancedbde0cb62f</title>
<!-- Affine2D -->
<g id="node1" class="node">
<title>Affine2D</title>
<g id="a_node1"><a xlink:href="../api/transformations.html#matplotlib.transforms.Affine2D" xlink:title="A mutable 2D affine transformation." target="_top">
<polygon fill="white" stroke="black" stroke-width="0.5" points="936.5,-488 850.5,-488 850.5,-462 936.5,-462 936.5,-488"/>
<text text-anchor="middle" x="893.5" y="-471.2" font-family="Vera Sans, DejaVu Sans, Liberation Sans, Arial, Helvetica, sans" font-size="16.00">Affine2D</text>
</a>
</g>
</g>
<!-- Affine2DBase -->
<g id="node2" class="node">
<title>Affine2DBase</title>
<g id="a_node2"><a xlink:href="../api/transformations.html#matplotlib.transforms.Affine2DBase" xlink:title="The base class of all 2D affine transformations." target="_top">
<polygon fill="white" stroke="black" stroke-width="0.5" points="769,-334 644,-334 644,-308 769,-308 769,-334"/>
<text text-anchor="middle" x="706.5" y="-317.2" font-family="Vera Sans, DejaVu Sans, Liberation Sans, Arial, Helvetica, sans" font-size="16.00">Affine2DBase</text>
</a>
</g>
</g>
<!-- Affine2DBase&#45;&gt;Affine2D -->
<g id="edge1" class="edge">
<title>Affine2DBase&#45;&gt;Affine2D</title>
<path fill="none" stroke="black" stroke-width="0.5" d="M713.41,-334.23C726.1,-361.05 758.61,-421.91 805,-453 816.94,-461 831.55,-466.09 845.4,-469.33"/>
<polygon fill="black" stroke="black" stroke-width="0.5" points="845.2,-471.08 850.46,-470.44 845.95,-467.66 845.2,-471.08"/>
</g>
<!-- BboxTransform -->
<g id="node8" class="node">
<title>BboxTransform</title>
<g id="a_node8"><a xlink:href="../api/transformations.html#matplotlib.transforms.BboxTransform" xlink:title="`BboxTransform` linearly transforms points from one `Bbox` to another." target="_top">
<polygon fill="white" stroke="black" stroke-width="0.5" points="962,-444 825,-444 825,-418 962,-418 962,-444"/>
<text text-anchor="middle" x="893.5" y="-427.2" font-family="Vera Sans, DejaVu Sans, Liberation Sans, Arial, Helvetica, sans" font-size="16.00">BboxTransform</text>
</a>
</g>
</g>
<!-- Affine2DBase&#45;&gt;BboxTransform -->
<g id="edge6" class="edge">
<title>Affine2DBase&#45;&gt;BboxTransform</title>
<path fill="none" stroke="black" stroke-width="0.5" d="M718.33,-334.23C734.93,-353.62 768.59,-389.57 805,-409 809.97,-411.65 815.28,-414 820.72,-416.06"/>
<polygon fill="black" stroke="black" stroke-width="0.5" points="820.45,-417.83 825.75,-417.88 821.65,-414.54 820.45,-417.83"/>
</g>
<!-- BboxTransformFrom -->
<g id="node9" class="node">
<title>BboxTransformFrom</title>
<g id="a_node9"><a xlink:href="../api/transformations.html#matplotlib.transforms.BboxTransformFrom" xlink:title="`BboxTransformFrom` linearly transforms points from a given `Bbox` to the" target="_top">
<polygon fill="white" stroke="black" stroke-width="0.5" points="982,-400 805,-400 805,-374 982,-374 982,-400"/>
<text text-anchor="middle" x="893.5" y="-383.2" font-family="Vera Sans, DejaVu Sans, Liberation Sans, Arial, Helvetica, sans" font-size="16.00">BboxTransformFrom</text>
</a>
</g>
</g>
<!-- Affine2DBase&#45;&gt;BboxTransformFrom -->
<g id="edge7" class="edge">
<title>Affine2DBase&#45;&gt;BboxTransformFrom</title>
<path fill="none" stroke="black" stroke-width="0.5" d="M733.06,-334.05C752.44,-343.56 779.92,-356.27 805,-365 812.72,-367.69 820.92,-370.19 829.1,-372.48"/>
<polygon fill="black" stroke="black" stroke-width="0.5" points="828.89,-374.24 834.18,-373.88 829.82,-370.86 828.89,-374.24"/>
</g>
<!-- BboxTransformTo -->
<g id="node10" class="node">
<title>BboxTransformTo</title>
<g id="a_node10"><a xlink:href="../api/transformations.html#matplotlib.transforms.BboxTransformTo" xlink:title="`BboxTransformTo` is a transformation that linearly transforms points from" target="_top">
<polygon fill="white" stroke="black" stroke-width="0.5" points="970.5,-356 816.5,-356 816.5,-330 970.5,-330 970.5,-356"/>
<text text-anchor="middle" x="893.5" y="-339.2" font-family="Vera Sans, DejaVu Sans, Liberation Sans, Arial, Helvetica, sans" font-size="16.00">BboxTransformTo</text>
</a>
</g>
</g>
<!-- Affine2DBase&#45;&gt;BboxTransformTo -->
<g id="edge8" class="edge">
<title>Affine2DBase&#45;&gt;BboxTransformTo</title>
<path fill="none" stroke="black" stroke-width="0.5" d="M769.1,-328.33C782.58,-329.93 797.05,-331.65 811.17,-333.33"/>
<polygon fill="black" stroke="black" stroke-width="0.5" points="811.18,-335.09 816.35,-333.94 811.59,-331.62 811.18,-335.09"/>
</g>
<!-- BlendedAffine2D -->
<g id="node12" class="node">
<title>BlendedAffine2D</title>
<g id="a_node12"><a xlink:href="../api/transformations.html#matplotlib.transforms.BlendedAffine2D" xlink:title="A &quot;blended&quot; transform uses one transform for the *x*&#45;direction, and" target="_top">
<polygon fill="white" stroke="black" stroke-width="0.5" points="970,-312 817,-312 817,-286 970,-286 970,-312"/>
<text text-anchor="middle" x="893.5" y="-295.2" font-family="Vera Sans, DejaVu Sans, Liberation Sans, Arial, Helvetica, sans" font-size="16.00">BlendedAffine2D</text>
</a>
</g>
</g>
<!-- Affine2DBase&#45;&gt;BlendedAffine2D -->
<g id="edge10" class="edge">
<title>Affine2DBase&#45;&gt;BlendedAffine2D</title>
<path fill="none" stroke="black" stroke-width="0.5" d="M769.1,-313.67C782.68,-312.06 797.25,-310.33 811.46,-308.64"/>
<polygon fill="black" stroke="black" stroke-width="0.5" points="811.92,-310.34 816.68,-308.02 811.51,-306.87 811.92,-310.34"/>
</g>
<!-- CompositeAffine2D -->
<g id="node14" class="node">
<title>CompositeAffine2D</title>
<g id="a_node14"><a xlink:href="../api/transformations.html#matplotlib.transforms.CompositeAffine2D" xlink:title="A composite transform formed by applying transform *a* then transform *b*." target="_top">
<polygon fill="white" stroke="black" stroke-width="0.5" points="979.5,-268 807.5,-268 807.5,-242 979.5,-242 979.5,-268"/>
<text text-anchor="middle" x="893.5" y="-251.2" font-family="Vera Sans, DejaVu Sans, Liberation Sans, Arial, Helvetica, sans" font-size="16.00">CompositeAffine2D</text>
</a>
</g>
</g>
<!-- Affine2DBase&#45;&gt;CompositeAffine2D -->
<g id="edge12" class="edge">
<title>Affine2DBase&#45;&gt;CompositeAffine2D</title>
<path fill="none" stroke="black" stroke-width="0.5" d="M733.06,-307.95C752.44,-298.44 779.92,-285.73 805,-277 812.72,-274.31 820.92,-271.81 829.1,-269.52"/>
<polygon fill="black" stroke="black" stroke-width="0.5" points="829.82,-271.14 834.18,-268.12 828.89,-267.76 829.82,-271.14"/>
</g>
<!-- IdentityTransform -->
<g id="node16" class="node">
<title>IdentityTransform</title>
<g id="a_node16"><a xlink:href="../api/transformations.html#matplotlib.transforms.IdentityTransform" xlink:title="A special class that does one thing, the identity transform, in a" target="_top">
<polygon fill="white" stroke="black" stroke-width="0.5" points="972.5,-224 814.5,-224 814.5,-198 972.5,-198 972.5,-224"/>
<text text-anchor="middle" x="893.5" y="-207.2" font-family="Vera Sans, DejaVu Sans, Liberation Sans, Arial, Helvetica, sans" font-size="16.00">IdentityTransform</text>
</a>
</g>
</g>
<!-- Affine2DBase&#45;&gt;IdentityTransform -->
<g id="edge14" class="edge">
<title>Affine2DBase&#45;&gt;IdentityTransform</title>
<path fill="none" stroke="black" stroke-width="0.5" d="M718.33,-307.77C734.93,-288.38 768.59,-252.43 805,-233 809.97,-230.35 815.28,-228 820.72,-225.94"/>
<polygon fill="black" stroke="black" stroke-width="0.5" points="821.65,-227.46 825.75,-224.12 820.45,-224.17 821.65,-227.46"/>
</g>
<!-- ScaledTranslation -->
<g id="node19" class="node">
<title>ScaledTranslation</title>
<g id="a_node19"><a xlink:href="../api/transformations.html#matplotlib.transforms.ScaledTranslation" xlink:title="A transformation that translates by *xt* and *yt*, after *xt* and *yt*" target="_top">
<polygon fill="white" stroke="black" stroke-width="0.5" points="972.5,-180 814.5,-180 814.5,-154 972.5,-154 972.5,-180"/>
<text text-anchor="middle" x="893.5" y="-163.2" font-family="Vera Sans, DejaVu Sans, Liberation Sans, Arial, Helvetica, sans" font-size="16.00">ScaledTranslation</text>
</a>
</g>
</g>
<!-- Affine2DBase&#45;&gt;ScaledTranslation -->
<g id="edge16" class="edge">
<title>Affine2DBase&#45;&gt;ScaledTranslation</title>
<path fill="none" stroke="black" stroke-width="0.5" d="M713.41,-307.77C726.1,-280.95 758.61,-220.09 805,-189 808.82,-186.44 812.92,-184.17 817.18,-182.17"/>
<polygon fill="black" stroke="black" stroke-width="0.5" points="817.99,-183.73 821.86,-180.11 816.58,-180.53 817.99,-183.73"/>
</g>
<!-- AffineBase -->
<g id="node3" class="node">
<title>AffineBase</title>
<g id="a_node3"><a xlink:href="../api/transformations.html#matplotlib.transforms.AffineBase" xlink:title="The base class of all affine transformations of any number of" target="_top">
<polygon fill="white" stroke="black" stroke-width="0.5" points="537,-334 434,-334 434,-308 537,-308 537,-334"/>
<text text-anchor="middle" x="485.5" y="-317.2" font-family="Vera Sans, DejaVu Sans, Liberation Sans, Arial, Helvetica, sans" font-size="16.00">AffineBase</text>
</a>
</g>
</g>
<!-- AffineBase&#45;&gt;Affine2DBase -->
<g id="edge2" class="edge">
<title>AffineBase&#45;&gt;Affine2DBase</title>
<path fill="none" stroke="black" stroke-width="0.5" d="M537.02,-321C567.23,-321 605.99,-321 638.71,-321"/>
<polygon fill="black" stroke="black" stroke-width="0.5" points="638.91,-322.75 643.91,-321 638.91,-319.25 638.91,-322.75"/>
</g>
<!-- Transform -->
<g id="node4" class="node">
<title>Transform</title>
<g id="a_node4"><a xlink:href="../api/transformations.html#matplotlib.transforms.Transform" xlink:title="The base class of all :class:`TransformNode` instances that" target="_top">
<polygon fill="white" stroke="black" stroke-width="0.5" points="299.5,-246 202.5,-246 202.5,-220 299.5,-220 299.5,-246"/>
<text text-anchor="middle" x="251" y="-229.2" font-family="Vera Sans, DejaVu Sans, Liberation Sans, Arial, Helvetica, sans" font-size="16.00">Transform</text>
</a>
</g>
</g>
<!-- Transform&#45;&gt;AffineBase -->
<g id="edge3" class="edge">
<title>Transform&#45;&gt;AffineBase</title>
<path fill="none" stroke="black" stroke-width="0.5" d="M269.45,-246.09C290.5,-261.22 327.51,-285.73 363,-299 383.82,-306.78 407.71,-311.87 428.76,-315.17"/>
<polygon fill="black" stroke="black" stroke-width="0.5" points="428.56,-316.91 433.77,-315.93 429.08,-313.45 428.56,-316.91"/>
</g>
<!-- BlendedGenericTransform -->
<g id="node13" class="node">
<title>BlendedGenericTransform</title>
<g id="a_node13"><a xlink:href="../api/transformations.html#matplotlib.transforms.BlendedGenericTransform" xlink:title="A &quot;blended&quot; transform uses one transform for the *x*&#45;direction, and" target="_top">
<polygon fill="white" stroke="black" stroke-width="0.5" points="599,-290 372,-290 372,-264 599,-264 599,-290"/>
<text text-anchor="middle" x="485.5" y="-273.2" font-family="Vera Sans, DejaVu Sans, Liberation Sans, Arial, Helvetica, sans" font-size="16.00">BlendedGenericTransform</text>
</a>
</g>
</g>
<!-- Transform&#45;&gt;BlendedGenericTransform -->
<g id="edge11" class="edge">
<title>Transform&#45;&gt;BlendedGenericTransform</title>
<path fill="none" stroke="black" stroke-width="0.5" d="M299.5,-242.59C319.14,-246.51 342.15,-251.05 363,-255 376.97,-257.65 391.87,-260.4 406.26,-263.03"/>
<polygon fill="black" stroke="black" stroke-width="0.5" points="406.31,-264.82 411.54,-263.99 406.94,-261.37 406.31,-264.82"/>
</g>
<!-- CompositeGenericTransform -->
<g id="node15" class="node">
<title>CompositeGenericTransform</title>
<g id="a_node15"><a xlink:href="../api/transformations.html#matplotlib.transforms.CompositeGenericTransform" xlink:title="A composite transform formed by applying transform *a* then" target="_top">
<polygon fill="white" stroke="black" stroke-width="0.5" points="608,-246 363,-246 363,-220 608,-220 608,-246"/>
<text text-anchor="middle" x="485.5" y="-229.2" font-family="Vera Sans, DejaVu Sans, Liberation Sans, Arial, Helvetica, sans" font-size="16.00">CompositeGenericTransform</text>
</a>
</g>
</g>
<!-- Transform&#45;&gt;CompositeGenericTransform -->
<g id="edge13" class="edge">
<title>Transform&#45;&gt;CompositeGenericTransform</title>
<path fill="none" stroke="black" stroke-width="0.5" d="M299.61,-233C316.83,-233 337.18,-233 357.97,-233"/>
<polygon fill="black" stroke="black" stroke-width="0.5" points="357.98,-234.75 362.98,-233 357.98,-231.25 357.98,-234.75"/>
</g>
<!-- TransformWrapper -->
<g id="node20" class="node">
<title>TransformWrapper</title>
<g id="a_node20"><a xlink:href="../api/transformations.html#matplotlib.transforms.TransformWrapper" xlink:title="A helper class that holds a single child transform and acts" target="_top">
<polygon fill="white" stroke="black" stroke-width="0.5" points="568.5,-202 402.5,-202 402.5,-176 568.5,-176 568.5,-202"/>
<text text-anchor="middle" x="485.5" y="-185.2" font-family="Vera Sans, DejaVu Sans, Liberation Sans, Arial, Helvetica, sans" font-size="16.00">TransformWrapper</text>
</a>
</g>
</g>
<!-- Transform&#45;&gt;TransformWrapper -->
<g id="edge18" class="edge">
<title>Transform&#45;&gt;TransformWrapper</title>
<path fill="none" stroke="black" stroke-width="0.5" d="M299.5,-223.41C319.14,-219.49 342.15,-214.95 363,-211 376.97,-208.35 391.87,-205.6 406.26,-202.97"/>
<polygon fill="black" stroke="black" stroke-width="0.5" points="406.94,-204.63 411.54,-202.01 406.31,-201.18 406.94,-204.63"/>
</g>
<!-- Bbox -->
<g id="node5" class="node">
<title>Bbox</title>
<g id="a_node5"><a xlink:href="../api/transformations.html#matplotlib.transforms.Bbox" xlink:title="A mutable bounding box." target="_top">
<polygon fill="white" stroke="black" stroke-width="0.5" points="514,-158 457,-158 457,-132 514,-132 514,-158"/>
<text text-anchor="middle" x="485.5" y="-141.2" font-family="Vera Sans, DejaVu Sans, Liberation Sans, Arial, Helvetica, sans" font-size="16.00">Bbox</text>
</a>
</g>
</g>
<!-- BboxBase -->
<g id="node6" class="node">
<title>BboxBase</title>
<g id="a_node6"><a xlink:href="../api/transformations.html#matplotlib.transforms.BboxBase" xlink:title="This is the base class of all bounding boxes, and provides read&#45;only access" target="_top">
<polygon fill="white" stroke="black" stroke-width="0.5" points="299,-114 203,-114 203,-88 299,-88 299,-114"/>
<text text-anchor="middle" x="251" y="-97.2" font-family="Vera Sans, DejaVu Sans, Liberation Sans, Arial, Helvetica, sans" font-size="16.00">BboxBase</text>
</a>
</g>
</g>
<!-- BboxBase&#45;&gt;Bbox -->
<g id="edge4" class="edge">
<title>BboxBase&#45;&gt;Bbox</title>
<path fill="none" stroke="black" stroke-width="0.5" d="M299.23,-110.54C318.93,-114.47 342.06,-119.03 363,-123 393.08,-128.7 427.42,-134.89 451.9,-139.25"/>
<polygon fill="black" stroke="black" stroke-width="0.5" points="451.74,-141 456.97,-140.15 452.35,-137.55 451.74,-141"/>
</g>
<!-- LockableBbox -->
<g id="node17" class="node">
<title>LockableBbox</title>
<g id="a_node17"><a xlink:href="../api/transformations.html#matplotlib.transforms.LockableBbox" xlink:title="A :class:`Bbox` where some elements may be locked at certain values." target="_top">
<polygon fill="white" stroke="black" stroke-width="0.5" points="549.5,-114 421.5,-114 421.5,-88 549.5,-88 549.5,-114"/>
<text text-anchor="middle" x="485.5" y="-97.2" font-family="Vera Sans, DejaVu Sans, Liberation Sans, Arial, Helvetica, sans" font-size="16.00">LockableBbox</text>
</a>
</g>
</g>
<!-- BboxBase&#45;&gt;LockableBbox -->
<g id="edge15" class="edge">
<title>BboxBase&#45;&gt;LockableBbox</title>
<path fill="none" stroke="black" stroke-width="0.5" d="M299.05,-101C332.7,-101 378.52,-101 416.19,-101"/>
<polygon fill="black" stroke="black" stroke-width="0.5" points="416.21,-102.75 421.21,-101 416.21,-99.25 416.21,-102.75"/>
</g>
<!-- TransformedBbox -->
<g id="node21" class="node">
<title>TransformedBbox</title>
<g id="a_node21"><a xlink:href="../api/transformations.html#matplotlib.transforms.TransformedBbox" xlink:title="A :class:`Bbox` that is automatically transformed by a given" target="_top">
<polygon fill="white" stroke="black" stroke-width="0.5" points="564.5,-70 406.5,-70 406.5,-44 564.5,-44 564.5,-70"/>
<text text-anchor="middle" x="485.5" y="-53.2" font-family="Vera Sans, DejaVu Sans, Liberation Sans, Arial, Helvetica, sans" font-size="16.00">TransformedBbox</text>
</a>
</g>
</g>
<!-- BboxBase&#45;&gt;TransformedBbox -->
<g id="edge19" class="edge">
<title>BboxBase&#45;&gt;TransformedBbox</title>
<path fill="none" stroke="black" stroke-width="0.5" d="M299.23,-91.46C318.93,-87.53 342.06,-82.97 363,-79 376.97,-76.35 391.87,-73.6 406.26,-70.97"/>
<polygon fill="black" stroke="black" stroke-width="0.5" points="406.94,-72.63 411.54,-70.01 406.31,-69.18 406.94,-72.63"/>
</g>
<!-- TransformNode -->
<g id="node7" class="node">
<title>TransformNode</title>
<g id="a_node7"><a xlink:href="../api/transformations.html#matplotlib.transforms.TransformNode" xlink:title=":class:`TransformNode` is the base class for anything that" target="_top">
<polygon fill="white" stroke="black" stroke-width="0.5" points="139,-114 0,-114 0,-88 139,-88 139,-114"/>
<text text-anchor="middle" x="69.5" y="-97.2" font-family="Vera Sans, DejaVu Sans, Liberation Sans, Arial, Helvetica, sans" font-size="16.00">TransformNode</text>
</a>
</g>
</g>
<!-- TransformNode&#45;&gt;Transform -->
<g id="edge17" class="edge">
<title>TransformNode&#45;&gt;Transform</title>
<path fill="none" stroke="black" stroke-width="0.5" d="M120.73,-114.08C127.09,-116.61 133.34,-119.56 139,-123 180.43,-148.16 218.1,-191.78 237.07,-215.84"/>
<polygon fill="black" stroke="black" stroke-width="0.5" points="235.72,-216.95 240.18,-219.81 238.48,-214.79 235.72,-216.95"/>
</g>
<!-- TransformNode&#45;&gt;BboxBase -->
<g id="edge5" class="edge">
<title>TransformNode&#45;&gt;BboxBase</title>
<path fill="none" stroke="black" stroke-width="0.5" d="M139.13,-101C158.58,-101 179.43,-101 197.75,-101"/>
<polygon fill="black" stroke="black" stroke-width="0.5" points="197.84,-102.75 202.84,-101 197.84,-99.25 197.84,-102.75"/>
</g>
<!-- TransformedPath -->
<g id="node23" class="node">
<title>TransformedPath</title>
<g id="a_node23"><a xlink:href="../api/transformations.html#matplotlib.transforms.TransformedPath" xlink:title="A `TransformedPath` caches a non&#45;affine transformed copy of the" target="_top">
<polygon fill="white" stroke="black" stroke-width="0.5" points="327,-48 175,-48 175,-22 327,-22 327,-48"/>
<text text-anchor="middle" x="251" y="-31.2" font-family="Vera Sans, DejaVu Sans, Liberation Sans, Arial, Helvetica, sans" font-size="16.00">TransformedPath</text>
</a>
</g>
</g>
<!-- TransformNode&#45;&gt;TransformedPath -->
<g id="edge21" class="edge">
<title>TransformNode&#45;&gt;TransformedPath</title>
<path fill="none" stroke="black" stroke-width="0.5" d="M105.96,-87.96C135.83,-76.98 178.56,-61.27 209.71,-49.81"/>
<polygon fill="black" stroke="black" stroke-width="0.5" points="210.52,-51.38 214.61,-48.01 209.31,-48.1 210.52,-51.38"/>
</g>
<!-- BboxTransformToMaxOnly -->
<g id="node11" class="node">
<title>BboxTransformToMaxOnly</title>
<g id="a_node11"><a xlink:href="../api/transformations.html#matplotlib.transforms.BboxTransformToMaxOnly" xlink:title="`BboxTransformTo` is a transformation that linearly transforms points from" target="_top">
<polygon fill="white" stroke="black" stroke-width="0.5" points="1242,-356 1018,-356 1018,-330 1242,-330 1242,-356"/>
<text text-anchor="middle" x="1130" y="-339.2" font-family="Vera Sans, DejaVu Sans, Liberation Sans, Arial, Helvetica, sans" font-size="16.00">BboxTransformToMaxOnly</text>
</a>
</g>
</g>
<!-- BboxTransformTo&#45;&gt;BboxTransformToMaxOnly -->
<g id="edge9" class="edge">
<title>BboxTransformTo&#45;&gt;BboxTransformToMaxOnly</title>
<path fill="none" stroke="black" stroke-width="0.5" d="M970.64,-343C984.09,-343 998.38,-343 1012.65,-343"/>
<polygon fill="black" stroke="black" stroke-width="0.5" points="1012.91,-344.75 1017.91,-343 1012.91,-341.25 1012.91,-344.75"/>
</g>
<!-- Path -->
<g id="node18" class="node">
<title>Path</title>
<g id="a_node18"><a xlink:href="../path_api.html#matplotlib.path.Path" xlink:title="A series of possibly disconnected, possibly closed, line and curve" target="_top">
<polygon fill="white" stroke="black" stroke-width="0.5" points="96.5,-158 42.5,-158 42.5,-132 96.5,-132 96.5,-158"/>
<text text-anchor="middle" x="69.5" y="-141.2" font-family="Vera Sans, DejaVu Sans, Liberation Sans, Arial, Helvetica, sans" font-size="16.00">Path</text>
</a>
</g>
</g>
<!-- TransformedPatchPath -->
<g id="node22" class="node">
<title>TransformedPatchPath</title>
<g id="a_node22"><a xlink:href="../api/transformations.html#matplotlib.transforms.TransformedPatchPath" xlink:title="A `TransformedPatchPath` caches a non&#45;affine transformed copy of the" target="_top">
<polygon fill="white" stroke="black" stroke-width="0.5" points="584,-26 387,-26 387,0 584,0 584,-26"/>
<text text-anchor="middle" x="485.5" y="-9.2" font-family="Vera Sans, DejaVu Sans, Liberation Sans, Arial, Helvetica, sans" font-size="16.00">TransformedPatchPath</text>
</a>
</g>
</g>
<!-- TransformedPath&#45;&gt;TransformedPatchPath -->
<g id="edge20" class="edge">
<title>TransformedPath&#45;&gt;TransformedPatchPath</title>
<path fill="none" stroke="black" stroke-width="0.5" d="M327.17,-27.89C344.51,-26.25 363.25,-24.47 381.54,-22.74"/>
<polygon fill="black" stroke="black" stroke-width="0.5" points="381.88,-24.47 386.69,-22.25 381.55,-20.98 381.88,-24.47"/>
</g>
</g>
</svg>
