<?xml version="1.0" encoding="UTF-8" standalone="no"?>
<!DOCTYPE svg PUBLIC "-//W3C//DTD SVG 1.1//EN"
 "http://www.w3.org/Graphics/SVG/1.1/DTD/svg11.dtd">
<!-- Generated by graphviz version 2.42.3 (0)
 -->
<!-- Title: inheritance829eaf436e Pages: 1 -->
<svg width="576pt" height="161pt"
 viewBox="0.00 0.00 576.00 160.65" xmlns="http://www.w3.org/2000/svg" xmlns:xlink="http://www.w3.org/1999/xlink">
<g id="graph0" class="graph" transform="scale(2.4 2.4) rotate(0) translate(4 382)">
<title>inheritance829eaf436e</title>
<polygon fill="white" stroke="transparent" points="-4,4 -4,-382 1380,-382 1380,4 -4,4"/>
<!-- artist.Artist -->
<g id="node1" class="node">
<title>artist.Artist</title>
<g id="a_node1"><a xlink:href="../artist_api.html#matplotlib.artist.Artist" xlink:title="Abstract base class for objects that render into a FigureCanvas." target="_top">
<polygon fill="none" stroke="black" stroke-width="0.5" points="141,-158 35,-158 35,-132 141,-132 141,-158"/>
<text text-anchor="middle" x="88" y="-141.2" font-family="Vera Sans, DejaVu Sans, Liberation Sans, Arial, Helvetica, sans" font-size="16.00">artist.Artist</text>
</a>
</g>
</g>
<!-- collections.Collection -->
<g id="node9" class="node">
<title>collections.Collection</title>
<g id="a_node9"><a xlink:href="../api/collections_api.html#matplotlib.collections.Collection" xlink:title="Base class for Collections. &#160;Must be subclassed to be usable." target="_top">
<polygon fill="none" stroke="black" stroke-width="0.5" points="399,-136 212,-136 212,-110 399,-110 399,-136"/>
<text text-anchor="middle" x="305.5" y="-119.2" font-family="Vera Sans, DejaVu Sans, Liberation Sans, Arial, Helvetica, sans" font-size="16.00">collections.Collection</text>
</a>
</g>
</g>
<!-- artist.Artist&#45;&gt;collections.Collection -->
<g id="edge4" class="edge">
<title>artist.Artist&#45;&gt;collections.Collection</title>
<path fill="none" stroke="black" stroke-width="0.5" d="M141.17,-139.67C160.97,-137.65 184.22,-135.28 206.87,-132.97"/>
<polygon fill="black" stroke="black" stroke-width="0.5" points="207.2,-134.69 212,-132.44 206.85,-131.21 207.2,-134.69"/>
</g>
<!-- cm.ScalarMappable -->
<g id="node2" class="node">
<title>cm.ScalarMappable</title>
<g id="a_node2"><a xlink:href="../cm_api.html#matplotlib.cm.ScalarMappable" xlink:title="This is a mixin class to support scalar data to RGBA mapping." target="_top">
<polygon fill="none" stroke="black" stroke-width="0.5" points="176,-114 0,-114 0,-88 176,-88 176,-114"/>
<text text-anchor="middle" x="88" y="-97.2" font-family="Vera Sans, DejaVu Sans, Liberation Sans, Arial, Helvetica, sans" font-size="16.00">cm.ScalarMappable</text>
</a>
</g>
</g>
<!-- cm.ScalarMappable&#45;&gt;collections.Collection -->
<g id="edge5" class="edge">
<title>cm.ScalarMappable&#45;&gt;collections.Collection</title>
<path fill="none" stroke="black" stroke-width="0.5" d="M176.03,-109.88C186.17,-110.92 196.56,-111.98 206.83,-113.03"/>
<polygon fill="black" stroke="black" stroke-width="0.5" points="206.71,-114.78 211.86,-113.54 207.07,-111.29 206.71,-114.78"/>
</g>
<!-- collections.AsteriskPolygonCollection -->
<g id="node3" class="node">
<title>collections.AsteriskPolygonCollection</title>
<g id="a_node3"><a xlink:href="../api/collections_api.html#matplotlib.collections.AsteriskPolygonCollection" xlink:title="Draw a collection of regular asterisks with *numsides* points." target="_top">
<polygon fill="none" stroke="black" stroke-width="0.5" points="1376,-378 1062,-378 1062,-352 1376,-352 1376,-378"/>
<text text-anchor="middle" x="1219" y="-361.2" font-family="Vera Sans, DejaVu Sans, Liberation Sans, Arial, Helvetica, sans" font-size="16.00">collections.AsteriskPolygonCollection</text>
</a>
</g>
</g>
<!-- collections.RegularPolyCollection -->
<g id="node4" class="node">
<title>collections.RegularPolyCollection</title>
<g id="a_node4"><a xlink:href="../api/collections_api.html#matplotlib.collections.RegularPolyCollection" xlink:title="Draw a collection of regular polygons with *numsides*." target="_top">
<polygon fill="none" stroke="black" stroke-width="0.5" points="1026,-334 744,-334 744,-308 1026,-308 1026,-334"/>
<text text-anchor="middle" x="885" y="-317.2" font-family="Vera Sans, DejaVu Sans, Liberation Sans, Arial, Helvetica, sans" font-size="16.00">collections.RegularPolyCollection</text>
</a>
</g>
</g>
<!-- collections.RegularPolyCollection&#45;&gt;collections.AsteriskPolygonCollection -->
<g id="edge1" class="edge">
<title>collections.RegularPolyCollection&#45;&gt;collections.AsteriskPolygonCollection</title>
<path fill="none" stroke="black" stroke-width="0.5" d="M984.26,-334.02C1025.33,-339.47 1073.07,-345.79 1114.66,-351.3"/>
<polygon fill="black" stroke="black" stroke-width="0.5" points="1114.52,-353.05 1119.7,-351.97 1114.98,-349.58 1114.52,-353.05"/>
</g>
<!-- collections.StarPolygonCollection -->
<g id="node16" class="node">
<title>collections.StarPolygonCollection</title>
<g id="a_node16"><a xlink:href="../api/collections_api.html#matplotlib.collections.StarPolygonCollection" xlink:title="Draw a collection of regular stars with *numsides* points." target="_top">
<polygon fill="none" stroke="black" stroke-width="0.5" points="1361,-334 1077,-334 1077,-308 1361,-308 1361,-334"/>
<text text-anchor="middle" x="1219" y="-317.2" font-family="Vera Sans, DejaVu Sans, Liberation Sans, Arial, Helvetica, sans" font-size="16.00">collections.StarPolygonCollection</text>
</a>
</g>
</g>
<!-- collections.RegularPolyCollection&#45;&gt;collections.StarPolygonCollection -->
<g id="edge14" class="edge">
<title>collections.RegularPolyCollection&#45;&gt;collections.StarPolygonCollection</title>
<path fill="none" stroke="black" stroke-width="0.5" d="M1026.32,-321C1041.34,-321 1056.66,-321 1071.75,-321"/>
<polygon fill="black" stroke="black" stroke-width="0.5" points="1071.86,-322.75 1076.86,-321 1071.86,-319.25 1071.86,-322.75"/>
</g>
<!-- collections.BrokenBarHCollection -->
<g id="node5" class="node">
<title>collections.BrokenBarHCollection</title>
<g id="a_node5"><a xlink:href="../api/collections_api.html#matplotlib.collections.BrokenBarHCollection" xlink:title="A collection of horizontal bars spanning *yrange* with a sequence of" target="_top">
<polygon fill="none" stroke="black" stroke-width="0.5" points="1360.5,-290 1077.5,-290 1077.5,-264 1360.5,-264 1360.5,-290"/>
<text text-anchor="middle" x="1219" y="-273.2" font-family="Vera Sans, DejaVu Sans, Liberation Sans, Arial, Helvetica, sans" font-size="16.00">collections.BrokenBarHCollection</text>
</a>
</g>
</g>
<!-- collections.PolyCollection -->
<g id="node6" class="node">
<title>collections.PolyCollection</title>
<g id="a_node6"><a xlink:href="../api/collections_api.html#matplotlib.collections.PolyCollection" xlink:title="collections.PolyCollection" target="_top">
<polygon fill="none" stroke="black" stroke-width="0.5" points="995,-290 775,-290 775,-264 995,-264 995,-290"/>
<text text-anchor="middle" x="885" y="-273.2" font-family="Vera Sans, DejaVu Sans, Liberation Sans, Arial, Helvetica, sans" font-size="16.00">collections.PolyCollection</text>
</a>
</g>
</g>
<!-- collections.PolyCollection&#45;&gt;collections.BrokenBarHCollection -->
<g id="edge2" class="edge">
<title>collections.PolyCollection&#45;&gt;collections.BrokenBarHCollection</title>
<path fill="none" stroke="black" stroke-width="0.5" d="M995.17,-277C1019.8,-277 1046.32,-277 1072.19,-277"/>
<polygon fill="black" stroke="black" stroke-width="0.5" points="1072.35,-278.75 1077.35,-277 1072.35,-275.25 1072.35,-278.75"/>
</g>
<!-- collections.CircleCollection -->
<g id="node7" class="node">
<title>collections.CircleCollection</title>
<g id="a_node7"><a xlink:href="../api/collections_api.html#matplotlib.collections.CircleCollection" xlink:title="A collection of circles, drawn using splines." target="_top">
<polygon fill="none" stroke="black" stroke-width="0.5" points="1001,-246 769,-246 769,-220 1001,-220 1001,-246"/>
<text text-anchor="middle" x="885" y="-229.2" font-family="Vera Sans, DejaVu Sans, Liberation Sans, Arial, Helvetica, sans" font-size="16.00">collections.CircleCollection</text>
</a>
</g>
</g>
<!-- collections._CollectionWithSizes -->
<g id="node8" class="node">
<title>collections._CollectionWithSizes</title>
<g id="a_node8"><a xlink:title="Base class for collections that have an array of sizes.">
<polygon fill="none" stroke="black" stroke-width="0.5" points="708,-246 435,-246 435,-220 708,-220 708,-246"/>
<text text-anchor="middle" x="571.5" y="-229.2" font-family="Vera Sans, DejaVu Sans, Liberation Sans, Arial, Helvetica, sans" font-size="16.00">collections._CollectionWithSizes</text>
</a>
</g>
</g>
<!-- collections._CollectionWithSizes&#45;&gt;collections.RegularPolyCollection -->
<g id="edge13" class="edge">
<title>collections._CollectionWithSizes&#45;&gt;collections.RegularPolyCollection</title>
<path fill="none" stroke="black" stroke-width="0.5" d="M601.01,-246.12C634.55,-261.05 692.23,-285.14 744,-299 755.23,-302.01 767.08,-304.65 778.95,-306.97"/>
<polygon fill="black" stroke="black" stroke-width="0.5" points="778.79,-308.72 784.03,-307.94 779.45,-305.28 778.79,-308.72"/>
</g>
<!-- collections._CollectionWithSizes&#45;&gt;collections.PolyCollection -->
<g id="edge11" class="edge">
<title>collections._CollectionWithSizes&#45;&gt;collections.PolyCollection</title>
<path fill="none" stroke="black" stroke-width="0.5" d="M664.7,-246.02C703.07,-251.44 747.66,-257.74 786.57,-263.24"/>
<polygon fill="black" stroke="black" stroke-width="0.5" points="786.58,-265.01 791.77,-263.97 787.07,-261.54 786.58,-265.01"/>
</g>
<!-- collections._CollectionWithSizes&#45;&gt;collections.CircleCollection -->
<g id="edge3" class="edge">
<title>collections._CollectionWithSizes&#45;&gt;collections.CircleCollection</title>
<path fill="none" stroke="black" stroke-width="0.5" d="M708.22,-233C726.66,-233 745.47,-233 763.61,-233"/>
<polygon fill="black" stroke="black" stroke-width="0.5" points="763.7,-234.75 768.7,-233 763.7,-231.25 763.7,-234.75"/>
</g>
<!-- collections.PathCollection -->
<g id="node14" class="node">
<title>collections.PathCollection</title>
<g id="a_node14"><a xlink:href="../api/collections_api.html#matplotlib.collections.PathCollection" xlink:title="This is the most basic :class:`Collection` subclass." target="_top">
<polygon fill="none" stroke="black" stroke-width="0.5" points="996,-202 774,-202 774,-176 996,-176 996,-202"/>
<text text-anchor="middle" x="885" y="-185.2" font-family="Vera Sans, DejaVu Sans, Liberation Sans, Arial, Helvetica, sans" font-size="16.00">collections.PathCollection</text>
</a>
</g>
</g>
<!-- collections._CollectionWithSizes&#45;&gt;collections.PathCollection -->
<g id="edge10" class="edge">
<title>collections._CollectionWithSizes&#45;&gt;collections.PathCollection</title>
<path fill="none" stroke="black" stroke-width="0.5" d="M664.7,-219.98C703.07,-214.56 747.66,-208.26 786.57,-202.76"/>
<polygon fill="black" stroke="black" stroke-width="0.5" points="787.07,-204.46 791.77,-202.03 786.58,-200.99 787.07,-204.46"/>
</g>
<!-- collections.Collection&#45;&gt;collections._CollectionWithSizes -->
<g id="edge16" class="edge">
<title>collections.Collection&#45;&gt;collections._CollectionWithSizes</title>
<path fill="none" stroke="black" stroke-width="0.5" d="M321.05,-136.22C343.64,-155.95 389.31,-192.71 435,-211 442.24,-213.9 449.84,-216.41 457.59,-218.6"/>
<polygon fill="black" stroke="black" stroke-width="0.5" points="457.15,-220.29 462.43,-219.92 458.07,-216.91 457.15,-220.29"/>
</g>
<!-- collections.EllipseCollection -->
<g id="node10" class="node">
<title>collections.EllipseCollection</title>
<g id="a_node10"><a xlink:href="../api/collections_api.html#matplotlib.collections.EllipseCollection" xlink:title="A collection of ellipses, drawn using splines." target="_top">
<polygon fill="none" stroke="black" stroke-width="0.5" points="691,-202 452,-202 452,-176 691,-176 691,-202"/>
<text text-anchor="middle" x="571.5" y="-185.2" font-family="Vera Sans, DejaVu Sans, Liberation Sans, Arial, Helvetica, sans" font-size="16.00">collections.EllipseCollection</text>
</a>
</g>
</g>
<!-- collections.Collection&#45;&gt;collections.EllipseCollection -->
<g id="edge6" class="edge">
<title>collections.Collection&#45;&gt;collections.EllipseCollection</title>
<path fill="none" stroke="black" stroke-width="0.5" d="M339.58,-136.06C365.27,-145.77 401.95,-158.72 435,-167 446.94,-169.99 459.58,-172.67 472.14,-175.04"/>
<polygon fill="black" stroke="black" stroke-width="0.5" points="471.91,-176.78 477.14,-175.97 472.55,-173.34 471.91,-176.78"/>
</g>
<!-- collections.LineCollection -->
<g id="node12" class="node">
<title>collections.LineCollection</title>
<g id="a_node12"><a xlink:href="../api/collections_api.html#matplotlib.collections.LineCollection" xlink:title="All parameters must be sequences or scalars; if scalars, they will" target="_top">
<polygon fill="none" stroke="black" stroke-width="0.5" points="682,-158 461,-158 461,-132 682,-132 682,-158"/>
<text text-anchor="middle" x="571.5" y="-141.2" font-family="Vera Sans, DejaVu Sans, Liberation Sans, Arial, Helvetica, sans" font-size="16.00">collections.LineCollection</text>
</a>
</g>
</g>
<!-- collections.Collection&#45;&gt;collections.LineCollection -->
<g id="edge8" class="edge">
<title>collections.Collection&#45;&gt;collections.LineCollection</title>
<path fill="none" stroke="black" stroke-width="0.5" d="M399.21,-130.73C417.4,-132.24 436.7,-133.85 455.52,-135.42"/>
<polygon fill="black" stroke="black" stroke-width="0.5" points="455.69,-137.19 460.82,-135.86 455.98,-133.7 455.69,-137.19"/>
</g>
<!-- collections.PatchCollection -->
<g id="node13" class="node">
<title>collections.PatchCollection</title>
<g id="a_node13"><a xlink:href="../api/collections_api.html#matplotlib.collections.PatchCollection" xlink:title="A generic collection of patches." target="_top">
<polygon fill="none" stroke="black" stroke-width="0.5" points="687,-114 456,-114 456,-88 687,-88 687,-114"/>
<text text-anchor="middle" x="571.5" y="-97.2" font-family="Vera Sans, DejaVu Sans, Liberation Sans, Arial, Helvetica, sans" font-size="16.00">collections.PatchCollection</text>
</a>
</g>
</g>
<!-- collections.Collection&#45;&gt;collections.PatchCollection -->
<g id="edge9" class="edge">
<title>collections.Collection&#45;&gt;collections.PatchCollection</title>
<path fill="none" stroke="black" stroke-width="0.5" d="M399.21,-115.27C415.77,-113.89 433.24,-112.44 450.43,-111.01"/>
<polygon fill="black" stroke="black" stroke-width="0.5" points="450.92,-112.72 455.76,-110.56 450.63,-109.23 450.92,-112.72"/>
</g>
<!-- collections.QuadMesh -->
<g id="node15" class="node">
<title>collections.QuadMesh</title>
<g id="a_node15"><a xlink:href="../api/collections_api.html#matplotlib.collections.QuadMesh" xlink:title="Class for the efficient drawing of a quadrilateral mesh." target="_top">
<polygon fill="none" stroke="black" stroke-width="0.5" points="668,-70 475,-70 475,-44 668,-44 668,-70"/>
<text text-anchor="middle" x="571.5" y="-53.2" font-family="Vera Sans, DejaVu Sans, Liberation Sans, Arial, Helvetica, sans" font-size="16.00">collections.QuadMesh</text>
</a>
</g>
</g>
<!-- collections.Collection&#45;&gt;collections.QuadMesh -->
<g id="edge12" class="edge">
<title>collections.Collection&#45;&gt;collections.QuadMesh</title>
<path fill="none" stroke="black" stroke-width="0.5" d="M339.58,-109.94C365.27,-100.23 401.95,-87.28 435,-79 446.94,-76.01 459.58,-73.33 472.14,-70.96"/>
<polygon fill="black" stroke="black" stroke-width="0.5" points="472.55,-72.66 477.14,-70.03 471.91,-69.22 472.55,-72.66"/>
</g>
<!-- collections.TriMesh -->
<g id="node17" class="node">
<title>collections.TriMesh</title>
<g id="a_node17"><a xlink:href="../api/collections_api.html#matplotlib.collections.TriMesh" xlink:title="Class for the efficient drawing of a triangular mesh using Gouraud shading." target="_top">
<polygon fill="none" stroke="black" stroke-width="0.5" points="655.5,-26 487.5,-26 487.5,0 655.5,0 655.5,-26"/>
<text text-anchor="middle" x="571.5" y="-9.2" font-family="Vera Sans, DejaVu Sans, Liberation Sans, Arial, Helvetica, sans" font-size="16.00">collections.TriMesh</text>
</a>
</g>
</g>
<!-- collections.Collection&#45;&gt;collections.TriMesh -->
<g id="edge15" class="edge">
<title>collections.Collection&#45;&gt;collections.TriMesh</title>
<path fill="none" stroke="black" stroke-width="0.5" d="M321.05,-109.78C343.64,-90.05 389.31,-53.29 435,-35 449.84,-29.06 466.2,-24.72 482.27,-21.56"/>
<polygon fill="black" stroke="black" stroke-width="0.5" points="482.66,-23.26 487.25,-20.61 482.01,-19.83 482.66,-23.26"/>
</g>
<!-- collections.EventCollection -->
<g id="node11" class="node">
<title>collections.EventCollection</title>
<g id="a_node11"><a xlink:href="../api/collections_api.html#matplotlib.collections.EventCollection" xlink:title="A collection of discrete events." target="_top">
<polygon fill="none" stroke="black" stroke-width="0.5" points="1001.5,-158 768.5,-158 768.5,-132 1001.5,-132 1001.5,-158"/>
<text text-anchor="middle" x="885" y="-141.2" font-family="Vera Sans, DejaVu Sans, Liberation Sans, Arial, Helvetica, sans" font-size="16.00">collections.EventCollection</text>
</a>
</g>
</g>
<!-- collections.LineCollection&#45;&gt;collections.EventCollection -->
<g id="edge7" class="edge">
<title>collections.LineCollection&#45;&gt;collections.EventCollection</title>
<path fill="none" stroke="black" stroke-width="0.5" d="M682.32,-145C708.43,-145 736.43,-145 763.01,-145"/>
<polygon fill="black" stroke="black" stroke-width="0.5" points="763.31,-146.75 768.31,-145 763.31,-143.25 763.31,-146.75"/>
</g>
</g>
</svg>
