<?xml version="1.0" encoding="UTF-8" standalone="no"?>
<!DOCTYPE svg PUBLIC "-//W3C//DTD SVG 1.1//EN"
 "http://www.w3.org/Graphics/SVG/1.1/DTD/svg11.dtd">
<!-- Generated by graphviz version 2.42.4 (0)
 -->
<!-- Title: inheritancedbde0cb62f Pages: 1 -->
<svg width="576pt" height="237pt"
 viewBox="0.00 0.00 576.00 236.99" xmlns="http://www.w3.org/2000/svg" xmlns:xlink="http://www.w3.org/1999/xlink">
<g id="graph0" class="graph" transform="scale(0.46 0.46) rotate(0) translate(4 514)">
<title>inheritancedbde0cb62f</title>
<!-- Affine2D -->
<g id="node1" class="node">
<title>Affine2D</title>
<g id="a_node1"><a xlink:href="../api/transformations.html#matplotlib.transforms.Affine2D" xlink:title="A mutable 2D affine transformation." target="_top">
<polygon fill="white" stroke="black" stroke-width="0.5" points="941,-510 855,-510 855,-484 941,-484 941,-510"/>
<text text-anchor="middle" x="898" y="-493.2" font-family="Vera Sans, DejaVu Sans, Liberation Sans, Arial, Helvetica, sans" font-size="16.00">Affine2D</text>
</a>
</g>
</g>
<!-- Affine2DBase -->
<g id="node2" class="node">
<title>Affine2DBase</title>
<g id="a_node2"><a xlink:href="../api/transformations.html#matplotlib.transforms.Affine2DBase" xlink:title="The base class of all 2D affine transformations." target="_top">
<polygon fill="white" stroke="black" stroke-width="0.5" points="769,-334 644,-334 644,-308 769,-308 769,-334"/>
<text text-anchor="middle" x="706.5" y="-317.2" font-family="Vera Sans, DejaVu Sans, Liberation Sans, Arial, Helvetica, sans" font-size="16.00">Affine2DBase</text>
</a>
</g>
</g>
<!-- Affine2DBase&#45;&gt;Affine2D -->
<g id="edge1" class="edge">
<title>Affine2DBase&#45;&gt;Affine2D</title>
<path fill="none" stroke="black" stroke-width="0.5" d="M711.9,-334.15C722.66,-364.17 753.25,-438.01 805,-475 817.96,-484.27 834.32,-489.67 849.63,-492.8"/>
<polygon fill="black" stroke="black" stroke-width="0.5" points="849.54,-494.57 854.77,-493.78 850.19,-491.13 849.54,-494.57"/>
</g>
<!-- AffineDeltaTransform -->
<g id="node5" class="node">
<title>AffineDeltaTransform</title>
<g id="a_node5"><a xlink:href="../api/transformations.html#matplotlib.transforms.AffineDeltaTransform" xlink:title="A transform wrapper for transforming displacements between pairs of points." target="_top">
<polygon fill="white" stroke="black" stroke-width="0.5" points="991,-466 805,-466 805,-440 991,-440 991,-466"/>
<text text-anchor="middle" x="898" y="-449.2" font-family="Vera Sans, DejaVu Sans, Liberation Sans, Arial, Helvetica, sans" font-size="16.00">AffineDeltaTransform</text>
</a>
</g>
</g>
<!-- Affine2DBase&#45;&gt;AffineDeltaTransform -->
<g id="edge4" class="edge">
<title>Affine2DBase&#45;&gt;AffineDeltaTransform</title>
<path fill="none" stroke="black" stroke-width="0.5" d="M715.31,-334.19C729.85,-357.55 763.42,-406.07 805,-431 809.33,-433.6 813.95,-435.89 818.72,-437.91"/>
<polygon fill="black" stroke="black" stroke-width="0.5" points="818.25,-439.6 823.54,-439.84 819.55,-436.35 818.25,-439.6"/>
</g>
<!-- BboxTransform -->
<g id="node9" class="node">
<title>BboxTransform</title>
<g id="a_node9"><a xlink:href="../api/transformations.html#matplotlib.transforms.BboxTransform" xlink:title="`BboxTransform` linearly transforms points from one `Bbox` to another." target="_top">
<polygon fill="white" stroke="black" stroke-width="0.5" points="966.5,-422 829.5,-422 829.5,-396 966.5,-396 966.5,-422"/>
<text text-anchor="middle" x="898" y="-405.2" font-family="Vera Sans, DejaVu Sans, Liberation Sans, Arial, Helvetica, sans" font-size="16.00">BboxTransform</text>
</a>
</g>
</g>
<!-- Affine2DBase&#45;&gt;BboxTransform -->
<g id="edge7" class="edge">
<title>Affine2DBase&#45;&gt;BboxTransform</title>
<path fill="none" stroke="black" stroke-width="0.5" d="M723,-334.13C741.4,-349.06 773.57,-373.16 805,-387 811.23,-389.74 817.85,-392.17 824.58,-394.32"/>
<polygon fill="black" stroke="black" stroke-width="0.5" points="824.44,-396.11 829.73,-395.91 825.47,-392.77 824.44,-396.11"/>
</g>
<!-- BboxTransformFrom -->
<g id="node10" class="node">
<title>BboxTransformFrom</title>
<g id="a_node10"><a xlink:href="../api/transformations.html#matplotlib.transforms.BboxTransformFrom" xlink:title="`BboxTransformFrom` linearly transforms points from a given `Bbox` to the" target="_top">
<polygon fill="white" stroke="black" stroke-width="0.5" points="986.5,-378 809.5,-378 809.5,-352 986.5,-352 986.5,-378"/>
<text text-anchor="middle" x="898" y="-361.2" font-family="Vera Sans, DejaVu Sans, Liberation Sans, Arial, Helvetica, sans" font-size="16.00">BboxTransformFrom</text>
</a>
</g>
</g>
<!-- Affine2DBase&#45;&gt;BboxTransformFrom -->
<g id="edge8" class="edge">
<title>Affine2DBase&#45;&gt;BboxTransformFrom</title>
<path fill="none" stroke="black" stroke-width="0.5" d="M763.59,-334.02C786.31,-339.3 812.61,-345.41 835.83,-350.8"/>
<polygon fill="black" stroke="black" stroke-width="0.5" points="835.46,-352.51 840.73,-351.93 836.25,-349.1 835.46,-352.51"/>
</g>
<!-- BboxTransformTo -->
<g id="node11" class="node">
<title>BboxTransformTo</title>
<g id="a_node11"><a xlink:href="../api/transformations.html#matplotlib.transforms.BboxTransformTo" xlink:title="`BboxTransformTo` is a transformation that linearly transforms points from" target="_top">
<polygon fill="white" stroke="black" stroke-width="0.5" points="975,-334 821,-334 821,-308 975,-308 975,-334"/>
<text text-anchor="middle" x="898" y="-317.2" font-family="Vera Sans, DejaVu Sans, Liberation Sans, Arial, Helvetica, sans" font-size="16.00">BboxTransformTo</text>
</a>
</g>
</g>
<!-- Affine2DBase&#45;&gt;BboxTransformTo -->
<g id="edge9" class="edge">
<title>Affine2DBase&#45;&gt;BboxTransformTo</title>
<path fill="none" stroke="black" stroke-width="0.5" d="M769.03,-321C783.88,-321 799.98,-321 815.59,-321"/>
<polygon fill="black" stroke="black" stroke-width="0.5" points="815.87,-322.75 820.87,-321 815.87,-319.25 815.87,-322.75"/>
</g>
<!-- BlendedAffine2D -->
<g id="node13" class="node">
<title>BlendedAffine2D</title>
<g id="a_node13"><a xlink:href="../api/transformations.html#matplotlib.transforms.BlendedAffine2D" xlink:title="A &quot;blended&quot; transform uses one transform for the *x*&#45;direction, and" target="_top">
<polygon fill="white" stroke="black" stroke-width="0.5" points="974.5,-290 821.5,-290 821.5,-264 974.5,-264 974.5,-290"/>
<text text-anchor="middle" x="898" y="-273.2" font-family="Vera Sans, DejaVu Sans, Liberation Sans, Arial, Helvetica, sans" font-size="16.00">BlendedAffine2D</text>
</a>
</g>
</g>
<!-- Affine2DBase&#45;&gt;BlendedAffine2D -->
<g id="edge11" class="edge">
<title>Affine2DBase&#45;&gt;BlendedAffine2D</title>
<path fill="none" stroke="black" stroke-width="0.5" d="M763.59,-307.98C786.31,-302.7 812.61,-296.59 835.83,-291.2"/>
<polygon fill="black" stroke="black" stroke-width="0.5" points="836.25,-292.9 840.73,-290.07 835.46,-289.49 836.25,-292.9"/>
</g>
<!-- CompositeAffine2D -->
<g id="node15" class="node">
<title>CompositeAffine2D</title>
<g id="a_node15"><a xlink:href="../api/transformations.html#matplotlib.transforms.CompositeAffine2D" xlink:title="A composite transform formed by applying transform *a* then transform *b*." target="_top">
<polygon fill="white" stroke="black" stroke-width="0.5" points="984,-246 812,-246 812,-220 984,-220 984,-246"/>
<text text-anchor="middle" x="898" y="-229.2" font-family="Vera Sans, DejaVu Sans, Liberation Sans, Arial, Helvetica, sans" font-size="16.00">CompositeAffine2D</text>
</a>
</g>
</g>
<!-- Affine2DBase&#45;&gt;CompositeAffine2D -->
<g id="edge13" class="edge">
<title>Affine2DBase&#45;&gt;CompositeAffine2D</title>
<path fill="none" stroke="black" stroke-width="0.5" d="M723,-307.87C741.4,-292.94 773.57,-268.84 805,-255 811.23,-252.26 817.85,-249.83 824.58,-247.68"/>
<polygon fill="black" stroke="black" stroke-width="0.5" points="825.47,-249.23 829.73,-246.09 824.44,-245.89 825.47,-249.23"/>
</g>
<!-- IdentityTransform -->
<g id="node17" class="node">
<title>IdentityTransform</title>
<g id="a_node17"><a xlink:href="../api/transformations.html#matplotlib.transforms.IdentityTransform" xlink:title="A special class that does one thing, the identity transform, in a" target="_top">
<polygon fill="white" stroke="black" stroke-width="0.5" points="977,-202 819,-202 819,-176 977,-176 977,-202"/>
<text text-anchor="middle" x="898" y="-185.2" font-family="Vera Sans, DejaVu Sans, Liberation Sans, Arial, Helvetica, sans" font-size="16.00">IdentityTransform</text>
</a>
</g>
</g>
<!-- Affine2DBase&#45;&gt;IdentityTransform -->
<g id="edge15" class="edge">
<title>Affine2DBase&#45;&gt;IdentityTransform</title>
<path fill="none" stroke="black" stroke-width="0.5" d="M715.31,-307.81C729.85,-284.45 763.42,-235.93 805,-211 809.33,-208.4 813.95,-206.11 818.72,-204.09"/>
<polygon fill="black" stroke="black" stroke-width="0.5" points="819.55,-205.65 823.54,-202.16 818.25,-202.4 819.55,-205.65"/>
</g>
<!-- ScaledTranslation -->
<g id="node20" class="node">
<title>ScaledTranslation</title>
<g id="a_node20"><a xlink:href="../api/transformations.html#matplotlib.transforms.ScaledTranslation" xlink:title="A transformation that translates by *xt* and *yt*, after *xt* and *yt*" target="_top">
<polygon fill="white" stroke="black" stroke-width="0.5" points="977,-158 819,-158 819,-132 977,-132 977,-158"/>
<text text-anchor="middle" x="898" y="-141.2" font-family="Vera Sans, DejaVu Sans, Liberation Sans, Arial, Helvetica, sans" font-size="16.00">ScaledTranslation</text>
</a>
</g>
</g>
<!-- Affine2DBase&#45;&gt;ScaledTranslation -->
<g id="edge17" class="edge">
<title>Affine2DBase&#45;&gt;ScaledTranslation</title>
<path fill="none" stroke="black" stroke-width="0.5" d="M711.9,-307.85C722.66,-277.83 753.25,-203.99 805,-167 808.46,-164.53 812.16,-162.33 816.01,-160.38"/>
<polygon fill="black" stroke="black" stroke-width="0.5" points="816.84,-161.93 820.6,-158.2 815.34,-158.76 816.84,-161.93"/>
</g>
<!-- AffineBase -->
<g id="node3" class="node">
<title>AffineBase</title>
<g id="a_node3"><a xlink:href="../api/transformations.html#matplotlib.transforms.AffineBase" xlink:title="The base class of all affine transformations of any number of dimensions." target="_top">
<polygon fill="white" stroke="black" stroke-width="0.5" points="537,-334 434,-334 434,-308 537,-308 537,-334"/>
<text text-anchor="middle" x="485.5" y="-317.2" font-family="Vera Sans, DejaVu Sans, Liberation Sans, Arial, Helvetica, sans" font-size="16.00">AffineBase</text>
</a>
</g>
</g>
<!-- AffineBase&#45;&gt;Affine2DBase -->
<g id="edge2" class="edge">
<title>AffineBase&#45;&gt;Affine2DBase</title>
<path fill="none" stroke="black" stroke-width="0.5" d="M537.02,-321C567.23,-321 605.99,-321 638.71,-321"/>
<polygon fill="black" stroke="black" stroke-width="0.5" points="638.91,-322.75 643.91,-321 638.91,-319.25 638.91,-322.75"/>
</g>
<!-- Transform -->
<g id="node4" class="node">
<title>Transform</title>
<g id="a_node4"><a xlink:href="../api/transformations.html#matplotlib.transforms.Transform" xlink:title="The base class of all `TransformNode` instances that" target="_top">
<polygon fill="white" stroke="black" stroke-width="0.5" points="299.5,-246 202.5,-246 202.5,-220 299.5,-220 299.5,-246"/>
<text text-anchor="middle" x="251" y="-229.2" font-family="Vera Sans, DejaVu Sans, Liberation Sans, Arial, Helvetica, sans" font-size="16.00">Transform</text>
</a>
</g>
</g>
<!-- Transform&#45;&gt;AffineBase -->
<g id="edge3" class="edge">
<title>Transform&#45;&gt;AffineBase</title>
<path fill="none" stroke="black" stroke-width="0.5" d="M269.45,-246.09C290.5,-261.22 327.51,-285.73 363,-299 383.82,-306.78 407.71,-311.87 428.76,-315.17"/>
<polygon fill="black" stroke="black" stroke-width="0.5" points="428.56,-316.91 433.77,-315.93 429.08,-313.45 428.56,-316.91"/>
</g>
<!-- BlendedGenericTransform -->
<g id="node14" class="node">
<title>BlendedGenericTransform</title>
<g id="a_node14"><a xlink:href="../api/transformations.html#matplotlib.transforms.BlendedGenericTransform" xlink:title="A &quot;blended&quot; transform uses one transform for the *x*&#45;direction, and" target="_top">
<polygon fill="white" stroke="black" stroke-width="0.5" points="599,-290 372,-290 372,-264 599,-264 599,-290"/>
<text text-anchor="middle" x="485.5" y="-273.2" font-family="Vera Sans, DejaVu Sans, Liberation Sans, Arial, Helvetica, sans" font-size="16.00">BlendedGenericTransform</text>
</a>
</g>
</g>
<!-- Transform&#45;&gt;BlendedGenericTransform -->
<g id="edge12" class="edge">
<title>Transform&#45;&gt;BlendedGenericTransform</title>
<path fill="none" stroke="black" stroke-width="0.5" d="M299.5,-242.59C319.14,-246.51 342.15,-251.05 363,-255 376.97,-257.65 391.87,-260.4 406.26,-263.03"/>
<polygon fill="black" stroke="black" stroke-width="0.5" points="406.31,-264.82 411.54,-263.99 406.94,-261.37 406.31,-264.82"/>
</g>
<!-- CompositeGenericTransform -->
<g id="node16" class="node">
<title>CompositeGenericTransform</title>
<g id="a_node16"><a xlink:href="../api/transformations.html#matplotlib.transforms.CompositeGenericTransform" xlink:title="A composite transform formed by applying transform *a* then" target="_top">
<polygon fill="white" stroke="black" stroke-width="0.5" points="608,-246 363,-246 363,-220 608,-220 608,-246"/>
<text text-anchor="middle" x="485.5" y="-229.2" font-family="Vera Sans, DejaVu Sans, Liberation Sans, Arial, Helvetica, sans" font-size="16.00">CompositeGenericTransform</text>
</a>
</g>
</g>
<!-- Transform&#45;&gt;CompositeGenericTransform -->
<g id="edge14" class="edge">
<title>Transform&#45;&gt;CompositeGenericTransform</title>
<path fill="none" stroke="black" stroke-width="0.5" d="M299.61,-233C316.83,-233 337.18,-233 357.97,-233"/>
<polygon fill="black" stroke="black" stroke-width="0.5" points="357.98,-234.75 362.98,-233 357.98,-231.25 357.98,-234.75"/>
</g>
<!-- TransformWrapper -->
<g id="node21" class="node">
<title>TransformWrapper</title>
<g id="a_node21"><a xlink:href="../api/transformations.html#matplotlib.transforms.TransformWrapper" xlink:title="A helper class that holds a single child transform and acts" target="_top">
<polygon fill="white" stroke="black" stroke-width="0.5" points="568.5,-202 402.5,-202 402.5,-176 568.5,-176 568.5,-202"/>
<text text-anchor="middle" x="485.5" y="-185.2" font-family="Vera Sans, DejaVu Sans, Liberation Sans, Arial, Helvetica, sans" font-size="16.00">TransformWrapper</text>
</a>
</g>
</g>
<!-- Transform&#45;&gt;TransformWrapper -->
<g id="edge19" class="edge">
<title>Transform&#45;&gt;TransformWrapper</title>
<path fill="none" stroke="black" stroke-width="0.5" d="M299.5,-223.41C319.14,-219.49 342.15,-214.95 363,-211 376.97,-208.35 391.87,-205.6 406.26,-202.97"/>
<polygon fill="black" stroke="black" stroke-width="0.5" points="406.94,-204.63 411.54,-202.01 406.31,-201.18 406.94,-204.63"/>
</g>
<!-- Bbox -->
<g id="node6" class="node">
<title>Bbox</title>
<g id="a_node6"><a xlink:href="../api/transformations.html#matplotlib.transforms.Bbox" xlink:title="A mutable bounding box." target="_top">
<polygon fill="white" stroke="black" stroke-width="0.5" points="514,-158 457,-158 457,-132 514,-132 514,-158"/>
<text text-anchor="middle" x="485.5" y="-141.2" font-family="Vera Sans, DejaVu Sans, Liberation Sans, Arial, Helvetica, sans" font-size="16.00">Bbox</text>
</a>
</g>
</g>
<!-- BboxBase -->
<g id="node7" class="node">
<title>BboxBase</title>
<g id="a_node7"><a xlink:href="../api/transformations.html#matplotlib.transforms.BboxBase" xlink:title="The base class of all bounding boxes." target="_top">
<polygon fill="white" stroke="black" stroke-width="0.5" points="299,-114 203,-114 203,-88 299,-88 299,-114"/>
<text text-anchor="middle" x="251" y="-97.2" font-family="Vera Sans, DejaVu Sans, Liberation Sans, Arial, Helvetica, sans" font-size="16.00">BboxBase</text>
</a>
</g>
</g>
<!-- BboxBase&#45;&gt;Bbox -->
<g id="edge5" class="edge">
<title>BboxBase&#45;&gt;Bbox</title>
<path fill="none" stroke="black" stroke-width="0.5" d="M299.23,-110.54C318.93,-114.47 342.06,-119.03 363,-123 393.08,-128.7 427.42,-134.89 451.9,-139.25"/>
<polygon fill="black" stroke="black" stroke-width="0.5" points="451.74,-141 456.97,-140.15 452.35,-137.55 451.74,-141"/>
</g>
<!-- LockableBbox -->
<g id="node18" class="node">
<title>LockableBbox</title>
<g id="a_node18"><a xlink:href="../api/transformations.html#matplotlib.transforms.LockableBbox" xlink:title="A `Bbox` where some elements may be locked at certain values." target="_top">
<polygon fill="white" stroke="black" stroke-width="0.5" points="549.5,-114 421.5,-114 421.5,-88 549.5,-88 549.5,-114"/>
<text text-anchor="middle" x="485.5" y="-97.2" font-family="Vera Sans, DejaVu Sans, Liberation Sans, Arial, Helvetica, sans" font-size="16.00">LockableBbox</text>
</a>
</g>
</g>
<!-- BboxBase&#45;&gt;LockableBbox -->
<g id="edge16" class="edge">
<title>BboxBase&#45;&gt;LockableBbox</title>
<path fill="none" stroke="black" stroke-width="0.5" d="M299.05,-101C332.7,-101 378.52,-101 416.19,-101"/>
<polygon fill="black" stroke="black" stroke-width="0.5" points="416.21,-102.75 421.21,-101 416.21,-99.25 416.21,-102.75"/>
</g>
<!-- TransformedBbox -->
<g id="node22" class="node">
<title>TransformedBbox</title>
<g id="a_node22"><a xlink:href="../api/transformations.html#matplotlib.transforms.TransformedBbox" xlink:title="A `Bbox` that is automatically transformed by a given" target="_top">
<polygon fill="white" stroke="black" stroke-width="0.5" points="564.5,-70 406.5,-70 406.5,-44 564.5,-44 564.5,-70"/>
<text text-anchor="middle" x="485.5" y="-53.2" font-family="Vera Sans, DejaVu Sans, Liberation Sans, Arial, Helvetica, sans" font-size="16.00">TransformedBbox</text>
</a>
</g>
</g>
<!-- BboxBase&#45;&gt;TransformedBbox -->
<g id="edge20" class="edge">
<title>BboxBase&#45;&gt;TransformedBbox</title>
<path fill="none" stroke="black" stroke-width="0.5" d="M299.23,-91.46C318.93,-87.53 342.06,-82.97 363,-79 376.97,-76.35 391.87,-73.6 406.26,-70.97"/>
<polygon fill="black" stroke="black" stroke-width="0.5" points="406.94,-72.63 411.54,-70.01 406.31,-69.18 406.94,-72.63"/>
</g>
<!-- TransformNode -->
<g id="node8" class="node">
<title>TransformNode</title>
<g id="a_node8"><a xlink:href="../api/transformations.html#matplotlib.transforms.TransformNode" xlink:title="The base class for anything that participates in the transform tree" target="_top">
<polygon fill="white" stroke="black" stroke-width="0.5" points="139,-114 0,-114 0,-88 139,-88 139,-114"/>
<text text-anchor="middle" x="69.5" y="-97.2" font-family="Vera Sans, DejaVu Sans, Liberation Sans, Arial, Helvetica, sans" font-size="16.00">TransformNode</text>
</a>
</g>
</g>
<!-- TransformNode&#45;&gt;Transform -->
<g id="edge18" class="edge">
<title>TransformNode&#45;&gt;Transform</title>
<path fill="none" stroke="black" stroke-width="0.5" d="M120.73,-114.08C127.09,-116.61 133.34,-119.56 139,-123 180.43,-148.16 218.1,-191.78 237.07,-215.84"/>
<polygon fill="black" stroke="black" stroke-width="0.5" points="235.72,-216.95 240.18,-219.81 238.48,-214.79 235.72,-216.95"/>
</g>
<!-- TransformNode&#45;&gt;BboxBase -->
<g id="edge6" class="edge">
<title>TransformNode&#45;&gt;BboxBase</title>
<path fill="none" stroke="black" stroke-width="0.5" d="M139.13,-101C158.58,-101 179.43,-101 197.75,-101"/>
<polygon fill="black" stroke="black" stroke-width="0.5" points="197.84,-102.75 202.84,-101 197.84,-99.25 197.84,-102.75"/>
</g>
<!-- TransformedPath -->
<g id="node24" class="node">
<title>TransformedPath</title>
<g id="a_node24"><a xlink:href="../api/transformations.html#matplotlib.transforms.TransformedPath" xlink:title="A `TransformedPath` caches a non&#45;affine transformed copy of the" target="_top">
<polygon fill="white" stroke="black" stroke-width="0.5" points="327,-48 175,-48 175,-22 327,-22 327,-48"/>
<text text-anchor="middle" x="251" y="-31.2" font-family="Vera Sans, DejaVu Sans, Liberation Sans, Arial, Helvetica, sans" font-size="16.00">TransformedPath</text>
</a>
</g>
</g>
<!-- TransformNode&#45;&gt;TransformedPath -->
<g id="edge22" class="edge">
<title>TransformNode&#45;&gt;TransformedPath</title>
<path fill="none" stroke="black" stroke-width="0.5" d="M105.96,-87.96C135.83,-76.98 178.56,-61.27 209.71,-49.81"/>
<polygon fill="black" stroke="black" stroke-width="0.5" points="210.52,-51.38 214.61,-48.01 209.31,-48.1 210.52,-51.38"/>
</g>
<!-- BboxTransformToMaxOnly -->
<g id="node12" class="node">
<title>BboxTransformToMaxOnly</title>
<g id="a_node12"><a xlink:href="../api/transformations.html#matplotlib.transforms.BboxTransformToMaxOnly" xlink:title="`BboxTransformTo` is a transformation that linearly transforms points from" target="_top">
<polygon fill="white" stroke="black" stroke-width="0.5" points="1251,-334 1027,-334 1027,-308 1251,-308 1251,-334"/>
<text text-anchor="middle" x="1139" y="-317.2" font-family="Vera Sans, DejaVu Sans, Liberation Sans, Arial, Helvetica, sans" font-size="16.00">BboxTransformToMaxOnly</text>
</a>
</g>
</g>
<!-- BboxTransformTo&#45;&gt;BboxTransformToMaxOnly -->
<g id="edge10" class="edge">
<title>BboxTransformTo&#45;&gt;BboxTransformToMaxOnly</title>
<path fill="none" stroke="black" stroke-width="0.5" d="M975.28,-321C990.01,-321 1005.75,-321 1021.42,-321"/>
<polygon fill="black" stroke="black" stroke-width="0.5" points="1021.73,-322.75 1026.73,-321 1021.73,-319.25 1021.73,-322.75"/>
</g>
<!-- Path -->
<g id="node19" class="node">
<title>Path</title>
<g id="a_node19"><a xlink:href="../path_api.html#matplotlib.path.Path" xlink:title="A series of possibly disconnected, possibly closed, line and curve" target="_top">
<polygon fill="white" stroke="black" stroke-width="0.5" points="96.5,-158 42.5,-158 42.5,-132 96.5,-132 96.5,-158"/>
<text text-anchor="middle" x="69.5" y="-141.2" font-family="Vera Sans, DejaVu Sans, Liberation Sans, Arial, Helvetica, sans" font-size="16.00">Path</text>
</a>
</g>
</g>
<!-- TransformedPatchPath -->
<g id="node23" class="node">
<title>TransformedPatchPath</title>
<g id="a_node23"><a xlink:href="../api/transformations.html#matplotlib.transforms.TransformedPatchPath" xlink:title="A `TransformedPatchPath` caches a non&#45;affine transformed copy of the" target="_top">
<polygon fill="white" stroke="black" stroke-width="0.5" points="584,-26 387,-26 387,0 584,0 584,-26"/>
<text text-anchor="middle" x="485.5" y="-9.2" font-family="Vera Sans, DejaVu Sans, Liberation Sans, Arial, Helvetica, sans" font-size="16.00">TransformedPatchPath</text>
</a>
</g>
</g>
<!-- TransformedPath&#45;&gt;TransformedPatchPath -->
<g id="edge21" class="edge">
<title>TransformedPath&#45;&gt;TransformedPatchPath</title>
<path fill="none" stroke="black" stroke-width="0.5" d="M327.17,-27.89C344.51,-26.25 363.25,-24.47 381.54,-22.74"/>
<polygon fill="black" stroke="black" stroke-width="0.5" points="381.88,-24.47 386.69,-22.25 381.55,-20.98 381.88,-24.47"/>
</g>
</g>
</svg>
