<?xml version="1.0" encoding="UTF-8" standalone="no"?>
<!DOCTYPE svg PUBLIC "-//W3C//DTD SVG 1.1//EN"
 "http://www.w3.org/Graphics/SVG/1.1/DTD/svg11.dtd">
<!-- Generated by graphviz version 2.42.4 (0)
 -->
<!-- Title: inheritance03ab0131b5 Pages: 1 -->
<svg width="576pt" height="315pt"
 viewBox="0.00 0.00 576.00 314.99" xmlns="http://www.w3.org/2000/svg" xmlns:xlink="http://www.w3.org/1999/xlink">
<g id="graph0" class="graph" transform="scale(0.64 0.64) rotate(0) translate(4 492)">
<title>inheritance03ab0131b5</title>
<!-- artist.Artist -->
<g id="node1" class="node">
<title>artist.Artist</title>
<g id="a_node1"><a xlink:href="../../api/artist_api.html#matplotlib.artist.Artist" xlink:title="Abstract base class for objects that render into a FigureCanvas." target="_top">
<polygon fill="white" stroke="black" stroke-width="0.5" points="162,-246 56,-246 56,-220 162,-220 162,-246"/>
<text text-anchor="middle" x="109" y="-229.2" font-family="Vera Sans, DejaVu Sans, Liberation Sans, Arial, Helvetica, sans" font-size="16.00">artist.Artist</text>
</a>
</g>
</g>
<!-- lines.Line2D -->
<g id="node2" class="node">
<title>lines.Line2D</title>
<g id="a_node2"><a xlink:href="../../api/_as_gen/matplotlib.lines.Line2D.html#matplotlib.lines.Line2D" xlink:title="A line &#45; the line can have both a solid linestyle connecting all" target="_top">
<polygon fill="white" stroke="black" stroke-width="0.5" points="377,-290 261,-290 261,-264 377,-264 377,-290"/>
<text text-anchor="middle" x="319" y="-273.2" font-family="Vera Sans, DejaVu Sans, Liberation Sans, Arial, Helvetica, sans" font-size="16.00">lines.Line2D</text>
</a>
</g>
</g>
<!-- artist.Artist&#45;&gt;lines.Line2D -->
<g id="edge1" class="edge">
<title>artist.Artist&#45;&gt;lines.Line2D</title>
<path fill="none" stroke="black" stroke-width="0.5" d="M162.22,-243.47C179.94,-247.06 199.84,-251.15 218,-255 230.28,-257.6 243.4,-260.44 255.95,-263.19"/>
<polygon fill="black" stroke="black" stroke-width="0.5" points="255.66,-264.92 260.92,-264.28 256.41,-261.5 255.66,-264.92"/>
</g>
<!-- patches.Patch -->
<g id="node7" class="node">
<title>patches.Patch</title>
<g id="a_node7"><a xlink:href="../../api/_as_gen/matplotlib.patches.Patch.html#matplotlib.patches.Patch" xlink:title="A patch is a 2D artist with a face color and an edge color." target="_top">
<polygon fill="white" stroke="black" stroke-width="0.5" points="384,-246 254,-246 254,-220 384,-220 384,-246"/>
<text text-anchor="middle" x="319" y="-229.2" font-family="Vera Sans, DejaVu Sans, Liberation Sans, Arial, Helvetica, sans" font-size="16.00">patches.Patch</text>
</a>
</g>
</g>
<!-- artist.Artist&#45;&gt;patches.Patch -->
<g id="edge11" class="edge">
<title>artist.Artist&#45;&gt;patches.Patch</title>
<path fill="none" stroke="black" stroke-width="0.5" d="M162.22,-233C188.39,-233 220.43,-233 248.64,-233"/>
<polygon fill="black" stroke="black" stroke-width="0.5" points="248.86,-234.75 253.86,-233 248.86,-231.25 248.86,-234.75"/>
</g>
<!-- text.Text -->
<g id="node24" class="node">
<title>text.Text</title>
<g id="a_node24"><a xlink:href="../../api/text_api.html#matplotlib.text.Text" xlink:title="Handle storing and drawing of text in window or data coordinates." target="_top">
<polygon fill="white" stroke="black" stroke-width="0.5" points="362,-114 276,-114 276,-88 362,-88 362,-114"/>
<text text-anchor="middle" x="319" y="-97.2" font-family="Vera Sans, DejaVu Sans, Liberation Sans, Arial, Helvetica, sans" font-size="16.00">text.Text</text>
</a>
</g>
</g>
<!-- artist.Artist&#45;&gt;text.Text -->
<g id="edge19" class="edge">
<title>artist.Artist&#45;&gt;text.Text</title>
<path fill="none" stroke="black" stroke-width="0.5" d="M130.7,-219.86C169.17,-195.45 251.52,-143.19 293.01,-116.86"/>
<polygon fill="black" stroke="black" stroke-width="0.5" points="294.1,-118.24 297.38,-114.09 292.22,-115.29 294.1,-118.24"/>
</g>
<!-- lines.VertexSelector -->
<g id="node3" class="node">
<title>lines.VertexSelector</title>
<g id="a_node3"><a xlink:href="../../api/_as_gen/matplotlib.lines.VertexSelector.html#matplotlib.lines.VertexSelector" xlink:title="Manage the callbacks to maintain a list of selected vertices for" target="_top">
<polygon fill="white" stroke="black" stroke-width="0.5" points="197.5,-290 20.5,-290 20.5,-264 197.5,-264 197.5,-290"/>
<text text-anchor="middle" x="109" y="-273.2" font-family="Vera Sans, DejaVu Sans, Liberation Sans, Arial, Helvetica, sans" font-size="16.00">lines.VertexSelector</text>
</a>
</g>
</g>
<!-- patches.Arc -->
<g id="node4" class="node">
<title>patches.Arc</title>
<g id="a_node4"><a xlink:href="../../api/_as_gen/matplotlib.patches.Arc.html#matplotlib.patches.Arc" xlink:title="An elliptical arc, i.e. a segment of an ellipse." target="_top">
<polygon fill="white" stroke="black" stroke-width="0.5" points="844.5,-488 732.5,-488 732.5,-462 844.5,-462 844.5,-488"/>
<text text-anchor="middle" x="788.5" y="-471.2" font-family="Vera Sans, DejaVu Sans, Liberation Sans, Arial, Helvetica, sans" font-size="16.00">patches.Arc</text>
</a>
</g>
</g>
<!-- patches.Ellipse -->
<g id="node5" class="node">
<title>patches.Ellipse</title>
<g id="a_node5"><a xlink:href="../../api/_as_gen/matplotlib.patches.Ellipse.html#matplotlib.patches.Ellipse" xlink:title="A scale&#45;free ellipse." target="_top">
<polygon fill="white" stroke="black" stroke-width="0.5" points="599.5,-466 462.5,-466 462.5,-440 599.5,-440 599.5,-466"/>
<text text-anchor="middle" x="531" y="-449.2" font-family="Vera Sans, DejaVu Sans, Liberation Sans, Arial, Helvetica, sans" font-size="16.00">patches.Ellipse</text>
</a>
</g>
</g>
<!-- patches.Ellipse&#45;&gt;patches.Arc -->
<g id="edge2" class="edge">
<title>patches.Ellipse&#45;&gt;patches.Arc</title>
<path fill="none" stroke="black" stroke-width="0.5" d="M599.8,-458.84C639.41,-462.25 688.98,-466.52 727.22,-469.81"/>
<polygon fill="black" stroke="black" stroke-width="0.5" points="727.17,-471.56 732.31,-470.25 727.47,-468.07 727.17,-471.56"/>
</g>
<!-- patches.Circle -->
<g id="node10" class="node">
<title>patches.Circle</title>
<g id="a_node10"><a xlink:href="../../api/_as_gen/matplotlib.patches.Circle.html#matplotlib.patches.Circle" xlink:title="A circle patch." target="_top">
<polygon fill="white" stroke="black" stroke-width="0.5" points="854,-444 723,-444 723,-418 854,-418 854,-444"/>
<text text-anchor="middle" x="788.5" y="-427.2" font-family="Vera Sans, DejaVu Sans, Liberation Sans, Arial, Helvetica, sans" font-size="16.00">patches.Circle</text>
</a>
</g>
</g>
<!-- patches.Ellipse&#45;&gt;patches.Circle -->
<g id="edge4" class="edge">
<title>patches.Ellipse&#45;&gt;patches.Circle</title>
<path fill="none" stroke="black" stroke-width="0.5" d="M599.8,-447.16C636.15,-444.03 680.88,-440.18 717.56,-437.02"/>
<polygon fill="black" stroke="black" stroke-width="0.5" points="718.08,-438.73 722.91,-436.56 717.78,-435.25 718.08,-438.73"/>
</g>
<!-- patches.Arrow -->
<g id="node6" class="node">
<title>patches.Arrow</title>
<g id="a_node6"><a xlink:href="../../api/_as_gen/matplotlib.patches.Arrow.html#matplotlib.patches.Arrow" xlink:title="An arrow patch." target="_top">
<polygon fill="white" stroke="black" stroke-width="0.5" points="596.5,-422 465.5,-422 465.5,-396 596.5,-396 596.5,-422"/>
<text text-anchor="middle" x="531" y="-405.2" font-family="Vera Sans, DejaVu Sans, Liberation Sans, Arial, Helvetica, sans" font-size="16.00">patches.Arrow</text>
</a>
</g>
</g>
<!-- patches.Patch&#45;&gt;patches.Ellipse -->
<g id="edge7" class="edge">
<title>patches.Patch&#45;&gt;patches.Ellipse</title>
<path fill="none" stroke="black" stroke-width="0.5" d="M373.18,-246.02C377.2,-248.5 380.9,-251.47 384,-255 436.69,-314.99 363.42,-374.67 420,-431 430.08,-441.04 443.36,-447.14 457.2,-450.73"/>
<polygon fill="black" stroke="black" stroke-width="0.5" points="457.04,-452.49 462.31,-451.94 457.85,-449.09 457.04,-452.49"/>
</g>
<!-- patches.Patch&#45;&gt;patches.Arrow -->
<g id="edge3" class="edge">
<title>patches.Patch&#45;&gt;patches.Arrow</title>
<path fill="none" stroke="black" stroke-width="0.5" d="M372.63,-246.05C376.83,-248.53 380.71,-251.49 384,-255 425.58,-299.37 375.55,-345.51 420,-387 431.06,-397.33 445.55,-403.41 460.36,-406.88"/>
<polygon fill="black" stroke="black" stroke-width="0.5" points="460.13,-408.62 465.39,-407.96 460.86,-405.2 460.13,-408.62"/>
</g>
<!-- patches.RegularPolygon -->
<g id="node12" class="node">
<title>patches.RegularPolygon</title>
<g id="a_node12"><a xlink:href="../../api/_as_gen/matplotlib.patches.RegularPolygon.html#matplotlib.patches.RegularPolygon" xlink:title="A regular polygon patch." target="_top">
<polygon fill="white" stroke="black" stroke-width="0.5" points="637,-378 425,-378 425,-352 637,-352 637,-378"/>
<text text-anchor="middle" x="531" y="-361.2" font-family="Vera Sans, DejaVu Sans, Liberation Sans, Arial, Helvetica, sans" font-size="16.00">patches.RegularPolygon</text>
</a>
</g>
</g>
<!-- patches.Patch&#45;&gt;patches.RegularPolygon -->
<g id="edge15" class="edge">
<title>patches.Patch&#45;&gt;patches.RegularPolygon</title>
<path fill="none" stroke="black" stroke-width="0.5" d="M371.56,-246.14C376.08,-248.61 380.33,-251.53 384,-255 414.72,-284.01 387.41,-316.1 420,-343 422.89,-345.39 425.97,-347.54 429.19,-349.48"/>
<polygon fill="black" stroke="black" stroke-width="0.5" points="428.45,-351.07 433.67,-351.99 430.17,-348.02 428.45,-351.07"/>
</g>
<!-- patches.FancyArrowPatch -->
<g id="node14" class="node">
<title>patches.FancyArrowPatch</title>
<g id="a_node14"><a xlink:href="../../api/_as_gen/matplotlib.patches.FancyArrowPatch.html#matplotlib.patches.FancyArrowPatch" xlink:title="A fancy arrow patch. It draws an arrow using the `ArrowStyle`." target="_top">
<polygon fill="white" stroke="black" stroke-width="0.5" points="642,-334 420,-334 420,-308 642,-308 642,-334"/>
<text text-anchor="middle" x="531" y="-317.2" font-family="Vera Sans, DejaVu Sans, Liberation Sans, Arial, Helvetica, sans" font-size="16.00">patches.FancyArrowPatch</text>
</a>
</g>
</g>
<!-- patches.Patch&#45;&gt;patches.FancyArrowPatch -->
<g id="edge9" class="edge">
<title>patches.Patch&#45;&gt;patches.FancyArrowPatch</title>
<path fill="none" stroke="black" stroke-width="0.5" d="M367.93,-246.14C373.58,-248.64 379.08,-251.58 384,-255 404.74,-269.43 398.34,-285.98 420,-299 424.38,-301.63 429.02,-303.96 433.82,-306.01"/>
<polygon fill="black" stroke="black" stroke-width="0.5" points="433.38,-307.72 438.67,-307.97 434.69,-304.47 433.38,-307.72"/>
</g>
<!-- patches.Polygon -->
<g id="node17" class="node">
<title>patches.Polygon</title>
<g id="a_node17"><a xlink:href="../../api/_as_gen/matplotlib.patches.Polygon.html#matplotlib.patches.Polygon" xlink:title="A general polygon patch." target="_top">
<polygon fill="white" stroke="black" stroke-width="0.5" points="605.5,-290 456.5,-290 456.5,-264 605.5,-264 605.5,-290"/>
<text text-anchor="middle" x="531" y="-273.2" font-family="Vera Sans, DejaVu Sans, Liberation Sans, Arial, Helvetica, sans" font-size="16.00">patches.Polygon</text>
</a>
</g>
</g>
<!-- patches.Patch&#45;&gt;patches.Polygon -->
<g id="edge13" class="edge">
<title>patches.Patch&#45;&gt;patches.Polygon</title>
<path fill="none" stroke="black" stroke-width="0.5" d="M378.39,-246.04C392.03,-249.04 406.52,-252.17 420,-255 432.45,-257.61 445.71,-260.33 458.56,-262.92"/>
<polygon fill="black" stroke="black" stroke-width="0.5" points="458.4,-264.67 463.65,-263.94 459.09,-261.24 458.4,-264.67"/>
</g>
<!-- patches.FancyBboxPatch -->
<g id="node18" class="node">
<title>patches.FancyBboxPatch</title>
<g id="a_node18"><a xlink:href="../../api/_as_gen/matplotlib.patches.FancyBboxPatch.html#matplotlib.patches.FancyBboxPatch" xlink:title="A fancy box around a rectangle with lower left at *xy* = (*x*, *y*)" target="_top">
<polygon fill="white" stroke="black" stroke-width="0.5" points="639.5,-246 422.5,-246 422.5,-220 639.5,-220 639.5,-246"/>
<text text-anchor="middle" x="531" y="-229.2" font-family="Vera Sans, DejaVu Sans, Liberation Sans, Arial, Helvetica, sans" font-size="16.00">patches.FancyBboxPatch</text>
</a>
</g>
</g>
<!-- patches.Patch&#45;&gt;patches.FancyBboxPatch -->
<g id="edge10" class="edge">
<title>patches.Patch&#45;&gt;patches.FancyBboxPatch</title>
<path fill="none" stroke="black" stroke-width="0.5" d="M384.15,-233C394.71,-233 405.93,-233 417.27,-233"/>
<polygon fill="black" stroke="black" stroke-width="0.5" points="417.49,-234.75 422.49,-233 417.49,-231.25 417.49,-234.75"/>
</g>
<!-- patches.PathPatch -->
<g id="node19" class="node">
<title>patches.PathPatch</title>
<g id="a_node19"><a xlink:href="../../api/_as_gen/matplotlib.patches.PathPatch.html#matplotlib.patches.PathPatch" xlink:title="A general polycurve path patch." target="_top">
<polygon fill="white" stroke="black" stroke-width="0.5" points="613.5,-202 448.5,-202 448.5,-176 613.5,-176 613.5,-202"/>
<text text-anchor="middle" x="531" y="-185.2" font-family="Vera Sans, DejaVu Sans, Liberation Sans, Arial, Helvetica, sans" font-size="16.00">patches.PathPatch</text>
</a>
</g>
</g>
<!-- patches.Patch&#45;&gt;patches.PathPatch -->
<g id="edge12" class="edge">
<title>patches.Patch&#45;&gt;patches.PathPatch</title>
<path fill="none" stroke="black" stroke-width="0.5" d="M378.39,-219.96C392.03,-216.96 406.52,-213.83 420,-211 432.45,-208.39 445.71,-205.67 458.56,-203.08"/>
<polygon fill="black" stroke="black" stroke-width="0.5" points="459.09,-204.76 463.65,-202.06 458.4,-201.33 459.09,-204.76"/>
</g>
<!-- patches.Rectangle -->
<g id="node20" class="node">
<title>patches.Rectangle</title>
<g id="a_node20"><a xlink:href="../../api/_as_gen/matplotlib.patches.Rectangle.html#matplotlib.patches.Rectangle" xlink:title="A rectangle defined via an anchor point *xy* and its *width* and *height*." target="_top">
<polygon fill="white" stroke="black" stroke-width="0.5" points="614,-158 448,-158 448,-132 614,-132 614,-158"/>
<text text-anchor="middle" x="531" y="-141.2" font-family="Vera Sans, DejaVu Sans, Liberation Sans, Arial, Helvetica, sans" font-size="16.00">patches.Rectangle</text>
</a>
</g>
</g>
<!-- patches.Patch&#45;&gt;patches.Rectangle -->
<g id="edge14" class="edge">
<title>patches.Patch&#45;&gt;patches.Rectangle</title>
<path fill="none" stroke="black" stroke-width="0.5" d="M335.53,-219.95C354.32,-204.86 387.49,-180.38 420,-167 427.31,-163.99 435.06,-161.39 442.94,-159.13"/>
<polygon fill="black" stroke="black" stroke-width="0.5" points="443.51,-160.79 447.86,-157.77 442.57,-157.41 443.51,-160.79"/>
</g>
<!-- patches.Shadow -->
<g id="node21" class="node">
<title>patches.Shadow</title>
<g id="a_node21"><a xlink:href="../../api/_as_gen/matplotlib.patches.Shadow.html#matplotlib.patches.Shadow" xlink:title="patches.Shadow" target="_top">
<polygon fill="white" stroke="black" stroke-width="0.5" points="605.5,-114 456.5,-114 456.5,-88 605.5,-88 605.5,-114"/>
<text text-anchor="middle" x="531" y="-97.2" font-family="Vera Sans, DejaVu Sans, Liberation Sans, Arial, Helvetica, sans" font-size="16.00">patches.Shadow</text>
</a>
</g>
</g>
<!-- patches.Patch&#45;&gt;patches.Shadow -->
<g id="edge16" class="edge">
<title>patches.Patch&#45;&gt;patches.Shadow</title>
<path fill="none" stroke="black" stroke-width="0.5" d="M328,-219.65C342.91,-196.05 377.33,-147.16 420,-123 429.63,-117.55 440.4,-113.43 451.33,-110.33"/>
<polygon fill="black" stroke="black" stroke-width="0.5" points="451.99,-111.97 456.36,-108.98 451.08,-108.59 451.99,-111.97"/>
</g>
<!-- patches.Wedge -->
<g id="node22" class="node">
<title>patches.Wedge</title>
<g id="a_node22"><a xlink:href="../../api/_as_gen/matplotlib.patches.Wedge.html#matplotlib.patches.Wedge" xlink:title="Wedge shaped patch." target="_top">
<polygon fill="white" stroke="black" stroke-width="0.5" points="601.5,-70 460.5,-70 460.5,-44 601.5,-44 601.5,-70"/>
<text text-anchor="middle" x="531" y="-53.2" font-family="Vera Sans, DejaVu Sans, Liberation Sans, Arial, Helvetica, sans" font-size="16.00">patches.Wedge</text>
</a>
</g>
</g>
<!-- patches.Patch&#45;&gt;patches.Wedge -->
<g id="edge17" class="edge">
<title>patches.Patch&#45;&gt;patches.Wedge</title>
<path fill="none" stroke="black" stroke-width="0.5" d="M327.78,-219.77C348.84,-184.15 406.28,-88.31 420,-79 430.53,-71.86 442.85,-66.93 455.36,-63.55"/>
<polygon fill="black" stroke="black" stroke-width="0.5" points="455.93,-65.21 460.34,-62.28 455.07,-61.81 455.93,-65.21"/>
</g>
<!-- patches.ArrowStyle -->
<g id="node8" class="node">
<title>patches.ArrowStyle</title>
<g id="a_node8"><a xlink:href="../../api/_as_gen/matplotlib.patches.ArrowStyle.html#matplotlib.patches.ArrowStyle" xlink:title="`ArrowStyle` is a container class which defines several" target="_top">
<polygon fill="white" stroke="black" stroke-width="0.5" points="195,-334 23,-334 23,-308 195,-308 195,-334"/>
<text text-anchor="middle" x="109" y="-317.2" font-family="Vera Sans, DejaVu Sans, Liberation Sans, Arial, Helvetica, sans" font-size="16.00">patches.ArrowStyle</text>
</a>
</g>
</g>
<!-- patches.BoxStyle -->
<g id="node9" class="node">
<title>patches.BoxStyle</title>
<g id="a_node9"><a xlink:href="../../api/_as_gen/matplotlib.patches.BoxStyle.html#matplotlib.patches.BoxStyle" xlink:title="`BoxStyle` is a container class which defines several" target="_top">
<polygon fill="white" stroke="black" stroke-width="0.5" points="187,-378 31,-378 31,-352 187,-352 187,-378"/>
<text text-anchor="middle" x="109" y="-361.2" font-family="Vera Sans, DejaVu Sans, Liberation Sans, Arial, Helvetica, sans" font-size="16.00">patches.BoxStyle</text>
</a>
</g>
</g>
<!-- patches.CirclePolygon -->
<g id="node11" class="node">
<title>patches.CirclePolygon</title>
<g id="a_node11"><a xlink:href="../../api/_as_gen/matplotlib.patches.CirclePolygon.html#matplotlib.patches.CirclePolygon" xlink:title="A polygon&#45;approximation of a circle patch." target="_top">
<polygon fill="white" stroke="black" stroke-width="0.5" points="885.5,-378 691.5,-378 691.5,-352 885.5,-352 885.5,-378"/>
<text text-anchor="middle" x="788.5" y="-361.2" font-family="Vera Sans, DejaVu Sans, Liberation Sans, Arial, Helvetica, sans" font-size="16.00">patches.CirclePolygon</text>
</a>
</g>
</g>
<!-- patches.RegularPolygon&#45;&gt;patches.CirclePolygon -->
<g id="edge5" class="edge">
<title>patches.RegularPolygon&#45;&gt;patches.CirclePolygon</title>
<path fill="none" stroke="black" stroke-width="0.5" d="M637.03,-365C653.37,-365 670.22,-365 686.47,-365"/>
<polygon fill="black" stroke="black" stroke-width="0.5" points="686.49,-366.75 691.49,-365 686.49,-363.25 686.49,-366.75"/>
</g>
<!-- patches.ConnectionPatch -->
<g id="node13" class="node">
<title>patches.ConnectionPatch</title>
<g id="a_node13"><a xlink:href="../../api/_as_gen/matplotlib.patches.ConnectionPatch.html#matplotlib.patches.ConnectionPatch" xlink:title="A patch that connects two points (possibly in different axes)." target="_top">
<polygon fill="white" stroke="black" stroke-width="0.5" points="899,-334 678,-334 678,-308 899,-308 899,-334"/>
<text text-anchor="middle" x="788.5" y="-317.2" font-family="Vera Sans, DejaVu Sans, Liberation Sans, Arial, Helvetica, sans" font-size="16.00">patches.ConnectionPatch</text>
</a>
</g>
</g>
<!-- patches.FancyArrowPatch&#45;&gt;patches.ConnectionPatch -->
<g id="edge6" class="edge">
<title>patches.FancyArrowPatch&#45;&gt;patches.ConnectionPatch</title>
<path fill="none" stroke="black" stroke-width="0.5" d="M642.21,-321C652.21,-321 662.37,-321 672.41,-321"/>
<polygon fill="black" stroke="black" stroke-width="0.5" points="672.66,-322.75 677.66,-321 672.66,-319.25 672.66,-322.75"/>
</g>
<!-- patches.ConnectionStyle -->
<g id="node15" class="node">
<title>patches.ConnectionStyle</title>
<g id="a_node15"><a xlink:href="../../api/_as_gen/matplotlib.patches.ConnectionStyle.html#matplotlib.patches.ConnectionStyle" xlink:title="`ConnectionStyle` is a container class which defines" target="_top">
<polygon fill="white" stroke="black" stroke-width="0.5" points="218,-422 0,-422 0,-396 218,-396 218,-422"/>
<text text-anchor="middle" x="109" y="-405.2" font-family="Vera Sans, DejaVu Sans, Liberation Sans, Arial, Helvetica, sans" font-size="16.00">patches.ConnectionStyle</text>
</a>
</g>
</g>
<!-- patches.FancyArrow -->
<g id="node16" class="node">
<title>patches.FancyArrow</title>
<g id="a_node16"><a xlink:href="../../api/_as_gen/matplotlib.patches.FancyArrow.html#matplotlib.patches.FancyArrow" xlink:title="Like Arrow, but lets you set head width and head height independently." target="_top">
<polygon fill="white" stroke="black" stroke-width="0.5" points="877.5,-290 699.5,-290 699.5,-264 877.5,-264 877.5,-290"/>
<text text-anchor="middle" x="788.5" y="-273.2" font-family="Vera Sans, DejaVu Sans, Liberation Sans, Arial, Helvetica, sans" font-size="16.00">patches.FancyArrow</text>
</a>
</g>
</g>
<!-- patches.Polygon&#45;&gt;patches.FancyArrow -->
<g id="edge8" class="edge">
<title>patches.Polygon&#45;&gt;patches.FancyArrow</title>
<path fill="none" stroke="black" stroke-width="0.5" d="M605.56,-277C633.15,-277 664.89,-277 694.04,-277"/>
<polygon fill="black" stroke="black" stroke-width="0.5" points="694.08,-278.75 699.08,-277 694.08,-275.25 694.08,-278.75"/>
</g>
<!-- text.Annotation -->
<g id="node23" class="node">
<title>text.Annotation</title>
<g id="a_node23"><a xlink:href="../../api/text_api.html#matplotlib.text.Annotation" xlink:title="An `.Annotation` is a `.Text` that can refer to a specific position *xy*." target="_top">
<polygon fill="white" stroke="black" stroke-width="0.5" points="602,-26 460,-26 460,0 602,0 602,-26"/>
<text text-anchor="middle" x="531" y="-9.2" font-family="Vera Sans, DejaVu Sans, Liberation Sans, Arial, Helvetica, sans" font-size="16.00">text.Annotation</text>
</a>
</g>
</g>
<!-- text.Text&#45;&gt;text.Annotation -->
<g id="edge18" class="edge">
<title>text.Text&#45;&gt;text.Annotation</title>
<path fill="none" stroke="black" stroke-width="0.5" d="M335.53,-87.95C354.32,-72.86 387.49,-48.38 420,-35 430.95,-30.49 442.91,-26.89 454.77,-24.01"/>
<polygon fill="black" stroke="black" stroke-width="0.5" points="455.38,-25.66 459.85,-22.81 454.58,-22.25 455.38,-25.66"/>
</g>
<!-- text.OffsetFrom -->
<g id="node25" class="node">
<title>text.OffsetFrom</title>
<g id="a_node25"><a xlink:href="../../api/text_api.html#matplotlib.text.OffsetFrom" xlink:title="Callable helper class for working with `Annotation`." target="_top">
<polygon fill="white" stroke="black" stroke-width="0.5" points="179.5,-466 38.5,-466 38.5,-440 179.5,-440 179.5,-466"/>
<text text-anchor="middle" x="109" y="-449.2" font-family="Vera Sans, DejaVu Sans, Liberation Sans, Arial, Helvetica, sans" font-size="16.00">text.OffsetFrom</text>
</a>
</g>
</g>
</g>
</svg>
