<?xml version="1.0" encoding="UTF-8" standalone="no"?>
<!DOCTYPE svg PUBLIC "-//W3C//DTD SVG 1.1//EN"
 "http://www.w3.org/Graphics/SVG/1.1/DTD/svg11.dtd">
<!-- Generated by graphviz version 2.42.4 (0)
 -->
<!-- Title: inheritance11408564de Pages: 1 -->
<svg width="576pt" height="231pt"
 viewBox="0.00 0.00 576.00 231.33" xmlns="http://www.w3.org/2000/svg" xmlns:xlink="http://www.w3.org/1999/xlink">
<g id="graph0" class="graph" transform="scale(0.78 0.78) rotate(0) translate(4 294)">
<title>inheritance11408564de</title>
<!-- AnchoredOffsetbox -->
<g id="node1" class="node">
<title>AnchoredOffsetbox</title>
<g id="a_node1"><a xlink:href="../api/offsetbox_api.html#matplotlib.offsetbox.AnchoredOffsetbox" xlink:title="An offset box placed according to location *loc*." target="_top">
<polygon fill="white" stroke="black" stroke-width="0.5" points="572,-290 401,-290 401,-264 572,-264 572,-290"/>
<text text-anchor="middle" x="486.5" y="-273.2" font-family="Vera Sans, DejaVu Sans, Liberation Sans, Arial, Helvetica, sans" font-size="16.00">AnchoredOffsetbox</text>
</a>
</g>
</g>
<!-- AnchoredText -->
<g id="node3" class="node">
<title>AnchoredText</title>
<g id="a_node3"><a xlink:href="../api/offsetbox_api.html#matplotlib.offsetbox.AnchoredText" xlink:title="AnchoredOffsetbox with Text." target="_top">
<polygon fill="white" stroke="black" stroke-width="0.5" points="734,-290 608,-290 608,-264 734,-264 734,-290"/>
<text text-anchor="middle" x="671" y="-273.2" font-family="Vera Sans, DejaVu Sans, Liberation Sans, Arial, Helvetica, sans" font-size="16.00">AnchoredText</text>
</a>
</g>
</g>
<!-- AnchoredOffsetbox&#45;&gt;AnchoredText -->
<g id="edge2" class="edge">
<title>AnchoredOffsetbox&#45;&gt;AnchoredText</title>
<path fill="none" stroke="black" stroke-width="0.5" d="M572.07,-277C582.31,-277 592.67,-277 602.62,-277"/>
<polygon fill="black" stroke="black" stroke-width="0.5" points="602.78,-278.75 607.78,-277 602.78,-275.25 602.78,-278.75"/>
</g>
<!-- OffsetBox -->
<g id="node2" class="node">
<title>OffsetBox</title>
<g id="a_node2"><a xlink:href="../api/offsetbox_api.html#matplotlib.offsetbox.OffsetBox" xlink:title="The OffsetBox is a simple container artist." target="_top">
<polygon fill="white" stroke="black" stroke-width="0.5" points="318,-158 223,-158 223,-132 318,-132 318,-158"/>
<text text-anchor="middle" x="270.5" y="-141.2" font-family="Vera Sans, DejaVu Sans, Liberation Sans, Arial, Helvetica, sans" font-size="16.00">OffsetBox</text>
</a>
</g>
</g>
<!-- OffsetBox&#45;&gt;AnchoredOffsetbox -->
<g id="edge1" class="edge">
<title>OffsetBox&#45;&gt;AnchoredOffsetbox</title>
<path fill="none" stroke="black" stroke-width="0.5" d="M318.26,-147.31C334.59,-150.22 352.07,-155.95 365,-167 397.13,-194.44 369.19,-227.18 401,-255 403.75,-257.4 406.72,-259.55 409.86,-261.46"/>
<polygon fill="black" stroke="black" stroke-width="0.5" points="409.02,-263 414.24,-263.93 410.74,-259.95 409.02,-263"/>
</g>
<!-- AuxTransformBox -->
<g id="node6" class="node">
<title>AuxTransformBox</title>
<g id="a_node6"><a xlink:href="../api/offsetbox_api.html#matplotlib.offsetbox.AuxTransformBox" xlink:title="Offset Box with the aux_transform. Its children will be" target="_top">
<polygon fill="white" stroke="black" stroke-width="0.5" points="565.5,-246 407.5,-246 407.5,-220 565.5,-220 565.5,-246"/>
<text text-anchor="middle" x="486.5" y="-229.2" font-family="Vera Sans, DejaVu Sans, Liberation Sans, Arial, Helvetica, sans" font-size="16.00">AuxTransformBox</text>
</a>
</g>
</g>
<!-- OffsetBox&#45;&gt;AuxTransformBox -->
<g id="edge4" class="edge">
<title>OffsetBox&#45;&gt;AuxTransformBox</title>
<path fill="none" stroke="black" stroke-width="0.5" d="M318.06,-149.81C333.84,-152.99 351,-158.26 365,-167 386.43,-180.38 379.73,-197.37 401,-211 405.12,-213.64 409.54,-215.96 414.12,-218"/>
<polygon fill="black" stroke="black" stroke-width="0.5" points="413.46,-219.63 418.75,-219.96 414.82,-216.4 413.46,-219.63"/>
</g>
<!-- DrawingArea -->
<g id="node10" class="node">
<title>DrawingArea</title>
<g id="a_node10"><a xlink:href="../api/offsetbox_api.html#matplotlib.offsetbox.DrawingArea" xlink:title="The DrawingArea can contain any Artist as a child. The DrawingArea" target="_top">
<polygon fill="white" stroke="black" stroke-width="0.5" points="546.5,-202 426.5,-202 426.5,-176 546.5,-176 546.5,-202"/>
<text text-anchor="middle" x="486.5" y="-185.2" font-family="Vera Sans, DejaVu Sans, Liberation Sans, Arial, Helvetica, sans" font-size="16.00">DrawingArea</text>
</a>
</g>
</g>
<!-- OffsetBox&#45;&gt;DrawingArea -->
<g id="edge7" class="edge">
<title>OffsetBox&#45;&gt;DrawingArea</title>
<path fill="none" stroke="black" stroke-width="0.5" d="M318.2,-154.6C348.32,-160.79 387.9,-168.93 421,-175.74"/>
<polygon fill="black" stroke="black" stroke-width="0.5" points="421.01,-177.53 426.26,-176.82 421.71,-174.1 421.01,-177.53"/>
</g>
<!-- PackerBase -->
<g id="node12" class="node">
<title>PackerBase</title>
<g id="a_node12"><a xlink:href="../api/offsetbox_api.html#matplotlib.offsetbox.PackerBase" xlink:title="PackerBase" target="_top">
<polygon fill="white" stroke="black" stroke-width="0.5" points="541,-158 432,-158 432,-132 541,-132 541,-158"/>
<text text-anchor="middle" x="486.5" y="-141.2" font-family="Vera Sans, DejaVu Sans, Liberation Sans, Arial, Helvetica, sans" font-size="16.00">PackerBase</text>
</a>
</g>
</g>
<!-- OffsetBox&#45;&gt;PackerBase -->
<g id="edge11" class="edge">
<title>OffsetBox&#45;&gt;PackerBase</title>
<path fill="none" stroke="black" stroke-width="0.5" d="M318.2,-145C349.95,-145 392.22,-145 426.33,-145"/>
<polygon fill="black" stroke="black" stroke-width="0.5" points="426.73,-146.75 431.73,-145 426.73,-143.25 426.73,-146.75"/>
</g>
<!-- OffsetImage -->
<g id="node13" class="node">
<title>OffsetImage</title>
<g id="a_node13"><a xlink:href="../api/offsetbox_api.html#matplotlib.offsetbox.OffsetImage" xlink:title="OffsetImage" target="_top">
<polygon fill="white" stroke="black" stroke-width="0.5" points="544,-114 429,-114 429,-88 544,-88 544,-114"/>
<text text-anchor="middle" x="486.5" y="-97.2" font-family="Vera Sans, DejaVu Sans, Liberation Sans, Arial, Helvetica, sans" font-size="16.00">OffsetImage</text>
</a>
</g>
</g>
<!-- OffsetBox&#45;&gt;OffsetImage -->
<g id="edge10" class="edge">
<title>OffsetBox&#45;&gt;OffsetImage</title>
<path fill="none" stroke="black" stroke-width="0.5" d="M318.2,-135.4C349.14,-129.04 390.08,-120.62 423.71,-113.7"/>
<polygon fill="black" stroke="black" stroke-width="0.5" points="424.08,-115.42 428.62,-112.69 423.37,-111.99 424.08,-115.42"/>
</g>
<!-- PaddedBox -->
<g id="node14" class="node">
<title>PaddedBox</title>
<g id="a_node14"><a xlink:href="../api/offsetbox_api.html#matplotlib.offsetbox.PaddedBox" xlink:title="A container to add a padding around an `.Artist`." target="_top">
<polygon fill="white" stroke="black" stroke-width="0.5" points="540,-70 433,-70 433,-44 540,-44 540,-70"/>
<text text-anchor="middle" x="486.5" y="-53.2" font-family="Vera Sans, DejaVu Sans, Liberation Sans, Arial, Helvetica, sans" font-size="16.00">PaddedBox</text>
</a>
</g>
</g>
<!-- OffsetBox&#45;&gt;PaddedBox -->
<g id="edge12" class="edge">
<title>OffsetBox&#45;&gt;PaddedBox</title>
<path fill="none" stroke="black" stroke-width="0.5" d="M318.06,-140.19C333.84,-137.01 351,-131.74 365,-123 386.43,-109.62 379.73,-92.63 401,-79 409.15,-73.78 418.5,-69.79 427.93,-66.75"/>
<polygon fill="black" stroke="black" stroke-width="0.5" points="428.59,-68.38 432.86,-65.24 427.57,-65.03 428.59,-68.38"/>
</g>
<!-- TextArea -->
<g id="node15" class="node">
<title>TextArea</title>
<g id="a_node15"><a xlink:href="../api/offsetbox_api.html#matplotlib.offsetbox.TextArea" xlink:title="The TextArea is contains a single Text instance. The text is" target="_top">
<polygon fill="white" stroke="black" stroke-width="0.5" points="529.5,-26 443.5,-26 443.5,0 529.5,0 529.5,-26"/>
<text text-anchor="middle" x="486.5" y="-9.2" font-family="Vera Sans, DejaVu Sans, Liberation Sans, Arial, Helvetica, sans" font-size="16.00">TextArea</text>
</a>
</g>
</g>
<!-- OffsetBox&#45;&gt;TextArea -->
<g id="edge13" class="edge">
<title>OffsetBox&#45;&gt;TextArea</title>
<path fill="none" stroke="black" stroke-width="0.5" d="M318.26,-142.69C334.59,-139.78 352.07,-134.05 365,-123 397.13,-95.56 369.19,-62.82 401,-35 411.28,-26.01 424.78,-20.63 437.96,-17.42"/>
<polygon fill="black" stroke="black" stroke-width="0.5" points="438.69,-19.05 443.19,-16.25 437.93,-15.63 438.69,-19.05"/>
</g>
<!-- AnnotationBbox -->
<g id="node4" class="node">
<title>AnnotationBbox</title>
<g id="a_node4"><a xlink:href="../api/offsetbox_api.html#matplotlib.offsetbox.AnnotationBbox" xlink:title="Container for an `OffsetBox` referring to a specific position *xy*." target="_top">
<polygon fill="white" stroke="black" stroke-width="0.5" points="343.5,-114 197.5,-114 197.5,-88 343.5,-88 343.5,-114"/>
<text text-anchor="middle" x="270.5" y="-97.2" font-family="Vera Sans, DejaVu Sans, Liberation Sans, Arial, Helvetica, sans" font-size="16.00">AnnotationBbox</text>
</a>
</g>
</g>
<!-- Artist -->
<g id="node5" class="node">
<title>Artist</title>
<g id="a_node5"><a xlink:href="../artist_api.html#matplotlib.artist.Artist" xlink:title="Abstract base class for objects that render into a FigureCanvas." target="_top">
<polygon fill="white" stroke="black" stroke-width="0.5" points="99.5,-136 40.5,-136 40.5,-110 99.5,-110 99.5,-136"/>
<text text-anchor="middle" x="70" y="-119.2" font-family="Vera Sans, DejaVu Sans, Liberation Sans, Arial, Helvetica, sans" font-size="16.00">Artist</text>
</a>
</g>
</g>
<!-- Artist&#45;&gt;OffsetBox -->
<g id="edge9" class="edge">
<title>Artist&#45;&gt;OffsetBox</title>
<path fill="none" stroke="black" stroke-width="0.5" d="M99.86,-126.2C130.74,-129.62 180.33,-135.12 217.93,-139.28"/>
<polygon fill="black" stroke="black" stroke-width="0.5" points="217.76,-141.03 222.93,-139.84 218.15,-137.55 217.76,-141.03"/>
</g>
<!-- Artist&#45;&gt;AnnotationBbox -->
<g id="edge3" class="edge">
<title>Artist&#45;&gt;AnnotationBbox</title>
<path fill="none" stroke="black" stroke-width="0.5" d="M99.86,-119.8C124.05,-117.12 159.74,-113.17 192.14,-109.57"/>
<polygon fill="black" stroke="black" stroke-width="0.5" points="192.53,-111.29 197.31,-109 192.15,-107.81 192.53,-111.29"/>
</g>
<!-- DraggableAnnotation -->
<g id="node7" class="node">
<title>DraggableAnnotation</title>
<g id="a_node7"><a xlink:href="../api/offsetbox_api.html#matplotlib.offsetbox.DraggableAnnotation" xlink:title="DraggableAnnotation" target="_top">
<polygon fill="white" stroke="black" stroke-width="0.5" points="365,-246 176,-246 176,-220 365,-220 365,-246"/>
<text text-anchor="middle" x="270.5" y="-229.2" font-family="Vera Sans, DejaVu Sans, Liberation Sans, Arial, Helvetica, sans" font-size="16.00">DraggableAnnotation</text>
</a>
</g>
</g>
<!-- DraggableBase -->
<g id="node8" class="node">
<title>DraggableBase</title>
<g id="a_node8"><a xlink:href="../api/offsetbox_api.html#matplotlib.offsetbox.DraggableBase" xlink:title="Helper base class for a draggable artist (legend, offsetbox)." target="_top">
<polygon fill="white" stroke="black" stroke-width="0.5" points="140,-224 0,-224 0,-198 140,-198 140,-224"/>
<text text-anchor="middle" x="70" y="-207.2" font-family="Vera Sans, DejaVu Sans, Liberation Sans, Arial, Helvetica, sans" font-size="16.00">DraggableBase</text>
</a>
</g>
</g>
<!-- DraggableBase&#45;&gt;DraggableAnnotation -->
<g id="edge5" class="edge">
<title>DraggableBase&#45;&gt;DraggableAnnotation</title>
<path fill="none" stroke="black" stroke-width="0.5" d="M140.15,-218.66C150.05,-219.76 160.4,-220.91 170.74,-222.05"/>
<polygon fill="black" stroke="black" stroke-width="0.5" points="170.65,-223.8 175.81,-222.62 171.03,-220.33 170.65,-223.8"/>
</g>
<!-- DraggableOffsetBox -->
<g id="node9" class="node">
<title>DraggableOffsetBox</title>
<g id="a_node9"><a xlink:href="../api/offsetbox_api.html#matplotlib.offsetbox.DraggableOffsetBox" xlink:title="DraggableOffsetBox" target="_top">
<polygon fill="white" stroke="black" stroke-width="0.5" points="360,-202 181,-202 181,-176 360,-176 360,-202"/>
<text text-anchor="middle" x="270.5" y="-185.2" font-family="Vera Sans, DejaVu Sans, Liberation Sans, Arial, Helvetica, sans" font-size="16.00">DraggableOffsetBox</text>
</a>
</g>
</g>
<!-- DraggableBase&#45;&gt;DraggableOffsetBox -->
<g id="edge6" class="edge">
<title>DraggableBase&#45;&gt;DraggableOffsetBox</title>
<path fill="none" stroke="black" stroke-width="0.5" d="M140.15,-203.34C151.6,-202.07 163.65,-200.73 175.59,-199.41"/>
<polygon fill="black" stroke="black" stroke-width="0.5" points="175.92,-201.13 180.7,-198.84 175.54,-197.65 175.92,-201.13"/>
</g>
<!-- HPacker -->
<g id="node11" class="node">
<title>HPacker</title>
<g id="a_node11"><a xlink:href="../api/offsetbox_api.html#matplotlib.offsetbox.HPacker" xlink:title="The HPacker has its children packed horizontally. It automatically" target="_top">
<polygon fill="white" stroke="black" stroke-width="0.5" points="712,-180 630,-180 630,-154 712,-154 712,-180"/>
<text text-anchor="middle" x="671" y="-163.2" font-family="Vera Sans, DejaVu Sans, Liberation Sans, Arial, Helvetica, sans" font-size="16.00">HPacker</text>
</a>
</g>
</g>
<!-- PackerBase&#45;&gt;HPacker -->
<g id="edge8" class="edge">
<title>PackerBase&#45;&gt;HPacker</title>
<path fill="none" stroke="black" stroke-width="0.5" d="M541.27,-151.48C567.88,-154.69 599.65,-158.52 624.96,-161.57"/>
<polygon fill="black" stroke="black" stroke-width="0.5" points="624.76,-163.31 629.94,-162.17 625.18,-159.83 624.76,-163.31"/>
</g>
<!-- VPacker -->
<g id="node16" class="node">
<title>VPacker</title>
<g id="a_node16"><a xlink:href="../api/offsetbox_api.html#matplotlib.offsetbox.VPacker" xlink:title="The VPacker has its children packed vertically. It automatically" target="_top">
<polygon fill="white" stroke="black" stroke-width="0.5" points="711.5,-136 630.5,-136 630.5,-110 711.5,-110 711.5,-136"/>
<text text-anchor="middle" x="671" y="-119.2" font-family="Vera Sans, DejaVu Sans, Liberation Sans, Arial, Helvetica, sans" font-size="16.00">VPacker</text>
</a>
</g>
</g>
<!-- PackerBase&#45;&gt;VPacker -->
<g id="edge14" class="edge">
<title>PackerBase&#45;&gt;VPacker</title>
<path fill="none" stroke="black" stroke-width="0.5" d="M541.27,-138.52C567.98,-135.3 599.88,-131.45 625.24,-128.4"/>
<polygon fill="black" stroke="black" stroke-width="0.5" points="625.47,-130.13 630.22,-127.79 625.05,-126.66 625.47,-130.13"/>
</g>
</g>
</svg>
