<?xml version="1.0" encoding="UTF-8" standalone="no"?>
<!DOCTYPE svg PUBLIC "-//W3C//DTD SVG 1.1//EN"
 "http://www.w3.org/Graphics/SVG/1.1/DTD/svg11.dtd">
<!-- Generated by graphviz version 2.42.4 (0)
 -->
<!-- Title: inheritance1bda3e63b5 Pages: 1 -->
<svg width="576pt" height="225pt"
 viewBox="0.00 0.00 576.00 224.81" xmlns="http://www.w3.org/2000/svg" xmlns:xlink="http://www.w3.org/1999/xlink">
<g id="graph0" class="graph" transform="scale(0.58 0.58) rotate(0) translate(4 382)">
<title>inheritance1bda3e63b5</title>
<!-- AutoDateFormatter -->
<g id="node1" class="node">
<title>AutoDateFormatter</title>
<g id="a_node1"><a xlink:href="../api/dates_api.html#matplotlib.dates.AutoDateFormatter" xlink:title="A `.Formatter` which attempts to figure out the best format to use. &#160;This" target="_top">
<polygon fill="white" stroke="black" stroke-width="0.5" points="568.5,-290 398.5,-290 398.5,-264 568.5,-264 568.5,-290"/>
<text text-anchor="middle" x="483.5" y="-273.2" font-family="Vera Sans, DejaVu Sans, Liberation Sans, Arial, Helvetica, sans" font-size="16.00">AutoDateFormatter</text>
</a>
</g>
</g>
<!-- Formatter -->
<g id="node2" class="node">
<title>Formatter</title>
<g id="a_node2"><a xlink:href="../ticker_api.html#matplotlib.ticker.Formatter" xlink:title="Create a string based on a tick value and location." target="_top">
<polygon fill="white" stroke="black" stroke-width="0.5" points="329.5,-202 234.5,-202 234.5,-176 329.5,-176 329.5,-202"/>
<text text-anchor="middle" x="282" y="-185.2" font-family="Vera Sans, DejaVu Sans, Liberation Sans, Arial, Helvetica, sans" font-size="16.00">Formatter</text>
</a>
</g>
</g>
<!-- Formatter&#45;&gt;AutoDateFormatter -->
<g id="edge1" class="edge">
<title>Formatter&#45;&gt;AutoDateFormatter</title>
<path fill="none" stroke="black" stroke-width="0.5" d="M299.29,-202.16C318.62,-217.13 352.34,-241.26 385,-255 391.69,-257.81 398.8,-260.3 406.01,-262.48"/>
<polygon fill="black" stroke="black" stroke-width="0.5" points="405.73,-264.22 411.02,-263.95 406.71,-260.86 405.73,-264.22"/>
</g>
<!-- ConciseDateFormatter -->
<g id="node7" class="node">
<title>ConciseDateFormatter</title>
<g id="a_node7"><a xlink:href="../api/dates_api.html#matplotlib.dates.ConciseDateFormatter" xlink:title="A `.Formatter` which attempts to figure out the best format to use for the" target="_top">
<polygon fill="white" stroke="black" stroke-width="0.5" points="581.5,-246 385.5,-246 385.5,-220 581.5,-220 581.5,-246"/>
<text text-anchor="middle" x="483.5" y="-229.2" font-family="Vera Sans, DejaVu Sans, Liberation Sans, Arial, Helvetica, sans" font-size="16.00">ConciseDateFormatter</text>
</a>
</g>
</g>
<!-- Formatter&#45;&gt;ConciseDateFormatter -->
<g id="edge4" class="edge">
<title>Formatter&#45;&gt;ConciseDateFormatter</title>
<path fill="none" stroke="black" stroke-width="0.5" d="M329.52,-199.26C355.97,-205.09 389.48,-212.48 418.39,-218.86"/>
<polygon fill="black" stroke="black" stroke-width="0.5" points="418.1,-220.59 423.36,-219.96 418.85,-217.17 418.1,-220.59"/>
</g>
<!-- DateFormatter -->
<g id="node9" class="node">
<title>DateFormatter</title>
<g id="a_node9"><a xlink:href="../api/dates_api.html#matplotlib.dates.DateFormatter" xlink:title="Format a tick (in days since the epoch) with a" target="_top">
<polygon fill="white" stroke="black" stroke-width="0.5" points="550,-202 417,-202 417,-176 550,-176 550,-202"/>
<text text-anchor="middle" x="483.5" y="-185.2" font-family="Vera Sans, DejaVu Sans, Liberation Sans, Arial, Helvetica, sans" font-size="16.00">DateFormatter</text>
</a>
</g>
</g>
<!-- Formatter&#45;&gt;DateFormatter -->
<g id="edge6" class="edge">
<title>Formatter&#45;&gt;DateFormatter</title>
<path fill="none" stroke="black" stroke-width="0.5" d="M329.52,-189C354.02,-189 384.57,-189 411.92,-189"/>
<polygon fill="black" stroke="black" stroke-width="0.5" points="411.99,-190.75 416.99,-189 411.99,-187.25 411.99,-190.75"/>
</g>
<!-- IndexDateFormatter -->
<g id="node15" class="node">
<title>IndexDateFormatter</title>
<g id="a_node15"><a xlink:href="../api/dates_api.html#matplotlib.dates.IndexDateFormatter" xlink:title="[*Deprecated*] Use with `.IndexLocator` to cycle format strings by index." target="_top">
<polygon fill="white" stroke="black" stroke-width="0.5" points="572.5,-158 394.5,-158 394.5,-132 572.5,-132 572.5,-158"/>
<text text-anchor="middle" x="483.5" y="-141.2" font-family="Vera Sans, DejaVu Sans, Liberation Sans, Arial, Helvetica, sans" font-size="16.00">IndexDateFormatter</text>
</a>
</g>
</g>
<!-- Formatter&#45;&gt;IndexDateFormatter -->
<g id="edge11" class="edge">
<title>Formatter&#45;&gt;IndexDateFormatter</title>
<path fill="none" stroke="black" stroke-width="0.5" d="M329.52,-178.74C355.97,-172.91 389.48,-165.52 418.39,-159.14"/>
<polygon fill="black" stroke="black" stroke-width="0.5" points="418.85,-160.83 423.36,-158.04 418.1,-157.41 418.85,-160.83"/>
</g>
<!-- AutoDateLocator -->
<g id="node3" class="node">
<title>AutoDateLocator</title>
<g id="a_node3"><a xlink:href="../api/dates_api.html#matplotlib.dates.AutoDateLocator" xlink:title="On autoscale, this class picks the best `DateLocator` to set the view" target="_top">
<polygon fill="white" stroke="black" stroke-width="0.5" points="782.5,-180 630.5,-180 630.5,-154 782.5,-154 782.5,-180"/>
<text text-anchor="middle" x="706.5" y="-163.2" font-family="Vera Sans, DejaVu Sans, Liberation Sans, Arial, Helvetica, sans" font-size="16.00">AutoDateLocator</text>
</a>
</g>
</g>
<!-- DateLocator -->
<g id="node4" class="node">
<title>DateLocator</title>
<g id="a_node4"><a xlink:href="../api/dates_api.html#matplotlib.dates.DateLocator" xlink:title="Determines the tick locations when plotting dates." target="_top">
<polygon fill="white" stroke="black" stroke-width="0.5" points="540.5,-114 426.5,-114 426.5,-88 540.5,-88 540.5,-114"/>
<text text-anchor="middle" x="483.5" y="-97.2" font-family="Vera Sans, DejaVu Sans, Liberation Sans, Arial, Helvetica, sans" font-size="16.00">DateLocator</text>
</a>
</g>
</g>
<!-- DateLocator&#45;&gt;AutoDateLocator -->
<g id="edge2" class="edge">
<title>DateLocator&#45;&gt;AutoDateLocator</title>
<path fill="none" stroke="black" stroke-width="0.5" d="M540.63,-110.38C554.43,-113.58 568.97,-117.72 582,-123 599.38,-130.05 600.71,-137.74 618,-145 624.57,-147.76 631.57,-150.23 638.64,-152.43"/>
<polygon fill="black" stroke="black" stroke-width="0.5" points="638.25,-154.14 643.54,-153.91 639.26,-150.79 638.25,-154.14"/>
</g>
<!-- RRuleLocator -->
<g id="node12" class="node">
<title>RRuleLocator</title>
<g id="a_node12"><a xlink:href="../api/dates_api.html#matplotlib.dates.RRuleLocator" xlink:title="RRuleLocator" target="_top">
<polygon fill="white" stroke="black" stroke-width="0.5" points="768,-136 645,-136 645,-110 768,-110 768,-136"/>
<text text-anchor="middle" x="706.5" y="-119.2" font-family="Vera Sans, DejaVu Sans, Liberation Sans, Arial, Helvetica, sans" font-size="16.00">RRuleLocator</text>
</a>
</g>
</g>
<!-- DateLocator&#45;&gt;RRuleLocator -->
<g id="edge16" class="edge">
<title>DateLocator&#45;&gt;RRuleLocator</title>
<path fill="none" stroke="black" stroke-width="0.5" d="M540.55,-106.58C570.78,-109.59 608.25,-113.32 639.83,-116.46"/>
<polygon fill="black" stroke="black" stroke-width="0.5" points="639.7,-118.21 644.85,-116.96 640.05,-114.73 639.7,-118.21"/>
</g>
<!-- MicrosecondLocator -->
<g id="node16" class="node">
<title>MicrosecondLocator</title>
<g id="a_node16"><a xlink:href="../api/dates_api.html#matplotlib.dates.MicrosecondLocator" xlink:title="Make ticks on regular intervals of one or more microsecond(s)." target="_top">
<polygon fill="white" stroke="black" stroke-width="0.5" points="795,-92 618,-92 618,-66 795,-66 795,-92"/>
<text text-anchor="middle" x="706.5" y="-75.2" font-family="Vera Sans, DejaVu Sans, Liberation Sans, Arial, Helvetica, sans" font-size="16.00">MicrosecondLocator</text>
</a>
</g>
</g>
<!-- DateLocator&#45;&gt;MicrosecondLocator -->
<g id="edge13" class="edge">
<title>DateLocator&#45;&gt;MicrosecondLocator</title>
<path fill="none" stroke="black" stroke-width="0.5" d="M540.55,-95.42C562.4,-93.25 588.03,-90.69 612.49,-88.26"/>
<polygon fill="black" stroke="black" stroke-width="0.5" points="612.89,-89.98 617.69,-87.74 612.55,-86.49 612.89,-89.98"/>
</g>
<!-- YearLocator -->
<g id="node21" class="node">
<title>YearLocator</title>
<g id="a_node21"><a xlink:href="../api/dates_api.html#matplotlib.dates.YearLocator" xlink:title="Make ticks on a given day of each year that is a multiple of base." target="_top">
<polygon fill="white" stroke="black" stroke-width="0.5" points="761.5,-48 651.5,-48 651.5,-22 761.5,-22 761.5,-48"/>
<text text-anchor="middle" x="706.5" y="-31.2" font-family="Vera Sans, DejaVu Sans, Liberation Sans, Arial, Helvetica, sans" font-size="16.00">YearLocator</text>
</a>
</g>
</g>
<!-- DateLocator&#45;&gt;YearLocator -->
<g id="edge19" class="edge">
<title>DateLocator&#45;&gt;YearLocator</title>
<path fill="none" stroke="black" stroke-width="0.5" d="M521.68,-87.95C548.34,-78.79 585.19,-66.52 618,-57 627.1,-54.36 636.78,-51.74 646.26,-49.28"/>
<polygon fill="black" stroke="black" stroke-width="0.5" points="646.79,-50.95 651.19,-48.01 645.91,-47.56 646.79,-50.95"/>
</g>
<!-- ConciseDateConverter -->
<g id="node5" class="node">
<title>ConciseDateConverter</title>
<g id="a_node5"><a xlink:href="../api/dates_api.html#matplotlib.dates.ConciseDateConverter" xlink:title="ConciseDateConverter" target="_top">
<polygon fill="white" stroke="black" stroke-width="0.5" points="582,-334 385,-334 385,-308 582,-308 582,-334"/>
<text text-anchor="middle" x="483.5" y="-317.2" font-family="Vera Sans, DejaVu Sans, Liberation Sans, Arial, Helvetica, sans" font-size="16.00">ConciseDateConverter</text>
</a>
</g>
</g>
<!-- DateConverter -->
<g id="node6" class="node">
<title>DateConverter</title>
<g id="a_node6"><a xlink:href="../api/dates_api.html#matplotlib.dates.DateConverter" xlink:title="Converter for `datetime.date` and `datetime.datetime` data, or for" target="_top">
<polygon fill="white" stroke="black" stroke-width="0.5" points="349,-334 215,-334 215,-308 349,-308 349,-334"/>
<text text-anchor="middle" x="282" y="-317.2" font-family="Vera Sans, DejaVu Sans, Liberation Sans, Arial, Helvetica, sans" font-size="16.00">DateConverter</text>
</a>
</g>
</g>
<!-- DateConverter&#45;&gt;ConciseDateConverter -->
<g id="edge3" class="edge">
<title>DateConverter&#45;&gt;ConciseDateConverter</title>
<path fill="none" stroke="black" stroke-width="0.5" d="M349.15,-321C359,-321 369.34,-321 379.72,-321"/>
<polygon fill="black" stroke="black" stroke-width="0.5" points="379.82,-322.75 384.82,-321 379.82,-319.25 379.82,-322.75"/>
</g>
<!-- ConversionInterface -->
<g id="node8" class="node">
<title>ConversionInterface</title>
<g id="a_node8"><a xlink:href="../units_api.html#matplotlib.units.ConversionInterface" xlink:title="The minimal interface for a converter to take custom data types (or" target="_top">
<polygon fill="white" stroke="black" stroke-width="0.5" points="179,-334 0,-334 0,-308 179,-308 179,-334"/>
<text text-anchor="middle" x="89.5" y="-317.2" font-family="Vera Sans, DejaVu Sans, Liberation Sans, Arial, Helvetica, sans" font-size="16.00">ConversionInterface</text>
</a>
</g>
</g>
<!-- ConversionInterface&#45;&gt;DateConverter -->
<g id="edge5" class="edge">
<title>ConversionInterface&#45;&gt;DateConverter</title>
<path fill="none" stroke="black" stroke-width="0.5" d="M179.06,-321C189.32,-321 199.68,-321 209.67,-321"/>
<polygon fill="black" stroke="black" stroke-width="0.5" points="209.86,-322.75 214.86,-321 209.86,-319.25 209.86,-322.75"/>
</g>
<!-- Locator -->
<g id="node10" class="node">
<title>Locator</title>
<g id="a_node10"><a xlink:href="../ticker_api.html#matplotlib.ticker.Locator" xlink:title="Determine the tick locations;" target="_top">
<polygon fill="white" stroke="black" stroke-width="0.5" points="320.5,-136 243.5,-136 243.5,-110 320.5,-110 320.5,-136"/>
<text text-anchor="middle" x="282" y="-119.2" font-family="Vera Sans, DejaVu Sans, Liberation Sans, Arial, Helvetica, sans" font-size="16.00">Locator</text>
</a>
</g>
</g>
<!-- Locator&#45;&gt;DateLocator -->
<g id="edge7" class="edge">
<title>Locator&#45;&gt;DateLocator</title>
<path fill="none" stroke="black" stroke-width="0.5" d="M320.52,-118.86C348.81,-115.74 388.21,-111.4 421.07,-107.77"/>
<polygon fill="black" stroke="black" stroke-width="0.5" points="421.5,-109.49 426.28,-107.2 421.12,-106.01 421.5,-109.49"/>
</g>
<!-- DayLocator -->
<g id="node11" class="node">
<title>DayLocator</title>
<g id="a_node11"><a xlink:href="../api/dates_api.html#matplotlib.dates.DayLocator" xlink:title="Make ticks on occurrences of each day of the month. &#160;For example," target="_top">
<polygon fill="white" stroke="black" stroke-width="0.5" points="960,-246 852,-246 852,-220 960,-220 960,-246"/>
<text text-anchor="middle" x="906" y="-229.2" font-family="Vera Sans, DejaVu Sans, Liberation Sans, Arial, Helvetica, sans" font-size="16.00">DayLocator</text>
</a>
</g>
</g>
<!-- RRuleLocator&#45;&gt;DayLocator -->
<g id="edge8" class="edge">
<title>RRuleLocator&#45;&gt;DayLocator</title>
<path fill="none" stroke="black" stroke-width="0.5" d="M768.41,-131.36C777.94,-134.56 787.2,-138.96 795,-145 821.42,-165.46 805.02,-189.98 831,-211 835.8,-214.89 841.28,-218.09 847.02,-220.72"/>
<polygon fill="black" stroke="black" stroke-width="0.5" points="846.62,-222.45 851.9,-222.8 847.99,-219.23 846.62,-222.45"/>
</g>
<!-- HourLocator -->
<g id="node14" class="node">
<title>HourLocator</title>
<g id="a_node14"><a xlink:href="../api/dates_api.html#matplotlib.dates.HourLocator" xlink:title="Make ticks on occurrences of each hour." target="_top">
<polygon fill="white" stroke="black" stroke-width="0.5" points="964,-202 848,-202 848,-176 964,-176 964,-202"/>
<text text-anchor="middle" x="906" y="-185.2" font-family="Vera Sans, DejaVu Sans, Liberation Sans, Arial, Helvetica, sans" font-size="16.00">HourLocator</text>
</a>
</g>
</g>
<!-- RRuleLocator&#45;&gt;HourLocator -->
<g id="edge10" class="edge">
<title>RRuleLocator&#45;&gt;HourLocator</title>
<path fill="none" stroke="black" stroke-width="0.5" d="M768.06,-135.68C777.24,-138.33 786.48,-141.42 795,-145 812.29,-152.26 813.87,-159.38 831,-167 836.95,-169.65 843.31,-172.09 849.71,-174.29"/>
<polygon fill="black" stroke="black" stroke-width="0.5" points="849.31,-176.01 854.6,-175.94 850.42,-172.69 849.31,-176.01"/>
</g>
<!-- MinuteLocator -->
<g id="node17" class="node">
<title>MinuteLocator</title>
<g id="a_node17"><a xlink:href="../api/dates_api.html#matplotlib.dates.MinuteLocator" xlink:title="Make ticks on occurrences of each minute." target="_top">
<polygon fill="white" stroke="black" stroke-width="0.5" points="971.5,-158 840.5,-158 840.5,-132 971.5,-132 971.5,-158"/>
<text text-anchor="middle" x="906" y="-141.2" font-family="Vera Sans, DejaVu Sans, Liberation Sans, Arial, Helvetica, sans" font-size="16.00">MinuteLocator</text>
</a>
</g>
</g>
<!-- RRuleLocator&#45;&gt;MinuteLocator -->
<g id="edge14" class="edge">
<title>RRuleLocator&#45;&gt;MinuteLocator</title>
<path fill="none" stroke="black" stroke-width="0.5" d="M768.1,-129.75C789.3,-132.11 813.28,-134.78 835.18,-137.22"/>
<polygon fill="black" stroke="black" stroke-width="0.5" points="835.24,-138.99 840.4,-137.8 835.63,-135.51 835.24,-138.99"/>
</g>
<!-- MonthLocator -->
<g id="node18" class="node">
<title>MonthLocator</title>
<g id="a_node18"><a xlink:href="../api/dates_api.html#matplotlib.dates.MonthLocator" xlink:title="Make ticks on occurrences of each month, e.g., 1, 3, 12." target="_top">
<polygon fill="white" stroke="black" stroke-width="0.5" points="969.5,-114 842.5,-114 842.5,-88 969.5,-88 969.5,-114"/>
<text text-anchor="middle" x="906" y="-97.2" font-family="Vera Sans, DejaVu Sans, Liberation Sans, Arial, Helvetica, sans" font-size="16.00">MonthLocator</text>
</a>
</g>
</g>
<!-- RRuleLocator&#45;&gt;MonthLocator -->
<g id="edge15" class="edge">
<title>RRuleLocator&#45;&gt;MonthLocator</title>
<path fill="none" stroke="black" stroke-width="0.5" d="M768.1,-116.25C790.03,-113.81 814.92,-111.03 837.41,-108.53"/>
<polygon fill="black" stroke="black" stroke-width="0.5" points="837.69,-110.26 842.47,-107.97 837.3,-106.78 837.69,-110.26"/>
</g>
<!-- SecondLocator -->
<g id="node19" class="node">
<title>SecondLocator</title>
<g id="a_node19"><a xlink:href="../api/dates_api.html#matplotlib.dates.SecondLocator" xlink:title="Make ticks on occurrences of each second." target="_top">
<polygon fill="white" stroke="black" stroke-width="0.5" points="974.5,-70 837.5,-70 837.5,-44 974.5,-44 974.5,-70"/>
<text text-anchor="middle" x="906" y="-53.2" font-family="Vera Sans, DejaVu Sans, Liberation Sans, Arial, Helvetica, sans" font-size="16.00">SecondLocator</text>
</a>
</g>
</g>
<!-- RRuleLocator&#45;&gt;SecondLocator -->
<g id="edge17" class="edge">
<title>RRuleLocator&#45;&gt;SecondLocator</title>
<path fill="none" stroke="black" stroke-width="0.5" d="M768.06,-110.32C777.24,-107.67 786.48,-104.58 795,-101 812.29,-93.74 813.87,-86.62 831,-79 836.95,-76.35 843.31,-73.91 849.71,-71.71"/>
<polygon fill="black" stroke="black" stroke-width="0.5" points="850.42,-73.31 854.6,-70.06 849.31,-69.99 850.42,-73.31"/>
</g>
<!-- WeekdayLocator -->
<g id="node20" class="node">
<title>WeekdayLocator</title>
<g id="a_node20"><a xlink:href="../api/dates_api.html#matplotlib.dates.WeekdayLocator" xlink:title="Make ticks on occurrences of each weekday." target="_top">
<polygon fill="white" stroke="black" stroke-width="0.5" points="981,-26 831,-26 831,0 981,0 981,-26"/>
<text text-anchor="middle" x="906" y="-9.2" font-family="Vera Sans, DejaVu Sans, Liberation Sans, Arial, Helvetica, sans" font-size="16.00">WeekdayLocator</text>
</a>
</g>
</g>
<!-- RRuleLocator&#45;&gt;WeekdayLocator -->
<g id="edge18" class="edge">
<title>RRuleLocator&#45;&gt;WeekdayLocator</title>
<path fill="none" stroke="black" stroke-width="0.5" d="M768.41,-114.64C777.94,-111.44 787.2,-107.04 795,-101 821.42,-80.54 805.02,-56.02 831,-35 833.94,-32.62 837.12,-30.5 840.47,-28.61"/>
<polygon fill="black" stroke="black" stroke-width="0.5" points="841.51,-30.05 845.13,-26.17 839.89,-26.95 841.51,-30.05"/>
</g>
<!-- TickHelper -->
<g id="node13" class="node">
<title>TickHelper</title>
<g id="a_node13"><a xlink:href="../ticker_api.html#matplotlib.ticker.TickHelper" xlink:title="TickHelper" target="_top">
<polygon fill="white" stroke="black" stroke-width="0.5" points="140,-180 39,-180 39,-154 140,-154 140,-180"/>
<text text-anchor="middle" x="89.5" y="-163.2" font-family="Vera Sans, DejaVu Sans, Liberation Sans, Arial, Helvetica, sans" font-size="16.00">TickHelper</text>
</a>
</g>
</g>
<!-- TickHelper&#45;&gt;Formatter -->
<g id="edge9" class="edge">
<title>TickHelper&#45;&gt;Formatter</title>
<path fill="none" stroke="black" stroke-width="0.5" d="M140.05,-172.72C167.45,-175.89 201.46,-179.81 229.21,-183.02"/>
<polygon fill="black" stroke="black" stroke-width="0.5" points="229.15,-184.77 234.31,-183.61 229.55,-181.3 229.15,-184.77"/>
</g>
<!-- TickHelper&#45;&gt;Locator -->
<g id="edge12" class="edge">
<title>TickHelper&#45;&gt;Locator</title>
<path fill="none" stroke="black" stroke-width="0.5" d="M140.05,-155.55C170.59,-148.5 209.33,-139.55 238.47,-132.82"/>
<polygon fill="black" stroke="black" stroke-width="0.5" points="238.95,-134.51 243.43,-131.68 238.16,-131.1 238.95,-134.51"/>
</g>
<!-- rrulewrapper -->
<g id="node22" class="node">
<title>rrulewrapper</title>
<polygon fill="white" stroke="black" stroke-width="0.5" points="150,-378 29,-378 29,-352 150,-352 150,-378"/>
<text text-anchor="middle" x="89.5" y="-361.2" font-family="Vera Sans, DejaVu Sans, Liberation Sans, Arial, Helvetica, sans" font-size="16.00">rrulewrapper</text>
</g>
</g>
</svg>
