<?xml version="1.0" encoding="UTF-8" standalone="no"?>
<!DOCTYPE svg PUBLIC "-//W3C//DTD SVG 1.1//EN"
 "http://www.w3.org/Graphics/SVG/1.1/DTD/svg11.dtd">
<!-- Generated by graphviz version 2.42.4 (0)
 -->
<!-- Title: inheritance0ca9968ee0 Pages: 1 -->
<svg width="576pt" height="603pt"
 viewBox="0.00 0.00 576.00 602.64" xmlns="http://www.w3.org/2000/svg" xmlns:xlink="http://www.w3.org/1999/xlink">
<g id="graph0" class="graph" transform="scale(0.53 0.53) rotate(0) translate(4 1127)">
<title>inheritance0ca9968ee0</title>
<!-- Accent -->
<g id="node1" class="node">
<title>Accent</title>
<g id="a_node1"><a xlink:href="../api/mathtext_api.html#matplotlib.mathtext.Accent" xlink:title="The font metrics need to be dealt with differently for accents," target="_top">
<polygon fill="white" stroke="black" stroke-width="0.5" points="658,-510 587,-510 587,-484 658,-484 658,-510"/>
<text text-anchor="middle" x="622.5" y="-493.2" font-family="Vera Sans, DejaVu Sans, Liberation Sans, Arial, Helvetica, sans" font-size="16.00">Accent</text>
</a>
</g>
</g>
<!-- Char -->
<g id="node2" class="node">
<title>Char</title>
<g id="a_node2"><a xlink:href="../api/mathtext_api.html#matplotlib.mathtext.Char" xlink:title="A single character." target="_top">
<polygon fill="white" stroke="black" stroke-width="0.5" points="370.5,-507 315.5,-507 315.5,-481 370.5,-481 370.5,-507"/>
<text text-anchor="middle" x="343" y="-490.2" font-family="Vera Sans, DejaVu Sans, Liberation Sans, Arial, Helvetica, sans" font-size="16.00">Char</text>
</a>
</g>
</g>
<!-- Char&#45;&gt;Accent -->
<g id="edge1" class="edge">
<title>Char&#45;&gt;Accent</title>
<path fill="none" stroke="black" stroke-width="0.5" d="M370.61,-494.29C419.59,-494.82 524.28,-495.95 581.73,-496.57"/>
<polygon fill="black" stroke="black" stroke-width="0.5" points="581.78,-498.32 586.8,-496.62 581.82,-494.82 581.78,-498.32"/>
</g>
<!-- AutoHeightChar -->
<g id="node3" class="node">
<title>AutoHeightChar</title>
<g id="a_node3"><a xlink:href="../api/mathtext_api.html#matplotlib.mathtext.AutoHeightChar" xlink:title="A character as close to the given height and depth as possible." target="_top">
<polygon fill="white" stroke="black" stroke-width="0.5" points="1068.5,-565 922.5,-565 922.5,-539 1068.5,-539 1068.5,-565"/>
<text text-anchor="middle" x="995.5" y="-548.2" font-family="Vera Sans, DejaVu Sans, Liberation Sans, Arial, Helvetica, sans" font-size="16.00">AutoHeightChar</text>
</a>
</g>
</g>
<!-- Hlist -->
<g id="node4" class="node">
<title>Hlist</title>
<g id="a_node4"><a xlink:href="../api/mathtext_api.html#matplotlib.mathtext.Hlist" xlink:title="A horizontal list of boxes." target="_top">
<polygon fill="white" stroke="black" stroke-width="0.5" points="851,-477 797,-477 797,-451 851,-451 851,-477"/>
<text text-anchor="middle" x="824" y="-460.2" font-family="Vera Sans, DejaVu Sans, Liberation Sans, Arial, Helvetica, sans" font-size="16.00">Hlist</text>
</a>
</g>
</g>
<!-- Hlist&#45;&gt;AutoHeightChar -->
<g id="edge2" class="edge">
<title>Hlist&#45;&gt;AutoHeightChar</title>
<path fill="none" stroke="black" stroke-width="0.5" d="M840.1,-477.19C857.71,-491.94 888.21,-515.66 918,-530 923.55,-532.67 929.48,-535.08 935.49,-537.23"/>
<polygon fill="black" stroke="black" stroke-width="0.5" points="935.26,-539 940.56,-538.98 936.4,-535.69 935.26,-539"/>
</g>
<!-- AutoWidthChar -->
<g id="node5" class="node">
<title>AutoWidthChar</title>
<g id="a_node5"><a xlink:href="../api/mathtext_api.html#matplotlib.mathtext.AutoWidthChar" xlink:title="A character as close to the given width as possible." target="_top">
<polygon fill="white" stroke="black" stroke-width="0.5" points="1065.5,-521 925.5,-521 925.5,-495 1065.5,-495 1065.5,-521"/>
<text text-anchor="middle" x="995.5" y="-504.2" font-family="Vera Sans, DejaVu Sans, Liberation Sans, Arial, Helvetica, sans" font-size="16.00">AutoWidthChar</text>
</a>
</g>
</g>
<!-- Hlist&#45;&gt;AutoWidthChar -->
<g id="edge3" class="edge">
<title>Hlist&#45;&gt;AutoWidthChar</title>
<path fill="none" stroke="black" stroke-width="0.5" d="M851.11,-470.78C874.46,-476.84 909.46,-485.93 939.04,-493.6"/>
<polygon fill="black" stroke="black" stroke-width="0.5" points="938.83,-495.36 944.11,-494.92 939.71,-491.97 938.83,-495.36"/>
</g>
<!-- HCentered -->
<g id="node24" class="node">
<title>HCentered</title>
<g id="a_node24"><a xlink:href="../api/mathtext_api.html#matplotlib.mathtext.HCentered" xlink:title="A convenience class to create an `Hlist` whose contents are" target="_top">
<polygon fill="white" stroke="black" stroke-width="0.5" points="1046.5,-477 944.5,-477 944.5,-451 1046.5,-451 1046.5,-477"/>
<text text-anchor="middle" x="995.5" y="-460.2" font-family="Vera Sans, DejaVu Sans, Liberation Sans, Arial, Helvetica, sans" font-size="16.00">HCentered</text>
</a>
</g>
</g>
<!-- Hlist&#45;&gt;HCentered -->
<g id="edge17" class="edge">
<title>Hlist&#45;&gt;HCentered</title>
<path fill="none" stroke="black" stroke-width="0.5" d="M851.11,-464C874.55,-464 909.73,-464 939.37,-464"/>
<polygon fill="black" stroke="black" stroke-width="0.5" points="939.46,-465.75 944.46,-464 939.46,-462.25 939.46,-465.75"/>
</g>
<!-- SubSuperCluster -->
<g id="node51" class="node">
<title>SubSuperCluster</title>
<g id="a_node51"><a xlink:href="../api/mathtext_api.html#matplotlib.mathtext.SubSuperCluster" xlink:title="A hack to get around that fact that this code does a two&#45;pass parse like" target="_top">
<polygon fill="white" stroke="black" stroke-width="0.5" points="1072,-433 919,-433 919,-407 1072,-407 1072,-433"/>
<text text-anchor="middle" x="995.5" y="-416.2" font-family="Vera Sans, DejaVu Sans, Liberation Sans, Arial, Helvetica, sans" font-size="16.00">SubSuperCluster</text>
</a>
</g>
</g>
<!-- Hlist&#45;&gt;SubSuperCluster -->
<g id="edge40" class="edge">
<title>Hlist&#45;&gt;SubSuperCluster</title>
<path fill="none" stroke="black" stroke-width="0.5" d="M851.11,-457.22C874.46,-451.16 909.46,-442.07 939.04,-434.4"/>
<polygon fill="black" stroke="black" stroke-width="0.5" points="939.71,-436.03 944.11,-433.08 938.83,-432.64 939.71,-436.03"/>
</g>
<!-- BakomaFonts -->
<g id="node6" class="node">
<title>BakomaFonts</title>
<g id="a_node6"><a xlink:href="../api/mathtext_api.html#matplotlib.mathtext.BakomaFonts" xlink:title="Use the Bakoma TrueType fonts for rendering." target="_top">
<polygon fill="white" stroke="black" stroke-width="0.5" points="685,-661 560,-661 560,-635 685,-635 685,-661"/>
<text text-anchor="middle" x="622.5" y="-644.2" font-family="Vera Sans, DejaVu Sans, Liberation Sans, Arial, Helvetica, sans" font-size="16.00">BakomaFonts</text>
</a>
</g>
</g>
<!-- TruetypeFonts -->
<g id="node7" class="node">
<title>TruetypeFonts</title>
<g id="a_node7"><a xlink:href="../api/mathtext_api.html#matplotlib.mathtext.TruetypeFonts" xlink:title="A generic base class for all font setups that use Truetype fonts" target="_top">
<polygon fill="white" stroke="black" stroke-width="0.5" points="408.5,-639 277.5,-639 277.5,-613 408.5,-613 408.5,-639"/>
<text text-anchor="middle" x="343" y="-622.2" font-family="Vera Sans, DejaVu Sans, Liberation Sans, Arial, Helvetica, sans" font-size="16.00">TruetypeFonts</text>
</a>
</g>
</g>
<!-- TruetypeFonts&#45;&gt;BakomaFonts -->
<g id="edge4" class="edge">
<title>TruetypeFonts&#45;&gt;BakomaFonts</title>
<path fill="none" stroke="black" stroke-width="0.5" d="M408.71,-631.13C452.51,-634.6 510.22,-639.18 554.49,-642.69"/>
<polygon fill="black" stroke="black" stroke-width="0.5" points="554.43,-644.44 559.55,-643.09 554.7,-640.95 554.43,-644.44"/>
</g>
<!-- UnicodeFonts -->
<g id="node13" class="node">
<title>UnicodeFonts</title>
<g id="a_node13"><a xlink:href="../api/mathtext_api.html#matplotlib.mathtext.UnicodeFonts" xlink:title="An abstract base class for handling Unicode fonts." target="_top">
<polygon fill="white" stroke="black" stroke-width="0.5" points="685.5,-617 559.5,-617 559.5,-591 685.5,-591 685.5,-617"/>
<text text-anchor="middle" x="622.5" y="-600.2" font-family="Vera Sans, DejaVu Sans, Liberation Sans, Arial, Helvetica, sans" font-size="16.00">UnicodeFonts</text>
</a>
</g>
</g>
<!-- TruetypeFonts&#45;&gt;UnicodeFonts -->
<g id="edge42" class="edge">
<title>TruetypeFonts&#45;&gt;UnicodeFonts</title>
<path fill="none" stroke="black" stroke-width="0.5" d="M408.71,-620.87C452.35,-617.41 509.82,-612.85 554.02,-609.35"/>
<polygon fill="black" stroke="black" stroke-width="0.5" points="554.23,-611.09 559.08,-608.95 553.95,-607.6 554.23,-611.09"/>
</g>
<!-- Box -->
<g id="node8" class="node">
<title>Box</title>
<g id="a_node8"><a xlink:href="../api/mathtext_api.html#matplotlib.mathtext.Box" xlink:title="A node with a physical location." target="_top">
<polygon fill="white" stroke="black" stroke-width="0.5" points="370,-378 316,-378 316,-352 370,-352 370,-378"/>
<text text-anchor="middle" x="343" y="-361.2" font-family="Vera Sans, DejaVu Sans, Liberation Sans, Arial, Helvetica, sans" font-size="16.00">Box</text>
</a>
</g>
</g>
<!-- Hbox -->
<g id="node25" class="node">
<title>Hbox</title>
<g id="a_node25"><a xlink:href="../api/mathtext_api.html#matplotlib.mathtext.Hbox" xlink:title="A box with only width (zero height and depth)." target="_top">
<polygon fill="white" stroke="black" stroke-width="0.5" points="651.5,-466 593.5,-466 593.5,-440 651.5,-440 651.5,-466"/>
<text text-anchor="middle" x="622.5" y="-449.2" font-family="Vera Sans, DejaVu Sans, Liberation Sans, Arial, Helvetica, sans" font-size="16.00">Hbox</text>
</a>
</g>
</g>
<!-- Box&#45;&gt;Hbox -->
<g id="edge18" class="edge">
<title>Box&#45;&gt;Hbox</title>
<path fill="none" stroke="black" stroke-width="0.5" d="M370.19,-376.67C403.35,-391.07 462.49,-415.56 515,-431 539.15,-438.1 567.03,-443.77 588.2,-447.58"/>
<polygon fill="black" stroke="black" stroke-width="0.5" points="587.93,-449.31 593.16,-448.46 588.54,-445.86 587.93,-449.31"/>
</g>
<!-- List -->
<g id="node26" class="node">
<title>List</title>
<g id="a_node26"><a xlink:href="../api/mathtext_api.html#matplotlib.mathtext.List" xlink:title="A list of nodes (either horizontal or vertical)." target="_top">
<polygon fill="white" stroke="black" stroke-width="0.5" points="649.5,-422 595.5,-422 595.5,-396 649.5,-396 649.5,-422"/>
<text text-anchor="middle" x="622.5" y="-405.2" font-family="Vera Sans, DejaVu Sans, Liberation Sans, Arial, Helvetica, sans" font-size="16.00">List</text>
</a>
</g>
</g>
<!-- Box&#45;&gt;List -->
<g id="edge22" class="edge">
<title>Box&#45;&gt;List</title>
<path fill="none" stroke="black" stroke-width="0.5" d="M370.11,-369.14C421.34,-377.26 534.87,-395.26 590.1,-404.02"/>
<polygon fill="black" stroke="black" stroke-width="0.5" points="590.05,-405.78 595.26,-404.84 590.6,-402.33 590.05,-405.78"/>
</g>
<!-- Rule -->
<g id="node28" class="node">
<title>Rule</title>
<g id="a_node28"><a xlink:href="../api/mathtext_api.html#matplotlib.mathtext.Rule" xlink:title="A solid black rectangle." target="_top">
<polygon fill="white" stroke="black" stroke-width="0.5" points="649.5,-378 595.5,-378 595.5,-352 649.5,-352 649.5,-378"/>
<text text-anchor="middle" x="622.5" y="-361.2" font-family="Vera Sans, DejaVu Sans, Liberation Sans, Arial, Helvetica, sans" font-size="16.00">Rule</text>
</a>
</g>
</g>
<!-- Box&#45;&gt;Rule -->
<g id="edge33" class="edge">
<title>Box&#45;&gt;Rule</title>
<path fill="none" stroke="black" stroke-width="0.5" d="M370.11,-365C421.34,-365 534.87,-365 590.1,-365"/>
<polygon fill="black" stroke="black" stroke-width="0.5" points="590.26,-366.75 595.26,-365 590.26,-363.25 590.26,-366.75"/>
</g>
<!-- Vbox -->
<g id="node54" class="node">
<title>Vbox</title>
<g id="a_node54"><a xlink:href="../api/mathtext_api.html#matplotlib.mathtext.Vbox" xlink:title="A box with only height (zero width)." target="_top">
<polygon fill="white" stroke="black" stroke-width="0.5" points="651,-334 594,-334 594,-308 651,-308 651,-334"/>
<text text-anchor="middle" x="622.5" y="-317.2" font-family="Vera Sans, DejaVu Sans, Liberation Sans, Arial, Helvetica, sans" font-size="16.00">Vbox</text>
</a>
</g>
</g>
<!-- Box&#45;&gt;Vbox -->
<g id="edge44" class="edge">
<title>Box&#45;&gt;Vbox</title>
<path fill="none" stroke="black" stroke-width="0.5" d="M370.11,-360.86C420.82,-352.82 532.56,-335.1 588.39,-326.25"/>
<polygon fill="black" stroke="black" stroke-width="0.5" points="588.95,-327.93 593.62,-325.42 588.41,-324.48 588.95,-327.93"/>
</g>
<!-- Node -->
<g id="node9" class="node">
<title>Node</title>
<g id="a_node9"><a xlink:href="../api/mathtext_api.html#matplotlib.mathtext.Node" xlink:title="A node in the TeX box model." target="_top">
<polygon fill="white" stroke="black" stroke-width="0.5" points="115,-290 56,-290 56,-264 115,-264 115,-290"/>
<text text-anchor="middle" x="85.5" y="-273.2" font-family="Vera Sans, DejaVu Sans, Liberation Sans, Arial, Helvetica, sans" font-size="16.00">Node</text>
</a>
</g>
</g>
<!-- Node&#45;&gt;Char -->
<g id="edge6" class="edge">
<title>Node&#45;&gt;Char</title>
<path fill="none" stroke="black" stroke-width="0.5" d="M100.31,-290.19C122.42,-311.17 167.31,-353.22 207,-387 246.13,-420.3 293.54,-457.1 320.5,-477.7"/>
<polygon fill="black" stroke="black" stroke-width="0.5" points="319.61,-479.22 324.64,-480.86 321.73,-476.44 319.61,-479.22"/>
</g>
<!-- Node&#45;&gt;Box -->
<g id="edge5" class="edge">
<title>Node&#45;&gt;Box</title>
<path fill="none" stroke="black" stroke-width="0.5" d="M115.31,-286.92C163.76,-303.61 261.14,-337.15 311.01,-354.33"/>
<polygon fill="black" stroke="black" stroke-width="0.5" points="310.68,-356.06 315.98,-356.04 311.82,-352.75 310.68,-356.06"/>
</g>
<!-- Glue -->
<g id="node19" class="node">
<title>Glue</title>
<g id="a_node19"><a xlink:href="../api/mathtext_api.html#matplotlib.mathtext.Glue" xlink:title="Most of the information in this object is stored in the underlying" target="_top">
<polygon fill="white" stroke="black" stroke-width="0.5" points="370,-202 316,-202 316,-176 370,-176 370,-202"/>
<text text-anchor="middle" x="343" y="-185.2" font-family="Vera Sans, DejaVu Sans, Liberation Sans, Arial, Helvetica, sans" font-size="16.00">Glue</text>
</a>
</g>
</g>
<!-- Node&#45;&gt;Glue -->
<g id="edge16" class="edge">
<title>Node&#45;&gt;Glue</title>
<path fill="none" stroke="black" stroke-width="0.5" d="M115.31,-267.08C163.76,-250.39 261.14,-216.85 311.01,-199.67"/>
<polygon fill="black" stroke="black" stroke-width="0.5" points="311.82,-201.25 315.98,-197.96 310.68,-197.94 311.82,-201.25"/>
</g>
<!-- Kern -->
<g id="node29" class="node">
<title>Kern</title>
<g id="a_node29"><a xlink:href="../api/mathtext_api.html#matplotlib.mathtext.Kern" xlink:title="A `Kern` node has a width field to specify a (normally" target="_top">
<polygon fill="white" stroke="black" stroke-width="0.5" points="370,-158 316,-158 316,-132 370,-132 370,-158"/>
<text text-anchor="middle" x="343" y="-141.2" font-family="Vera Sans, DejaVu Sans, Liberation Sans, Arial, Helvetica, sans" font-size="16.00">Kern</text>
</a>
</g>
</g>
<!-- Node&#45;&gt;Kern -->
<g id="edge21" class="edge">
<title>Node&#45;&gt;Kern</title>
<path fill="none" stroke="black" stroke-width="0.5" d="M96.44,-263.88C115.19,-240.2 158.3,-190.57 207,-167 240,-151.03 282.3,-146.32 310.68,-145.1"/>
<polygon fill="black" stroke="black" stroke-width="0.5" points="310.88,-146.84 315.81,-144.91 310.75,-143.34 310.88,-146.84"/>
</g>
<!-- ComputerModernFontConstants -->
<g id="node10" class="node">
<title>ComputerModernFontConstants</title>
<g id="a_node10"><a xlink:href="../api/mathtext_api.html#matplotlib.mathtext.ComputerModernFontConstants" xlink:title="ComputerModernFontConstants" target="_top">
<polygon fill="white" stroke="black" stroke-width="0.5" points="479,-859 207,-859 207,-833 479,-833 479,-859"/>
<text text-anchor="middle" x="343" y="-842.2" font-family="Vera Sans, DejaVu Sans, Liberation Sans, Arial, Helvetica, sans" font-size="16.00">ComputerModernFontConstants</text>
</a>
</g>
</g>
<!-- FontConstantsBase -->
<g id="node11" class="node">
<title>FontConstantsBase</title>
<g id="a_node11"><a xlink:href="../api/mathtext_api.html#matplotlib.mathtext.FontConstantsBase" xlink:title="A set of constants that controls how certain things, such as sub&#45;" target="_top">
<polygon fill="white" stroke="black" stroke-width="0.5" points="171,-771 0,-771 0,-745 171,-745 171,-771"/>
<text text-anchor="middle" x="85.5" y="-754.2" font-family="Vera Sans, DejaVu Sans, Liberation Sans, Arial, Helvetica, sans" font-size="16.00">FontConstantsBase</text>
</a>
</g>
</g>
<!-- FontConstantsBase&#45;&gt;ComputerModernFontConstants -->
<g id="edge7" class="edge">
<title>FontConstantsBase&#45;&gt;ComputerModernFontConstants</title>
<path fill="none" stroke="black" stroke-width="0.5" d="M108.14,-771.01C137.08,-788.21 187.04,-817.13 207,-824 215.62,-826.97 224.69,-829.54 233.88,-831.76"/>
<polygon fill="black" stroke="black" stroke-width="0.5" points="233.73,-833.53 239,-832.97 234.53,-830.12 233.73,-833.53"/>
</g>
<!-- DejaVuSansFontConstants -->
<g id="node14" class="node">
<title>DejaVuSansFontConstants</title>
<g id="a_node14"><a xlink:href="../api/mathtext_api.html#matplotlib.mathtext.DejaVuSansFontConstants" xlink:title="DejaVuSansFontConstants" target="_top">
<polygon fill="white" stroke="black" stroke-width="0.5" points="456.5,-815 229.5,-815 229.5,-789 456.5,-789 456.5,-815"/>
<text text-anchor="middle" x="343" y="-798.2" font-family="Vera Sans, DejaVu Sans, Liberation Sans, Arial, Helvetica, sans" font-size="16.00">DejaVuSansFontConstants</text>
</a>
</g>
</g>
<!-- FontConstantsBase&#45;&gt;DejaVuSansFontConstants -->
<g id="edge9" class="edge">
<title>FontConstantsBase&#45;&gt;DejaVuSansFontConstants</title>
<path fill="none" stroke="black" stroke-width="0.5" d="M156.55,-771.02C173.08,-774.03 190.65,-777.18 207,-780 222.69,-782.71 239.43,-785.51 255.58,-788.17"/>
<polygon fill="black" stroke="black" stroke-width="0.5" points="255.36,-789.9 260.58,-788.99 255.93,-786.45 255.36,-789.9"/>
</g>
<!-- DejaVuSerifFontConstants -->
<g id="node16" class="node">
<title>DejaVuSerifFontConstants</title>
<g id="a_node16"><a xlink:href="../api/mathtext_api.html#matplotlib.mathtext.DejaVuSerifFontConstants" xlink:title="DejaVuSerifFontConstants" target="_top">
<polygon fill="white" stroke="black" stroke-width="0.5" points="456,-771 230,-771 230,-745 456,-745 456,-771"/>
<text text-anchor="middle" x="343" y="-754.2" font-family="Vera Sans, DejaVu Sans, Liberation Sans, Arial, Helvetica, sans" font-size="16.00">DejaVuSerifFontConstants</text>
</a>
</g>
</g>
<!-- FontConstantsBase&#45;&gt;DejaVuSerifFontConstants -->
<g id="edge11" class="edge">
<title>FontConstantsBase&#45;&gt;DejaVuSerifFontConstants</title>
<path fill="none" stroke="black" stroke-width="0.5" d="M171.22,-758C188.35,-758 206.65,-758 224.67,-758"/>
<polygon fill="black" stroke="black" stroke-width="0.5" points="224.74,-759.75 229.74,-758 224.74,-756.25 224.74,-759.75"/>
</g>
<!-- STIXFontConstants -->
<g id="node44" class="node">
<title>STIXFontConstants</title>
<g id="a_node44"><a xlink:href="../api/mathtext_api.html#matplotlib.mathtext.STIXFontConstants" xlink:title="STIXFontConstants" target="_top">
<polygon fill="white" stroke="black" stroke-width="0.5" points="427,-727 259,-727 259,-701 427,-701 427,-727"/>
<text text-anchor="middle" x="343" y="-710.2" font-family="Vera Sans, DejaVu Sans, Liberation Sans, Arial, Helvetica, sans" font-size="16.00">STIXFontConstants</text>
</a>
</g>
</g>
<!-- FontConstantsBase&#45;&gt;STIXFontConstants -->
<g id="edge34" class="edge">
<title>FontConstantsBase&#45;&gt;STIXFontConstants</title>
<path fill="none" stroke="black" stroke-width="0.5" d="M156.55,-744.98C173.08,-741.97 190.65,-738.82 207,-736 222.69,-733.29 239.43,-730.49 255.58,-727.83"/>
<polygon fill="black" stroke="black" stroke-width="0.5" points="255.93,-729.55 260.58,-727.01 255.36,-726.1 255.93,-729.55"/>
</g>
<!-- STIXSansFontConstants -->
<g id="node45" class="node">
<title>STIXSansFontConstants</title>
<g id="a_node45"><a xlink:href="../api/mathtext_api.html#matplotlib.mathtext.STIXSansFontConstants" xlink:title="STIXSansFontConstants" target="_top">
<polygon fill="white" stroke="black" stroke-width="0.5" points="446.5,-683 239.5,-683 239.5,-657 446.5,-657 446.5,-683"/>
<text text-anchor="middle" x="343" y="-666.2" font-family="Vera Sans, DejaVu Sans, Liberation Sans, Arial, Helvetica, sans" font-size="16.00">STIXSansFontConstants</text>
</a>
</g>
</g>
<!-- FontConstantsBase&#45;&gt;STIXSansFontConstants -->
<g id="edge35" class="edge">
<title>FontConstantsBase&#45;&gt;STIXSansFontConstants</title>
<path fill="none" stroke="black" stroke-width="0.5" d="M105.58,-744.86C128.58,-729.68 168.88,-705.11 207,-692 215.8,-688.97 225.06,-686.36 234.45,-684.1"/>
<polygon fill="black" stroke="black" stroke-width="0.5" points="234.89,-685.79 239.36,-682.95 234.1,-682.39 234.89,-685.79"/>
</g>
<!-- DejaVuFonts -->
<g id="node12" class="node">
<title>DejaVuFonts</title>
<g id="a_node12"><a xlink:href="../api/mathtext_api.html#matplotlib.mathtext.DejaVuFonts" xlink:title="DejaVuFonts" target="_top">
<polygon fill="white" stroke="black" stroke-width="0.5" points="882,-656 766,-656 766,-630 882,-630 882,-656"/>
<text text-anchor="middle" x="824" y="-639.2" font-family="Vera Sans, DejaVu Sans, Liberation Sans, Arial, Helvetica, sans" font-size="16.00">DejaVuFonts</text>
</a>
</g>
</g>
<!-- DejaVuSansFonts -->
<g id="node15" class="node">
<title>DejaVuSansFonts</title>
<g id="a_node15"><a xlink:href="../api/mathtext_api.html#matplotlib.mathtext.DejaVuSansFonts" xlink:title="A font handling class for the DejaVu Sans fonts" target="_top">
<polygon fill="white" stroke="black" stroke-width="0.5" points="1073,-700 918,-700 918,-674 1073,-674 1073,-700"/>
<text text-anchor="middle" x="995.5" y="-683.2" font-family="Vera Sans, DejaVu Sans, Liberation Sans, Arial, Helvetica, sans" font-size="16.00">DejaVuSansFonts</text>
</a>
</g>
</g>
<!-- DejaVuFonts&#45;&gt;DejaVuSansFonts -->
<g id="edge10" class="edge">
<title>DejaVuFonts&#45;&gt;DejaVuSansFonts</title>
<path fill="none" stroke="black" stroke-width="0.5" d="M875.4,-656.08C895.54,-661.31 918.81,-667.35 939.4,-672.7"/>
<polygon fill="black" stroke="black" stroke-width="0.5" points="939.02,-674.41 944.3,-673.97 939.9,-671.02 939.02,-674.41"/>
</g>
<!-- DejaVuSerifFonts -->
<g id="node17" class="node">
<title>DejaVuSerifFonts</title>
<g id="a_node17"><a xlink:href="../api/mathtext_api.html#matplotlib.mathtext.DejaVuSerifFonts" xlink:title="A font handling class for the DejaVu Serif fonts" target="_top">
<polygon fill="white" stroke="black" stroke-width="0.5" points="1072.5,-656 918.5,-656 918.5,-630 1072.5,-630 1072.5,-656"/>
<text text-anchor="middle" x="995.5" y="-639.2" font-family="Vera Sans, DejaVu Sans, Liberation Sans, Arial, Helvetica, sans" font-size="16.00">DejaVuSerifFonts</text>
</a>
</g>
</g>
<!-- DejaVuFonts&#45;&gt;DejaVuSerifFonts -->
<g id="edge12" class="edge">
<title>DejaVuFonts&#45;&gt;DejaVuSerifFonts</title>
<path fill="none" stroke="black" stroke-width="0.5" d="M882.38,-643C892.29,-643 902.75,-643 913.15,-643"/>
<polygon fill="black" stroke="black" stroke-width="0.5" points="913.24,-644.75 918.24,-643 913.24,-641.25 913.24,-644.75"/>
</g>
<!-- UnicodeFonts&#45;&gt;DejaVuFonts -->
<g id="edge8" class="edge">
<title>UnicodeFonts&#45;&gt;DejaVuFonts</title>
<path fill="none" stroke="black" stroke-width="0.5" d="M685.53,-616.13C709.45,-620.8 736.76,-626.14 760.71,-630.82"/>
<polygon fill="black" stroke="black" stroke-width="0.5" points="760.52,-632.57 765.76,-631.81 761.19,-629.13 760.52,-632.57"/>
</g>
<!-- StixFonts -->
<g id="node49" class="node">
<title>StixFonts</title>
<g id="a_node49"><a xlink:href="../api/mathtext_api.html#matplotlib.mathtext.StixFonts" xlink:title="A font handling class for the STIX fonts." target="_top">
<polygon fill="white" stroke="black" stroke-width="0.5" points="869.5,-612 778.5,-612 778.5,-586 869.5,-586 869.5,-612"/>
<text text-anchor="middle" x="824" y="-595.2" font-family="Vera Sans, DejaVu Sans, Liberation Sans, Arial, Helvetica, sans" font-size="16.00">StixFonts</text>
</a>
</g>
</g>
<!-- UnicodeFonts&#45;&gt;StixFonts -->
<g id="edge38" class="edge">
<title>UnicodeFonts&#45;&gt;StixFonts</title>
<path fill="none" stroke="black" stroke-width="0.5" d="M685.53,-602.45C713.73,-601.74 746.65,-600.91 773.21,-600.25"/>
<polygon fill="black" stroke="black" stroke-width="0.5" points="773.47,-601.99 778.43,-600.12 773.39,-598.49 773.47,-601.99"/>
</g>
<!-- Fil -->
<g id="node18" class="node">
<title>Fil</title>
<g id="a_node18"><a xlink:href="../api/mathtext_api.html#matplotlib.mathtext.Fil" xlink:title="[*Deprecated*] " target="_top">
<polygon fill="white" stroke="black" stroke-width="0.5" points="649.5,-290 595.5,-290 595.5,-264 649.5,-264 649.5,-290"/>
<text text-anchor="middle" x="622.5" y="-273.2" font-family="Vera Sans, DejaVu Sans, Liberation Sans, Arial, Helvetica, sans" font-size="16.00">Fil</text>
</a>
</g>
</g>
<!-- Glue&#45;&gt;Fil -->
<g id="edge13" class="edge">
<title>Glue&#45;&gt;Fil</title>
<path fill="none" stroke="black" stroke-width="0.5" d="M370.19,-200.67C403.35,-215.07 462.49,-239.56 515,-255 539.99,-262.35 568.97,-268.16 590.38,-271.97"/>
<polygon fill="black" stroke="black" stroke-width="0.5" points="590.15,-273.7 595.38,-272.84 590.76,-270.26 590.15,-273.7"/>
</g>
<!-- Fill -->
<g id="node20" class="node">
<title>Fill</title>
<g id="a_node20"><a xlink:href="../api/mathtext_api.html#matplotlib.mathtext.Fill" xlink:title="[*Deprecated*] " target="_top">
<polygon fill="white" stroke="black" stroke-width="0.5" points="649.5,-246 595.5,-246 595.5,-220 649.5,-220 649.5,-246"/>
<text text-anchor="middle" x="622.5" y="-229.2" font-family="Vera Sans, DejaVu Sans, Liberation Sans, Arial, Helvetica, sans" font-size="16.00">Fill</text>
</a>
</g>
</g>
<!-- Glue&#45;&gt;Fill -->
<g id="edge14" class="edge">
<title>Glue&#45;&gt;Fill</title>
<path fill="none" stroke="black" stroke-width="0.5" d="M370.11,-193.14C421.34,-201.26 534.87,-219.26 590.1,-228.02"/>
<polygon fill="black" stroke="black" stroke-width="0.5" points="590.05,-229.78 595.26,-228.84 590.6,-226.33 590.05,-229.78"/>
</g>
<!-- Filll -->
<g id="node21" class="node">
<title>Filll</title>
<g id="a_node21"><a xlink:href="../api/mathtext_api.html#matplotlib.mathtext.Filll" xlink:title="[*Deprecated*] " target="_top">
<polygon fill="white" stroke="black" stroke-width="0.5" points="649.5,-202 595.5,-202 595.5,-176 649.5,-176 649.5,-202"/>
<text text-anchor="middle" x="622.5" y="-185.2" font-family="Vera Sans, DejaVu Sans, Liberation Sans, Arial, Helvetica, sans" font-size="16.00">Filll</text>
</a>
</g>
</g>
<!-- Glue&#45;&gt;Filll -->
<g id="edge15" class="edge">
<title>Glue&#45;&gt;Filll</title>
<path fill="none" stroke="black" stroke-width="0.5" d="M370.11,-189C421.34,-189 534.87,-189 590.1,-189"/>
<polygon fill="black" stroke="black" stroke-width="0.5" points="590.26,-190.75 595.26,-189 590.26,-187.25 590.26,-190.75"/>
</g>
<!-- NegFil -->
<g id="node40" class="node">
<title>NegFil</title>
<g id="a_node40"><a xlink:href="../api/mathtext_api.html#matplotlib.mathtext.NegFil" xlink:title="[*Deprecated*] " target="_top">
<polygon fill="white" stroke="black" stroke-width="0.5" points="655.5,-158 589.5,-158 589.5,-132 655.5,-132 655.5,-158"/>
<text text-anchor="middle" x="622.5" y="-141.2" font-family="Vera Sans, DejaVu Sans, Liberation Sans, Arial, Helvetica, sans" font-size="16.00">NegFil</text>
</a>
</g>
</g>
<!-- Glue&#45;&gt;NegFil -->
<g id="edge30" class="edge">
<title>Glue&#45;&gt;NegFil</title>
<path fill="none" stroke="black" stroke-width="0.5" d="M370.11,-184.86C419.61,-177.01 527.27,-159.94 584.31,-150.9"/>
<polygon fill="black" stroke="black" stroke-width="0.5" points="584.67,-152.61 589.33,-150.1 584.12,-149.15 584.67,-152.61"/>
</g>
<!-- NegFill -->
<g id="node41" class="node">
<title>NegFill</title>
<g id="a_node41"><a xlink:href="../api/mathtext_api.html#matplotlib.mathtext.NegFill" xlink:title="[*Deprecated*] " target="_top">
<polygon fill="white" stroke="black" stroke-width="0.5" points="658,-114 587,-114 587,-88 658,-88 658,-114"/>
<text text-anchor="middle" x="622.5" y="-97.2" font-family="Vera Sans, DejaVu Sans, Liberation Sans, Arial, Helvetica, sans" font-size="16.00">NegFill</text>
</a>
</g>
</g>
<!-- Glue&#45;&gt;NegFill -->
<g id="edge31" class="edge">
<title>Glue&#45;&gt;NegFill</title>
<path fill="none" stroke="black" stroke-width="0.5" d="M370.18,-190.06C398.79,-190.06 445.06,-186.58 479,-167 500.89,-154.37 493.39,-136.09 515,-123 535.04,-110.87 560.66,-105.33 581.76,-102.84"/>
<polygon fill="black" stroke="black" stroke-width="0.5" points="581.96,-104.58 586.74,-102.3 581.58,-101.1 581.96,-104.58"/>
</g>
<!-- NegFilll -->
<g id="node42" class="node">
<title>NegFilll</title>
<g id="a_node42"><a xlink:href="../api/mathtext_api.html#matplotlib.mathtext.NegFilll" xlink:title="[*Deprecated*] " target="_top">
<polygon fill="white" stroke="black" stroke-width="0.5" points="660,-70 585,-70 585,-44 660,-44 660,-70"/>
<text text-anchor="middle" x="622.5" y="-53.2" font-family="Vera Sans, DejaVu Sans, Liberation Sans, Arial, Helvetica, sans" font-size="16.00">NegFilll</text>
</a>
</g>
</g>
<!-- Glue&#45;&gt;NegFilll -->
<g id="edge32" class="edge">
<title>Glue&#45;&gt;NegFilll</title>
<path fill="none" stroke="black" stroke-width="0.5" d="M370.09,-191.81C399.68,-193.54 447.87,-191.76 479,-167 512.07,-140.69 482.49,-106 515,-79 532.95,-64.09 558.39,-58.45 579.91,-56.6"/>
<polygon fill="black" stroke="black" stroke-width="0.5" points="580.14,-58.34 585,-56.23 579.88,-54.85 580.14,-58.34"/>
</g>
<!-- SsGlue -->
<g id="node47" class="node">
<title>SsGlue</title>
<g id="a_node47"><a xlink:href="../api/mathtext_api.html#matplotlib.mathtext.SsGlue" xlink:title="[*Deprecated*] " target="_top">
<polygon fill="white" stroke="black" stroke-width="0.5" points="659,-26 586,-26 586,0 659,0 659,-26"/>
<text text-anchor="middle" x="622.5" y="-9.2" font-family="Vera Sans, DejaVu Sans, Liberation Sans, Arial, Helvetica, sans" font-size="16.00">SsGlue</text>
</a>
</g>
</g>
<!-- Glue&#45;&gt;SsGlue -->
<g id="edge36" class="edge">
<title>Glue&#45;&gt;SsGlue</title>
<path fill="none" stroke="black" stroke-width="0.5" d="M370.11,-192.43C400.19,-194.83 449.26,-193.77 479,-167 524.19,-126.31 470.68,-76.63 515,-35 532.39,-18.67 558.56,-13.1 580.61,-11.65"/>
<polygon fill="black" stroke="black" stroke-width="0.5" points="580.92,-13.38 585.83,-11.37 580.74,-9.89 580.92,-13.38"/>
</g>
<!-- Fonts -->
<g id="node22" class="node">
<title>Fonts</title>
<g id="a_node22"><a xlink:href="../api/mathtext_api.html#matplotlib.mathtext.Fonts" xlink:title="An abstract base class for a system of fonts to use for mathtext." target="_top">
<polygon fill="white" stroke="black" stroke-width="0.5" points="115.5,-617 55.5,-617 55.5,-591 115.5,-591 115.5,-617"/>
<text text-anchor="middle" x="85.5" y="-600.2" font-family="Vera Sans, DejaVu Sans, Liberation Sans, Arial, Helvetica, sans" font-size="16.00">Fonts</text>
</a>
</g>
</g>
<!-- Fonts&#45;&gt;TruetypeFonts -->
<g id="edge41" class="edge">
<title>Fonts&#45;&gt;TruetypeFonts</title>
<path fill="none" stroke="black" stroke-width="0.5" d="M115.81,-606.52C153.7,-609.79 220.91,-615.57 272.25,-619.99"/>
<polygon fill="black" stroke="black" stroke-width="0.5" points="272.35,-621.76 277.48,-620.44 272.65,-618.27 272.35,-621.76"/>
</g>
<!-- StandardPsFonts -->
<g id="node48" class="node">
<title>StandardPsFonts</title>
<g id="a_node48"><a xlink:href="../api/mathtext_api.html#matplotlib.mathtext.StandardPsFonts" xlink:title="Use the standard postscript fonts for rendering to backend_ps" target="_top">
<polygon fill="white" stroke="black" stroke-width="0.5" points="418.5,-595 267.5,-595 267.5,-569 418.5,-569 418.5,-595"/>
<text text-anchor="middle" x="343" y="-578.2" font-family="Vera Sans, DejaVu Sans, Liberation Sans, Arial, Helvetica, sans" font-size="16.00">StandardPsFonts</text>
</a>
</g>
</g>
<!-- Fonts&#45;&gt;StandardPsFonts -->
<g id="edge37" class="edge">
<title>Fonts&#45;&gt;StandardPsFonts</title>
<path fill="none" stroke="black" stroke-width="0.5" d="M115.81,-601.48C151.29,-598.42 212.48,-593.15 262.28,-588.86"/>
<polygon fill="black" stroke="black" stroke-width="0.5" points="262.54,-590.6 267.37,-588.43 262.24,-587.11 262.54,-590.6"/>
</g>
<!-- GlueSpec -->
<g id="node23" class="node">
<title>GlueSpec</title>
<g id="a_node23"><a xlink:href="../api/mathtext_api.html#matplotlib.mathtext.GlueSpec" xlink:title="[*Deprecated*] See `Glue`." target="_top">
<polygon fill="white" stroke="black" stroke-width="0.5" points="132.5,-843 38.5,-843 38.5,-817 132.5,-817 132.5,-843"/>
<text text-anchor="middle" x="85.5" y="-826.2" font-family="Vera Sans, DejaVu Sans, Liberation Sans, Arial, Helvetica, sans" font-size="16.00">GlueSpec</text>
</a>
</g>
</g>
<!-- List&#45;&gt;Hlist -->
<g id="edge19" class="edge">
<title>List&#45;&gt;Hlist</title>
<path fill="none" stroke="black" stroke-width="0.5" d="M649.56,-413.35C671.27,-417.22 702.91,-423.43 730,-431 750.96,-436.86 774.03,-445.03 791.94,-451.77"/>
<polygon fill="black" stroke="black" stroke-width="0.5" points="791.56,-453.5 796.85,-453.64 792.8,-450.23 791.56,-453.5"/>
</g>
<!-- Vlist -->
<g id="node53" class="node">
<title>Vlist</title>
<g id="a_node53"><a xlink:href="../api/mathtext_api.html#matplotlib.mathtext.Vlist" xlink:title="A vertical list of boxes." target="_top">
<polygon fill="white" stroke="black" stroke-width="0.5" points="851,-422 797,-422 797,-396 851,-396 851,-422"/>
<text text-anchor="middle" x="824" y="-405.2" font-family="Vera Sans, DejaVu Sans, Liberation Sans, Arial, Helvetica, sans" font-size="16.00">Vlist</text>
</a>
</g>
</g>
<!-- List&#45;&gt;Vlist -->
<g id="edge45" class="edge">
<title>List&#45;&gt;Vlist</title>
<path fill="none" stroke="black" stroke-width="0.5" d="M649.58,-409C686.17,-409 752.65,-409 791.81,-409"/>
<polygon fill="black" stroke="black" stroke-width="0.5" points="791.91,-410.75 796.91,-409 791.91,-407.25 791.91,-410.75"/>
</g>
<!-- Hrule -->
<g id="node27" class="node">
<title>Hrule</title>
<g id="a_node27"><a xlink:href="../api/mathtext_api.html#matplotlib.mathtext.Hrule" xlink:title="Convenience class to create a horizontal rule." target="_top">
<polygon fill="white" stroke="black" stroke-width="0.5" points="854,-378 794,-378 794,-352 854,-352 854,-378"/>
<text text-anchor="middle" x="824" y="-361.2" font-family="Vera Sans, DejaVu Sans, Liberation Sans, Arial, Helvetica, sans" font-size="16.00">Hrule</text>
</a>
</g>
</g>
<!-- Rule&#45;&gt;Hrule -->
<g id="edge20" class="edge">
<title>Rule&#45;&gt;Hrule</title>
<path fill="none" stroke="black" stroke-width="0.5" d="M649.58,-365C685.16,-365 749,-365 788.5,-365"/>
<polygon fill="black" stroke="black" stroke-width="0.5" points="788.67,-366.75 793.67,-365 788.67,-363.25 788.67,-366.75"/>
</g>
<!-- Vrule -->
<g id="node55" class="node">
<title>Vrule</title>
<g id="a_node55"><a xlink:href="../api/mathtext_api.html#matplotlib.mathtext.Vrule" xlink:title="Convenience class to create a vertical rule." target="_top">
<polygon fill="white" stroke="black" stroke-width="0.5" points="853.5,-334 794.5,-334 794.5,-308 853.5,-308 853.5,-334"/>
<text text-anchor="middle" x="824" y="-317.2" font-family="Vera Sans, DejaVu Sans, Liberation Sans, Arial, Helvetica, sans" font-size="16.00">Vrule</text>
</a>
</g>
</g>
<!-- Rule&#45;&gt;Vrule -->
<g id="edge46" class="edge">
<title>Rule&#45;&gt;Vrule</title>
<path fill="none" stroke="black" stroke-width="0.5" d="M649.8,-359.78C671.39,-355.45 702.72,-349.04 730,-343 749.52,-338.67 771.28,-333.55 788.84,-329.33"/>
<polygon fill="black" stroke="black" stroke-width="0.5" points="789.69,-330.92 794.14,-328.05 788.87,-327.52 789.69,-330.92"/>
</g>
<!-- MathTextParser -->
<g id="node30" class="node">
<title>MathTextParser</title>
<g id="a_node30"><a xlink:href="../api/mathtext_api.html#matplotlib.mathtext.MathTextParser" xlink:title="MathTextParser" target="_top">
<polygon fill="white" stroke="black" stroke-width="0.5" points="155,-909 16,-909 16,-883 155,-883 155,-909"/>
<text text-anchor="middle" x="85.5" y="-892.2" font-family="Vera Sans, DejaVu Sans, Liberation Sans, Arial, Helvetica, sans" font-size="16.00">MathTextParser</text>
</a>
</g>
</g>
<!-- MathTextWarning -->
<g id="node31" class="node">
<title>MathTextWarning</title>
<g id="a_node31"><a xlink:href="../api/mathtext_api.html#matplotlib.mathtext.MathTextWarning" xlink:title="MathTextWarning" target="_top">
<polygon fill="white" stroke="black" stroke-width="0.5" points="163,-964 8,-964 8,-938 163,-938 163,-964"/>
<text text-anchor="middle" x="85.5" y="-947.2" font-family="Vera Sans, DejaVu Sans, Liberation Sans, Arial, Helvetica, sans" font-size="16.00">MathTextWarning</text>
</a>
</g>
</g>
<!-- MathtextBackend -->
<g id="node32" class="node">
<title>MathtextBackend</title>
<g id="a_node32"><a xlink:href="../api/mathtext_api.html#matplotlib.mathtext.MathtextBackend" xlink:title="The base class for the mathtext backend&#45;specific code. &#160;`MathtextBackend`" target="_top">
<polygon fill="white" stroke="black" stroke-width="0.5" points="164.5,-1013 6.5,-1013 6.5,-987 164.5,-987 164.5,-1013"/>
<text text-anchor="middle" x="85.5" y="-996.2" font-family="Vera Sans, DejaVu Sans, Liberation Sans, Arial, Helvetica, sans" font-size="16.00">MathtextBackend</text>
</a>
</g>
</g>
<!-- MathtextBackendAgg -->
<g id="node33" class="node">
<title>MathtextBackendAgg</title>
<g id="a_node33"><a xlink:href="../api/mathtext_api.html#matplotlib.mathtext.MathtextBackendAgg" xlink:title="Render glyphs and rectangles to an FTImage buffer, which is later" target="_top">
<polygon fill="white" stroke="black" stroke-width="0.5" points="438,-1123 248,-1123 248,-1097 438,-1097 438,-1123"/>
<text text-anchor="middle" x="343" y="-1106.2" font-family="Vera Sans, DejaVu Sans, Liberation Sans, Arial, Helvetica, sans" font-size="16.00">MathtextBackendAgg</text>
</a>
</g>
</g>
<!-- MathtextBackend&#45;&gt;MathtextBackendAgg -->
<g id="edge23" class="edge">
<title>MathtextBackend&#45;&gt;MathtextBackendAgg</title>
<path fill="none" stroke="black" stroke-width="0.5" d="M156.51,-1013.17C161.67,-1015.63 166.58,-1018.55 171,-1022 197.33,-1042.57 179.74,-1068.68 207,-1088 217.69,-1095.58 230.04,-1100.91 242.85,-1104.61"/>
<polygon fill="black" stroke="black" stroke-width="0.5" points="242.68,-1106.38 247.97,-1106 243.6,-1103 242.68,-1106.38"/>
</g>
<!-- MathtextBackendCairo -->
<g id="node35" class="node">
<title>MathtextBackendCairo</title>
<g id="a_node35"><a xlink:href="../api/mathtext_api.html#matplotlib.mathtext.MathtextBackendCairo" xlink:title="Store information to write a mathtext rendering to the Cairo" target="_top">
<polygon fill="white" stroke="black" stroke-width="0.5" points="442.5,-1079 243.5,-1079 243.5,-1053 442.5,-1053 442.5,-1079"/>
<text text-anchor="middle" x="343" y="-1062.2" font-family="Vera Sans, DejaVu Sans, Liberation Sans, Arial, Helvetica, sans" font-size="16.00">MathtextBackendCairo</text>
</a>
</g>
</g>
<!-- MathtextBackend&#45;&gt;MathtextBackendCairo -->
<g id="edge25" class="edge">
<title>MathtextBackend&#45;&gt;MathtextBackendCairo</title>
<path fill="none" stroke="black" stroke-width="0.5" d="M145.88,-1013.09C154.45,-1015.66 163.05,-1018.62 171,-1022 188.26,-1029.33 189.42,-1037.48 207,-1044 216.94,-1047.69 227.53,-1050.76 238.22,-1053.31"/>
<polygon fill="black" stroke="black" stroke-width="0.5" points="237.88,-1055.03 243.14,-1054.45 238.67,-1051.62 237.88,-1055.03"/>
</g>
<!-- MathtextBackendPath -->
<g id="node36" class="node">
<title>MathtextBackendPath</title>
<g id="a_node36"><a xlink:href="../api/mathtext_api.html#matplotlib.mathtext.MathtextBackendPath" xlink:title="Store information to write a mathtext rendering to the text path" target="_top">
<polygon fill="white" stroke="black" stroke-width="0.5" points="439.5,-1035 246.5,-1035 246.5,-1009 439.5,-1009 439.5,-1035"/>
<text text-anchor="middle" x="343" y="-1018.2" font-family="Vera Sans, DejaVu Sans, Liberation Sans, Arial, Helvetica, sans" font-size="16.00">MathtextBackendPath</text>
</a>
</g>
</g>
<!-- MathtextBackend&#45;&gt;MathtextBackendPath -->
<g id="edge26" class="edge">
<title>MathtextBackend&#45;&gt;MathtextBackendPath</title>
<path fill="none" stroke="black" stroke-width="0.5" d="M164.55,-1006.72C188.76,-1008.81 215.8,-1011.13 241.32,-1013.33"/>
<polygon fill="black" stroke="black" stroke-width="0.5" points="241.28,-1015.08 246.41,-1013.77 241.58,-1011.6 241.28,-1015.08"/>
</g>
<!-- MathtextBackendPdf -->
<g id="node37" class="node">
<title>MathtextBackendPdf</title>
<g id="a_node37"><a xlink:href="../api/mathtext_api.html#matplotlib.mathtext.MathtextBackendPdf" xlink:title="Store information to write a mathtext rendering to the PDF backend." target="_top">
<polygon fill="white" stroke="black" stroke-width="0.5" points="435,-991 251,-991 251,-965 435,-965 435,-991"/>
<text text-anchor="middle" x="343" y="-974.2" font-family="Vera Sans, DejaVu Sans, Liberation Sans, Arial, Helvetica, sans" font-size="16.00">MathtextBackendPdf</text>
</a>
</g>
</g>
<!-- MathtextBackend&#45;&gt;MathtextBackendPdf -->
<g id="edge27" class="edge">
<title>MathtextBackend&#45;&gt;MathtextBackendPdf</title>
<path fill="none" stroke="black" stroke-width="0.5" d="M164.55,-993.28C190.24,-991.07 219.12,-988.58 245.99,-986.27"/>
<polygon fill="black" stroke="black" stroke-width="0.5" points="246.16,-988.01 250.99,-985.84 245.86,-984.52 246.16,-988.01"/>
</g>
<!-- MathtextBackendPs -->
<g id="node38" class="node">
<title>MathtextBackendPs</title>
<g id="a_node38"><a xlink:href="../api/mathtext_api.html#matplotlib.mathtext.MathtextBackendPs" xlink:title="Store information to write a mathtext rendering to the PostScript backend." target="_top">
<polygon fill="white" stroke="black" stroke-width="0.5" points="430.5,-947 255.5,-947 255.5,-921 430.5,-921 430.5,-947"/>
<text text-anchor="middle" x="343" y="-930.2" font-family="Vera Sans, DejaVu Sans, Liberation Sans, Arial, Helvetica, sans" font-size="16.00">MathtextBackendPs</text>
</a>
</g>
</g>
<!-- MathtextBackend&#45;&gt;MathtextBackendPs -->
<g id="edge28" class="edge">
<title>MathtextBackend&#45;&gt;MathtextBackendPs</title>
<path fill="none" stroke="black" stroke-width="0.5" d="M131.18,-986.93C144.15,-982.82 158.25,-978.02 171,-973 187.46,-966.52 190.1,-961.25 207,-956 220.85,-951.69 235.78,-948.19 250.49,-945.35"/>
<polygon fill="black" stroke="black" stroke-width="0.5" points="250.87,-947.06 255.46,-944.41 250.23,-943.62 250.87,-947.06"/>
</g>
<!-- MathtextBackendSvg -->
<g id="node39" class="node">
<title>MathtextBackendSvg</title>
<g id="a_node39"><a xlink:href="../api/mathtext_api.html#matplotlib.mathtext.MathtextBackendSvg" xlink:title="Store information to write a mathtext rendering to the SVG" target="_top">
<polygon fill="white" stroke="black" stroke-width="0.5" points="437,-903 249,-903 249,-877 437,-877 437,-903"/>
<text text-anchor="middle" x="343" y="-886.2" font-family="Vera Sans, DejaVu Sans, Liberation Sans, Arial, Helvetica, sans" font-size="16.00">MathtextBackendSvg</text>
</a>
</g>
</g>
<!-- MathtextBackend&#45;&gt;MathtextBackendSvg -->
<g id="edge29" class="edge">
<title>MathtextBackend&#45;&gt;MathtextBackendSvg</title>
<path fill="none" stroke="black" stroke-width="0.5" d="M146.55,-986.89C155.3,-983.31 163.78,-978.76 171,-973 195.61,-953.37 181.01,-929.76 207,-912 218.09,-904.42 230.86,-899.12 244.04,-895.45"/>
<polygon fill="black" stroke="black" stroke-width="0.5" points="244.52,-897.14 248.91,-894.18 243.63,-893.75 244.52,-897.14"/>
</g>
<!-- MathtextBackendBitmap -->
<g id="node34" class="node">
<title>MathtextBackendBitmap</title>
<g id="a_node34"><a xlink:href="../api/mathtext_api.html#matplotlib.mathtext.MathtextBackendBitmap" xlink:title="MathtextBackendBitmap" target="_top">
<polygon fill="white" stroke="black" stroke-width="0.5" points="730,-1123 515,-1123 515,-1097 730,-1097 730,-1123"/>
<text text-anchor="middle" x="622.5" y="-1106.2" font-family="Vera Sans, DejaVu Sans, Liberation Sans, Arial, Helvetica, sans" font-size="16.00">MathtextBackendBitmap</text>
</a>
</g>
</g>
<!-- MathtextBackendAgg&#45;&gt;MathtextBackendBitmap -->
<g id="edge24" class="edge">
<title>MathtextBackendAgg&#45;&gt;MathtextBackendBitmap</title>
<path fill="none" stroke="black" stroke-width="0.5" d="M438.34,-1110C461.22,-1110 485.91,-1110 509.52,-1110"/>
<polygon fill="black" stroke="black" stroke-width="0.5" points="509.54,-1111.75 514.54,-1110 509.54,-1108.25 509.54,-1111.75"/>
</g>
<!-- Parser -->
<g id="node43" class="node">
<title>Parser</title>
<g id="a_node43"><a xlink:href="../api/mathtext_api.html#matplotlib.mathtext.Parser" xlink:title="A pyparsing&#45;based parser for strings containing math expressions." target="_top">
<polygon fill="white" stroke="black" stroke-width="0.5" points="119,-1057 52,-1057 52,-1031 119,-1031 119,-1057"/>
<text text-anchor="middle" x="85.5" y="-1040.2" font-family="Vera Sans, DejaVu Sans, Liberation Sans, Arial, Helvetica, sans" font-size="16.00">Parser</text>
</a>
</g>
</g>
<!-- Ship -->
<g id="node46" class="node">
<title>Ship</title>
<g id="a_node46"><a xlink:href="../api/mathtext_api.html#matplotlib.mathtext.Ship" xlink:title="Ship boxes to output once they have been set up, this sends them to output." target="_top">
<polygon fill="white" stroke="black" stroke-width="0.5" points="112.5,-1101 58.5,-1101 58.5,-1075 112.5,-1075 112.5,-1101"/>
<text text-anchor="middle" x="85.5" y="-1084.2" font-family="Vera Sans, DejaVu Sans, Liberation Sans, Arial, Helvetica, sans" font-size="16.00">Ship</text>
</a>
</g>
</g>
<!-- StixSansFonts -->
<g id="node50" class="node">
<title>StixSansFonts</title>
<g id="a_node50"><a xlink:href="../api/mathtext_api.html#matplotlib.mathtext.StixSansFonts" xlink:title="A font handling class for the STIX fonts (that uses sans&#45;serif" target="_top">
<polygon fill="white" stroke="black" stroke-width="0.5" points="1060.5,-612 930.5,-612 930.5,-586 1060.5,-586 1060.5,-612"/>
<text text-anchor="middle" x="995.5" y="-595.2" font-family="Vera Sans, DejaVu Sans, Liberation Sans, Arial, Helvetica, sans" font-size="16.00">StixSansFonts</text>
</a>
</g>
</g>
<!-- StixFonts&#45;&gt;StixSansFonts -->
<g id="edge39" class="edge">
<title>StixFonts&#45;&gt;StixSansFonts</title>
<path fill="none" stroke="black" stroke-width="0.5" d="M869.53,-599C886.48,-599 906.22,-599 924.93,-599"/>
<polygon fill="black" stroke="black" stroke-width="0.5" points="925.18,-600.75 930.18,-599 925.18,-597.25 925.18,-600.75"/>
</g>
<!-- VCentered -->
<g id="node52" class="node">
<title>VCentered</title>
<g id="a_node52"><a xlink:href="../api/mathtext_api.html#matplotlib.mathtext.VCentered" xlink:title="A convenience class to create a `Vlist` whose contents are" target="_top">
<polygon fill="white" stroke="black" stroke-width="0.5" points="1046,-389 945,-389 945,-363 1046,-363 1046,-389"/>
<text text-anchor="middle" x="995.5" y="-372.2" font-family="Vera Sans, DejaVu Sans, Liberation Sans, Arial, Helvetica, sans" font-size="16.00">VCentered</text>
</a>
</g>
</g>
<!-- Vlist&#45;&gt;VCentered -->
<g id="edge43" class="edge">
<title>Vlist&#45;&gt;VCentered</title>
<path fill="none" stroke="black" stroke-width="0.5" d="M851.11,-403.92C874.64,-399.34 909.99,-392.45 939.7,-386.67"/>
<polygon fill="black" stroke="black" stroke-width="0.5" points="940.23,-388.35 944.8,-385.68 939.56,-384.91 940.23,-388.35"/>
</g>
</g>
</svg>
