<?xml version="1.0" encoding="UTF-8" standalone="no"?>
<!DOCTYPE svg PUBLIC "-//W3C//DTD SVG 1.1//EN"
 "http://www.w3.org/Graphics/SVG/1.1/DTD/svg11.dtd">
<!-- Generated by graphviz version 2.42.4 (0)
 -->
<!-- Title: inheritance796647343e Pages: 1 -->
<svg width="576pt" height="580pt"
 viewBox="0.00 0.00 576.00 579.55" xmlns="http://www.w3.org/2000/svg" xmlns:xlink="http://www.w3.org/1999/xlink">
<g id="graph0" class="graph" transform="scale(0.59 0.59) rotate(0) translate(4 976)">
<title>inheritance796647343e</title>
<!-- AutoLocator -->
<g id="node1" class="node">
<title>AutoLocator</title>
<g id="a_node1"><a xlink:href="../api/ticker_api.html#matplotlib.ticker.AutoLocator" xlink:title="Dynamically find major tick positions. This is actually a subclass" target="_top">
<polygon fill="white" stroke="black" stroke-width="0.5" points="669.5,-972 555.5,-972 555.5,-946 669.5,-946 669.5,-972"/>
<text text-anchor="middle" x="612.5" y="-955.2" font-family="Vera Sans, DejaVu Sans, Liberation Sans, Arial, Helvetica, sans" font-size="16.00">AutoLocator</text>
</a>
</g>
</g>
<!-- MaxNLocator -->
<g id="node2" class="node">
<title>MaxNLocator</title>
<g id="a_node2"><a xlink:href="../api/ticker_api.html#matplotlib.ticker.MaxNLocator" xlink:title="Select no more than N intervals at nice locations." target="_top">
<polygon fill="white" stroke="black" stroke-width="0.5" points="433,-950 311,-950 311,-924 433,-924 433,-950"/>
<text text-anchor="middle" x="372" y="-933.2" font-family="Vera Sans, DejaVu Sans, Liberation Sans, Arial, Helvetica, sans" font-size="16.00">MaxNLocator</text>
</a>
</g>
</g>
<!-- MaxNLocator&#45;&gt;AutoLocator -->
<g id="edge1" class="edge">
<title>MaxNLocator&#45;&gt;AutoLocator</title>
<path fill="none" stroke="black" stroke-width="0.5" d="M433.18,-942.55C468.96,-945.85 514.22,-950.03 550.19,-953.34"/>
<polygon fill="black" stroke="black" stroke-width="0.5" points="550.29,-955.11 555.43,-953.83 550.61,-951.63 550.29,-955.11"/>
</g>
<!-- LogitLocator -->
<g id="node21" class="node">
<title>LogitLocator</title>
<g id="a_node21"><a xlink:href="../api/ticker_api.html#matplotlib.ticker.LogitLocator" xlink:title="Determine the tick locations for logit axes" target="_top">
<polygon fill="white" stroke="black" stroke-width="0.5" points="670.5,-928 554.5,-928 554.5,-902 670.5,-902 670.5,-928"/>
<text text-anchor="middle" x="612.5" y="-911.2" font-family="Vera Sans, DejaVu Sans, Liberation Sans, Arial, Helvetica, sans" font-size="16.00">LogitLocator</text>
</a>
</g>
</g>
<!-- MaxNLocator&#45;&gt;LogitLocator -->
<g id="edge19" class="edge">
<title>MaxNLocator&#45;&gt;LogitLocator</title>
<path fill="none" stroke="black" stroke-width="0.5" d="M433.18,-931.45C468.56,-928.18 513.23,-924.07 549,-920.77"/>
<polygon fill="black" stroke="black" stroke-width="0.5" points="549.39,-922.49 554.21,-920.28 549.07,-919 549.39,-922.49"/>
</g>
<!-- AutoMinorLocator -->
<g id="node3" class="node">
<title>AutoMinorLocator</title>
<g id="a_node3"><a xlink:href="../api/ticker_api.html#matplotlib.ticker.AutoMinorLocator" xlink:title="Dynamically find minor tick positions based on the positions of" target="_top">
<polygon fill="white" stroke="black" stroke-width="0.5" points="451.5,-906 292.5,-906 292.5,-880 451.5,-880 451.5,-906"/>
<text text-anchor="middle" x="372" y="-889.2" font-family="Vera Sans, DejaVu Sans, Liberation Sans, Arial, Helvetica, sans" font-size="16.00">AutoMinorLocator</text>
</a>
</g>
</g>
<!-- Locator -->
<g id="node4" class="node">
<title>Locator</title>
<g id="a_node4"><a xlink:href="../api/ticker_api.html#matplotlib.ticker.Locator" xlink:title="Determine the tick locations;" target="_top">
<polygon fill="white" stroke="black" stroke-width="0.5" points="223,-730 146,-730 146,-704 223,-704 223,-730"/>
<text text-anchor="middle" x="184.5" y="-713.2" font-family="Vera Sans, DejaVu Sans, Liberation Sans, Arial, Helvetica, sans" font-size="16.00">Locator</text>
</a>
</g>
</g>
<!-- Locator&#45;&gt;MaxNLocator -->
<g id="edge20" class="edge">
<title>Locator&#45;&gt;MaxNLocator</title>
<path fill="none" stroke="black" stroke-width="0.5" d="M186.83,-730.05C191.19,-765.73 208.42,-865.5 268,-915 278.71,-923.9 292.16,-929.45 305.78,-932.86"/>
<polygon fill="black" stroke="black" stroke-width="0.5" points="305.53,-934.6 310.8,-934.02 306.32,-931.19 305.53,-934.6"/>
</g>
<!-- Locator&#45;&gt;AutoMinorLocator -->
<g id="edge2" class="edge">
<title>Locator&#45;&gt;AutoMinorLocator</title>
<path fill="none" stroke="black" stroke-width="0.5" d="M188.54,-730.2C196.2,-760.32 219.27,-834.36 268,-871 273.94,-875.46 280.58,-879.07 287.57,-881.97"/>
<polygon fill="black" stroke="black" stroke-width="0.5" points="287.15,-883.68 292.45,-883.86 288.42,-880.42 287.15,-883.68"/>
</g>
<!-- FixedLocator -->
<g id="node8" class="node">
<title>FixedLocator</title>
<g id="a_node8"><a xlink:href="../api/ticker_api.html#matplotlib.ticker.FixedLocator" xlink:title="Tick locations are fixed. &#160;If nbins is not None," target="_top">
<polygon fill="white" stroke="black" stroke-width="0.5" points="431.5,-862 312.5,-862 312.5,-836 431.5,-836 431.5,-862"/>
<text text-anchor="middle" x="372" y="-845.2" font-family="Vera Sans, DejaVu Sans, Liberation Sans, Arial, Helvetica, sans" font-size="16.00">FixedLocator</text>
</a>
</g>
</g>
<!-- Locator&#45;&gt;FixedLocator -->
<g id="edge5" class="edge">
<title>Locator&#45;&gt;FixedLocator</title>
<path fill="none" stroke="black" stroke-width="0.5" d="M191.5,-730.29C202.85,-753.81 229.79,-802.57 268,-827 279.73,-834.5 293.6,-839.49 307.29,-842.79"/>
<polygon fill="black" stroke="black" stroke-width="0.5" points="307.06,-844.53 312.32,-843.93 307.83,-841.12 307.06,-844.53"/>
</g>
<!-- IndexLocator -->
<g id="node13" class="node">
<title>IndexLocator</title>
<g id="a_node13"><a xlink:href="../api/ticker_api.html#matplotlib.ticker.IndexLocator" xlink:title="Place a tick on every multiple of some base number of points" target="_top">
<polygon fill="white" stroke="black" stroke-width="0.5" points="433,-818 311,-818 311,-792 433,-792 433,-818"/>
<text text-anchor="middle" x="372" y="-801.2" font-family="Vera Sans, DejaVu Sans, Liberation Sans, Arial, Helvetica, sans" font-size="16.00">IndexLocator</text>
</a>
</g>
</g>
<!-- Locator&#45;&gt;IndexLocator -->
<g id="edge10" class="edge">
<title>Locator&#45;&gt;IndexLocator</title>
<path fill="none" stroke="black" stroke-width="0.5" d="M197.9,-730.09C213.01,-745.21 239.99,-769.72 268,-783 279.74,-788.57 292.9,-792.74 305.79,-795.86"/>
<polygon fill="black" stroke="black" stroke-width="0.5" points="305.64,-797.62 310.9,-797.05 306.43,-794.21 305.64,-797.62"/>
</g>
<!-- LinearLocator -->
<g id="node14" class="node">
<title>LinearLocator</title>
<g id="a_node14"><a xlink:href="../api/ticker_api.html#matplotlib.ticker.LinearLocator" xlink:title="Determine the tick locations" target="_top">
<polygon fill="white" stroke="black" stroke-width="0.5" points="435.5,-774 308.5,-774 308.5,-748 435.5,-748 435.5,-774"/>
<text text-anchor="middle" x="372" y="-757.2" font-family="Vera Sans, DejaVu Sans, Liberation Sans, Arial, Helvetica, sans" font-size="16.00">LinearLocator</text>
</a>
</g>
</g>
<!-- Locator&#45;&gt;LinearLocator -->
<g id="edge11" class="edge">
<title>Locator&#45;&gt;LinearLocator</title>
<path fill="none" stroke="black" stroke-width="0.5" d="M223.18,-727.48C237.21,-731.26 253.3,-735.47 268,-739 279.36,-741.73 291.46,-744.46 303.23,-747.03"/>
<polygon fill="black" stroke="black" stroke-width="0.5" points="302.99,-748.77 308.25,-748.12 303.73,-745.35 302.99,-748.77"/>
</g>
<!-- LogLocator -->
<g id="node19" class="node">
<title>LogLocator</title>
<g id="a_node19"><a xlink:href="../api/ticker_api.html#matplotlib.ticker.LogLocator" xlink:title="Determine the tick locations for log axes" target="_top">
<polygon fill="white" stroke="black" stroke-width="0.5" points="425,-730 319,-730 319,-704 425,-704 425,-730"/>
<text text-anchor="middle" x="372" y="-713.2" font-family="Vera Sans, DejaVu Sans, Liberation Sans, Arial, Helvetica, sans" font-size="16.00">LogLocator</text>
</a>
</g>
</g>
<!-- Locator&#45;&gt;LogLocator -->
<g id="edge17" class="edge">
<title>Locator&#45;&gt;LogLocator</title>
<path fill="none" stroke="black" stroke-width="0.5" d="M223.04,-717C249.06,-717 284.19,-717 313.7,-717"/>
<polygon fill="black" stroke="black" stroke-width="0.5" points="313.76,-718.75 318.76,-717 313.76,-715.25 313.76,-718.75"/>
</g>
<!-- MultipleLocator -->
<g id="node22" class="node">
<title>MultipleLocator</title>
<g id="a_node22"><a xlink:href="../api/ticker_api.html#matplotlib.ticker.MultipleLocator" xlink:title="Set a tick on each integer multiple of a base within the view interval." target="_top">
<polygon fill="white" stroke="black" stroke-width="0.5" points="442,-686 302,-686 302,-660 442,-660 442,-686"/>
<text text-anchor="middle" x="372" y="-669.2" font-family="Vera Sans, DejaVu Sans, Liberation Sans, Arial, Helvetica, sans" font-size="16.00">MultipleLocator</text>
</a>
</g>
</g>
<!-- Locator&#45;&gt;MultipleLocator -->
<g id="edge21" class="edge">
<title>Locator&#45;&gt;MultipleLocator</title>
<path fill="none" stroke="black" stroke-width="0.5" d="M223.18,-706.52C237.21,-702.74 253.3,-698.53 268,-695 279.12,-692.33 290.96,-689.65 302.5,-687.13"/>
<polygon fill="black" stroke="black" stroke-width="0.5" points="302.91,-688.83 307.43,-686.06 302.17,-685.41 302.91,-688.83"/>
</g>
<!-- NullLocator -->
<g id="node24" class="node">
<title>NullLocator</title>
<g id="a_node24"><a xlink:href="../api/ticker_api.html#matplotlib.ticker.NullLocator" xlink:title="No ticks" target="_top">
<polygon fill="white" stroke="black" stroke-width="0.5" points="426,-642 318,-642 318,-616 426,-616 426,-642"/>
<text text-anchor="middle" x="372" y="-625.2" font-family="Vera Sans, DejaVu Sans, Liberation Sans, Arial, Helvetica, sans" font-size="16.00">NullLocator</text>
</a>
</g>
</g>
<!-- Locator&#45;&gt;NullLocator -->
<g id="edge23" class="edge">
<title>Locator&#45;&gt;NullLocator</title>
<path fill="none" stroke="black" stroke-width="0.5" d="M197.9,-703.91C213.01,-688.79 239.99,-664.28 268,-651 281.88,-644.42 297.74,-639.79 312.79,-636.54"/>
<polygon fill="black" stroke="black" stroke-width="0.5" points="313.32,-638.22 317.86,-635.49 312.61,-634.79 313.32,-638.22"/>
</g>
<!-- OldAutoLocator -->
<g id="node25" class="node">
<title>OldAutoLocator</title>
<g id="a_node25"><a xlink:href="../api/ticker_api.html#matplotlib.ticker.OldAutoLocator" xlink:title="On autoscale this class picks the best MultipleLocator to set the" target="_top">
<polygon fill="white" stroke="black" stroke-width="0.5" points="443,-598 301,-598 301,-572 443,-572 443,-598"/>
<text text-anchor="middle" x="372" y="-581.2" font-family="Vera Sans, DejaVu Sans, Liberation Sans, Arial, Helvetica, sans" font-size="16.00">OldAutoLocator</text>
</a>
</g>
</g>
<!-- Locator&#45;&gt;OldAutoLocator -->
<g id="edge24" class="edge">
<title>Locator&#45;&gt;OldAutoLocator</title>
<path fill="none" stroke="black" stroke-width="0.5" d="M191.5,-703.71C202.85,-680.19 229.79,-631.43 268,-607 276.47,-601.58 286.06,-597.48 295.89,-594.37"/>
<polygon fill="black" stroke="black" stroke-width="0.5" points="296.44,-596.03 300.73,-592.92 295.44,-592.68 296.44,-596.03"/>
</g>
<!-- SymmetricalLogLocator -->
<g id="node30" class="node">
<title>SymmetricalLogLocator</title>
<g id="a_node30"><a xlink:href="../api/ticker_api.html#matplotlib.ticker.SymmetricalLogLocator" xlink:title="Determine the tick locations for symmetric log axes" target="_top">
<polygon fill="white" stroke="black" stroke-width="0.5" points="476,-554 268,-554 268,-528 476,-528 476,-554"/>
<text text-anchor="middle" x="372" y="-537.2" font-family="Vera Sans, DejaVu Sans, Liberation Sans, Arial, Helvetica, sans" font-size="16.00">SymmetricalLogLocator</text>
</a>
</g>
</g>
<!-- Locator&#45;&gt;SymmetricalLogLocator -->
<g id="edge29" class="edge">
<title>Locator&#45;&gt;SymmetricalLogLocator</title>
<path fill="none" stroke="black" stroke-width="0.5" d="M188.54,-703.8C196.2,-673.68 219.27,-599.64 268,-563 271.17,-560.62 274.53,-558.49 278.04,-556.57"/>
<polygon fill="black" stroke="black" stroke-width="0.5" points="279.25,-557.92 282.92,-554.1 277.67,-554.8 279.25,-557.92"/>
</g>
<!-- EngFormatter -->
<g id="node5" class="node">
<title>EngFormatter</title>
<g id="a_node5"><a xlink:href="../api/ticker_api.html#matplotlib.ticker.EngFormatter" xlink:title="Formats axis values using engineering prefixes to represent powers" target="_top">
<polygon fill="white" stroke="black" stroke-width="0.5" points="435,-510 309,-510 309,-484 435,-484 435,-510"/>
<text text-anchor="middle" x="372" y="-493.2" font-family="Vera Sans, DejaVu Sans, Liberation Sans, Arial, Helvetica, sans" font-size="16.00">EngFormatter</text>
</a>
</g>
</g>
<!-- Formatter -->
<g id="node6" class="node">
<title>Formatter</title>
<g id="a_node6"><a xlink:href="../api/ticker_api.html#matplotlib.ticker.Formatter" xlink:title="Create a string based on a tick value and location." target="_top">
<polygon fill="white" stroke="black" stroke-width="0.5" points="232,-290 137,-290 137,-264 232,-264 232,-290"/>
<text text-anchor="middle" x="184.5" y="-273.2" font-family="Vera Sans, DejaVu Sans, Liberation Sans, Arial, Helvetica, sans" font-size="16.00">Formatter</text>
</a>
</g>
</g>
<!-- Formatter&#45;&gt;EngFormatter -->
<g id="edge3" class="edge">
<title>Formatter&#45;&gt;EngFormatter</title>
<path fill="none" stroke="black" stroke-width="0.5" d="M186.83,-290.05C191.19,-325.73 208.42,-425.5 268,-475 278.18,-483.46 290.84,-488.89 303.76,-492.34"/>
<polygon fill="black" stroke="black" stroke-width="0.5" points="303.64,-494.11 308.92,-493.6 304.48,-490.71 303.64,-494.11"/>
</g>
<!-- FixedFormatter -->
<g id="node7" class="node">
<title>FixedFormatter</title>
<g id="a_node7"><a xlink:href="../api/ticker_api.html#matplotlib.ticker.FixedFormatter" xlink:title="Return fixed strings for tick labels based only on position, not value." target="_top">
<polygon fill="white" stroke="black" stroke-width="0.5" points="440.5,-466 303.5,-466 303.5,-440 440.5,-440 440.5,-466"/>
<text text-anchor="middle" x="372" y="-449.2" font-family="Vera Sans, DejaVu Sans, Liberation Sans, Arial, Helvetica, sans" font-size="16.00">FixedFormatter</text>
</a>
</g>
</g>
<!-- Formatter&#45;&gt;FixedFormatter -->
<g id="edge4" class="edge">
<title>Formatter&#45;&gt;FixedFormatter</title>
<path fill="none" stroke="black" stroke-width="0.5" d="M188.54,-290.2C196.2,-320.32 219.27,-394.36 268,-431 276.94,-437.72 287.48,-442.48 298.35,-445.84"/>
<polygon fill="black" stroke="black" stroke-width="0.5" points="298.07,-447.58 303.36,-447.29 299.04,-444.22 298.07,-447.58"/>
</g>
<!-- FormatStrFormatter -->
<g id="node9" class="node">
<title>FormatStrFormatter</title>
<g id="a_node9"><a xlink:href="../api/ticker_api.html#matplotlib.ticker.FormatStrFormatter" xlink:title="Use an old&#45;style (&#39;%&#39; operator) format string to format the tick." target="_top">
<polygon fill="white" stroke="black" stroke-width="0.5" points="459.5,-422 284.5,-422 284.5,-396 459.5,-396 459.5,-422"/>
<text text-anchor="middle" x="372" y="-405.2" font-family="Vera Sans, DejaVu Sans, Liberation Sans, Arial, Helvetica, sans" font-size="16.00">FormatStrFormatter</text>
</a>
</g>
</g>
<!-- Formatter&#45;&gt;FormatStrFormatter -->
<g id="edge6" class="edge">
<title>Formatter&#45;&gt;FormatStrFormatter</title>
<path fill="none" stroke="black" stroke-width="0.5" d="M191.5,-290.29C202.85,-313.81 229.79,-362.57 268,-387 272.02,-389.57 276.28,-391.84 280.71,-393.85"/>
<polygon fill="black" stroke="black" stroke-width="0.5" points="280.28,-395.57 285.56,-395.93 281.66,-392.36 280.28,-395.57"/>
</g>
<!-- FuncFormatter -->
<g id="node11" class="node">
<title>FuncFormatter</title>
<g id="a_node11"><a xlink:href="../api/ticker_api.html#matplotlib.ticker.FuncFormatter" xlink:title="Use a user&#45;defined function for formatting." target="_top">
<polygon fill="white" stroke="black" stroke-width="0.5" points="439,-378 305,-378 305,-352 439,-352 439,-378"/>
<text text-anchor="middle" x="372" y="-361.2" font-family="Vera Sans, DejaVu Sans, Liberation Sans, Arial, Helvetica, sans" font-size="16.00">FuncFormatter</text>
</a>
</g>
</g>
<!-- Formatter&#45;&gt;FuncFormatter -->
<g id="edge8" class="edge">
<title>Formatter&#45;&gt;FuncFormatter</title>
<path fill="none" stroke="black" stroke-width="0.5" d="M197.9,-290.09C213.01,-305.21 239.99,-329.72 268,-343 277.96,-347.72 288.94,-351.44 299.9,-354.36"/>
<polygon fill="black" stroke="black" stroke-width="0.5" points="299.66,-356.11 304.94,-355.65 300.53,-352.71 299.66,-356.11"/>
</g>
<!-- IndexFormatter -->
<g id="node12" class="node">
<title>IndexFormatter</title>
<g id="a_node12"><a xlink:href="../api/ticker_api.html#matplotlib.ticker.IndexFormatter" xlink:title="Format the position x to the nearest i&#45;th label where ``i = int(x + 0.5)``." target="_top">
<polygon fill="white" stroke="black" stroke-width="0.5" points="442,-334 302,-334 302,-308 442,-308 442,-334"/>
<text text-anchor="middle" x="372" y="-317.2" font-family="Vera Sans, DejaVu Sans, Liberation Sans, Arial, Helvetica, sans" font-size="16.00">IndexFormatter</text>
</a>
</g>
</g>
<!-- Formatter&#45;&gt;IndexFormatter -->
<g id="edge9" class="edge">
<title>Formatter&#45;&gt;IndexFormatter</title>
<path fill="none" stroke="black" stroke-width="0.5" d="M232.08,-289.86C243.78,-292.97 256.32,-296.2 268,-299 279.12,-301.67 290.96,-304.35 302.5,-306.87"/>
<polygon fill="black" stroke="black" stroke-width="0.5" points="302.17,-308.59 307.43,-307.94 302.91,-305.17 302.17,-308.59"/>
</g>
<!-- LogFormatter -->
<g id="node15" class="node">
<title>LogFormatter</title>
<g id="a_node15"><a xlink:href="../api/ticker_api.html#matplotlib.ticker.LogFormatter" xlink:title="Base class for formatting ticks on a log or symlog scale." target="_top">
<polygon fill="white" stroke="black" stroke-width="0.5" points="434.5,-290 309.5,-290 309.5,-264 434.5,-264 434.5,-290"/>
<text text-anchor="middle" x="372" y="-273.2" font-family="Vera Sans, DejaVu Sans, Liberation Sans, Arial, Helvetica, sans" font-size="16.00">LogFormatter</text>
</a>
</g>
</g>
<!-- Formatter&#45;&gt;LogFormatter -->
<g id="edge13" class="edge">
<title>Formatter&#45;&gt;LogFormatter</title>
<path fill="none" stroke="black" stroke-width="0.5" d="M232.31,-277C254.15,-277 280.55,-277 304.42,-277"/>
<polygon fill="black" stroke="black" stroke-width="0.5" points="304.47,-278.75 309.47,-277 304.47,-275.25 304.47,-278.75"/>
</g>
<!-- LogitFormatter -->
<g id="node20" class="node">
<title>LogitFormatter</title>
<g id="a_node20"><a xlink:href="../api/ticker_api.html#matplotlib.ticker.LogitFormatter" xlink:title="Probability formatter (using Math text)." target="_top">
<polygon fill="white" stroke="black" stroke-width="0.5" points="439.5,-246 304.5,-246 304.5,-220 439.5,-220 439.5,-246"/>
<text text-anchor="middle" x="372" y="-229.2" font-family="Vera Sans, DejaVu Sans, Liberation Sans, Arial, Helvetica, sans" font-size="16.00">LogitFormatter</text>
</a>
</g>
</g>
<!-- Formatter&#45;&gt;LogitFormatter -->
<g id="edge18" class="edge">
<title>Formatter&#45;&gt;LogitFormatter</title>
<path fill="none" stroke="black" stroke-width="0.5" d="M232.08,-264.14C243.78,-261.03 256.32,-257.8 268,-255 279.12,-252.33 290.96,-249.65 302.5,-247.13"/>
<polygon fill="black" stroke="black" stroke-width="0.5" points="302.91,-248.83 307.43,-246.06 302.17,-245.41 302.91,-248.83"/>
</g>
<!-- NullFormatter -->
<g id="node23" class="node">
<title>NullFormatter</title>
<g id="a_node23"><a xlink:href="../api/ticker_api.html#matplotlib.ticker.NullFormatter" xlink:title="Always return the empty string." target="_top">
<polygon fill="white" stroke="black" stroke-width="0.5" points="435.5,-202 308.5,-202 308.5,-176 435.5,-176 435.5,-202"/>
<text text-anchor="middle" x="372" y="-185.2" font-family="Vera Sans, DejaVu Sans, Liberation Sans, Arial, Helvetica, sans" font-size="16.00">NullFormatter</text>
</a>
</g>
</g>
<!-- Formatter&#45;&gt;NullFormatter -->
<g id="edge22" class="edge">
<title>Formatter&#45;&gt;NullFormatter</title>
<path fill="none" stroke="black" stroke-width="0.5" d="M197.9,-263.91C213.01,-248.79 239.99,-224.28 268,-211 278.99,-205.79 291.22,-201.81 303.3,-198.76"/>
<polygon fill="black" stroke="black" stroke-width="0.5" points="304.02,-200.38 308.47,-197.51 303.2,-196.98 304.02,-200.38"/>
</g>
<!-- OldScalarFormatter -->
<g id="node26" class="node">
<title>OldScalarFormatter</title>
<g id="a_node26"><a xlink:href="../api/ticker_api.html#matplotlib.ticker.OldScalarFormatter" xlink:title="Tick location is a plain old number." target="_top">
<polygon fill="white" stroke="black" stroke-width="0.5" points="458.5,-158 285.5,-158 285.5,-132 458.5,-132 458.5,-158"/>
<text text-anchor="middle" x="372" y="-141.2" font-family="Vera Sans, DejaVu Sans, Liberation Sans, Arial, Helvetica, sans" font-size="16.00">OldScalarFormatter</text>
</a>
</g>
</g>
<!-- Formatter&#45;&gt;OldScalarFormatter -->
<g id="edge25" class="edge">
<title>Formatter&#45;&gt;OldScalarFormatter</title>
<path fill="none" stroke="black" stroke-width="0.5" d="M191.5,-263.71C202.85,-240.19 229.79,-191.43 268,-167 272.02,-164.43 276.28,-162.16 280.71,-160.15"/>
<polygon fill="black" stroke="black" stroke-width="0.5" points="281.66,-161.64 285.56,-158.07 280.28,-158.43 281.66,-161.64"/>
</g>
<!-- PercentFormatter -->
<g id="node27" class="node">
<title>PercentFormatter</title>
<g id="a_node27"><a xlink:href="../api/ticker_api.html#matplotlib.ticker.PercentFormatter" xlink:title="Format numbers as a percentage." target="_top">
<polygon fill="white" stroke="black" stroke-width="0.5" points="449.5,-114 294.5,-114 294.5,-88 449.5,-88 449.5,-114"/>
<text text-anchor="middle" x="372" y="-97.2" font-family="Vera Sans, DejaVu Sans, Liberation Sans, Arial, Helvetica, sans" font-size="16.00">PercentFormatter</text>
</a>
</g>
</g>
<!-- Formatter&#45;&gt;PercentFormatter -->
<g id="edge26" class="edge">
<title>Formatter&#45;&gt;PercentFormatter</title>
<path fill="none" stroke="black" stroke-width="0.5" d="M188.54,-263.8C196.2,-233.68 219.27,-159.64 268,-123 274.48,-118.13 281.79,-114.29 289.47,-111.26"/>
<polygon fill="black" stroke="black" stroke-width="0.5" points="290.21,-112.86 294.29,-109.48 289,-109.57 290.21,-112.86"/>
</g>
<!-- ScalarFormatter -->
<g id="node28" class="node">
<title>ScalarFormatter</title>
<g id="a_node28"><a xlink:href="../api/ticker_api.html#matplotlib.ticker.ScalarFormatter" xlink:title="Format tick values as a number." target="_top">
<polygon fill="white" stroke="black" stroke-width="0.5" points="445,-70 299,-70 299,-44 445,-44 445,-70"/>
<text text-anchor="middle" x="372" y="-53.2" font-family="Vera Sans, DejaVu Sans, Liberation Sans, Arial, Helvetica, sans" font-size="16.00">ScalarFormatter</text>
</a>
</g>
</g>
<!-- Formatter&#45;&gt;ScalarFormatter -->
<g id="edge27" class="edge">
<title>Formatter&#45;&gt;ScalarFormatter</title>
<path fill="none" stroke="black" stroke-width="0.5" d="M186.83,-263.95C191.19,-228.27 208.42,-128.5 268,-79 275.55,-72.73 284.45,-68.12 293.82,-64.76"/>
<polygon fill="black" stroke="black" stroke-width="0.5" points="294.57,-66.35 298.75,-63.11 293.46,-63.03 294.57,-66.35"/>
</g>
<!-- StrMethodFormatter -->
<g id="node29" class="node">
<title>StrMethodFormatter</title>
<g id="a_node29"><a xlink:href="../api/ticker_api.html#matplotlib.ticker.StrMethodFormatter" xlink:title="Use a new&#45;style format string (as used by `str.format()`)" target="_top">
<polygon fill="white" stroke="black" stroke-width="0.5" points="461.5,-26 282.5,-26 282.5,0 461.5,0 461.5,-26"/>
<text text-anchor="middle" x="372" y="-9.2" font-family="Vera Sans, DejaVu Sans, Liberation Sans, Arial, Helvetica, sans" font-size="16.00">StrMethodFormatter</text>
</a>
</g>
</g>
<!-- Formatter&#45;&gt;StrMethodFormatter -->
<g id="edge28" class="edge">
<title>Formatter&#45;&gt;StrMethodFormatter</title>
<path fill="none" stroke="black" stroke-width="0.5" d="M185.73,-263.84C187.19,-223.03 197.48,-97.64 268,-35 271.01,-32.33 274.26,-29.95 277.69,-27.84"/>
<polygon fill="black" stroke="black" stroke-width="0.5" points="278.99,-29.12 282.47,-25.13 277.26,-26.07 278.99,-29.12"/>
</g>
<!-- TickHelper -->
<g id="node10" class="node">
<title>TickHelper</title>
<g id="a_node10"><a xlink:href="../api/ticker_api.html#matplotlib.ticker.TickHelper" xlink:title="TickHelper" target="_top">
<polygon fill="white" stroke="black" stroke-width="0.5" points="101,-510 0,-510 0,-484 101,-484 101,-510"/>
<text text-anchor="middle" x="50.5" y="-493.2" font-family="Vera Sans, DejaVu Sans, Liberation Sans, Arial, Helvetica, sans" font-size="16.00">TickHelper</text>
</a>
</g>
</g>
<!-- TickHelper&#45;&gt;Locator -->
<g id="edge12" class="edge">
<title>TickHelper&#45;&gt;Locator</title>
<path fill="none" stroke="black" stroke-width="0.5" d="M59.36,-510.1C82.01,-547.86 147.43,-656.89 173.04,-699.57"/>
<polygon fill="black" stroke="black" stroke-width="0.5" points="171.61,-700.58 175.68,-703.97 174.61,-698.78 171.61,-700.58"/>
</g>
<!-- TickHelper&#45;&gt;Formatter -->
<g id="edge7" class="edge">
<title>TickHelper&#45;&gt;Formatter</title>
<path fill="none" stroke="black" stroke-width="0.5" d="M59.36,-483.9C82.01,-446.14 147.43,-337.11 173.04,-294.43"/>
<polygon fill="black" stroke="black" stroke-width="0.5" points="174.61,-295.22 175.68,-290.03 171.61,-293.42 174.61,-295.22"/>
</g>
<!-- LogFormatterExponent -->
<g id="node16" class="node">
<title>LogFormatterExponent</title>
<g id="a_node16"><a xlink:href="../api/ticker_api.html#matplotlib.ticker.LogFormatterExponent" xlink:title="Format values for log axis using ``exponent = log_base(value)``." target="_top">
<polygon fill="white" stroke="black" stroke-width="0.5" points="713,-312 512,-312 512,-286 713,-286 713,-312"/>
<text text-anchor="middle" x="612.5" y="-295.2" font-family="Vera Sans, DejaVu Sans, Liberation Sans, Arial, Helvetica, sans" font-size="16.00">LogFormatterExponent</text>
</a>
</g>
</g>
<!-- LogFormatter&#45;&gt;LogFormatterExponent -->
<g id="edge14" class="edge">
<title>LogFormatter&#45;&gt;LogFormatterExponent</title>
<path fill="none" stroke="black" stroke-width="0.5" d="M434.73,-282.69C456.64,-284.71 481.95,-287.05 506.45,-289.31"/>
<polygon fill="black" stroke="black" stroke-width="0.5" points="506.52,-291.07 511.66,-289.79 506.84,-287.59 506.52,-291.07"/>
</g>
<!-- LogFormatterMathtext -->
<g id="node17" class="node">
<title>LogFormatterMathtext</title>
<g id="a_node17"><a xlink:href="../api/ticker_api.html#matplotlib.ticker.LogFormatterMathtext" xlink:title="Format values for log axis using ``exponent = log_base(value)``." target="_top">
<polygon fill="white" stroke="black" stroke-width="0.5" points="710.5,-268 514.5,-268 514.5,-242 710.5,-242 710.5,-268"/>
<text text-anchor="middle" x="612.5" y="-251.2" font-family="Vera Sans, DejaVu Sans, Liberation Sans, Arial, Helvetica, sans" font-size="16.00">LogFormatterMathtext</text>
</a>
</g>
</g>
<!-- LogFormatter&#45;&gt;LogFormatterMathtext -->
<g id="edge15" class="edge">
<title>LogFormatter&#45;&gt;LogFormatterMathtext</title>
<path fill="none" stroke="black" stroke-width="0.5" d="M434.73,-271.31C457.5,-269.21 483.96,-266.76 509.35,-264.42"/>
<polygon fill="black" stroke="black" stroke-width="0.5" points="509.6,-266.16 514.42,-263.96 509.28,-262.67 509.6,-266.16"/>
</g>
<!-- LogFormatterSciNotation -->
<g id="node18" class="node">
<title>LogFormatterSciNotation</title>
<g id="a_node18"><a xlink:href="../api/ticker_api.html#matplotlib.ticker.LogFormatterSciNotation" xlink:title="Format values following scientific notation in a logarithmic axis." target="_top">
<polygon fill="white" stroke="black" stroke-width="0.5" points="966,-268 749,-268 749,-242 966,-242 966,-268"/>
<text text-anchor="middle" x="857.5" y="-251.2" font-family="Vera Sans, DejaVu Sans, Liberation Sans, Arial, Helvetica, sans" font-size="16.00">LogFormatterSciNotation</text>
</a>
</g>
</g>
<!-- LogFormatterMathtext&#45;&gt;LogFormatterSciNotation -->
<g id="edge16" class="edge">
<title>LogFormatterMathtext&#45;&gt;LogFormatterSciNotation</title>
<path fill="none" stroke="black" stroke-width="0.5" d="M710.59,-255C721.48,-255 732.64,-255 743.71,-255"/>
<polygon fill="black" stroke="black" stroke-width="0.5" points="743.79,-256.75 748.79,-255 743.79,-253.25 743.79,-256.75"/>
</g>
</g>
</svg>
