<?xml version="1.0" encoding="UTF-8" standalone="no"?>
<!DOCTYPE svg PUBLIC "-//W3C//DTD SVG 1.1//EN"
 "http://www.w3.org/Graphics/SVG/1.1/DTD/svg11.dtd">
<!-- Generated by graphviz version 2.42.4 (0)
 -->
<!-- Title: inheritanced42bccc26f Pages: 1 -->
<svg width="576pt" height="151pt"
 viewBox="0.00 0.00 576.00 150.81" xmlns="http://www.w3.org/2000/svg" xmlns:xlink="http://www.w3.org/1999/xlink">
<g id="graph0" class="graph" transform="scale(0.91 0.91) rotate(0) translate(4 162)">
<title>inheritanced42bccc26f</title>
<!-- matplotlib.artist.Artist -->
<g id="node1" class="node">
<title>matplotlib.artist.Artist</title>
<g id="a_node1"><a xlink:href="../artist_api.html#matplotlib.artist.Artist" xlink:title="Abstract base class for objects that render into a FigureCanvas." target="_top">
<polygon fill="white" stroke="black" stroke-width="0.5" points="193,-92 0,-92 0,-66 193,-66 193,-92"/>
<text text-anchor="middle" x="96.5" y="-75.2" font-family="Vera Sans, DejaVu Sans, Liberation Sans, Arial, Helvetica, sans" font-size="16.00">matplotlib.artist.Artist</text>
</a>
</g>
</g>
<!-- matplotlib.axis.Axis -->
<g id="node2" class="node">
<title>matplotlib.axis.Axis</title>
<g id="a_node2"><a xlink:href="../api/axis_api.html#matplotlib.axis.Axis" xlink:title="Base class for `.XAxis` and `.YAxis`." target="_top">
<polygon fill="white" stroke="black" stroke-width="0.5" points="404,-114 229,-114 229,-88 404,-88 404,-114"/>
<text text-anchor="middle" x="316.5" y="-97.2" font-family="Vera Sans, DejaVu Sans, Liberation Sans, Arial, Helvetica, sans" font-size="16.00">matplotlib.axis.Axis</text>
</a>
</g>
</g>
<!-- matplotlib.artist.Artist&#45;&gt;matplotlib.axis.Axis -->
<g id="edge1" class="edge">
<title>matplotlib.artist.Artist&#45;&gt;matplotlib.axis.Axis</title>
<path fill="none" stroke="black" stroke-width="0.5" d="M193.12,-88.65C203.34,-89.68 213.73,-90.73 223.9,-91.76"/>
<polygon fill="black" stroke="black" stroke-width="0.5" points="223.73,-93.5 228.88,-92.26 224.08,-90.02 223.73,-93.5"/>
</g>
<!-- matplotlib.axis.Tick -->
<g id="node3" class="node">
<title>matplotlib.axis.Tick</title>
<g id="a_node3"><a xlink:href="../api/axis_api.html#matplotlib.axis.Tick" xlink:title="Abstract base class for the axis ticks, grid lines and labels." target="_top">
<polygon fill="white" stroke="black" stroke-width="0.5" points="403,-70 230,-70 230,-44 403,-44 403,-70"/>
<text text-anchor="middle" x="316.5" y="-53.2" font-family="Vera Sans, DejaVu Sans, Liberation Sans, Arial, Helvetica, sans" font-size="16.00">matplotlib.axis.Tick</text>
</a>
</g>
</g>
<!-- matplotlib.artist.Artist&#45;&gt;matplotlib.axis.Tick -->
<g id="edge2" class="edge">
<title>matplotlib.artist.Artist&#45;&gt;matplotlib.axis.Tick</title>
<path fill="none" stroke="black" stroke-width="0.5" d="M193.12,-69.35C203.64,-68.29 214.33,-67.21 224.78,-66.15"/>
<polygon fill="black" stroke="black" stroke-width="0.5" points="225.1,-67.88 229.9,-65.64 224.75,-64.4 225.1,-67.88"/>
</g>
<!-- matplotlib.axis.XAxis -->
<g id="node5" class="node">
<title>matplotlib.axis.XAxis</title>
<g id="a_node5"><a xlink:href="../api/axis_api.html#matplotlib.axis.XAxis" xlink:title="matplotlib.axis.XAxis" target="_top">
<polygon fill="white" stroke="black" stroke-width="0.5" points="626,-158 440,-158 440,-132 626,-132 626,-158"/>
<text text-anchor="middle" x="533" y="-141.2" font-family="Vera Sans, DejaVu Sans, Liberation Sans, Arial, Helvetica, sans" font-size="16.00">matplotlib.axis.XAxis</text>
</a>
</g>
</g>
<!-- matplotlib.axis.Axis&#45;&gt;matplotlib.axis.XAxis -->
<g id="edge3" class="edge">
<title>matplotlib.axis.Axis&#45;&gt;matplotlib.axis.XAxis</title>
<path fill="none" stroke="black" stroke-width="0.5" d="M380.99,-114.02C406.81,-119.32 436.73,-125.46 463.08,-130.86"/>
<polygon fill="black" stroke="black" stroke-width="0.5" points="463.06,-132.64 468.31,-131.93 463.76,-129.22 463.06,-132.64"/>
</g>
<!-- matplotlib.axis.YAxis -->
<g id="node7" class="node">
<title>matplotlib.axis.YAxis</title>
<g id="a_node7"><a xlink:href="../api/axis_api.html#matplotlib.axis.YAxis" xlink:title="matplotlib.axis.YAxis" target="_top">
<polygon fill="white" stroke="black" stroke-width="0.5" points="624.5,-114 441.5,-114 441.5,-88 624.5,-88 624.5,-114"/>
<text text-anchor="middle" x="533" y="-97.2" font-family="Vera Sans, DejaVu Sans, Liberation Sans, Arial, Helvetica, sans" font-size="16.00">matplotlib.axis.YAxis</text>
</a>
</g>
</g>
<!-- matplotlib.axis.Axis&#45;&gt;matplotlib.axis.YAxis -->
<g id="edge5" class="edge">
<title>matplotlib.axis.Axis&#45;&gt;matplotlib.axis.YAxis</title>
<path fill="none" stroke="black" stroke-width="0.5" d="M404.13,-101C414.62,-101 425.38,-101 436,-101"/>
<polygon fill="black" stroke="black" stroke-width="0.5" points="436.2,-102.75 441.2,-101 436.2,-99.25 436.2,-102.75"/>
</g>
<!-- matplotlib.axis.XTick -->
<g id="node6" class="node">
<title>matplotlib.axis.XTick</title>
<g id="a_node6"><a xlink:href="../api/axis_api.html#matplotlib.axis.XTick" xlink:title="Contains all the Artists needed to make an x tick &#45; the tick line," target="_top">
<polygon fill="white" stroke="black" stroke-width="0.5" points="624.5,-70 441.5,-70 441.5,-44 624.5,-44 624.5,-70"/>
<text text-anchor="middle" x="533" y="-53.2" font-family="Vera Sans, DejaVu Sans, Liberation Sans, Arial, Helvetica, sans" font-size="16.00">matplotlib.axis.XTick</text>
</a>
</g>
</g>
<!-- matplotlib.axis.Tick&#45;&gt;matplotlib.axis.XTick -->
<g id="edge4" class="edge">
<title>matplotlib.axis.Tick&#45;&gt;matplotlib.axis.XTick</title>
<path fill="none" stroke="black" stroke-width="0.5" d="M403.2,-57C414.03,-57 425.16,-57 436.13,-57"/>
<polygon fill="black" stroke="black" stroke-width="0.5" points="436.16,-58.75 441.16,-57 436.16,-55.25 436.16,-58.75"/>
</g>
<!-- matplotlib.axis.YTick -->
<g id="node8" class="node">
<title>matplotlib.axis.YTick</title>
<g id="a_node8"><a xlink:href="../api/axis_api.html#matplotlib.axis.YTick" xlink:title="Contains all the Artists needed to make a Y tick &#45; the tick line," target="_top">
<polygon fill="white" stroke="black" stroke-width="0.5" points="624,-26 442,-26 442,0 624,0 624,-26"/>
<text text-anchor="middle" x="533" y="-9.2" font-family="Vera Sans, DejaVu Sans, Liberation Sans, Arial, Helvetica, sans" font-size="16.00">matplotlib.axis.YTick</text>
</a>
</g>
</g>
<!-- matplotlib.axis.Tick&#45;&gt;matplotlib.axis.YTick -->
<g id="edge6" class="edge">
<title>matplotlib.axis.Tick&#45;&gt;matplotlib.axis.YTick</title>
<path fill="none" stroke="black" stroke-width="0.5" d="M380.99,-43.98C406.81,-38.68 436.73,-32.54 463.08,-27.14"/>
<polygon fill="black" stroke="black" stroke-width="0.5" points="463.76,-28.78 468.31,-26.07 463.06,-25.36 463.76,-28.78"/>
</g>
<!-- matplotlib.axis.Ticker -->
<g id="node4" class="node">
<title>matplotlib.axis.Ticker</title>
<g id="a_node4"><a xlink:href="../api/axis_api.html#matplotlib.axis.Ticker" xlink:title="A container for the objects defining tick position and format." target="_top">
<polygon fill="white" stroke="black" stroke-width="0.5" points="191,-136 2,-136 2,-110 191,-110 191,-136"/>
<text text-anchor="middle" x="96.5" y="-119.2" font-family="Vera Sans, DejaVu Sans, Liberation Sans, Arial, Helvetica, sans" font-size="16.00">matplotlib.axis.Ticker</text>
</a>
</g>
</g>
</g>
</svg>
