<?xml version="1.0" encoding="UTF-8" standalone="no"?>
<!DOCTYPE svg PUBLIC "-//W3C//DTD SVG 1.1//EN"
 "http://www.w3.org/Graphics/SVG/1.1/DTD/svg11.dtd">
<!-- Generated by graphviz version 2.42.4 (0)
 -->
<!-- Title: inheritance8c8e6f1f96 Pages: 1 -->
<svg width="576pt" height="97pt"
 viewBox="0.00 0.00 576.00 96.52" xmlns="http://www.w3.org/2000/svg" xmlns:xlink="http://www.w3.org/1999/xlink">
<g id="graph0" class="graph" transform="scale(0.52 0.52) rotate(0) translate(4 182)">
<title>inheritance8c8e6f1f96</title>
<!-- ABC -->
<g id="node1" class="node">
<title>ABC</title>
<g id="a_node1"><a xlink:title="Helper class that provides a standard way to create an ABC using">
<polygon fill="white" stroke="black" stroke-width="0.5" points="54,-114 0,-114 0,-88 54,-88 54,-114"/>
<text text-anchor="middle" x="27" y="-97.2" font-family="Vera Sans, DejaVu Sans, Liberation Sans, Arial, Helvetica, sans" font-size="16.00">ABC</text>
</a>
</g>
</g>
<!-- AbstractMovieWriter -->
<g id="node8" class="node">
<title>AbstractMovieWriter</title>
<g id="a_node8"><a xlink:href="../_as_gen/matplotlib.animation.AbstractMovieWriter.html#matplotlib.animation.AbstractMovieWriter" xlink:title="Abstract base class for writing movies. Fundamentally, what a MovieWriter" target="_top">
<polygon fill="white" stroke="black" stroke-width="0.5" points="270,-114 90,-114 90,-88 270,-88 270,-114"/>
<text text-anchor="middle" x="180" y="-97.2" font-family="Vera Sans, DejaVu Sans, Liberation Sans, Arial, Helvetica, sans" font-size="16.00">AbstractMovieWriter</text>
</a>
</g>
</g>
<!-- ABC&#45;&gt;AbstractMovieWriter -->
<g id="edge6" class="edge">
<title>ABC&#45;&gt;AbstractMovieWriter</title>
<path fill="none" stroke="black" stroke-width="0.5" d="M54.3,-101C63.17,-101 73.64,-101 84.68,-101"/>
<polygon fill="black" stroke="black" stroke-width="0.5" points="84.79,-102.75 89.79,-101 84.79,-99.25 84.79,-102.75"/>
</g>
<!-- AVConvBase -->
<g id="node2" class="node">
<title>AVConvBase</title>
<g id="a_node2"><a xlink:href="../_as_gen/matplotlib.animation.AVConvBase.html#matplotlib.animation.AVConvBase" xlink:title="Mixin class for avconv output." target="_top">
<polygon fill="white" stroke="black" stroke-width="0.5" points="870.5,-70 752.5,-70 752.5,-44 870.5,-44 870.5,-70"/>
<text text-anchor="middle" x="811.5" y="-53.2" font-family="Vera Sans, DejaVu Sans, Liberation Sans, Arial, Helvetica, sans" font-size="16.00">AVConvBase</text>
</a>
</g>
</g>
<!-- AVConvFileWriter -->
<g id="node4" class="node">
<title>AVConvFileWriter</title>
<g id="a_node4"><a xlink:href="../_as_gen/matplotlib.animation.AVConvFileWriter.html#matplotlib.animation.AVConvFileWriter" xlink:title="File&#45;based avconv writer." target="_top">
<polygon fill="white" stroke="black" stroke-width="0.5" points="1102,-103 947,-103 947,-77 1102,-77 1102,-103"/>
<text text-anchor="middle" x="1024.5" y="-86.2" font-family="Vera Sans, DejaVu Sans, Liberation Sans, Arial, Helvetica, sans" font-size="16.00">AVConvFileWriter</text>
</a>
</g>
</g>
<!-- AVConvBase&#45;&gt;AVConvFileWriter -->
<g id="edge2" class="edge">
<title>AVConvBase&#45;&gt;AVConvFileWriter</title>
<path fill="none" stroke="black" stroke-width="0.5" d="M870.72,-66.1C892.69,-69.54 918.13,-73.52 941.86,-77.23"/>
<polygon fill="black" stroke="black" stroke-width="0.5" points="941.68,-78.98 946.89,-78.02 942.22,-75.52 941.68,-78.98"/>
</g>
<!-- AVConvWriter -->
<g id="node6" class="node">
<title>AVConvWriter</title>
<g id="a_node6"><a xlink:href="../_as_gen/matplotlib.animation.AVConvWriter.html#matplotlib.animation.AVConvWriter" xlink:title="Pipe&#45;based avconv writer." target="_top">
<polygon fill="white" stroke="black" stroke-width="0.5" points="1088.5,-48 960.5,-48 960.5,-22 1088.5,-22 1088.5,-48"/>
<text text-anchor="middle" x="1024.5" y="-31.2" font-family="Vera Sans, DejaVu Sans, Liberation Sans, Arial, Helvetica, sans" font-size="16.00">AVConvWriter</text>
</a>
</g>
</g>
<!-- AVConvBase&#45;&gt;AVConvWriter -->
<g id="edge4" class="edge">
<title>AVConvBase&#45;&gt;AVConvWriter</title>
<path fill="none" stroke="black" stroke-width="0.5" d="M870.72,-50.93C896.9,-48.2 927.98,-44.96 955.25,-42.12"/>
<polygon fill="black" stroke="black" stroke-width="0.5" points="955.5,-43.85 960.3,-41.59 955.14,-40.37 955.5,-43.85"/>
</g>
<!-- FFMpegBase -->
<g id="node3" class="node">
<title>FFMpegBase</title>
<g id="a_node3"><a xlink:href="../_as_gen/matplotlib.animation.FFMpegBase.html#matplotlib.animation.FFMpegBase" xlink:title="Mixin class for FFMpeg output." target="_top">
<polygon fill="white" stroke="black" stroke-width="0.5" points="649,-70 531,-70 531,-44 649,-44 649,-70"/>
<text text-anchor="middle" x="590" y="-53.2" font-family="Vera Sans, DejaVu Sans, Liberation Sans, Arial, Helvetica, sans" font-size="16.00">FFMpegBase</text>
</a>
</g>
</g>
<!-- FFMpegBase&#45;&gt;AVConvBase -->
<g id="edge1" class="edge">
<title>FFMpegBase&#45;&gt;AVConvBase</title>
<path fill="none" stroke="black" stroke-width="0.5" d="M649.25,-57C679.38,-57 716.22,-57 747.07,-57"/>
<polygon fill="black" stroke="black" stroke-width="0.5" points="747.36,-58.75 752.36,-57 747.36,-55.25 747.36,-58.75"/>
</g>
<!-- FFMpegFileWriter -->
<g id="node5" class="node">
<title>FFMpegFileWriter</title>
<g id="a_node5"><a xlink:href="../_as_gen/matplotlib.animation.FFMpegFileWriter.html#matplotlib.animation.FFMpegFileWriter" xlink:title="File&#45;based ffmpeg writer." target="_top">
<polygon fill="white" stroke="black" stroke-width="0.5" points="889,-114 734,-114 734,-88 889,-88 889,-114"/>
<text text-anchor="middle" x="811.5" y="-97.2" font-family="Vera Sans, DejaVu Sans, Liberation Sans, Arial, Helvetica, sans" font-size="16.00">FFMpegFileWriter</text>
</a>
</g>
</g>
<!-- FFMpegBase&#45;&gt;FFMpegFileWriter -->
<g id="edge7" class="edge">
<title>FFMpegBase&#45;&gt;FFMpegFileWriter</title>
<path fill="none" stroke="black" stroke-width="0.5" d="M649.25,-68.68C677.22,-74.28 710.97,-81.05 740.35,-86.94"/>
<polygon fill="black" stroke="black" stroke-width="0.5" points="740.15,-88.68 745.4,-87.95 740.84,-85.25 740.15,-88.68"/>
</g>
<!-- FFMpegWriter -->
<g id="node7" class="node">
<title>FFMpegWriter</title>
<g id="a_node7"><a xlink:href="../_as_gen/matplotlib.animation.FFMpegWriter.html#matplotlib.animation.FFMpegWriter" xlink:title="Pipe&#45;based ffmpeg writer." target="_top">
<polygon fill="white" stroke="black" stroke-width="0.5" points="875.5,-26 747.5,-26 747.5,0 875.5,0 875.5,-26"/>
<text text-anchor="middle" x="811.5" y="-9.2" font-family="Vera Sans, DejaVu Sans, Liberation Sans, Arial, Helvetica, sans" font-size="16.00">FFMpegWriter</text>
</a>
</g>
</g>
<!-- FFMpegBase&#45;&gt;FFMpegWriter -->
<g id="edge9" class="edge">
<title>FFMpegBase&#45;&gt;FFMpegWriter</title>
<path fill="none" stroke="black" stroke-width="0.5" d="M649.25,-45.32C677.82,-39.6 712.42,-32.66 742.23,-26.68"/>
<polygon fill="black" stroke="black" stroke-width="0.5" points="742.8,-28.36 747.35,-25.66 742.11,-24.92 742.8,-28.36"/>
</g>
<!-- FFMpegFileWriter&#45;&gt;AVConvFileWriter -->
<g id="edge3" class="edge">
<title>FFMpegFileWriter&#45;&gt;AVConvFileWriter</title>
<path fill="none" stroke="black" stroke-width="0.5" d="M889.27,-97C906.25,-96.11 924.31,-95.17 941.48,-94.28"/>
<polygon fill="black" stroke="black" stroke-width="0.5" points="941.88,-96.01 946.78,-94 941.7,-92.51 941.88,-96.01"/>
</g>
<!-- FFMpegWriter&#45;&gt;AVConvWriter -->
<g id="edge5" class="edge">
<title>FFMpegWriter&#45;&gt;AVConvWriter</title>
<path fill="none" stroke="black" stroke-width="0.5" d="M875.52,-19.57C900.68,-22.19 929.71,-25.22 955.36,-27.9"/>
<polygon fill="black" stroke="black" stroke-width="0.5" points="955.28,-29.65 960.44,-28.42 955.65,-26.17 955.28,-29.65"/>
</g>
<!-- MovieWriter -->
<g id="node10" class="node">
<title>MovieWriter</title>
<g id="a_node10"><a xlink:href="../_as_gen/matplotlib.animation.MovieWriter.html#matplotlib.animation.MovieWriter" xlink:title="Base class for writing movies." target="_top">
<polygon fill="white" stroke="black" stroke-width="0.5" points="443.5,-114 330.5,-114 330.5,-88 443.5,-88 443.5,-114"/>
<text text-anchor="middle" x="387" y="-97.2" font-family="Vera Sans, DejaVu Sans, Liberation Sans, Arial, Helvetica, sans" font-size="16.00">MovieWriter</text>
</a>
</g>
</g>
<!-- AbstractMovieWriter&#45;&gt;MovieWriter -->
<g id="edge16" class="edge">
<title>AbstractMovieWriter&#45;&gt;MovieWriter</title>
<path fill="none" stroke="black" stroke-width="0.5" d="M270.02,-101C288.63,-101 307.84,-101 325.14,-101"/>
<polygon fill="black" stroke="black" stroke-width="0.5" points="325.44,-102.75 330.44,-101 325.44,-99.25 325.44,-102.75"/>
</g>
<!-- FileMovieWriter -->
<g id="node9" class="node">
<title>FileMovieWriter</title>
<g id="a_node9"><a xlink:href="../_as_gen/matplotlib.animation.FileMovieWriter.html#matplotlib.animation.FileMovieWriter" xlink:title="`MovieWriter` for writing to individual files and stitching at the end." target="_top">
<polygon fill="white" stroke="black" stroke-width="0.5" points="660,-114 520,-114 520,-88 660,-88 660,-114"/>
<text text-anchor="middle" x="590" y="-97.2" font-family="Vera Sans, DejaVu Sans, Liberation Sans, Arial, Helvetica, sans" font-size="16.00">FileMovieWriter</text>
</a>
</g>
</g>
<!-- FileMovieWriter&#45;&gt;FFMpegFileWriter -->
<g id="edge8" class="edge">
<title>FileMovieWriter&#45;&gt;FFMpegFileWriter</title>
<path fill="none" stroke="black" stroke-width="0.5" d="M660.15,-101C681.88,-101 706.08,-101 728.61,-101"/>
<polygon fill="black" stroke="black" stroke-width="0.5" points="728.69,-102.75 733.69,-101 728.69,-99.25 728.69,-102.75"/>
</g>
<!-- ImageMagickFileWriter -->
<g id="node12" class="node">
<title>ImageMagickFileWriter</title>
<g id="a_node12"><a xlink:href="../_as_gen/matplotlib.animation.ImageMagickFileWriter.html#matplotlib.animation.ImageMagickFileWriter" xlink:title="File&#45;based animated gif writer." target="_top">
<polygon fill="white" stroke="black" stroke-width="0.5" points="911,-178 712,-178 712,-152 911,-152 911,-178"/>
<text text-anchor="middle" x="811.5" y="-161.2" font-family="Vera Sans, DejaVu Sans, Liberation Sans, Arial, Helvetica, sans" font-size="16.00">ImageMagickFileWriter</text>
</a>
</g>
</g>
<!-- FileMovieWriter&#45;&gt;ImageMagickFileWriter -->
<g id="edge13" class="edge">
<title>FileMovieWriter&#45;&gt;ImageMagickFileWriter</title>
<path fill="none" stroke="black" stroke-width="0.5" d="M643.25,-114.09C654.11,-116.93 665.45,-119.99 676,-123 706.12,-131.59 739.75,-142.1 765.85,-150.45"/>
<polygon fill="black" stroke="black" stroke-width="0.5" points="765.34,-152.12 770.64,-151.98 766.41,-148.79 765.34,-152.12"/>
</g>
<!-- MovieWriter&#45;&gt;FFMpegWriter -->
<g id="edge10" class="edge">
<title>MovieWriter&#45;&gt;FFMpegWriter</title>
<path fill="none" stroke="black" stroke-width="0.5" d="M405.33,-87.81C427.06,-72.08 466.08,-46.5 504,-35 583.2,-10.98 678.97,-7.99 742.14,-9.37"/>
<polygon fill="black" stroke="black" stroke-width="0.5" points="742.35,-11.12 747.39,-9.49 742.43,-7.62 742.35,-11.12"/>
</g>
<!-- MovieWriter&#45;&gt;FileMovieWriter -->
<g id="edge11" class="edge">
<title>MovieWriter&#45;&gt;FileMovieWriter</title>
<path fill="none" stroke="black" stroke-width="0.5" d="M443.72,-101C465.65,-101 491.15,-101 514.61,-101"/>
<polygon fill="black" stroke="black" stroke-width="0.5" points="514.9,-102.75 519.9,-101 514.9,-99.25 514.9,-102.75"/>
</g>
<!-- ImageMagickWriter -->
<g id="node13" class="node">
<title>ImageMagickWriter</title>
<g id="a_node13"><a xlink:href="../_as_gen/matplotlib.animation.ImageMagickWriter.html#matplotlib.animation.ImageMagickWriter" xlink:title="Pipe&#45;based animated gif." target="_top">
<polygon fill="white" stroke="black" stroke-width="0.5" points="676,-158 504,-158 504,-132 676,-132 676,-158"/>
<text text-anchor="middle" x="590" y="-141.2" font-family="Vera Sans, DejaVu Sans, Liberation Sans, Arial, Helvetica, sans" font-size="16.00">ImageMagickWriter</text>
</a>
</g>
</g>
<!-- MovieWriter&#45;&gt;ImageMagickWriter -->
<g id="edge15" class="edge">
<title>MovieWriter&#45;&gt;ImageMagickWriter</title>
<path fill="none" stroke="black" stroke-width="0.5" d="M443.72,-113.2C468.67,-118.66 498.23,-125.13 524.16,-130.81"/>
<polygon fill="black" stroke="black" stroke-width="0.5" points="524.04,-132.57 529.3,-131.93 524.79,-129.15 524.04,-132.57"/>
</g>
<!-- ImageMagickBase -->
<g id="node11" class="node">
<title>ImageMagickBase</title>
<g id="a_node11"><a xlink:href="../_as_gen/matplotlib.animation.ImageMagickBase.html#matplotlib.animation.ImageMagickBase" xlink:title="Mixin class for ImageMagick output." target="_top">
<polygon fill="white" stroke="black" stroke-width="0.5" points="468,-178 306,-178 306,-152 468,-152 468,-178"/>
<text text-anchor="middle" x="387" y="-161.2" font-family="Vera Sans, DejaVu Sans, Liberation Sans, Arial, Helvetica, sans" font-size="16.00">ImageMagickBase</text>
</a>
</g>
</g>
<!-- ImageMagickBase&#45;&gt;ImageMagickFileWriter -->
<g id="edge12" class="edge">
<title>ImageMagickBase&#45;&gt;ImageMagickFileWriter</title>
<path fill="none" stroke="black" stroke-width="0.5" d="M468.18,-166.56C480.19,-166.74 492.42,-166.9 504,-167 580.44,-167.66 599.56,-167.57 676,-167 685.93,-166.93 696.28,-166.82 706.63,-166.7"/>
<polygon fill="black" stroke="black" stroke-width="0.5" points="706.73,-168.45 711.71,-166.64 706.68,-164.95 706.73,-168.45"/>
</g>
<!-- ImageMagickBase&#45;&gt;ImageMagickWriter -->
<g id="edge14" class="edge">
<title>ImageMagickBase&#45;&gt;ImageMagickWriter</title>
<path fill="none" stroke="black" stroke-width="0.5" d="M468.02,-157.04C478.18,-156.03 488.63,-154.99 498.94,-153.96"/>
<polygon fill="black" stroke="black" stroke-width="0.5" points="499.18,-155.7 503.98,-153.46 498.83,-152.21 499.18,-155.7"/>
</g>
</g>
</svg>
